<svg width="38" height="38" viewBox="0 0 38 38" fill="none" xmlns="http://www.w3.org/2000/svg">
<g filter="url(#filter0_dd_3322_61226)">
<rect x="4" y="3" width="30" height="30" rx="5" fill="white"/>
<rect x="4.5" y="3.5" width="29" height="29" rx="4.5" stroke="#97144D"/>
</g>
<path d="M11.4971 20C10.8408 20 10.8408 19 11.4971 19C12.1533 19 12.1533 20 11.4971 20ZM23.0049 19.5469C23.5752 20.2812 23.0908 21.2578 22.1611 21.2578C22.0674 21.2578 21.8955 21.25 21.8252 21.1797C21.8486 21.4375 21.6143 21.7656 21.4346 21.9297C21.1611 22.1875 20.8174 22.3047 20.4424 22.2734C20.2627 22.875 19.583 23.2031 18.9971 23C18.7471 23.25 18.3721 23.3672 18.0205 23.3672C17.3408 23.3672 16.7236 22.9609 16.2471 22.5L13.9268 20.2187C13.6533 19.9531 13.3408 20 12.9971 20V15.75H14.208L15.4424 14.5156C15.7705 14.1875 16.2158 14 16.6768 14C17.2002 14 17.7861 13.9141 18.2705 14.1641L16.8877 15.7734C16.2783 16.4844 16.2783 17.5156 16.8721 18.2344C17.708 19.2344 19.2471 19.2578 20.1064 18.2812L21.083 17.1875C21.7861 17.9219 22.3877 18.7422 23.0049 19.5469ZM24.2471 20C24.2002 19.5937 24.0205 19.2187 23.7783 18.9062C23.3955 18.4141 23.0205 17.9062 22.6299 17.4219C22.3408 17.0781 22.0205 16.7422 21.7236 16.3984C21.8877 15.8906 21.2314 15.5156 20.8721 15.9141L19.3643 17.6172C18.9033 18.1328 18.083 18.125 17.6377 17.5937C17.3564 17.25 17.3564 16.7656 17.6455 16.4219L19.2783 14.5234C19.5596 14.1953 19.9814 14 20.4189 14H21.7236C22.2236 14 22.7158 14.2187 23.0439 14.5937L24.2705 16H24.9971V20H24.2471ZM26.4971 20C25.8408 20 25.8408 19 26.4971 19C27.1533 19 27.1533 20 26.4971 20ZM27.9971 15.5C27.9971 15.2266 27.7705 15 27.4971 15H24.7236C23.8252 13.9687 23.208 13 21.7236 13H20.4189C19.9111 13 19.4189 13.1562 19.0049 13.4375C18.5908 13.1562 18.0986 13 17.5908 13H16.6768C15.3174 13 14.6924 13.8437 13.7861 14.75H10.4971C10.2236 14.75 9.99707 14.9766 9.99707 15.25V20.5C9.99707 20.7734 10.2236 21 10.4971 21H13.2939L15.5361 23.2031C16.4971 24.1484 17.9502 24.7813 19.2393 24.0547C19.9346 24.1016 20.6299 23.7734 21.0596 23.2266C21.6377 23.1016 22.1533 22.7266 22.4893 22.2344C23.208 22.1328 23.8252 21.6797 24.1064 21H27.4971C27.7705 21 27.9971 20.7734 27.9971 20.5V15.5Z" fill="#97144D"/>
<defs>
<filter id="filter0_dd_3322_61226" x="0" y="0" width="38" height="38" filterUnits="userSpaceOnUse" color-interpolation-filters="sRGB">
<feFlood flood-opacity="0" result="BackgroundImageFix"/>
<feColorMatrix in="SourceAlpha" type="matrix" values="0 0 0 0 0 0 0 0 0 0 0 0 0 0 0 0 0 0 127 0" result="hardAlpha"/>
<feOffset dy="1"/>
<feGaussianBlur stdDeviation="1"/>
<feComposite in2="hardAlpha" operator="out"/>
<feColorMatrix type="matrix" values="0 0 0 0 0 0 0 0 0 0 0 0 0 0 0 0 0 0 0.3 0"/>
<feBlend mode="normal" in2="BackgroundImageFix" result="effect1_dropShadow_3322_61226"/>
<feColorMatrix in="SourceAlpha" type="matrix" values="0 0 0 0 0 0 0 0 0 0 0 0 0 0 0 0 0 0 127 0" result="hardAlpha"/>
<feMorphology radius="1" operator="dilate" in="SourceAlpha" result="effect2_dropShadow_3322_61226"/>
<feOffset dy="1"/>
<feGaussianBlur stdDeviation="1.5"/>
<feComposite in2="hardAlpha" operator="out"/>
<feColorMatrix type="matrix" values="0 0 0 0 0 0 0 0 0 0 0 0 0 0 0 0 0 0 0.15 0"/>
<feBlend mode="normal" in2="effect1_dropShadow_3322_61226" result="effect2_dropShadow_3322_61226"/>
<feBlend mode="normal" in="SourceGraphic" in2="effect2_dropShadow_3322_61226" result="shape"/>
</filter>
</defs>
</svg>
