<svg width="68" height="43" viewBox="0 0 68 43" fill="none" xmlns="http://www.w3.org/2000/svg">
<path d="M5.66667 26.4735C3.1875 26.4735 3.1875 22.6916 5.66667 22.6916C8.14583 22.6916 8.14583 26.4735 5.66667 26.4735ZM49.1406 24.7598C51.2951 27.5372 49.4653 31.2305 45.9531 31.2305C45.599 31.2305 44.9497 31.2009 44.684 30.935C44.7726 31.9101 43.8871 33.151 43.2083 33.7715C42.1753 34.7465 40.8767 35.1897 39.4601 35.0715C38.7812 37.3466 36.2135 38.5875 34 37.8193C33.0556 38.7648 31.6389 39.208 30.3108 39.208C27.7431 39.208 25.4115 37.6716 23.6111 35.9284L14.8455 27.3008C13.8125 26.2963 12.6319 26.4735 11.3333 26.4735V10.4003H15.908L20.5712 5.73199C21.8108 4.49104 23.4931 3.78193 25.2344 3.78193C27.2118 3.78193 29.4253 3.45692 31.2552 4.4024L26.0312 10.489C23.7292 13.1777 23.7292 17.0778 25.9722 19.7961C29.1302 23.578 34.9444 23.6666 38.191 19.9733L41.8802 15.8368C44.5365 18.6142 46.809 21.7166 49.1406 24.7598ZM53.8333 26.4735C53.6562 24.9371 52.9774 23.5189 52.0625 22.337C50.6163 20.4756 49.1996 18.5551 47.724 16.7232C46.6319 15.4232 45.4219 14.1527 44.3003 12.8527C44.9201 10.9322 42.441 9.51392 41.0833 11.0208L35.3871 17.4619C33.6458 19.412 30.5469 19.3824 28.8646 17.3733C27.8021 16.0732 27.8021 14.2413 28.8941 12.9413L35.0625 5.76154C36.125 4.52059 37.7187 3.78193 39.3715 3.78193H44.3003C46.1892 3.78193 48.0486 4.60923 49.2882 6.02746L53.9219 11.3458H56.6667V26.4735H53.8333ZM62.3333 26.4735C59.8542 26.4735 59.8542 22.6916 62.3333 22.6916C64.8125 22.6916 64.8125 26.4735 62.3333 26.4735ZM68 9.45483C68 8.42071 67.1441 7.56387 66.1111 7.56387H55.6337C52.2396 3.66375 49.908 0 44.3003 0H39.3715C37.4531 0 35.5937 0.590925 34.0295 1.6546C32.4653 0.590925 30.6059 0 28.6875 0H25.2344C20.099 0 17.7378 3.19101 14.3142 6.61838H1.88889C0.855903 6.61838 0 7.47523 0 8.50935V28.3645C0 29.3986 0.855903 30.2555 1.88889 30.2555H12.4549L20.9253 38.5875C24.5556 42.1626 30.0451 44.5559 34.9149 41.8081C37.5417 41.9854 40.1684 40.7444 41.7917 38.6762C43.9757 38.2034 45.9236 36.7852 47.1927 34.9238C49.908 34.5397 52.2396 32.826 53.3021 30.2555H66.1111C67.1441 30.2555 68 29.3986 68 28.3645V9.45483Z" fill="#97144D"/>
</svg>
