<svg width="38" height="38" viewBox="0 0 38 38" fill="none" xmlns="http://www.w3.org/2000/svg">
<g filter="url(#filter0_dd_5112_77841)">
<rect x="4" y="3" width="30" height="30" rx="6" fill="#F5E8ED"/>
<rect x="4.5" y="3.5" width="29" height="29" rx="5.5" stroke="#97144D"/>
</g>
<path d="M12.3333 19.1566C11.75 19.1566 11.75 18.2771 12.3333 18.2771C12.9167 18.2771 12.9167 19.1566 12.3333 19.1566ZM22.5625 18.7581C23.0694 19.404 22.6389 20.2629 21.8125 20.2629C21.7292 20.2629 21.5764 20.256 21.5139 20.1942C21.5347 20.4209 21.3264 20.7095 21.1667 20.8538C20.9236 21.0806 20.6181 21.1837 20.2847 21.1562C20.125 21.6853 19.5208 21.9738 19 21.7952C18.7778 22.0151 18.4444 22.1181 18.1319 22.1181C17.5278 22.1181 16.9792 21.7608 16.5556 21.3554L14.4931 19.349C14.25 19.1154 13.9722 19.1566 13.6667 19.1566V15.4187H14.7431L15.8403 14.333C16.1319 14.0444 16.5278 13.8795 16.9375 13.8795C17.4028 13.8795 17.9236 13.8039 18.3542 14.0238L17.125 15.4393C16.5833 16.0646 16.5833 16.9716 17.1111 17.6037C17.8542 18.4833 19.2222 18.5039 19.9861 17.645L20.8542 16.683C21.4792 17.3289 22.0139 18.0504 22.5625 18.7581ZM23.6667 19.1566C23.625 18.7993 23.4653 18.4695 23.25 18.1947C22.9097 17.7618 22.5764 17.3151 22.2292 16.8891C21.9722 16.5868 21.6875 16.2913 21.4236 15.989C21.5694 15.5424 20.9861 15.2125 20.6667 15.563L19.3264 17.0609C18.9167 17.5144 18.1875 17.5075 17.7917 17.0403C17.5417 16.738 17.5417 16.3119 17.7986 16.0096L19.25 14.3399C19.5 14.0513 19.875 13.8795 20.2639 13.8795H21.4236C21.8681 13.8795 22.3056 14.0719 22.5972 14.4017L23.6875 15.6386H24.3333V19.1566H23.6667ZM25.6667 19.1566C25.0833 19.1566 25.0833 18.2771 25.6667 18.2771C26.25 18.2771 26.25 19.1566 25.6667 19.1566ZM27 15.1988C27 14.9583 26.7986 14.759 26.5556 14.759H24.0903C23.2917 13.852 22.7431 13 21.4236 13H20.2639C19.8125 13 19.375 13.1374 19.0069 13.3848C18.6389 13.1374 18.2014 13 17.75 13H16.9375C15.7292 13 15.1736 13.7421 14.3681 14.5392H11.4444C11.2014 14.5392 11 14.7384 11 14.9789V19.5964C11 19.8369 11.2014 20.0362 11.4444 20.0362H13.9306L15.9236 21.9738C16.7778 22.8053 18.0694 23.3618 19.2153 22.7228C19.8333 22.764 20.4514 22.4754 20.8333 21.9945C21.3472 21.8845 21.8056 21.5547 22.1042 21.1218C22.7431 21.0325 23.2917 20.634 23.5417 20.0362H26.5556C26.7986 20.0362 27 19.8369 27 19.5964V15.1988Z" fill="#97144D"/>
<defs>
<filter id="filter0_dd_5112_77841" x="0" y="0" width="38" height="38" filterUnits="userSpaceOnUse" color-interpolation-filters="sRGB">
<feFlood flood-opacity="0" result="BackgroundImageFix"/>
<feColorMatrix in="SourceAlpha" type="matrix" values="0 0 0 0 0 0 0 0 0 0 0 0 0 0 0 0 0 0 127 0" result="hardAlpha"/>
<feOffset dy="1"/>
<feGaussianBlur stdDeviation="1"/>
<feComposite in2="hardAlpha" operator="out"/>
<feColorMatrix type="matrix" values="0 0 0 0 0 0 0 0 0 0 0 0 0 0 0 0 0 0 0.3 0"/>
<feBlend mode="normal" in2="BackgroundImageFix" result="effect1_dropShadow_5112_77841"/>
<feColorMatrix in="SourceAlpha" type="matrix" values="0 0 0 0 0 0 0 0 0 0 0 0 0 0 0 0 0 0 127 0" result="hardAlpha"/>
<feMorphology radius="1" operator="dilate" in="SourceAlpha" result="effect2_dropShadow_5112_77841"/>
<feOffset dy="1"/>
<feGaussianBlur stdDeviation="1.5"/>
<feComposite in2="hardAlpha" operator="out"/>
<feColorMatrix type="matrix" values="0 0 0 0 0 0 0 0 0 0 0 0 0 0 0 0 0 0 0.15 0"/>
<feBlend mode="normal" in2="effect1_dropShadow_5112_77841" result="effect2_dropShadow_5112_77841"/>
<feBlend mode="normal" in="SourceGraphic" in2="effect2_dropShadow_5112_77841" result="shape"/>
</filter>
</defs>
</svg>
