<svg width="69" height="30" viewBox="0 0 69 30" fill="none" xmlns="http://www.w3.org/2000/svg">
<rect x="1" y="1" width="67" height="28" rx="6" fill="white"/>
<rect x="3" y="3" width="33" height="24" rx="4" fill="#97144D"/>
<path d="M14.458 16.27L13.578 13.865C13.5347 13.7583 13.4897 13.6317 13.443 13.485C13.3963 13.3383 13.3497 13.18 13.303 13.01C13.2597 13.18 13.2147 13.34 13.168 13.49C13.1213 13.6367 13.0763 13.765 13.033 13.875L12.158 16.27H14.458ZM16.833 19H15.793C15.6763 19 15.5813 18.9717 15.508 18.915C15.4347 18.855 15.3797 18.7817 15.343 18.695L14.803 17.22H11.808L11.268 18.695C11.2413 18.7717 11.1897 18.8417 11.113 18.905C11.0363 18.9683 10.9413 19 10.828 19H9.77801L12.623 11.77H13.993L16.833 19ZM22.8164 17.89V19H18.5814V11.77H19.9264V17.89H22.8164ZM29.0117 17.89V19H24.7767V11.77H26.1217V17.89H29.0117Z" fill="white"/>
<rect width="27" height="24" transform="translate(36 3)" fill="white"/>
<path d="M45.508 17.95C45.758 17.95 45.968 17.92 46.138 17.86C46.308 17.8 46.443 17.72 46.543 17.62C46.6464 17.52 46.7197 17.4033 46.763 17.27C46.8097 17.1367 46.833 16.995 46.833 16.845C46.833 16.6883 46.808 16.5483 46.758 16.425C46.708 16.2983 46.6297 16.1917 46.523 16.105C46.4164 16.015 46.278 15.9467 46.108 15.9C45.9414 15.8533 45.7397 15.83 45.503 15.83H44.148V17.95H45.508ZM44.148 12.81V14.9H45.218C45.678 14.9 46.0247 14.8167 46.258 14.65C46.4947 14.4833 46.613 14.2183 46.613 13.855C46.613 13.4783 46.5064 13.21 46.293 13.05C46.0797 12.89 45.7464 12.81 45.293 12.81H44.148ZM45.293 11.77C45.7664 11.77 46.1714 11.815 46.508 11.905C46.8447 11.995 47.1197 12.1233 47.333 12.29C47.5497 12.4567 47.708 12.6583 47.808 12.895C47.908 13.1317 47.958 13.3983 47.958 13.695C47.958 13.865 47.933 14.0283 47.883 14.185C47.833 14.3383 47.7547 14.4833 47.648 14.62C47.5447 14.7533 47.4114 14.875 47.248 14.985C47.088 15.095 46.8964 15.1883 46.673 15.265C47.6664 15.4883 48.163 16.025 48.163 16.875C48.163 17.1817 48.1047 17.465 47.988 17.725C47.8714 17.985 47.7014 18.21 47.478 18.4C47.2547 18.5867 46.9797 18.7333 46.653 18.84C46.3264 18.9467 45.953 19 45.533 19H42.803V11.77H45.293ZM53.2951 17.915C53.5551 17.915 53.7867 17.8717 53.9901 17.785C54.1967 17.6983 54.3701 17.5767 54.5101 17.42C54.6501 17.2633 54.7567 17.0733 54.8301 16.85C54.9067 16.6267 54.9451 16.3767 54.9451 16.1V11.77H56.2901V16.1C56.2901 16.53 56.2201 16.9283 56.0801 17.295C55.9434 17.6583 55.7451 17.9733 55.4851 18.24C55.2284 18.5033 54.9151 18.71 54.5451 18.86C54.1751 19.0067 53.7584 19.08 53.2951 19.08C52.8284 19.08 52.4101 19.0067 52.0401 18.86C51.6701 18.71 51.3551 18.5033 51.0951 18.24C50.8384 17.9733 50.6401 17.6583 50.5001 17.295C50.3634 16.9283 50.2951 16.53 50.2951 16.1V11.77H51.6401V16.095C51.6401 16.3717 51.6767 16.6217 51.7501 16.845C51.8267 17.0683 51.9351 17.26 52.0751 17.42C52.2184 17.5767 52.3917 17.6983 52.5951 17.785C52.8017 17.8717 53.0351 17.915 53.2951 17.915Z" fill="#97144D"/>
<rect x="1" y="1" width="67" height="28" rx="6" stroke="#F1F1F1"/>
</svg>
