<svg width="16" height="17" viewBox="0 0 16 17" fill="none" xmlns="http://www.w3.org/2000/svg">
<path d="M13.5 0.375H2.25C0.984375 0.375 0 1.39453 0 2.625V13.875C0 15.1406 0.984375 16.125 2.25 16.125H13.5C14.7305 16.125 15.75 15.1406 15.75 13.875V2.625C15.75 1.39453 14.7305 0.375 13.5 0.375ZM12.0938 10.2188C12.0938 10.8516 11.5664 11.3438 10.9688 11.3438C10.3359 11.3438 9.84375 10.8516 9.84375 10.2188V7.89844L5.55469 12.1523C5.34375 12.3633 5.0625 12.4688 4.78125 12.4688C4.46484 12.4688 4.18359 12.3633 3.97266 12.1523C3.51562 11.7305 3.51562 10.9922 3.97266 10.5703L8.22656 6.28125H5.90625C5.27344 6.28125 4.78125 5.78906 4.78125 5.15625C4.78125 4.55859 5.27344 4.03125 5.90625 4.03125H10.9688C11.5664 4.03125 12.0938 4.55859 12.0938 5.15625V10.2188Z" fill="#97144D"/>
</svg>
