<svg width="106" height="72" viewBox="0 0 106 72" fill="none" xmlns="http://www.w3.org/2000/svg">
<path fill-rule="evenodd" clip-rule="evenodd" d="M81.0625 2.69231C76.9476 2.69231 73.6154 6.12689 73.6154 10.3585V24.6415C73.6154 28.8775 76.9518 32.3077 81.0625 32.3077H94.9375C99.0482 32.3077 102.385 28.8775 102.385 24.6415V10.3585C102.385 6.12255 99.0482 2.69231 94.9375 2.69231H81.0625ZM71 10.3585C71 4.64102 75.5022 0 81.0625 0H94.9375C100.492 0 105 4.63459 105 10.3585V24.6415C105 30.3654 100.492 35 94.9375 35H81.0625C75.5084 35 71 30.3654 71 24.6415V10.3585Z" fill="#97144D"/>
<path fill-rule="evenodd" clip-rule="evenodd" d="M21.2791 6.04449C19.9161 2.95057 15.4916 2.84427 13.9783 5.87079L4.08809 25.6352C4.08804 25.6353 4.08814 25.6351 4.08809 25.6352C4.08804 25.6353 4.08784 25.6357 4.08779 25.6358C2.7864 28.2408 4.69707 31.3387 7.69865 31.3387H26.3025C29.2206 31.3387 31.1355 28.3979 29.993 25.8101L21.2791 6.04449ZM23.7195 4.97289C21.4451 -0.189117 14.113 -0.357337 11.593 4.68197C11.593 4.68184 11.5929 4.6821 11.593 4.68197L1.70232 24.4472C-0.504646 28.8631 2.76251 34 7.69865 34H26.3025C31.0975 34 34.371 29.1283 32.4331 24.7375C32.433 24.7373 32.4329 24.7371 32.4328 24.7369L23.7195 4.97289C23.7195 4.97278 23.7196 4.97299 23.7195 4.97289Z" fill="#97144D"/>
<path fill-rule="evenodd" clip-rule="evenodd" d="M57.6387 43.0275C56.317 39.9282 52.0449 39.8249 50.5794 42.8529L40.9998 62.6303C39.7243 65.267 41.6077 68.3588 44.4907 68.3588H62.5102C65.3129 68.3588 67.1981 65.4251 66.0789 62.8061L66.0787 62.8055L57.6387 43.0275ZM60.0143 41.9744C57.813 36.812 50.6976 36.6405 48.2565 41.6837C48.2565 41.6836 48.2564 41.6839 48.2565 41.6837L38.6765 61.462C36.5532 65.8511 39.685 71 44.4907 71H62.5102C67.1785 71 70.3189 66.1156 68.4538 61.7511L60.0143 41.9744Z" fill="#97144D"/>
<path fill-rule="evenodd" clip-rule="evenodd" d="M51.5 2.69231C43.3219 2.69231 36.6923 9.32194 36.6923 17.5C36.6923 25.6781 43.3219 32.3077 51.5 32.3077C59.678 32.3077 66.3077 25.6781 66.3077 17.5C66.3077 9.32194 59.678 2.69231 51.5 2.69231ZM34 17.5C34 7.83502 41.835 0 51.5 0C61.165 0 69 7.83502 69 17.5C69 27.165 61.165 35 51.5 35C41.835 35 34 27.165 34 17.5Z" fill="#97144D"/>
<path fill-rule="evenodd" clip-rule="evenodd" d="M89 40.6154C81.0556 40.6154 74.6154 47.0556 74.6154 55C74.6154 62.9444 81.0556 69.3846 89 69.3846C96.9444 69.3846 103.385 62.9444 103.385 55C103.385 47.0556 96.9444 40.6154 89 40.6154ZM72 55C72 45.6112 79.6111 38 89 38C98.3888 38 106 45.6112 106 55C106 64.3888 98.3888 72 89 72C79.6111 72 72 64.3888 72 55Z" fill="#97144D"/>
<path fill-rule="evenodd" clip-rule="evenodd" d="M11.0223 40.6154C6.42376 40.6154 2.69231 44.2359 2.69231 48.7074V61.2926C2.69231 65.7598 6.41935 69.3846 11.0223 69.3846H23.9777C28.5812 69.3846 32.3077 65.7646 32.3077 61.2926V48.7074C32.3077 44.2402 28.5807 40.6154 23.9777 40.6154H11.0223ZM0 48.7074C0 42.7905 4.93782 38 11.0223 38H23.9777C30.0686 38 35 42.7967 35 48.7074V61.2926C35 67.209 30.0681 72 23.9777 72H11.0223C4.93146 72 0 67.2033 0 61.2926V48.7074Z" fill="#97144D"/>
<path d="M23.4847 19.586L18.0033 8.53147C17.7915 8.21259 17.7385 8 17.5267 8H17.4472C17.2619 8 17.1824 8.21259 16.9971 8.53147L8.04683 26.442C7.91443 26.7077 8.07331 27 8.39107 27H10.8537C11.2509 27 11.3568 26.8671 11.5951 26.442L17.4737 13.4476H17.5267L20.3865 19.586H23.4847ZM15.0111 20.0643L13.7665 22.8014H21.6575L23.4052 26.442C23.6171 26.8671 23.7495 27 24.1467 27H26.5828C26.9271 27 27.0859 26.7077 26.9535 26.442L23.723 20.0643H15.0111Z" fill="#97144D"/>
<path d="M50.6291 24.2081C49.1291 24.1555 47.2411 23.6818 45.6893 22.6557C45.3014 22.3926 45.1462 22.5241 44.9393 22.8925L44.1376 24.2081C43.9565 24.5765 43.9048 24.7606 44.2927 24.9974C46.0514 26.2341 48.2497 26.9182 50.6291 26.9971V24.2081ZM50.7584 8C45.948 8.07894 44.3186 11.5258 44.3186 13.7623C44.3186 17.4196 47.5256 18.4195 50.3446 18.7878C53.2413 19.1825 54.9741 19.6825 54.9741 21.5769C54.9741 23.3924 53.474 24.2081 51.0946 24.2081V26.9971C55.7241 27.1024 58 24.287 58 21.4453C58 17.5512 54.9741 16.5513 51.8188 16.1567C49.1808 15.8146 47.3446 15.4199 47.3446 13.657C47.3446 12.4204 47.9911 10.9206 50.7584 10.7891V8ZM51.224 10.7891C53.0085 10.7627 54.3792 11.2627 55.9568 12.3415C56.3189 12.6046 56.5 12.4467 56.7069 12.0783L57.4827 10.7891C57.6638 10.4207 57.7155 10.2102 57.3534 9.9997C55.5172 8.84198 53.8361 8.05262 51.224 8V10.7891Z" fill="#97144D"/>
<path d="M89.45 10.9314H94.475C94.875 10.9314 95 10.8229 95 10.3614V8.57C95 8.13571 94.9 8 94.475 8H89.45V10.9314ZM89.025 8H80.525C80.125 8 80 8.13571 80 8.57V10.3614C80 10.7957 80.1 10.9314 80.525 10.9314H86V26.43C86 26.8643 86.1 27 86.525 27H88.475C88.9 27 89.025 26.8643 89.025 26.43V8Z" fill="#97144D"/>
<path d="M14.1045 46H11.5388C11.1283 46 11 46.1286 11 46.54V63.46C11 63.8971 11.1283 64 11.5388 64H13.5657C13.9762 64 14.1045 63.8971 14.1045 63.46V46ZM20.57 56.98C19.9285 57.2114 19.2358 57.3143 18.1839 57.3143H17.4142L21.5706 63.46C21.8271 63.82 22.0837 64 22.5199 64H24.4185C24.8546 64 25.1882 63.7686 24.8803 63.3057L20.6469 57.0829L20.57 56.98ZM17.799 56.8771C20.8009 56.8771 24.1876 55.5657 24.1876 51.4C24.1876 47.2343 20.7239 46 17.799 46H14.5406V48.5971H17.6707C19.8772 48.5971 21.1857 49.4457 21.1857 51.4C21.1857 53.02 20.339 54.28 17.6707 54.28H14.5406V56.8771H17.799Z" fill="#97144D"/>
<path d="M52 63.46C52 63.8714 52.124 64 52.5207 64H54.4793C54.876 64 55 63.8714 55 63.46V46.54C55 46.1286 54.9008 46 54.4793 46H52.5207C52.124 46 52 46.1286 52 46.54V63.46Z" fill="#97144D"/>
<path d="M85.0976 46H82.5376C82.128 46 82 46.1286 82 46.54V63.46C82 63.8714 82.128 64 82.5376 64H85.0976V46ZM85.5328 64H88.9632C94.0064 64 98 60.1171 98 55C98 49.8829 94.0064 46 88.9632 46H85.5328V48.5971H88.9376C92.6496 48.5971 94.8768 51.6314 94.8768 55C94.8768 58.3429 92.6496 61.4029 88.9376 61.4029H85.5328V64Z" fill="#97144D"/>
</svg>
