<svg width="38" height="38" viewBox="0 0 38 38" fill="none" xmlns="http://www.w3.org/2000/svg">
<g filter="url(#filter0_dd_1275_1807)">
<rect x="4" y="3" width="30" height="30" rx="6" fill="white"/>
<rect x="4.5" y="3.5" width="29" height="29" rx="5.5" stroke="#97144D"/>
</g>
<path d="M16.731 22.7814C17.0045 23.0549 17.4693 23.0549 17.7427 22.7815L25.7815 14.7428C26.0549 14.4693 26.0549 14.0045 25.7814 13.731L24.797 12.7466C24.5236 12.4732 24.0861 12.4732 23.8127 12.7466L17.2504 19.3088L14.1605 16.2462C13.887 15.9727 13.4495 15.9727 13.1761 16.2461L12.1917 17.2305C11.9183 17.5039 11.9183 17.9687 12.1918 18.2422L16.731 22.7814Z" fill="#97144D"/>
<defs>
<filter id="filter0_dd_1275_1807" x="0" y="0" width="38" height="38" filterUnits="userSpaceOnUse" color-interpolation-filters="sRGB">
<feFlood flood-opacity="0" result="BackgroundImageFix"/>
<feColorMatrix in="SourceAlpha" type="matrix" values="0 0 0 0 0 0 0 0 0 0 0 0 0 0 0 0 0 0 127 0" result="hardAlpha"/>
<feOffset dy="1"/>
<feGaussianBlur stdDeviation="1"/>
<feComposite in2="hardAlpha" operator="out"/>
<feColorMatrix type="matrix" values="0 0 0 0 0 0 0 0 0 0 0 0 0 0 0 0 0 0 0.3 0"/>
<feBlend mode="normal" in2="BackgroundImageFix" result="effect1_dropShadow_1275_1807"/>
<feColorMatrix in="SourceAlpha" type="matrix" values="0 0 0 0 0 0 0 0 0 0 0 0 0 0 0 0 0 0 127 0" result="hardAlpha"/>
<feMorphology radius="1" operator="dilate" in="SourceAlpha" result="effect2_dropShadow_1275_1807"/>
<feOffset dy="1"/>
<feGaussianBlur stdDeviation="1.5"/>
<feComposite in2="hardAlpha" operator="out"/>
<feColorMatrix type="matrix" values="0 0 0 0 0 0 0 0 0 0 0 0 0 0 0 0 0 0 0.15 0"/>
<feBlend mode="normal" in2="effect1_dropShadow_1275_1807" result="effect2_dropShadow_1275_1807"/>
<feBlend mode="normal" in="SourceGraphic" in2="effect2_dropShadow_1275_1807" result="shape"/>
</filter>
</defs>
</svg>
