<svg width="52" height="41" viewBox="0 0 52 41" fill="none" xmlns="http://www.w3.org/2000/svg">
<path d="M52 8.00673C52 7.14394 51.6645 6.28114 51.0606 5.65993L46.4981 0.96633C45.8942 0.345118 45.0555 0 44.2168 0C43.3781 0 42.5394 0.345118 41.9355 0.96633L19.9277 23.6406L10.0645 13.4596C9.46064 12.8384 8.62193 12.4933 7.78322 12.4933C6.94451 12.4933 6.10581 12.8384 5.50194 13.4596L0.939355 18.1532C0.335484 18.7744 0 19.6372 0 20.5C0 21.3628 0.335484 22.2256 0.939355 22.8468L13.0839 35.3401L17.6465 40.0337C18.2503 40.6549 19.089 41 19.9277 41C20.7664 41 21.6052 40.6549 22.209 40.0337L26.7716 35.3401L51.0606 10.3535C51.6645 9.73232 52 8.86953 52 8.00673Z" fill="#97144D"/>
</svg>
