<svg width="38" height="38" viewBox="0 0 38 38" fill="none" xmlns="http://www.w3.org/2000/svg">
<g filter="url(#filter0_dd_507_19310)">
<rect x="4.5" y="3.5" width="29" height="29" rx="5.5" stroke="#97144D" shape-rendering="crispEdges"/>
</g>
<path fill-rule="evenodd" clip-rule="evenodd" d="M17.9669 9.07898C17.217 9.42046 16.9586 10.4003 17.4605 10.9985L17.5826 11.1439L14.891 13.843L12.1994 16.542L11.992 16.394C10.9959 15.6835 9.56057 16.8719 10.129 17.9365C10.2783 18.2161 14.6398 22.5657 14.8647 22.6593C15.928 23.1017 16.9958 21.8414 16.3993 20.848L16.2308 20.5676L16.5526 20.2423C16.9017 19.8896 16.9404 19.8718 17.0625 20.0072C17.3865 20.366 18.3634 20.4849 18.8522 20.2249C18.969 20.1628 19.0314 20.2219 22.2789 23.4734C25.9431 27.142 25.7752 26.9983 26.3958 26.9995C27.507 27.0017 28.3239 25.7873 27.8741 24.8019C27.7612 24.5545 27.3716 24.1455 24.4716 21.2296L21.1965 17.9365L21.2903 17.674C21.4784 17.1472 21.338 16.3506 20.9913 15.9777C20.9012 15.8808 20.9031 15.8776 21.2554 15.5267L21.6101 15.1733L21.7185 15.2727C22.4528 15.9462 23.7522 15.3155 23.7522 14.2855C23.7522 13.8165 23.6699 13.7056 22.2882 12.3134C20.7723 10.7859 20.7395 10.763 20.4667 11.0366C20.1945 11.3095 20.1949 11.3102 21.6332 12.7572C23.1502 14.2834 23.2139 14.394 22.7542 14.7051C22.4456 14.914 22.493 14.9523 20.1253 12.5776C17.6826 10.1277 17.7749 10.2496 18.1097 9.91387C18.372 9.65089 18.537 9.68033 18.9404 10.0618C19.3207 10.4216 19.4468 10.4513 19.6649 10.2326C20.2031 9.69292 18.7646 8.71575 17.9669 9.07898ZM19.6138 13.1641L21.0649 14.6198L18.3642 17.328L15.6635 20.0363L14.2 18.5688L12.7367 17.1014L15.4254 14.4048C16.9042 12.9218 18.1251 11.7083 18.1384 11.7083C18.1517 11.7083 18.8157 12.3635 19.6138 13.1641ZM20.5469 16.7537C20.7658 17.2608 20.634 17.4968 19.5108 18.6099C18.4623 19.6488 18.3605 19.7085 17.8839 19.5641C17.3516 19.4027 17.2904 19.5033 18.9095 17.8788C20.4884 16.2946 20.3806 16.3687 20.5469 16.7537ZM11.4657 16.9785C11.7142 17.1102 15.8057 21.2717 15.8117 21.3988C15.8228 21.6375 15.7979 21.7098 15.6602 21.8381C15.3248 22.1502 15.4176 22.2209 13.0318 19.8336C11.8579 18.659 10.868 17.6421 10.8319 17.5739C10.645 17.2206 11.1057 16.7878 11.4657 16.9785ZM23.9042 21.8142C25.6748 23.5925 27.1472 25.0945 27.1761 25.1518C27.3737 25.5439 27.0903 26.0945 26.6304 26.2121C26.2022 26.3215 26.3524 26.4516 22.8145 22.9086L19.5663 19.6558L20.1009 19.1183C20.3949 18.8227 20.6465 18.5808 20.6601 18.5808C20.6737 18.5808 22.1335 20.0358 23.9042 21.8142Z" fill="#97144D"/>
<defs>
<filter id="filter0_dd_507_19310" x="0" y="0" width="38" height="38" filterUnits="userSpaceOnUse" color-interpolation-filters="sRGB">
<feFlood flood-opacity="0" result="BackgroundImageFix"/>
<feColorMatrix in="SourceAlpha" type="matrix" values="0 0 0 0 0 0 0 0 0 0 0 0 0 0 0 0 0 0 127 0" result="hardAlpha"/>
<feOffset dy="1"/>
<feGaussianBlur stdDeviation="1"/>
<feComposite in2="hardAlpha" operator="out"/>
<feColorMatrix type="matrix" values="0 0 0 0 0 0 0 0 0 0 0 0 0 0 0 0 0 0 0.3 0"/>
<feBlend mode="normal" in2="BackgroundImageFix" result="effect1_dropShadow_507_19310"/>
<feColorMatrix in="SourceAlpha" type="matrix" values="0 0 0 0 0 0 0 0 0 0 0 0 0 0 0 0 0 0 127 0" result="hardAlpha"/>
<feMorphology radius="1" operator="dilate" in="SourceAlpha" result="effect2_dropShadow_507_19310"/>
<feOffset dy="1"/>
<feGaussianBlur stdDeviation="1.5"/>
<feComposite in2="hardAlpha" operator="out"/>
<feColorMatrix type="matrix" values="0 0 0 0 0 0 0 0 0 0 0 0 0 0 0 0 0 0 0.15 0"/>
<feBlend mode="normal" in2="effect1_dropShadow_507_19310" result="effect2_dropShadow_507_19310"/>
<feBlend mode="normal" in="SourceGraphic" in2="effect2_dropShadow_507_19310" result="shape"/>
</filter>
</defs>
</svg>
