<svg width="69" height="30" viewBox="0 0 69 30" fill="none" xmlns="http://www.w3.org/2000/svg">
<rect x="1" y="1" width="67" height="28" rx="6" fill="white"/>
<rect width="27" height="24" transform="translate(3 3)" fill="white"/>
<path d="M11.458 16.27L10.578 13.865C10.5347 13.7583 10.4897 13.6317 10.443 13.485C10.3963 13.3383 10.3497 13.18 10.303 13.01C10.2597 13.18 10.2147 13.34 10.168 13.49C10.1213 13.6367 10.0763 13.765 10.033 13.875L9.15801 16.27H11.458ZM13.833 19H12.793C12.6763 19 12.5813 18.9717 12.508 18.915C12.4347 18.855 12.3797 18.7817 12.343 18.695L11.803 17.22H8.80801L8.26801 18.695C8.24134 18.7717 8.18967 18.8417 8.11301 18.905C8.03634 18.9683 7.94134 19 7.82801 19H6.77801L9.62301 11.77H10.993L13.833 19ZM19.8164 17.89V19H15.5814V11.77H16.9264V17.89H19.8164ZM26.0117 17.89V19H21.7767V11.77H23.1217V17.89H26.0117Z" fill="#97144D"/>
<rect x="30" y="3" width="35" height="24" rx="4" fill="#97144D"/>
<path d="M43.508 17.95C43.758 17.95 43.968 17.92 44.138 17.86C44.308 17.8 44.443 17.72 44.543 17.62C44.6464 17.52 44.7197 17.4033 44.763 17.27C44.8097 17.1367 44.833 16.995 44.833 16.845C44.833 16.6883 44.808 16.5483 44.758 16.425C44.708 16.2983 44.6297 16.1917 44.523 16.105C44.4164 16.015 44.278 15.9467 44.108 15.9C43.9414 15.8533 43.7397 15.83 43.503 15.83H42.148V17.95H43.508ZM42.148 12.81V14.9H43.218C43.678 14.9 44.0247 14.8167 44.258 14.65C44.4947 14.4833 44.613 14.2183 44.613 13.855C44.613 13.4783 44.5064 13.21 44.293 13.05C44.0797 12.89 43.7464 12.81 43.293 12.81H42.148ZM43.293 11.77C43.7664 11.77 44.1714 11.815 44.508 11.905C44.8447 11.995 45.1197 12.1233 45.333 12.29C45.5497 12.4567 45.708 12.6583 45.808 12.895C45.908 13.1317 45.958 13.3983 45.958 13.695C45.958 13.865 45.933 14.0283 45.883 14.185C45.833 14.3383 45.7547 14.4833 45.648 14.62C45.5447 14.7533 45.4114 14.875 45.248 14.985C45.088 15.095 44.8964 15.1883 44.673 15.265C45.6664 15.4883 46.163 16.025 46.163 16.875C46.163 17.1817 46.1047 17.465 45.988 17.725C45.8714 17.985 45.7014 18.21 45.478 18.4C45.2547 18.5867 44.9797 18.7333 44.653 18.84C44.3264 18.9467 43.953 19 43.533 19H40.803V11.77H43.293ZM51.2951 17.915C51.5551 17.915 51.7867 17.8717 51.9901 17.785C52.1967 17.6983 52.3701 17.5767 52.5101 17.42C52.6501 17.2633 52.7567 17.0733 52.8301 16.85C52.9067 16.6267 52.9451 16.3767 52.9451 16.1V11.77H54.2901V16.1C54.2901 16.53 54.2201 16.9283 54.0801 17.295C53.9434 17.6583 53.7451 17.9733 53.4851 18.24C53.2284 18.5033 52.9151 18.71 52.5451 18.86C52.1751 19.0067 51.7584 19.08 51.2951 19.08C50.8284 19.08 50.4101 19.0067 50.0401 18.86C49.6701 18.71 49.3551 18.5033 49.0951 18.24C48.8384 17.9733 48.6401 17.6583 48.5001 17.295C48.3634 16.9283 48.2951 16.53 48.2951 16.1V11.77H49.6401V16.095C49.6401 16.3717 49.6767 16.6217 49.7501 16.845C49.8267 17.0683 49.9351 17.26 50.0751 17.42C50.2184 17.5767 50.3917 17.6983 50.5951 17.785C50.8017 17.8717 51.0351 17.915 51.2951 17.915Z" fill="white"/>
<rect x="1" y="1" width="67" height="28" rx="6" stroke="#F1F1F1"/>
</svg>
