<svg width="16" height="17" viewBox="0 0 16 17" fill="none" xmlns="http://www.w3.org/2000/svg">
<path d="M1.71317 15.1429V12.5714H4.2846V15.1429H1.71317ZM4.85603 15.1429V12.5714H7.71317V15.1429H4.85603ZM1.71317 12V9.14286H4.2846V12H1.71317ZM4.85603 12V9.14286H7.71317V12H4.85603ZM1.71317 8.57143V6H4.2846V8.57143H1.71317ZM8.2846 15.1429V12.5714H11.1417V15.1429H8.2846ZM4.85603 8.57143V6H7.71317V8.57143H4.85603ZM11.7132 15.1429V12.5714H14.2846V15.1429H11.7132ZM8.2846 12V9.14286H11.1417V12H8.2846ZM5.14174 4.28571C5.14174 4.4375 5.00781 4.57143 4.85603 4.57143H4.2846C4.13281 4.57143 3.99888 4.4375 3.99888 4.28571V1.71428C3.99888 1.5625 4.13281 1.42857 4.2846 1.42857H4.85603C5.00781 1.42857 5.14174 1.5625 5.14174 1.71428V4.28571ZM11.7132 12V9.14286H14.2846V12H11.7132ZM8.2846 8.57143V6H11.1417V8.57143H8.2846ZM11.7132 8.57143V6H14.2846V8.57143H11.7132ZM11.9989 4.28571C11.9989 4.4375 11.865 4.57143 11.7132 4.57143H11.1417C10.99 4.57143 10.856 4.4375 10.856 4.28571V1.71428C10.856 1.5625 10.99 1.42857 11.1417 1.42857H11.7132C11.865 1.42857 11.9989 1.5625 11.9989 1.71428V4.28571ZM15.4275 3.71428C15.4275 3.08928 14.9096 2.57143 14.2846 2.57143H13.1417V1.71428C13.1417 0.928571 12.4989 0.285713 11.7132 0.285713H11.1417C10.356 0.285713 9.71317 0.928571 9.71317 1.71428V2.57143H6.2846V1.71428C6.2846 0.928571 5.64174 0.285713 4.85603 0.285713H4.2846C3.49888 0.285713 2.85603 0.928571 2.85603 1.71428V2.57143H1.71317C1.08817 2.57143 0.570312 3.08928 0.570312 3.71428V15.1429C0.570312 15.7679 1.08817 16.2857 1.71317 16.2857H14.2846C14.9096 16.2857 15.4275 15.7679 15.4275 15.1429V3.71428Z" fill="white"/>
</svg>
