<svg width="38" height="38" viewBox="0 0 38 38" fill="none" xmlns="http://www.w3.org/2000/svg">
<g filter="url(#filter0_dd_881_121664)">
<rect x="4.5" y="3.5" width="29" height="29" rx="5.5" stroke="#97144D" shape-rendering="crispEdges"/>
</g>
<path d="M23.6377 21.3281C23.6377 21.1328 23.5596 20.9375 23.4189 20.7969L21.1221 18.5L23.4189 16.2031C23.5596 16.0625 23.6377 15.8672 23.6377 15.6719C23.6377 15.4766 23.5596 15.2812 23.4189 15.1406L22.3564 14.0781C22.2158 13.9375 22.0205 13.8594 21.8252 13.8594C21.6299 13.8594 21.4346 13.9375 21.2939 14.0781L18.9971 16.375L16.7002 14.0781C16.5596 13.9375 16.3643 13.8594 16.1689 13.8594C15.9736 13.8594 15.7783 13.9375 15.6377 14.0781L14.5752 15.1406C14.4346 15.2812 14.3564 15.4766 14.3564 15.6719C14.3564 15.8672 14.4346 16.0625 14.5752 16.2031L16.8721 18.5L14.5752 20.7969C14.4346 20.9375 14.3564 21.1328 14.3564 21.3281C14.3564 21.5234 14.4346 21.7187 14.5752 21.8594L15.6377 22.9219C15.7783 23.0625 15.9736 23.1406 16.1689 23.1406C16.3643 23.1406 16.5596 23.0625 16.7002 22.9219L18.9971 20.625L21.2939 22.9219C21.4346 23.0625 21.6299 23.1406 21.8252 23.1406C22.0205 23.1406 22.2158 23.0625 22.3564 22.9219L23.4189 21.8594C23.5596 21.7187 23.6377 21.5234 23.6377 21.3281Z" fill="#97144D"/>
<defs>
<filter id="filter0_dd_881_121664" x="0" y="0" width="38" height="38" filterUnits="userSpaceOnUse" color-interpolation-filters="sRGB">
<feFlood flood-opacity="0" result="BackgroundImageFix"/>
<feColorMatrix in="SourceAlpha" type="matrix" values="0 0 0 0 0 0 0 0 0 0 0 0 0 0 0 0 0 0 127 0" result="hardAlpha"/>
<feOffset dy="1"/>
<feGaussianBlur stdDeviation="1"/>
<feComposite in2="hardAlpha" operator="out"/>
<feColorMatrix type="matrix" values="0 0 0 0 0 0 0 0 0 0 0 0 0 0 0 0 0 0 0.3 0"/>
<feBlend mode="normal" in2="BackgroundImageFix" result="effect1_dropShadow_881_121664"/>
<feColorMatrix in="SourceAlpha" type="matrix" values="0 0 0 0 0 0 0 0 0 0 0 0 0 0 0 0 0 0 127 0" result="hardAlpha"/>
<feMorphology radius="1" operator="dilate" in="SourceAlpha" result="effect2_dropShadow_881_121664"/>
<feOffset dy="1"/>
<feGaussianBlur stdDeviation="1.5"/>
<feComposite in2="hardAlpha" operator="out"/>
<feColorMatrix type="matrix" values="0 0 0 0 0 0 0 0 0 0 0 0 0 0 0 0 0 0 0.15 0"/>
<feBlend mode="normal" in2="effect1_dropShadow_881_121664" result="effect2_dropShadow_881_121664"/>
<feBlend mode="normal" in="SourceGraphic" in2="effect2_dropShadow_881_121664" result="shape"/>
</filter>
</defs>
</svg>
