<svg width="38" height="38" viewBox="0 0 38 38" fill="none" xmlns="http://www.w3.org/2000/svg">
<g filter="url(#filter0_dd_1275_1810)">
<rect x="4" y="3" width="30" height="30" rx="6" fill="white"/>
<rect x="4.5" y="3.5" width="29" height="29" rx="5.5" stroke="#97144D"/>
</g>
<path d="M20.8047 17.75L23.5391 15.0156C23.8945 14.6875 23.8945 14.1406 23.5391 13.8125L22.9375 13.2109C22.6094 12.8555 22.0625 12.8555 21.7344 13.2109L19 15.9453L16.2383 13.2109C15.9102 12.8555 15.3633 12.8555 15.0352 13.2109L14.4336 13.8125C14.0781 14.1406 14.0781 14.6875 14.4336 15.0156L17.168 17.75L14.4336 20.5117C14.0781 20.8398 14.0781 21.3867 14.4336 21.7148L15.0352 22.3164C15.3633 22.6719 15.9102 22.6719 16.2383 22.3164L19 19.582L21.7344 22.3164C22.0625 22.6719 22.6094 22.6719 22.9375 22.3164L23.5391 21.7148C23.8945 21.3867 23.8945 20.8398 23.5391 20.5117L20.8047 17.75Z" fill="#97144D"/>
<defs>
<filter id="filter0_dd_1275_1810" x="0" y="0" width="38" height="38" filterUnits="userSpaceOnUse" color-interpolation-filters="sRGB">
<feFlood flood-opacity="0" result="BackgroundImageFix"/>
<feColorMatrix in="SourceAlpha" type="matrix" values="0 0 0 0 0 0 0 0 0 0 0 0 0 0 0 0 0 0 127 0" result="hardAlpha"/>
<feOffset dy="1"/>
<feGaussianBlur stdDeviation="1"/>
<feComposite in2="hardAlpha" operator="out"/>
<feColorMatrix type="matrix" values="0 0 0 0 0 0 0 0 0 0 0 0 0 0 0 0 0 0 0.3 0"/>
<feBlend mode="normal" in2="BackgroundImageFix" result="effect1_dropShadow_1275_1810"/>
<feColorMatrix in="SourceAlpha" type="matrix" values="0 0 0 0 0 0 0 0 0 0 0 0 0 0 0 0 0 0 127 0" result="hardAlpha"/>
<feMorphology radius="1" operator="dilate" in="SourceAlpha" result="effect2_dropShadow_1275_1810"/>
<feOffset dy="1"/>
<feGaussianBlur stdDeviation="1.5"/>
<feComposite in2="hardAlpha" operator="out"/>
<feColorMatrix type="matrix" values="0 0 0 0 0 0 0 0 0 0 0 0 0 0 0 0 0 0 0.15 0"/>
<feBlend mode="normal" in2="effect1_dropShadow_1275_1810" result="effect2_dropShadow_1275_1810"/>
<feBlend mode="normal" in="SourceGraphic" in2="effect2_dropShadow_1275_1810" result="shape"/>
</filter>
</defs>
</svg>
