<svg width="92" height="30" viewBox="0 0 92 30" fill="none" xmlns="http://www.w3.org/2000/svg">
<g clip-path="url(#clip0_181_11420)">
<rect x="1" y="1" width="90" height="28" rx="6" fill="white"/>
<rect width="46" height="24" transform="translate(3 3)" fill="white"/>
<path d="M11.5535 17.89H14.4485V19H10.2085V11.77H11.5535V17.89ZM17.8895 19H16.5395V11.77H17.8895V19ZM23.8391 18.01C24.1424 18.01 24.4057 17.9833 24.6291 17.93C24.8557 17.8733 25.0707 17.7967 25.2741 17.7V16.385H24.3691C24.2824 16.385 24.2141 16.3617 24.1641 16.315C24.1141 16.265 24.0891 16.205 24.0891 16.135V15.375H26.4941V18.3C26.3107 18.4333 26.1191 18.55 25.9191 18.65C25.7224 18.7467 25.5107 18.8267 25.2841 18.89C25.0607 18.9533 24.8207 19 24.5641 19.03C24.3074 19.0633 24.0307 19.08 23.7341 19.08C23.2074 19.08 22.7224 18.9883 22.2791 18.805C21.8357 18.6217 21.4524 18.3667 21.1291 18.04C20.8057 17.7133 20.5524 17.3233 20.3691 16.87C20.1891 16.4167 20.0991 15.9217 20.0991 15.385C20.0991 14.8417 20.1874 14.3433 20.3641 13.89C20.5407 13.4367 20.7907 13.0467 21.1141 12.72C21.4407 12.3933 21.8357 12.14 22.2991 11.96C22.7624 11.78 23.2824 11.69 23.8591 11.69C24.4491 11.69 24.9591 11.7783 25.3891 11.955C25.8224 12.1283 26.1891 12.355 26.4891 12.635L26.0991 13.245C26.0224 13.3683 25.9207 13.43 25.7941 13.43C25.7141 13.43 25.6324 13.4033 25.5491 13.35C25.4424 13.2867 25.3324 13.2233 25.2191 13.16C25.1091 13.0967 24.9857 13.0417 24.8491 12.995C24.7157 12.9483 24.5641 12.91 24.3941 12.88C24.2274 12.85 24.0341 12.835 23.8141 12.835C23.4574 12.835 23.1341 12.895 22.8441 13.015C22.5574 13.135 22.3124 13.3067 22.1091 13.53C21.9057 13.7533 21.7491 14.0217 21.6391 14.335C21.5291 14.6483 21.4741 14.9983 21.4741 15.385C21.4741 15.8017 21.5324 16.1733 21.6491 16.5C21.7657 16.8233 21.9291 17.0967 22.1391 17.32C22.3491 17.5433 22.5991 17.715 22.8891 17.835C23.1791 17.9517 23.4957 18.01 23.8391 18.01ZM34.8456 19H33.4906V15.84H30.1006V19H28.7456V11.77H30.1006V14.88H33.4906V11.77H34.8456V19ZM42.3992 11.77V12.875H40.2242V19H38.8792V12.875H36.6942V11.77H42.3992Z" fill="#97144D"/>
<rect x="49" y="3" width="43" height="24" rx="4" fill="#97144D"/>
<path d="M62.2242 15.385C62.2242 15.915 62.1359 16.4017 61.9592 16.845C61.7826 17.2883 61.5342 17.67 61.2142 17.99C60.8942 18.31 60.5092 18.5583 60.0592 18.735C59.6092 18.9117 59.1109 19 58.5642 19H55.8042V11.77H58.5642C59.1109 11.77 59.6092 11.86 60.0592 12.04C60.5092 12.2167 60.8942 12.465 61.2142 12.785C61.5342 13.1017 61.7826 13.4817 61.9592 13.925C62.1359 14.3683 62.2242 14.855 62.2242 15.385ZM60.8492 15.385C60.8492 14.9883 60.7959 14.6333 60.6892 14.32C60.5826 14.0033 60.4309 13.7367 60.2342 13.52C60.0376 13.3 59.7976 13.1317 59.5142 13.015C59.2342 12.8983 58.9176 12.84 58.5642 12.84H57.1592V17.93H58.5642C58.9176 17.93 59.2342 17.8717 59.5142 17.755C59.7976 17.6383 60.0376 17.4717 60.2342 17.255C60.4309 17.035 60.5826 16.7683 60.6892 16.455C60.7959 16.1383 60.8492 15.7817 60.8492 15.385ZM70.376 19H69.336C69.2193 19 69.1227 18.9717 69.046 18.915C68.9727 18.855 68.9193 18.7817 68.886 18.695L68.346 17.22H65.351L64.811 18.695C64.7843 18.7717 64.731 18.8417 64.651 18.905C64.5743 18.9683 64.4793 19 64.366 19H63.321L66.161 11.77H67.536L70.376 19ZM65.696 16.27H68.001L67.121 13.865C67.081 13.7583 67.036 13.6333 66.986 13.49C66.9393 13.3433 66.8927 13.185 66.846 13.015C66.7993 13.185 66.7527 13.3433 66.706 13.49C66.6627 13.6367 66.6193 13.765 66.576 13.875L65.696 16.27ZM73.5106 16.175V19H72.1656V11.77H74.3706C74.864 11.77 75.2856 11.8217 75.6356 11.925C75.989 12.025 76.2773 12.1667 76.5006 12.35C76.7273 12.5333 76.8923 12.7533 76.9956 13.01C77.1023 13.2633 77.1556 13.5433 77.1556 13.85C77.1556 14.0933 77.119 14.3233 77.0456 14.54C76.9756 14.7567 76.8723 14.9533 76.7356 15.13C76.6023 15.3067 76.4356 15.4617 76.2356 15.595C76.039 15.7283 75.814 15.835 75.5606 15.915C75.7306 16.0117 75.8773 16.15 76.0006 16.33L77.8106 19H76.6006C76.484 19 76.384 18.9767 76.3006 18.93C76.2206 18.8833 76.1523 18.8167 76.0956 18.73L74.5756 16.415C74.519 16.3283 74.4556 16.2667 74.3856 16.23C74.319 16.1933 74.219 16.175 74.0856 16.175H73.5106ZM73.5106 15.21H74.3506C74.604 15.21 74.824 15.1783 75.0106 15.115C75.2006 15.0517 75.3556 14.965 75.4756 14.855C75.599 14.7417 75.6906 14.6083 75.7506 14.455C75.8106 14.3017 75.8406 14.1333 75.8406 13.95C75.8406 13.5833 75.719 13.3017 75.4756 13.105C75.2356 12.9083 74.8673 12.81 74.3706 12.81H73.5106V15.21ZM81.0634 14.8H81.3784C81.505 14.8 81.61 14.7833 81.6934 14.75C81.7767 14.7133 81.8484 14.6567 81.9084 14.58L83.9034 12.055C83.9867 11.9483 84.0734 11.875 84.1634 11.835C84.2567 11.7917 84.3734 11.77 84.5134 11.77H85.6734L83.2384 14.775C83.1617 14.8683 83.0884 14.9467 83.0184 15.01C82.9484 15.0733 82.8734 15.125 82.7934 15.165C82.9034 15.205 83.0017 15.2617 83.0884 15.335C83.1784 15.4083 83.265 15.5017 83.3484 15.615L85.8584 19H84.6684C84.5084 19 84.3884 18.9783 84.3084 18.935C84.2317 18.8883 84.1667 18.8217 84.1134 18.735L82.0684 16.065C82.0017 15.9783 81.9267 15.9167 81.8434 15.88C81.76 15.84 81.6417 15.82 81.4884 15.82H81.0634V19H79.7184V11.765H81.0634V14.8Z" fill="white"/>
</g>
<rect x="1" y="1" width="90" height="28" rx="6" stroke="#F1F1F1"/>
<defs>
<clipPath id="clip0_181_11420">
<rect x="1" y="1" width="90" height="28" rx="6" fill="white"/>
</clipPath>
</defs>
</svg>
