<svg width="1440" height="468" viewBox="0 0 1440 468" fill="none" xmlns="http://www.w3.org/2000/svg">
<g opacity="0.8">
<path d="M1315.91 394.122L1948.38 363.857V443.646H1127.28L1315.91 394.122Z" fill="#E2BF5A"/>
<path d="M1948.38 417.164L1370.12 391.371L1135.36 432.298L1948.38 432.296V417.164Z" fill="#C6A144"/>
<path d="M1395.09 233.261C1378.86 233.147 1363.54 235.107 1350.09 237.033C1345.52 237.688 1341.18 238.338 1337.11 238.9C1324.67 240.614 1314.87 241.485 1309.03 239.168C1309.03 239.168 1309.09 239.081 1309.2 238.926H1309.2C1310.84 236.529 1323.74 216.306 1297.51 204.749C1285.25 199.346 1275.87 201.757 1269.58 205.357L1269.57 205.358C1263.93 208.588 1260.83 212.711 1260.63 212.997L1260.58 213.053C1260.58 213.052 1260.61 212.911 1260.63 212.676L1260.65 212.511C1260.68 212.274 1260.7 211.974 1260.73 211.587C1260.73 211.465 1260.74 211.337 1260.74 211.203C1260.76 210.811 1260.77 210.382 1260.77 209.883C1260.77 209.701 1260.76 209.52 1260.76 209.322C1260.75 208.804 1260.71 208.249 1260.66 207.646C1260.64 207.424 1260.63 207.213 1260.6 206.98C1260.53 206.333 1260.43 205.653 1260.3 204.939C1260.26 204.715 1260.23 204.505 1260.19 204.275C1260.02 203.438 1259.79 202.57 1259.52 201.671C1259.49 201.547 1259.46 201.433 1259.42 201.309C1258.77 199.228 1257.8 197.029 1256.4 194.824L1256.33 194.692V194.722C1251.99 187.945 1243.51 181.145 1226.65 177.954C1199.02 172.722 1184.7 193.367 1180.83 200.033V200.016C1180.71 200.22 1180.62 200.387 1180.52 200.564L1180.41 200.758C1180.2 201.134 1180.05 201.416 1179.95 201.629L1179.88 201.765C1179.8 201.919 1179.75 202.025 1179.75 202.025C1143.66 176.579 1065.48 206.211 1103.74 254.865C1104.17 255.411 1104.58 255.955 1105.04 256.506C1105.75 257.354 1106.52 258.206 1107.31 259.061C1108.05 259.872 1108.81 260.683 1109.62 261.5C1110.35 262.236 1111.1 262.971 1111.89 263.711C1112.96 264.727 1114.12 265.745 1115.3 266.766C1115.99 267.356 1116.64 267.943 1117.36 268.533C1119.35 270.166 1121.44 271.801 1123.72 273.443C1148.46 291.299 1185.03 288.824 1225.41 279.242C1229.28 278.326 1233.17 277.344 1237.08 276.314C1239.02 275.802 1240.97 275.275 1242.92 274.74C1246.8 273.674 1250.7 272.565 1254.61 271.423C1264.23 268.611 1273.91 265.61 1283.58 262.596C1344.06 243.739 1403.43 224.526 1455.58 245.89L1455.57 245.888L1455.58 245.89C1434.76 236.418 1414.24 233.395 1395.09 233.261Z" fill="#EAD696"/>
<path d="M878.923 359.344C875.235 359.396 872.343 362.869 872.46 367.106C872.578 371.349 875.662 374.757 879.357 374.718C883.056 374.677 885.959 371.195 885.836 366.943C885.714 362.694 882.616 359.293 878.923 359.344Z" fill="#EAD696"/>
<path d="M683.149 412.486C679.374 412.498 676.346 416.182 676.38 420.717C676.414 425.257 679.503 428.938 683.285 428.938C687.072 428.938 690.114 425.245 690.073 420.693C690.032 416.144 686.93 412.472 683.149 412.486Z" fill="#EAD696"/>
<path d="M1059.29 171.261H1041.41L1035.56 304.702H1065.13L1059.29 171.261Z" fill="#492E34"/>
<path d="M1112.92 295.072H1170V253.114H1112.92V295.072Z" fill="#492E34"/>
<path d="M1098.48 203.591H1086.11L1082.67 276.844H1101.92L1098.48 203.591Z" fill="#492E34"/>
<path d="M1504.22 427.484V256.211L1384.56 256.209V427.482L1504.22 427.484Z" fill="#664249"/>
<path d="M1349.49 416.133H1601.18V304.702H1349.49V416.133Z" fill="#664249"/>
<path d="M1021.46 426.45H1273.16V264.807H1021.46V426.45Z" fill="#492E34"/>
<path d="M925.187 420.604H673.494V434.705H925.187V420.604Z" fill="#492E34"/>
<path d="M775.96 392.401H914.643V343.222H775.96V392.401Z" fill="#492E34"/>
<path d="M763.582 373.143H745.702V392.401H763.582V373.143Z" fill="#492E34"/>
<path d="M732.292 373.143H714.412V392.401H732.292V373.143Z" fill="#492E34"/>
<path d="M698.939 434.705H950.631V383.116H698.939V434.705Z" fill="#492E34"/>
<path d="M974.293 343.27H995.936V237.183H974.293V343.27Z" fill="#FF5050"/>
<path d="M974.293 253.199H995.936V243.028H974.293V253.199Z" fill="#FFF5E3"/>
<path d="M974.293 268.035H995.936V257.865H974.293V268.035Z" fill="#FFF5E3"/>
<path d="M985.632 343.27H995.936V237.183H985.632V343.27Z" fill="#D74040"/>
<path d="M985.632 253.199H995.936V243.028H985.632V253.199Z" fill="#D7C3B5"/>
<path d="M985.632 268.035H995.936V257.865H985.632V268.035Z" fill="#D7C3B5"/>
<path d="M948.127 343.27H963.708V278.43H948.127V343.27Z" fill="#FF5050"/>
<path d="M948.127 285.495H963.708V281.576H948.127V285.495Z" fill="#FFF5E3"/>
<path d="M948.127 296.5H963.708V289.913H948.127V296.5Z" fill="#FFF5E3"/>
<path d="M963.708 343.27H957.128V296.5H963.708V289.913H957.128V285.495H963.708V281.577H957.128V278.43H963.708V343.27Z" fill="#D74040"/>
<path d="M957.128 285.495H963.708V281.576H957.128V285.495Z" fill="#D7C3B5"/>
<path d="M957.128 296.5H963.708V289.913H957.128V296.5Z" fill="#D7C3B5"/>
<path d="M911.023 317.491H925.447V326.709H911.023V317.491Z" fill="#664249"/>
<path d="M922.508 317.491H930.734V326.709H922.508V317.491Z" fill="#3F262C"/>
<path d="M936.336 317.491H1008.21V331.389H936.336V317.491Z" fill="#664249"/>
<path d="M988.111 317.491H1015.97V331.389H988.111V317.491Z" fill="#3F262C"/>
<path d="M867.244 297.979H804.417L779.869 416.626H891.792L867.244 297.979Z" fill="#FF5050"/>
<path d="M869.683 309.768H801.979L799.374 322.358H872.288L869.683 309.768Z" fill="#FFF5E3"/>
<path d="M873.962 330.449H797.699L796.149 337.944H875.513L873.962 330.449Z" fill="#FFF5E3"/>
<path d="M828.059 416.626H779.869L796.203 337.683L796.149 337.944H828.059V416.626ZM828.059 330.449H797.699L799.374 322.358H828.059V330.449ZM828.059 309.768H801.979L804.417 297.979H828.059V309.768Z" fill="#D74040"/>
<path d="M828.059 322.358H799.374L801.979 309.768H828.059V322.358Z" fill="#D7C3B5"/>
<path d="M828.059 337.944H796.149L796.203 337.683L797.699 330.449H828.059V337.944Z" fill="#D7C3B5"/>
<path d="M770.885 408.112H870.455V421.35H770.885V408.112Z" fill="#664249"/>
<path d="M808.984 408.112H844.924V421.35H808.984V408.112Z" fill="#3F262C"/>
<path d="M894.786 322.902H1028.04L1028.05 419.653H894.786V322.902Z" fill="#C4B09D"/>
<path d="M900.142 332.186H987.863L987.864 364.698H900.142V332.186Z" fill="#6A5472"/>
<path d="M902.843 335.25H987.863L987.864 364.698H902.843V335.25Z" fill="#906F93"/>
<path d="M979.684 333.002H981.335L981.337 364.698H979.684V333.002Z" fill="#6A5472"/>
<path d="M970.925 333.002H972.578V364.698H970.925V333.002Z" fill="#6A5472"/>
<path d="M962.167 333.002H963.82V364.698H962.167V333.002Z" fill="#6A5472"/>
<path d="M953.409 333.002H955.061V364.698H953.409V333.002Z" fill="#6A5472"/>
<path d="M944.65 333.003H946.303V364.698H944.65V333.003Z" fill="#6A5472"/>
<path d="M935.892 333.003H937.546V364.698H935.892V333.003Z" fill="#6A5472"/>
<path d="M927.135 333.003H928.788V364.698H927.135V333.003Z" fill="#6A5472"/>
<path d="M918.377 333.003H920.03V364.698H918.377V333.003Z" fill="#6A5472"/>
<path d="M909.618 333.003H911.271V364.698H909.618V333.003Z" fill="#6A5472"/>
<path d="M945.242 396.62L951.612 392.218L963.882 418.023H945.242V396.62Z" fill="#C4B09D"/>
<path d="M894.786 392.124H951.633V393.885H894.786V392.124Z" fill="#EDDCC0"/>
<path d="M813.932 393.854H947.047V421.35H813.932V393.854Z" fill="#C4B09D"/>
<path d="M941.098 393.416L951.585 393.854V421.35H941.098V393.416Z" fill="#EDDCC0"/>
<path d="M995.292 322.902H1029.92V419.653H995.292V322.902Z" fill="#664249"/>
<path d="M906.562 404.076L913.502 404.075V413.969H906.562V404.076Z" fill="#6A5472"/>
<path d="M967.621 401.941H982.08V413.969H967.621V401.941Z" fill="#6A5472"/>
<path d="M1038.8 413.969H1045.04V401.94H1038.8V413.969Z" fill="#3F262C"/>
<path d="M975.883 383.057H982.08V388.492H975.883V383.057Z" fill="#C4B09D"/>
<path d="M1018.85 365.224H1023.06V388.492H1018.85V365.224Z" fill="#492E34"/>
<path d="M1011.91 365.224H1016.12L1016.12 388.492H1011.91V365.224Z" fill="#492E34"/>
<path d="M1004.97 365.224H1009.18V388.492H1004.97V365.224Z" fill="#492E34"/>
<path d="M964.811 383.057H971.009V388.492H964.811V383.057Z" fill="#C4B09D"/>
<path d="M953.739 383.057H959.938V388.492H953.739V383.057Z" fill="#C4B09D"/>
<path d="M942.667 383.057H948.865V388.492H942.667V383.057Z" fill="#C4B09D"/>
<path d="M931.596 383.057H937.794V388.492H931.596V383.057Z" fill="#C4B09D"/>
<path d="M920.525 383.057H926.721V388.492H920.525V383.057Z" fill="#C4B09D"/>
<path d="M909.454 383.057H915.65V388.492H909.454V383.057Z" fill="#C4B09D"/>
<path d="M820.88 404.076H900.613V407.935H820.88V404.076Z" fill="#6A5472"/>
<path d="M754.946 415.355H1056.77V422.847L754.946 422.848V415.355Z" fill="#664249"/>
<path d="M1002.82 415.355H1056.77V422.847H1002.82V415.355Z" fill="#3F262C"/>
<path d="M978.361 330.156H981.063V366.872H978.361V330.156Z" fill="#C4B09D"/>
<path d="M969.603 330.156H972.305V366.872H969.603V330.156Z" fill="#C4B09D"/>
<path d="M961.895 330.156H962.497V366.872H961.895V330.156Z" fill="#C4B09D"/>
<path d="M953.137 330.156H953.739V366.872H953.137V330.156Z" fill="#C4B09D"/>
<path d="M944.378 330.156H946.031V366.872H944.378V330.156Z" fill="#C4B09D"/>
<path d="M935.62 330.156H936.223V366.872H935.62V330.156Z" fill="#C4B09D"/>
<path d="M925.814 330.156H928.515V366.872H925.814V330.156Z" fill="#C4B09D"/>
<path d="M917.055 330.156H918.707V366.872H917.055V330.156Z" fill="#C4B09D"/>
<path d="M908.297 330.156H909.948L909.95 366.872H908.297V330.156Z" fill="#C4B09D"/>
<path d="M1185.21 3.37701H1155.86L1154.32 411.774H1186.76L1185.21 3.37701Z" fill="#FF5050"/>
<path d="M1185.26 17.4857H1155.81L1155.73 38.6003H1185.34L1185.26 17.4857Z" fill="#FFF5E3"/>
<path d="M1185.38 48.47H1155.69L1155.63 63.8476H1185.44L1185.38 48.47Z" fill="#FFF5E3"/>
<path d="M1186.14 248.775L1186.07 231.178L1186.14 231.163L1186.33 248.733C1186.27 248.747 1186.2 248.762 1186.14 248.775Z" fill="#95714F"/>
<path d="M1186.5 264.807H1186.2L1186.14 248.775C1186.2 248.762 1186.26 248.747 1186.33 248.733L1186.5 264.807Z" fill="#95714F"/>
<path d="M1188.09 416.381H1164.34V411.774H1154.32H1186.76L1186.2 264.807H1186.5L1188.09 416.381Z" fill="#2E181C"/>
<path d="M1186.76 411.774H1154.32L1155.68 51.7243L1155.63 63.8475H1168.02L1167.39 235.065L1186.07 231.178L1186.14 248.775L1186.2 264.807L1186.76 411.774ZM1168.07 48.4699H1155.69L1155.85 6.96942H1166.13H1168.23L1168.19 17.4857H1155.81L1155.73 38.6003H1168.11L1168.07 48.4699Z" fill="#A22A2A"/>
<path d="M1168.11 38.6003H1155.73L1155.81 17.4857H1168.19L1168.11 38.6003Z" fill="#A28278"/>
<path d="M1168.02 63.8476H1155.63L1155.68 51.7244L1155.69 48.47H1168.07L1168.02 63.8476Z" fill="#A28278"/>
<path d="M1189.57 -3.38554e-05H1151.5C1150.67 -3.38554e-05 1149.99 0.677516 1149.99 1.51267V5.45676C1149.99 6.29192 1150.67 6.96947 1151.5 6.96947H1189.57C1190.41 6.96947 1191.08 6.29192 1191.08 5.45676V1.51267C1191.08 0.677516 1190.41 -3.38554e-05 1189.57 -3.38554e-05Z" fill="#FF5050"/>
<path d="M1166.13 6.96947H1152.73C1151.22 6.96947 1149.99 5.74367 1149.99 4.23231V2.73713C1149.99 1.22442 1151.22 -3.38554e-05 1152.73 -3.38554e-05H1166.13C1164.62 -3.38554e-05 1163.39 1.22442 1163.39 2.73713V4.23231C1163.39 5.74367 1164.62 6.96947 1166.13 6.96947Z" fill="#A22A2A"/>
<path d="M1359.65 99.6838H1311.67L1309.14 358.215H1362.17L1359.65 99.6838Z" fill="#FF5050"/>
<path d="M1311.22 145.904H1360.1L1359.86 121.185H1311.46L1311.22 145.904Z" fill="#FFF5E3"/>
<path d="M1326.67 358.215H1309.14L1311.34 133.525L1311.22 145.904H1328.6L1326.67 358.215ZM1328.83 121.185H1311.46L1311.63 103.955H1328.98L1328.83 121.185Z" fill="#A22A2A"/>
<path d="M1328.6 145.904H1311.22L1311.34 133.525L1311.46 121.185H1328.83L1328.6 145.904Z" fill="#A28278"/>
<path d="M1125.46 354.867H1118.62V307.744C1118.62 302.589 1114.83 297.78 1110.16 297.78H1071.75C1067.09 297.78 1063.3 302.589 1063.3 307.744V342.765H1056.46V307.744C1056.46 298.417 1063.32 290.829 1071.75 290.829H1110.16C1118.6 290.829 1125.46 298.417 1125.46 307.744V354.867Z" fill="#FF5050"/>
<path d="M1063.34 306.847C1063.51 304.803 1064.27 302.857 1065.41 301.296L1065.42 301.302C1064.27 302.862 1063.51 304.805 1063.34 306.847Z" fill="#2E181C"/>
<path d="M1056.48 306.849C1056.67 302.951 1058.06 299.407 1060.24 296.644L1065.41 301.296C1064.27 302.857 1063.51 304.803 1063.34 306.847C1062.21 306.798 1061.07 306.775 1059.94 306.775C1058.78 306.775 1057.63 306.8 1056.48 306.849Z" fill="#A22A2A"/>
<path d="M1124.84 302.981H1117.52C1116.06 299.971 1113.31 297.78 1110.16 297.78H1106.66L1112.68 291.078C1118.49 292.148 1123.2 296.84 1124.84 302.981Z" fill="#A22A2A"/>
<path d="M1066.47 302.981H1053.41C1052.25 302.981 1051.31 303.92 1051.31 305.077V310.54C1051.31 311.697 1052.25 312.638 1053.41 312.638H1066.47C1067.62 312.638 1068.56 311.697 1068.56 310.54V305.077C1068.56 303.92 1067.62 302.981 1066.47 302.981Z" fill="#FF5050"/>
<path d="M1128.25 302.981H1115.2C1114.04 302.981 1113.1 303.92 1113.1 305.077V310.54C1113.1 311.697 1114.04 312.638 1115.2 312.638H1128.25C1129.41 312.638 1130.35 311.697 1130.35 310.54V305.077C1130.35 303.92 1129.41 302.981 1128.25 302.981Z" fill="#FF5050"/>
<path d="M1036.88 411.002H1043.37V337.806H1036.88V411.002Z" fill="#492E34"/>
<path d="M1076.51 411.002H1083V337.806H1076.51V411.002Z" fill="#492E34"/>
<path d="M1086.45 316.63C1086.45 303.49 1033.42 303.49 1033.42 316.63V393.533C1033.42 405.02 1086.45 405.02 1086.45 393.533V316.63Z" fill="#FFF5E3"/>
<path d="M1098.03 411.002H1104.7V337.806H1098.03V411.002Z" fill="#492E34"/>
<path d="M1138.74 411.002H1145.41V337.806H1138.74V411.002Z" fill="#664249"/>
<path d="M1148.24 316.63C1148.24 303.49 1095.21 303.49 1095.21 316.63V393.533C1095.21 405.02 1148.24 405.02 1148.24 393.533V316.63Z" fill="#FFF5E3"/>
<path d="M1095.21 353.751H1148.24V335.85H1095.21V353.751Z" fill="#906F93"/>
<path d="M1095.21 369.588H1148.24V358.112H1095.21V369.588Z" fill="#906F93"/>
<path d="M1148.24 316.63C1148.24 316.619 1148.24 316.607 1148.24 316.595C1148.24 316.607 1148.24 316.619 1148.24 316.63ZM1148.24 316.583C1148.24 316.575 1148.24 316.567 1148.24 316.559C1148.24 316.567 1148.24 316.575 1148.24 316.583ZM1148.24 316.545C1148.24 316.537 1148.24 316.53 1148.24 316.522C1148.24 316.53 1148.24 316.539 1148.24 316.545ZM1148.24 316.51C1148.24 316.502 1148.24 316.494 1148.24 316.486C1148.24 316.494 1148.24 316.502 1148.24 316.51ZM1148.24 316.473C1148.24 316.464 1148.24 316.456 1148.24 316.447C1148.24 316.456 1148.24 316.464 1148.24 316.473ZM1148.24 316.437C1148.24 316.427 1148.24 316.413 1148.24 316.402C1148.24 316.415 1148.24 316.427 1148.24 316.437ZM1148.23 316.394C1148.23 316.385 1148.23 316.376 1148.23 316.367C1148.23 316.376 1148.23 316.385 1148.23 316.394ZM1148.23 316.354C1148.23 316.347 1148.23 316.339 1148.23 316.331C1148.23 316.339 1148.23 316.346 1148.23 316.354ZM1148.23 316.318C1148.23 316.31 1148.23 316.303 1148.23 316.296C1148.23 316.303 1148.23 316.31 1148.23 316.318ZM1148.23 316.283C1148.23 316.275 1148.23 316.266 1148.23 316.258C1148.23 316.266 1148.23 316.275 1148.23 316.283ZM1148.22 316.246C1148.22 316.235 1148.22 316.225 1148.22 316.214C1148.22 316.225 1148.22 316.235 1148.22 316.246ZM1148.22 316.211C1148.22 316.2 1148.22 316.188 1148.22 316.178C1148.22 316.188 1148.22 316.2 1148.22 316.211ZM1148.22 316.164C1148.22 316.157 1148.22 316.149 1148.22 316.141C1148.22 316.149 1148.22 316.157 1148.22 316.164ZM1148.21 316.129C1148.21 316.121 1148.21 316.114 1148.21 316.106C1148.21 316.114 1148.21 316.121 1148.21 316.129ZM1148.21 316.093C1148.21 316.086 1148.21 316.078 1148.21 316.071C1148.21 316.078 1148.21 316.086 1148.21 316.093ZM1148.21 316.058C1148.2 316.05 1148.2 316.043 1148.2 316.035C1148.2 316.043 1148.2 316.05 1148.21 316.058ZM1148.2 316.023C1148.2 316.012 1148.2 316 1148.2 315.989C1148.2 316 1148.2 316.01 1148.2 316.023ZM1148.2 315.978C1148.2 315.97 1148.19 315.962 1148.19 315.954C1148.19 315.962 1148.2 315.97 1148.2 315.978ZM1148.19 315.939C1148.19 315.932 1148.19 315.926 1148.19 315.92C1148.19 315.927 1148.19 315.932 1148.19 315.939ZM1148.18 315.904C1148.18 315.897 1148.18 315.891 1148.18 315.885C1148.18 315.891 1148.18 315.897 1148.18 315.904ZM1148.18 315.869C1148.18 315.864 1148.18 315.856 1148.18 315.849C1148.18 315.856 1148.18 315.864 1148.18 315.869ZM1148.17 315.835C1148.17 315.827 1148.17 315.819 1148.17 315.811C1148.17 315.819 1148.17 315.827 1148.17 315.835ZM1148.17 315.8C1148.17 315.79 1148.16 315.779 1148.16 315.768C1148.16 315.779 1148.17 315.79 1148.17 315.8ZM1148.16 315.755C1148.16 315.748 1148.16 315.741 1148.16 315.734C1148.16 315.741 1148.16 315.748 1148.16 315.755ZM1148.15 315.718C1148.15 315.713 1148.15 315.706 1148.15 315.701C1148.15 315.706 1148.15 315.711 1148.15 315.718ZM1148.15 315.683C1148.14 315.678 1148.14 315.672 1148.14 315.666C1148.14 315.672 1148.14 315.678 1148.15 315.683ZM1148.14 315.649C1148.14 315.643 1148.14 315.637 1148.13 315.631C1148.14 315.637 1148.14 315.643 1148.14 315.649ZM1148.13 315.616C1148.13 315.608 1148.13 315.601 1148.13 315.593C1148.13 315.601 1148.13 315.608 1148.13 315.616ZM1148.12 315.567C1148.12 315.562 1148.12 315.557 1148.12 315.551C1148.12 315.557 1148.12 315.562 1148.12 315.567ZM1148.11 315.532C1148.11 315.528 1148.11 315.523 1148.11 315.517C1148.11 315.523 1148.11 315.527 1148.11 315.532ZM1148.1 315.499C1148.1 315.495 1148.1 315.489 1148.1 315.484C1148.1 315.489 1148.1 315.493 1148.1 315.499ZM1148.1 315.465C1148.09 315.461 1148.09 315.457 1148.09 315.451C1148.09 315.457 1148.09 315.461 1148.1 315.465ZM1148.09 315.431C1148.09 315.429 1148.08 315.425 1148.08 315.42C1148.08 315.425 1148.09 315.429 1148.09 315.431ZM1148.07 315.373C1148.07 315.372 1148.07 315.369 1148.07 315.369C1148.07 315.371 1148.07 315.372 1148.07 315.373ZM1148.06 315.348C1148.06 315.344 1148.06 315.34 1148.06 315.337C1148.06 315.34 1148.06 315.344 1148.06 315.348ZM1148.06 315.315C1148.05 315.311 1148.05 315.307 1148.05 315.303C1148.05 315.307 1148.05 315.311 1148.06 315.315ZM1148.05 315.283C1148.04 315.279 1148.04 315.275 1148.04 315.271C1148.04 315.275 1148.04 315.279 1148.05 315.283ZM1148.03 315.251C1148.03 315.247 1148.03 315.244 1148.03 315.24C1148.03 315.244 1148.03 315.247 1148.03 315.251ZM1148.01 315.159V315.158C1148.01 315.158 1148.01 315.158 1148.01 315.159ZM1148 315.134C1148 315.131 1148 315.127 1148 315.124C1148 315.128 1148 315.131 1148 315.134ZM1147.99 315.103C1147.99 315.099 1147.98 315.096 1147.98 315.093C1147.98 315.096 1147.99 315.099 1147.99 315.103ZM1147.98 315.07C1147.98 315.068 1147.97 315.065 1147.97 315.062C1147.97 315.065 1147.98 315.068 1147.98 315.07ZM1147.96 315.038C1147.96 315.037 1147.96 315.037 1147.96 315.037V315.038ZM1147.92 314.921C1147.92 314.919 1147.92 314.918 1147.92 314.917C1147.92 314.918 1147.92 314.919 1147.92 314.921ZM1147.91 314.89C1147.91 314.888 1147.91 314.888 1147.91 314.887C1147.91 314.888 1147.91 314.89 1147.91 314.89Z" fill="#2E181C"/>
<path d="M1121.72 402.148C1115.62 402.148 1109.52 401.54 1104.7 400.322C1101.99 399.636 1099.69 398.755 1098.03 397.682C1096.25 396.525 1095.21 395.141 1095.21 393.533V369.588H1148.24V393.533C1148.24 395.141 1147.2 396.525 1145.41 397.683C1143.76 398.755 1141.45 399.636 1138.74 400.322C1133.93 401.54 1127.83 402.148 1121.72 402.148ZM1148.24 358.112H1095.21V353.751H1148.24V358.112ZM1148.24 335.849H1103.31L1127.75 307.006C1137.52 307.764 1146.14 310.389 1147.91 314.887C1147.91 314.888 1147.91 314.888 1147.91 314.89C1147.91 314.899 1147.92 314.909 1147.92 314.917C1147.92 314.918 1147.92 314.919 1147.92 314.921C1147.94 314.958 1147.95 314.998 1147.96 315.037C1147.96 315.037 1147.96 315.037 1147.96 315.038C1147.97 315.046 1147.97 315.054 1147.97 315.062C1147.97 315.065 1147.98 315.068 1147.98 315.07C1147.98 315.077 1147.98 315.085 1147.99 315.093C1147.99 315.096 1147.99 315.099 1147.99 315.103C1147.99 315.109 1147.99 315.117 1148 315.124C1148 315.127 1148 315.131 1148 315.134C1148 315.142 1148 315.15 1148.01 315.158V315.159C1148.02 315.186 1148.02 315.213 1148.03 315.24C1148.03 315.244 1148.03 315.247 1148.03 315.251C1148.04 315.257 1148.04 315.264 1148.04 315.271C1148.04 315.275 1148.04 315.279 1148.05 315.283C1148.05 315.29 1148.05 315.297 1148.05 315.303C1148.05 315.307 1148.05 315.311 1148.06 315.315C1148.06 315.322 1148.06 315.33 1148.06 315.337C1148.06 315.34 1148.06 315.344 1148.06 315.348C1148.07 315.354 1148.07 315.361 1148.07 315.369C1148.07 315.369 1148.07 315.372 1148.07 315.373C1148.08 315.389 1148.08 315.404 1148.08 315.42C1148.08 315.425 1148.09 315.429 1148.09 315.431C1148.09 315.438 1148.09 315.445 1148.09 315.451C1148.09 315.457 1148.09 315.461 1148.1 315.465C1148.1 315.472 1148.1 315.478 1148.1 315.484C1148.1 315.489 1148.1 315.495 1148.1 315.499C1148.1 315.505 1148.11 315.512 1148.11 315.517C1148.11 315.523 1148.11 315.528 1148.11 315.532C1148.11 315.539 1148.11 315.544 1148.12 315.551C1148.12 315.557 1148.12 315.562 1148.12 315.567C1148.12 315.575 1148.12 315.583 1148.13 315.593C1148.13 315.601 1148.13 315.608 1148.13 315.616C1148.13 315.621 1148.13 315.625 1148.13 315.631C1148.14 315.637 1148.14 315.643 1148.14 315.649C1148.14 315.655 1148.14 315.66 1148.14 315.666C1148.14 315.672 1148.14 315.678 1148.15 315.683C1148.15 315.689 1148.15 315.695 1148.15 315.701C1148.15 315.706 1148.15 315.713 1148.15 315.718C1148.15 315.724 1148.15 315.729 1148.16 315.734C1148.16 315.741 1148.16 315.748 1148.16 315.755C1148.16 315.759 1148.16 315.764 1148.16 315.768C1148.16 315.779 1148.17 315.79 1148.17 315.8C1148.17 315.804 1148.17 315.807 1148.17 315.811C1148.17 315.819 1148.17 315.827 1148.17 315.835C1148.17 315.839 1148.17 315.845 1148.18 315.849C1148.18 315.856 1148.18 315.864 1148.18 315.869C1148.18 315.874 1148.18 315.88 1148.18 315.885C1148.18 315.891 1148.18 315.897 1148.18 315.904C1148.19 315.909 1148.19 315.915 1148.19 315.92C1148.19 315.926 1148.19 315.932 1148.19 315.939C1148.19 315.944 1148.19 315.95 1148.19 315.954C1148.19 315.962 1148.2 315.97 1148.2 315.978C1148.2 315.981 1148.2 315.985 1148.2 315.989C1148.2 316 1148.2 316.012 1148.2 316.023C1148.2 316.027 1148.2 316.031 1148.2 316.035C1148.2 316.043 1148.2 316.05 1148.21 316.058C1148.21 316.062 1148.21 316.067 1148.21 316.071C1148.21 316.078 1148.21 316.086 1148.21 316.093C1148.21 316.097 1148.21 316.102 1148.21 316.106C1148.21 316.114 1148.21 316.121 1148.21 316.129C1148.21 316.133 1148.22 316.137 1148.22 316.141C1148.22 316.149 1148.22 316.157 1148.22 316.164C1148.22 316.168 1148.22 316.173 1148.22 316.178C1148.22 316.188 1148.22 316.2 1148.22 316.211C1148.22 316.213 1148.22 316.213 1148.22 316.214C1148.22 316.225 1148.22 316.235 1148.22 316.246C1148.23 316.25 1148.23 316.254 1148.23 316.258C1148.23 316.266 1148.23 316.274 1148.23 316.283C1148.23 316.287 1148.23 316.291 1148.23 316.296C1148.23 316.303 1148.23 316.31 1148.23 316.318C1148.23 316.322 1148.23 316.327 1148.23 316.331C1148.23 316.339 1148.23 316.347 1148.23 316.354C1148.23 316.358 1148.23 316.363 1148.23 316.367C1148.23 316.376 1148.23 316.385 1148.23 316.394C1148.23 316.397 1148.24 316.4 1148.24 316.402C1148.24 316.413 1148.24 316.427 1148.24 316.437C1148.24 316.442 1148.24 316.444 1148.24 316.447C1148.24 316.456 1148.24 316.464 1148.24 316.473C1148.24 316.478 1148.24 316.482 1148.24 316.486C1148.24 316.494 1148.24 316.502 1148.24 316.51C1148.24 316.514 1148.24 316.518 1148.24 316.522C1148.24 316.53 1148.24 316.537 1148.24 316.545C1148.24 316.551 1148.24 316.555 1148.24 316.559C1148.24 316.567 1148.24 316.575 1148.24 316.583C1148.24 316.587 1148.24 316.591 1148.24 316.595C1148.24 316.607 1148.24 316.619 1148.24 316.63V335.849Z" fill="#A28278"/>
<path d="M1148.24 353.751H1095.21V345.409L1103.31 335.849H1148.24V353.751Z" fill="#5C3B4E"/>
<path d="M1095.21 369.588H1148.24V358.112H1095.21V369.588Z" fill="#5C3B4E"/>
<path d="M1433.67 33.2473H1412.71L1411.6 411.774H1434.77L1433.67 33.2473Z" fill="#FF5050"/>
<path d="M1412.55 87.9351H1433.83L1433.75 60.3494H1412.63L1412.55 87.9351Z" fill="#FFF5E3"/>
<path d="M1412.43 129.313H1433.95L1433.94 124.419H1412.44L1412.43 129.313Z" fill="#FFF5E3"/>
<path d="M1421.51 299.617H1411.93L1412.43 129.313H1422L1421.51 299.617ZM1412.44 126.766L1412.69 39.2321H1422.26L1422.2 60.3494H1412.63L1412.55 87.9351H1422.12L1422.02 124.419H1412.44L1412.44 126.766Z" fill="#A22A2A"/>
<path d="M1422.12 87.9351H1412.55L1412.63 60.3494H1422.2L1422.12 87.9351Z" fill="#A28278"/>
<path d="M1422 129.313H1412.43L1412.44 126.766L1412.44 124.419H1422.02L1422 129.313Z" fill="#A28278"/>
<path d="M1437.86 250.837H1408.52V283.025H1437.86V250.837Z" fill="#664249"/>
<path d="M1418.79 267.531V250.837H1408.52V283.025H1437.86V267.531H1418.79Z" fill="#3F262C"/>
<path d="M1441.21 273.497H1405.17V305.684H1441.21V273.497Z" fill="#EDDCC0"/>
<path d="M1441.21 294.827H1405.17V307.076H1441.21V294.827Z" fill="#C4B09D"/>
<path d="M1420.54 273.497H1405.17V305.684H1420.54V273.497Z" fill="#C4B09D"/>
<path d="M1379.42 411.774H1471.46V300.534H1379.42V411.774Z" fill="#C4B09D"/>
<path d="M1377.78 304.953H1471.46V301.568H1377.78V304.953Z" fill="#C4B09D"/>
<path d="M1420.17 310.088H1408.64V329.396H1420.17V310.088Z" fill="#6A5472"/>
<path d="M1442.2 310.088H1430.66V329.396H1442.2V310.088Z" fill="#6A5472"/>
<path d="M1398.24 376.448V300.535H1379.42V411.774H1471.46V376.448H1398.24Z" fill="#664249"/>
<path d="M1375.07 208.098H1296.25V222.558H1375.07V208.098Z" fill="#664249"/>
<path d="M1313.38 208.098H1294.6V222.558H1313.38V208.098Z" fill="#3F262C"/>
<path d="M1382.22 219.114H1183.62V233.573H1382.22V219.114Z" fill="#664249"/>
<path d="M1189.81 219.114H1183.62V233.573H1189.81V219.114Z" fill="#3F262C"/>
<path d="M1378.6 303.001H1472.28V299.617H1378.6V303.001Z" fill="#FF5050"/>
<path d="M1377.78 303.001H1373.44V299.617H1378.6V301.568H1377.78V303.001Z" fill="#95714F"/>
<path d="M1379.42 303.001H1377.78V301.568H1378.6V303.001H1379.42Z" fill="#7D5D53"/>
<path d="M1396.68 303.001H1378.6V299.617H1396.68V303.001Z" fill="#A22A2A"/>
<path d="M1389.46 224.829H1175.79V386.541H1389.46V224.829Z" fill="#FFF5E3"/>
<path d="M1380.62 224.829H1257.19L1196.01 386.539L1319.44 386.541L1380.62 224.829Z" fill="#FFFBEE"/>
<path d="M1389.46 375.392H1182.69V391.709H1389.46V375.392Z" fill="#C4B09D"/>
<path d="M1192.57 224.829H1175.79V386.541H1192.57V224.829Z" fill="#C4B09D"/>
<path d="M1148.24 407.397H1017.72V422.847H1148.24V407.397Z" fill="#492E34"/>
<path d="M1092.41 407.397H1039.86V422.847H1092.41V407.397Z" fill="#664249"/>
<path d="M1435.37 343.138L1416.2 343.061V386.322H1435.14L1435.37 343.138Z" fill="#EDDCC0"/>
<path d="M1435.15 342.393H1415.48V349.213H1435.15V342.393Z" fill="#C62B1A"/>
<path d="M1437.86 379.587H1133.57V422.847H1437.86V379.587Z" fill="#FFF5E3"/>
<path d="M1440.04 379.587H1430.41V422.847H1440.04V379.587Z" fill="#EDDCC0"/>
<path d="M1162.05 379.587H1133.57V422.847H1162.05V379.587Z" fill="#C4B09D"/>
<path d="M1418.56 410.873H1186.86V422.847H1418.56V410.873Z" fill="#C4B09D"/>
<path d="M1403.03 416.84H1189.08V422.847H1403.03V416.84Z" fill="#EDDCC0"/>
<path d="M1234.63 392.721H1180.96V398.515H1234.63V392.721Z" fill="#6A5472"/>
<path d="M1154.82 392.721H1138.05V398.515H1154.82V392.721Z" fill="#48344C"/>
<path d="M1297.19 392.721H1243.51V398.515H1297.19V392.721Z" fill="#6A5472"/>
<path d="M1411.46 392.721H1396.68V398.515H1411.46V392.721Z" fill="#6A5472"/>
<path d="M1389.66 392.721H1374.88V398.515H1389.66V392.721Z" fill="#6A5472"/>
<path d="M1358.81 414.834H1350.67V422.847H1358.81V414.834Z" fill="#6A5472"/>
<path d="M1341.6 414.834H1333.46V422.847H1341.6V414.834Z" fill="#6A5472"/>
<path d="M1300.76 414.834H1292.61V422.847H1300.76V414.834Z" fill="#6A5472"/>
<path d="M1259.91 414.834H1251.77V422.847H1259.91V414.834Z" fill="#6A5472"/>
<path d="M1362.92 93.9711H1308.4C1307.2 93.9711 1306.23 94.9409 1306.23 96.1385V101.788C1306.23 102.985 1307.2 103.955 1308.4 103.955H1362.92C1364.12 103.955 1365.09 102.985 1365.09 101.788V96.1385C1365.09 94.9409 1364.12 93.9711 1362.92 93.9711Z" fill="#FF5050"/>
<path d="M1329.35 103.955H1310.15C1307.98 103.955 1306.23 102.2 1306.23 100.035V97.8909C1306.23 95.7263 1307.98 93.9711 1310.15 93.9711H1329.35C1327.18 93.9711 1325.43 95.7263 1325.43 97.8909V100.035C1325.43 102.2 1327.18 103.955 1329.35 103.955Z" fill="#A22A2A"/>
<path d="M1436.04 29.2479H1410.34C1409.14 29.2479 1408.17 30.2177 1408.17 31.4152V37.0647C1408.17 38.2622 1409.14 39.232 1410.34 39.232H1436.04C1437.24 39.232 1438.21 38.2622 1438.21 37.0647V31.4152C1438.21 30.2177 1437.24 29.2479 1436.04 29.2479Z" fill="#FF5050"/>
<path d="M1424.24 39.232H1411.81C1409.8 39.232 1408.17 37.4769 1408.17 35.3122V33.1677C1408.17 31.0206 1409.78 29.2762 1411.77 29.2479H1416.8H1424.19C1422.2 29.2762 1420.6 31.0206 1420.6 33.1677V35.3122C1420.6 37.4769 1422.23 39.232 1424.24 39.232Z" fill="#A22A2A"/>
<path d="M1383.27 269.865H1198.81V327.651H1383.27V269.865Z" fill="#6A5472"/>
<path d="M1383.27 295.505H1199.28V325.216H1383.27V295.505Z" fill="#906F93"/>
<path d="M1383.27 327.635V324.564H1198.81V327.634L1383.27 327.635Z" fill="#48344C"/>
<path d="M1383.27 277.173V269.866H1198.81V277.173H1383.27Z" fill="#48344C"/>
<path d="M1226.79 266.968H1223.12L1223.12 331.002H1226.79V266.968Z" fill="#FFF5E3"/>
<path d="M1259.83 266.968H1256.16V331.002H1259.83V266.968Z" fill="#FFFBEE"/>
<path d="M1292.87 266.968H1289.2V331.002H1292.87V266.968Z" fill="#FFFBEE"/>
<path d="M1325.92 266.968H1322.25V331.002H1325.92V266.968Z" fill="#FFFBEE"/>
<path d="M1358.96 266.968H1355.29V331.002H1358.96V266.968Z" fill="#FFF5E3"/>
<path d="M1199.72 269.865H1198.6V327.651H1199.72V269.865Z" fill="#48344C"/>
<path d="M1383.27 269.865H1377.66V327.651H1383.27V269.865Z" fill="#48344C"/>
<path d="M1485.36 378.621L1435.16 344.438V422.847H1485.36V378.621Z" fill="#FFF5E3"/>
<path d="M1419.85 408.808H1185.56V412.251H1419.85V408.808Z" fill="#FF5050"/>
<path d="M1485.36 387.573V380.687L1435.16 346.504L1434.9 353.337L1485.36 387.573Z" fill="#EDDCC0"/>
<path d="M1485.36 383.441V376.557L1435.16 342.373L1434.94 349.163L1485.36 383.441Z" fill="#FF5050"/>
<path d="M1203.41 244.074C1203.41 250.824 1208.88 256.294 1215.63 256.294C1222.38 256.294 1227.85 250.824 1227.85 244.074C1227.85 237.323 1222.38 231.853 1215.63 231.853C1208.88 231.853 1203.41 237.323 1203.41 244.074Z" fill="#664249"/>
<path d="M1208.49 244.074C1208.49 248.019 1211.68 251.217 1215.63 251.217C1219.57 251.217 1222.77 248.019 1222.77 244.074C1222.77 240.129 1219.57 236.931 1215.63 236.931C1211.68 236.931 1208.49 240.129 1208.49 244.074Z" fill="#FFF5E3"/>
<path d="M1217.04 243.426L1225.27 237.841C1224.38 236.48 1223.22 235.317 1221.86 234.435L1216.28 242.662L1217.04 243.426Z" fill="#FFF5E3"/>
<path d="M1214.22 244.722L1205.99 250.307C1206.87 251.669 1208.04 252.83 1209.4 253.713L1214.98 245.484L1214.22 244.722Z" fill="#FFF5E3"/>
<path d="M1216.28 245.484L1221.86 253.713C1223.22 252.83 1224.38 251.67 1225.27 250.307L1217.04 244.722L1216.28 245.484Z" fill="#FFF5E3"/>
<path d="M1214.98 242.662L1209.4 234.435C1208.04 235.317 1206.87 236.48 1205.99 237.841L1214.22 243.426L1214.98 242.662Z" fill="#FFF5E3"/>
<path d="M1239.92 238.724C1236.97 244.791 1239.49 252.106 1245.56 255.062C1251.63 258.017 1258.94 255.493 1261.89 249.424C1264.85 243.356 1262.33 236.04 1256.26 233.085C1250.19 230.131 1242.88 232.655 1239.92 238.724Z" fill="#664249"/>
<path d="M1245.12 241.253C1243.56 244.451 1244.89 248.306 1248.09 249.864C1251.29 251.421 1255.14 250.091 1256.7 246.893C1258.26 243.696 1256.93 239.84 1253.73 238.282C1250.53 236.725 1246.68 238.056 1245.12 241.253Z" fill="#FFF5E3"/>
<path d="M1252.45 244.109L1262.22 242.7C1262.03 241.1 1261.49 239.559 1260.66 238.177L1252.1 243.096L1252.45 244.109Z" fill="#FFF5E3"/>
<path d="M1249.37 244.039L1239.59 245.447C1239.79 247.047 1240.32 248.589 1241.16 249.969L1249.72 245.052L1249.37 244.039Z" fill="#FFF5E3"/>
<path d="M1250.87 245.615L1252.28 255.389C1253.88 255.194 1255.42 254.662 1256.8 253.828L1251.89 245.266L1250.87 245.615Z" fill="#FFF5E3"/>
<path d="M1250.94 242.532L1249.54 232.758C1247.94 232.953 1246.39 233.485 1245.01 234.318L1249.93 242.881L1250.94 242.532Z" fill="#FFF5E3"/>
<path d="M1033.42 378.053H1086.45V360.151H1033.42V378.053Z" fill="#FF5050"/>
<path d="M1033.42 355.791H1086.45V344.314H1033.42V355.791Z" fill="#FF5050"/>
<path d="M1059.94 402.148C1054.02 402.148 1048.11 401.578 1043.37 400.433C1040.79 399.813 1038.57 399.022 1036.88 398.063C1034.71 396.831 1033.42 395.321 1033.42 393.533V378.053H1047.4V385.494L1054.92 378.053H1086.45V388.241V389.473V393.533C1086.45 395.321 1085.17 396.831 1083 398.063C1081.31 399.022 1079.08 399.813 1076.51 400.433C1071.77 401.578 1065.85 402.148 1059.94 402.148ZM1086.45 360.151H1073.02L1077.43 355.791H1086.45V360.151ZM1047.4 360.151H1033.42V355.791H1047.4V360.151Z" fill="#A28278"/>
<path d="M1086.45 378.053H1054.92L1073.02 360.151H1086.45V378.053ZM1047.4 378.053H1033.42V360.151H1047.4V378.053Z" fill="#A22A2A"/>
<path d="M1033.42 316.63C1033.42 316.619 1033.42 316.609 1033.42 316.596C1033.42 316.607 1033.42 316.619 1033.42 316.63ZM1033.42 316.588C1033.42 316.578 1033.42 316.567 1033.42 316.556C1033.42 316.565 1033.42 316.578 1033.42 316.588ZM1033.42 316.553C1033.42 316.543 1033.42 316.532 1033.42 316.52C1033.42 316.532 1033.42 316.543 1033.42 316.553ZM1033.42 316.51C1033.42 316.501 1033.42 316.491 1033.42 316.481C1033.42 316.491 1033.42 316.501 1033.42 316.51ZM1033.42 316.477C1033.42 316.466 1033.42 316.455 1033.42 316.444C1033.42 316.455 1033.42 316.466 1033.42 316.477ZM1033.42 316.433C1033.43 316.424 1033.43 316.416 1033.43 316.407C1033.43 316.417 1033.43 316.424 1033.42 316.433ZM1033.43 316.4C1033.43 316.389 1033.43 316.378 1033.43 316.369C1033.43 316.378 1033.43 316.389 1033.43 316.4ZM1033.43 316.357C1033.43 316.349 1033.43 316.341 1033.43 316.332C1033.43 316.341 1033.43 316.349 1033.43 316.357ZM1033.43 316.323C1033.43 316.312 1033.43 316.303 1033.43 316.293C1033.43 316.303 1033.43 316.312 1033.43 316.323ZM1033.43 316.279C1033.43 316.273 1033.43 316.266 1033.44 316.261C1033.44 316.266 1033.43 316.273 1033.43 316.279ZM1033.44 316.238C1033.44 316.231 1033.44 316.225 1033.44 316.219C1033.44 316.226 1033.44 316.231 1033.44 316.238ZM1033.44 316.2C1033.44 316.196 1033.44 316.192 1033.44 316.187C1033.44 316.191 1033.44 316.196 1033.44 316.2ZM1033.44 316.149C1033.44 316.148 1033.44 316.145 1033.45 316.145C1033.44 316.147 1033.44 316.148 1033.44 316.149ZM1033.45 316.122C1033.45 316.121 1033.45 316.117 1033.45 316.116C1033.45 316.117 1033.45 316.121 1033.45 316.122ZM1033.46 316.046C1033.46 316.044 1033.46 316.044 1033.46 316.043C1033.46 316.043 1033.46 316.044 1033.46 316.046Z" fill="#2E181C"/>
<path d="M1047.4 344.314H1033.42V316.63C1033.42 316.619 1033.42 316.607 1033.42 316.596C1033.42 316.594 1033.42 316.591 1033.42 316.588C1033.42 316.578 1033.42 316.565 1033.42 316.556C1033.42 316.555 1033.42 316.555 1033.42 316.553C1033.42 316.543 1033.42 316.532 1033.42 316.52C1033.42 316.517 1033.42 316.514 1033.42 316.51C1033.42 316.501 1033.42 316.491 1033.42 316.481C1033.42 316.479 1033.42 316.478 1033.42 316.477C1033.42 316.466 1033.42 316.455 1033.42 316.444C1033.42 316.44 1033.42 316.438 1033.42 316.433C1033.43 316.424 1033.43 316.417 1033.43 316.407C1033.43 316.405 1033.43 316.402 1033.43 316.4C1033.43 316.389 1033.43 316.378 1033.43 316.369C1033.43 316.365 1033.43 316.361 1033.43 316.357C1033.43 316.349 1033.43 316.341 1033.43 316.332C1033.43 316.33 1033.43 316.326 1033.43 316.323C1033.43 316.312 1033.43 316.303 1033.43 316.293C1033.43 316.288 1033.43 316.284 1033.43 316.279C1033.43 316.273 1033.44 316.266 1033.44 316.261C1033.44 316.253 1033.44 316.245 1033.44 316.238C1033.44 316.231 1033.44 316.226 1033.44 316.219C1033.44 316.213 1033.44 316.207 1033.44 316.2C1033.44 316.196 1033.44 316.191 1033.44 316.187C1033.44 316.175 1033.44 316.161 1033.44 316.149C1033.44 316.148 1033.44 316.147 1033.45 316.145C1033.45 316.137 1033.45 316.13 1033.45 316.122C1033.45 316.121 1033.45 316.117 1033.45 316.116C1033.45 316.091 1033.45 316.068 1033.46 316.046C1033.46 316.044 1033.46 316.043 1033.46 316.043C1033.97 311.949 1039.79 309.212 1047.4 307.831V344.314Z" fill="#A28278"/>
<path d="M1086.45 355.791H1077.43L1086.45 346.864V355.791ZM1047.4 355.791H1033.42V344.314H1047.4V355.791Z" fill="#A22A2A"/>
<path d="M1869.17 420.3H750.663V429.193H1869.17V420.3Z" fill="#FFF5E3"/>
<path d="M601.66 491.796H1633.19V427.137H601.66V491.796Z" fill="#7C5B45"/>
<path d="M1948.38 427.137H693.437L798.653 484.228L1948.38 484.227V427.137Z" fill="#7C5B45"/>
<path d="M1948.38 426.9L727.134 426.897L841.29 451.211L1948.38 451.213V426.9Z" fill="#DDC09E"/>
<path d="M1400.83 466.527H1383.92L1379.32 451.211H1395.9L1400.83 466.527Z" fill="#684937"/>
<path d="M1395.9 451.211H1379.32L1377.83 446.23L1393.32 443.217L1395.9 451.211Z" fill="#BA997E"/>
<path d="M1425.6 466.527L1421.01 451.211H1437.58L1442.52 466.526L1425.6 466.527Z" fill="#684937"/>
<path d="M1437.58 451.211H1421L1419.51 446.229L1435 443.217L1437.58 451.211Z" fill="#BA997E"/>
<path d="M1407.04 445.022C1405.46 439.681 1401.26 435.35 1397.65 435.35L1397.51 435.356L1397.51 435.35H1380.98L1380.98 435.357C1377.49 435.497 1375.92 439.77 1377.46 445.023C1378.97 450.152 1382.9 454.347 1386.41 454.672L1386.42 454.695H1403.13L1403.12 454.686L1403.34 454.695C1406.95 454.695 1408.61 450.364 1407.04 445.022Z" fill="#FFF5E3"/>
<path d="M1405 440.578C1403.04 443.253 1400.48 445.035 1398.15 445.035L1398.01 445.03L1398.01 445.035H1381.48L1381.48 445.028C1378.59 444.913 1377.02 441.977 1377.45 438.01C1376.71 439.772 1376.65 442.258 1377.46 445.023C1378.97 450.152 1382.9 454.347 1386.41 454.672L1386.42 454.695H1403.13L1403.12 454.686L1403.34 454.695C1406.95 454.695 1408.61 450.364 1407.04 445.022C1406.56 443.419 1405.86 441.909 1405 440.578Z" fill="#EDDCC0"/>
<path d="M1405.97 445.022C1404.72 440.785 1401.39 437.353 1398.52 437.353C1395.66 437.353 1394.35 440.785 1395.59 445.022C1396.84 449.257 1400.17 452.692 1403.03 452.692C1405.9 452.692 1407.21 449.257 1405.97 445.022Z" fill="#3F262C"/>
<path d="M1448.74 445.022C1447.17 439.679 1442.97 435.35 1439.36 435.35L1439.22 435.356L1439.22 435.35H1422.69L1422.69 435.357C1419.2 435.497 1417.62 439.77 1419.17 445.022C1420.68 450.152 1424.61 454.346 1428.12 454.67L1428.13 454.695L1444.84 454.693L1444.83 454.685L1445.05 454.693C1448.66 454.693 1450.32 450.364 1448.74 445.022Z" fill="#FFF5E3"/>
<path d="M1447.18 441.347C1445.63 442.41 1443.99 443.035 1442.44 443.035L1442.28 443.031L1442.28 443.035L1423.7 443.036L1423.7 443.029C1421.04 442.936 1419.38 440.966 1419.12 438.092C1418.41 439.85 1418.37 442.301 1419.17 445.022C1420.68 450.152 1424.61 454.346 1428.12 454.67L1428.13 454.695L1444.84 454.693L1444.83 454.685L1445.05 454.693C1448.66 454.693 1450.32 450.364 1448.74 445.022C1448.36 443.72 1447.82 442.481 1447.18 441.347Z" fill="#EDDCC0"/>
<path d="M1447.67 445.022C1446.43 440.785 1443.1 437.353 1440.23 437.353C1437.37 437.353 1436.06 440.785 1437.3 445.022C1438.55 449.257 1441.88 452.69 1444.74 452.69C1447.61 452.69 1448.92 449.257 1447.67 445.022Z" fill="#3F262C"/>
<path d="M1402.62 439.376L1398.68 450.421C1400.04 451.823 1401.59 452.692 1403.03 452.692C1405.9 452.692 1407.21 449.257 1405.97 445.022C1405.31 442.786 1404.07 440.78 1402.62 439.376Z" fill="#664249"/>
<path d="M1399.62 451.153L1403.53 465.615H1413.79L1405.74 451.153C1405.74 450.759 1399.62 450.76 1399.62 451.153Z" fill="#D3D34A"/>
<path d="M1948.38 462.288L601.66 462.287V491.937L1948.38 491.939V462.288Z" fill="#AAAD3B"/>
<path d="M1401.06 485.605C1619.27 485.605 1815.02 482.789 1948.38 478.329V465.728L675.151 465.727C700.505 476.829 1015.81 485.605 1401.06 485.605Z" fill="#D3D34A"/>
<path d="M1553.5 469.326C1548.06 467.047 1542.61 465.199 1437.28 465.199C1331.95 465.199 1335.33 467.047 1340.78 469.326C1346.22 471.605 1351.67 473.452 1457 473.452C1562.33 473.452 1558.95 471.605 1553.5 469.326Z" fill="#AAAD3B"/>
<path d="M1235.25 466.574C1232.17 465.058 1229.09 463.827 1169.46 463.827C1109.84 463.827 1111.76 465.058 1114.84 466.574C1117.92 468.091 1121 469.321 1180.62 469.321C1240.25 469.321 1238.33 468.092 1235.25 466.574Z" fill="#AAAD3B"/>
<path d="M837.716 417.164L259.46 391.371L24.7007 432.298L837.716 432.296V417.164Z" fill="#C6A144"/>
<path d="M284.428 233.261C268.201 233.147 252.876 235.107 239.434 237.033C234.863 237.688 230.519 238.338 226.447 238.9C214.014 240.614 204.21 241.485 198.367 239.168C198.367 239.168 198.43 239.081 198.538 238.926H198.537C200.183 236.529 213.085 216.306 186.851 204.749C174.589 199.346 165.206 201.757 158.915 205.357L158.913 205.358C153.269 208.588 150.173 212.711 149.966 212.997L149.924 213.053C149.924 213.052 149.945 212.911 149.974 212.676L149.99 212.511C150.017 212.274 150.042 211.974 150.067 211.587C150.075 211.465 150.078 211.337 150.084 211.203C150.103 210.811 150.111 210.382 150.11 209.883C150.109 209.701 150.103 209.52 150.098 209.322C150.086 208.804 150.052 208.249 150.003 207.646C149.985 207.424 149.967 207.213 149.941 206.98C149.873 206.333 149.768 205.653 149.642 204.939C149.602 204.715 149.572 204.505 149.525 204.275C149.357 203.438 149.133 202.57 148.864 201.671C148.826 201.547 148.803 201.433 148.764 201.309C148.107 199.228 147.138 197.029 145.741 194.824L145.669 194.692V194.722C141.334 187.945 132.852 181.145 115.992 177.954C88.3609 172.722 74.0353 193.367 70.1721 200.033V200.016C70.0535 200.22 69.9606 200.387 69.8609 200.564L69.7518 200.758C69.5443 201.134 69.3948 201.416 69.2857 201.629L69.2157 201.765C69.1389 201.919 69.0864 202.025 69.0864 202.025C33.0036 176.579 -45.179 206.211 -6.91682 254.865C-6.48847 255.411 -6.083 255.955 -5.62501 256.506C-4.91379 257.354 -4.13789 258.206 -3.35392 259.061C-2.61305 259.872 -1.84526 260.683 -1.03704 261.5C-0.306955 262.236 0.439306 262.971 1.22732 263.711C2.30359 264.727 3.46066 265.745 4.6447 266.766C5.33033 267.356 5.98095 267.943 6.70296 268.533C8.69116 270.166 10.7844 271.801 13.0569 273.443C37.795 291.299 74.3734 288.824 114.753 279.242C118.616 278.326 122.505 277.344 126.416 276.314C128.359 275.802 130.309 275.275 132.26 274.74C136.141 273.674 140.038 272.565 143.946 271.423C153.57 268.611 163.251 265.61 172.923 262.596C233.404 243.739 292.775 224.526 344.915 245.89L344.91 245.888L344.915 245.89C324.096 236.418 303.583 233.395 284.428 233.261Z" fill="#EAD696"/>
<path d="M2.2644 295.072H59.3429V253.114H2.2644V295.072Z" fill="#492E34"/>
<path d="M393.557 427.484V256.211L273.9 256.209V427.482L393.557 427.484Z" fill="#664249"/>
<path d="M238.828 416.133H490.522V304.702H238.828V416.133Z" fill="#664249"/>
<path d="M-89.197 426.45H162.496V264.807H-89.197V426.45Z" fill="#492E34"/>
<path d="M564.97 314.778H586.014V304.019H564.97V314.778Z" fill="#664249"/>
<path d="M610.478 322.115H594.454V332.874H610.478V322.115Z" fill="#664249"/>
<path d="M679.296 394.044H702.142V361.999H679.296V394.044Z" fill="#6A5472"/>
<path d="M638.392 324.677H622.368V332.874H638.392V324.677Z" fill="#6A5472"/>
<path d="M520.34 227.514H506.228L505.086 313.971H521.481L520.34 227.514Z" fill="#FF5050"/>
<path d="M520.459 236.613H506.108L505.922 250.637H520.644L520.459 236.613Z" fill="#FFF5E3"/>
<path d="M520.711 255.765H505.855L505.771 262.099H520.795L520.711 255.765Z" fill="#FFF5E3"/>
<path d="M521.395 307.526H505.172L505.812 259.049L505.771 262.099H513.018L512.457 304.621H521.358L521.395 307.526ZM513.102 255.765H505.855L506.228 227.514H513.475L513.355 236.613H506.108L505.922 250.637H513.169L513.102 255.765Z" fill="#A22A2A"/>
<path d="M513.169 250.637H505.922L506.108 236.613H513.355L513.169 250.637Z" fill="#A28278"/>
<path d="M513.018 262.099H505.771L505.812 259.049L505.855 255.765H513.102L513.018 262.099Z" fill="#A28278"/>
<path d="M664.377 256.744H656.967C654.43 256.744 652.372 258.802 652.372 261.342V263.758H668.973V261.342C668.973 258.802 666.916 256.744 664.377 256.744Z" fill="#FF5050"/>
<path d="M723.5 256.744H716.09C713.552 256.744 711.494 258.802 711.494 261.342V263.758H728.095V261.342C728.095 258.802 726.038 256.744 723.5 256.744Z" fill="#FF5050"/>
<path d="M695.918 417.152H693.153L693.154 268.498C693.154 265.422 695.427 262.918 698.22 262.918H708.256C711.051 262.918 713.325 265.422 713.325 268.498V276.913H710.56V268.498C710.56 266.914 709.506 265.575 708.256 265.575H698.22C696.972 265.575 695.918 266.914 695.918 268.498V417.152Z" fill="#6A5472"/>
<path d="M635.854 341.907H633.089V267.791C633.089 265.104 635.361 262.918 638.158 262.918H645.057C647.851 262.918 650.123 265.104 650.123 267.791V274.802H647.36V267.791C647.36 266.568 646.327 265.575 645.057 265.575H638.158C636.886 265.575 635.854 266.568 635.854 267.791V341.907Z" fill="#6A5472"/>
<path d="M730.766 260.364H708.826C705.205 260.364 702.27 263.299 702.27 266.918V276.085H737.321V266.918C737.321 263.299 734.385 260.364 730.766 260.364Z" fill="#6A5472"/>
<path d="M671.051 261.269H651.73C647.386 261.269 643.866 264.79 643.866 269.133V275.519H678.915V269.133C678.915 264.79 675.395 261.269 671.051 261.269Z" fill="#6A5472"/>
<path d="M399.825 418.888H396.14V327.611C396.14 324.248 399.181 321.512 402.922 321.512H409.979C413.718 321.512 416.761 324.248 416.761 327.611V332.898H413.076V327.611C413.076 326.201 411.687 325.054 409.979 325.054H402.922C401.214 325.054 399.825 326.201 399.825 327.611V418.888Z" fill="#C4B09D"/>
<path d="M416.903 327.488L412.672 329.226C411.372 329.761 410.527 330.989 410.527 332.347V337.797H421.819V330.61C421.819 328.175 419.23 326.532 416.903 327.488Z" fill="#3F262C"/>
<path d="M473.937 335.46H469.949V302.649C469.949 298.756 473.242 295.588 477.291 295.588H484.93C488.978 295.588 492.273 298.756 492.273 302.649V308.933H488.283V302.649C488.283 300.871 486.778 299.425 484.93 299.425H477.291C475.442 299.425 473.937 300.871 473.937 302.649V335.46Z" fill="#3F262C"/>
<path d="M455.588 335.46H451.598V302.649C451.598 298.756 454.894 295.588 458.942 295.588H466.582C470.63 295.588 473.925 298.756 473.925 302.649V308.933H469.935V302.649C469.935 300.871 468.431 299.425 466.582 299.425H458.942C457.094 299.425 455.588 300.871 455.588 302.649V335.46Z" fill="#3F262C"/>
<path d="M741.288 278.807C741.288 268.184 698.303 268.184 698.303 278.807V397.827H741.288V278.807Z" fill="#FFF5E3"/>
<path d="M698.303 337.646H741.287V332.518H698.303V337.646Z" fill="#FF5050"/>
<path d="M698.303 327.693H741.287V315.027H698.303V327.693Z" fill="#FF5050"/>
<path d="M704.426 364.638C704.426 372.801 711.307 379.416 719.794 379.416C728.283 379.416 735.164 372.801 735.164 364.638C735.164 356.478 728.283 349.86 719.794 349.86C711.307 349.86 704.426 356.478 704.426 364.638Z" fill="#FF5050"/>
<path d="M741.288 397.827H702.612V388.615H698.303V337.646H712.103V351.841C707.514 354.398 704.426 359.172 704.426 364.638C704.426 370.105 707.514 374.879 712.103 377.435V385.462H741.288V397.827ZM712.103 332.518H698.303V327.693H712.103V332.518Z" fill="#D7C3B5"/>
<path d="M698.303 337.646H712.103V332.518H698.303V337.646Z" fill="#D74040"/>
<path d="M698.303 278.807C698.303 278.799 698.303 278.788 698.303 278.779C698.303 278.79 698.303 278.798 698.303 278.807ZM698.303 278.772C698.303 278.764 698.303 278.757 698.303 278.75C698.303 278.757 698.303 278.765 698.303 278.772ZM698.303 278.742C698.303 278.734 698.304 278.726 698.304 278.718C698.304 278.725 698.303 278.734 698.303 278.742ZM698.304 278.714C698.304 278.705 698.304 278.695 698.304 278.686C698.304 278.695 698.304 278.705 698.304 278.714ZM698.305 278.679C698.305 278.672 698.305 278.664 698.305 278.658C698.305 278.664 698.305 278.672 698.305 278.679ZM698.305 278.649C698.307 278.641 698.307 278.633 698.307 278.627C698.307 278.635 698.307 278.641 698.305 278.649ZM698.307 278.621C698.308 278.612 698.308 278.602 698.308 278.594C698.308 278.602 698.308 278.612 698.307 278.621ZM698.309 278.586C698.309 278.579 698.309 278.573 698.311 278.566C698.309 278.573 698.309 278.579 698.309 278.586ZM698.311 278.556C698.311 278.55 698.312 278.542 698.312 278.535C698.312 278.542 698.311 278.55 698.311 278.556ZM698.312 278.528C698.313 278.52 698.313 278.511 698.315 278.501C698.313 278.511 698.313 278.52 698.312 278.528ZM698.315 278.493C698.316 278.486 698.316 278.481 698.317 278.474C698.316 278.481 698.316 278.486 698.315 278.493ZM698.317 278.464C698.319 278.458 698.319 278.451 698.32 278.445C698.319 278.451 698.319 278.458 698.317 278.464ZM698.32 278.437C698.322 278.427 698.322 278.419 698.323 278.411C698.322 278.419 698.322 278.427 698.32 278.437ZM698.324 278.402C698.324 278.395 698.326 278.389 698.326 278.383C698.326 278.388 698.324 278.396 698.324 278.402ZM698.327 278.373C698.328 278.367 698.328 278.36 698.33 278.354C698.328 278.36 698.328 278.367 698.327 278.373ZM698.33 278.345C698.331 278.337 698.332 278.327 698.334 278.319C698.332 278.327 698.331 278.337 698.33 278.345ZM698.335 278.311C698.335 278.305 698.336 278.299 698.338 278.292C698.336 278.299 698.335 278.306 698.335 278.311ZM698.339 278.282C698.339 278.276 698.34 278.271 698.34 278.266C698.34 278.271 698.339 278.276 698.339 278.282ZM698.342 278.255C698.343 278.247 698.344 278.237 698.346 278.229C698.344 278.237 698.343 278.245 698.342 278.255ZM698.347 278.22C698.349 278.213 698.35 278.208 698.35 278.202C698.35 278.208 698.349 278.213 698.347 278.22ZM698.353 278.191C698.353 278.186 698.354 278.181 698.355 278.175C698.354 278.181 698.353 278.185 698.353 278.191ZM698.357 278.163C698.358 278.156 698.359 278.148 698.361 278.14C698.359 278.148 698.358 278.156 698.357 278.163ZM698.363 278.128C698.363 278.123 698.365 278.119 698.366 278.113C698.365 278.119 698.363 278.123 698.363 278.128ZM698.369 278.1C698.369 278.096 698.37 278.092 698.37 278.086C698.37 278.09 698.369 278.096 698.369 278.1ZM698.373 278.074C698.374 278.069 698.375 278.065 698.375 278.061C698.375 278.065 698.374 278.069 698.373 278.074ZM698.381 278.037C698.381 278.033 698.382 278.028 698.384 278.024C698.382 278.028 698.381 278.033 698.381 278.037ZM698.386 278.011C698.388 278.007 698.388 278.003 698.389 277.999C698.388 278.003 698.388 278.007 698.386 278.011ZM698.392 277.984C698.393 277.98 698.394 277.976 698.394 277.972C698.393 277.976 698.393 277.98 698.392 277.984ZM698.4 277.948C698.401 277.944 698.402 277.941 698.402 277.936C698.402 277.941 698.401 277.944 698.4 277.948ZM698.406 277.921C698.408 277.918 698.408 277.914 698.409 277.91C698.408 277.914 698.408 277.918 698.406 277.921ZM698.413 277.895C698.413 277.892 698.415 277.89 698.415 277.886C698.415 277.89 698.413 277.892 698.413 277.895ZM698.421 277.859C698.423 277.855 698.424 277.851 698.425 277.848C698.424 277.852 698.423 277.855 698.421 277.859ZM698.428 277.833C698.429 277.829 698.431 277.826 698.431 277.822C698.431 277.826 698.429 277.829 698.428 277.833ZM698.436 277.806C698.436 277.805 698.436 277.802 698.437 277.801C698.437 277.802 698.436 277.805 698.436 277.806ZM698.454 277.743C698.454 277.74 698.455 277.739 698.455 277.736C698.455 277.739 698.454 277.742 698.454 277.743ZM698.46 277.717C698.462 277.717 698.462 277.716 698.462 277.716L698.46 277.717ZM698.48 277.654C698.48 277.653 698.481 277.651 698.482 277.651C698.481 277.651 698.48 277.653 698.48 277.654ZM698.489 277.63C698.489 277.631 698.489 277.63 698.489 277.63V277.63Z" fill="#6F5236"/>
<path d="M712.103 315.027H698.303V278.807C698.303 278.798 698.303 278.79 698.303 278.779C698.303 278.776 698.303 278.775 698.303 278.772C698.303 278.765 698.303 278.757 698.303 278.75C698.303 278.748 698.303 278.745 698.303 278.742C698.303 278.734 698.304 278.725 698.304 278.718C698.304 278.717 698.304 278.715 698.304 278.714C698.304 278.705 698.304 278.695 698.304 278.686C698.304 278.683 698.304 278.68 698.305 278.679C698.305 278.672 698.305 278.664 698.305 278.658C698.305 278.655 698.305 278.652 698.305 278.649C698.307 278.641 698.307 278.635 698.307 278.627C698.307 278.625 698.307 278.622 698.307 278.621C698.308 278.612 698.308 278.602 698.308 278.594C698.308 278.592 698.309 278.589 698.309 278.586C698.309 278.579 698.309 278.573 698.311 278.566C698.311 278.563 698.311 278.559 698.311 278.556C698.311 278.55 698.312 278.542 698.312 278.535C698.312 278.532 698.312 278.531 698.312 278.528C698.313 278.52 698.313 278.511 698.315 278.501C698.315 278.499 698.315 278.496 698.315 278.493C698.316 278.486 698.316 278.481 698.317 278.474C698.317 278.47 698.317 278.468 698.317 278.464C698.319 278.458 698.319 278.451 698.32 278.445C698.32 278.442 698.32 278.439 698.32 278.437C698.322 278.427 698.322 278.419 698.323 278.411C698.323 278.407 698.324 278.404 698.324 278.402C698.324 278.396 698.326 278.388 698.326 278.383C698.327 278.38 698.327 278.376 698.327 278.373C698.328 278.367 698.328 278.36 698.33 278.354C698.33 278.352 698.33 278.349 698.33 278.345C698.331 278.337 698.332 278.327 698.334 278.319C698.334 278.317 698.334 278.314 698.335 278.311C698.335 278.306 698.336 278.299 698.338 278.292C698.338 278.288 698.338 278.284 698.339 278.282C698.339 278.276 698.34 278.271 698.34 278.266C698.342 278.261 698.342 278.257 698.342 278.255C698.343 278.245 698.344 278.237 698.346 278.229C698.347 278.226 698.347 278.222 698.347 278.22C698.349 278.213 698.35 278.208 698.35 278.202C698.351 278.198 698.351 278.194 698.353 278.191C698.353 278.185 698.354 278.181 698.355 278.175C698.355 278.171 698.357 278.167 698.357 278.163C698.358 278.156 698.359 278.148 698.361 278.14C698.362 278.136 698.362 278.132 698.363 278.128C698.363 278.123 698.365 278.119 698.366 278.113C698.366 278.109 698.367 278.105 698.369 278.1C698.369 278.096 698.37 278.09 698.37 278.086C698.371 278.082 698.373 278.078 698.373 278.074C698.374 278.069 698.375 278.065 698.375 278.061C698.377 278.053 698.38 278.045 698.381 278.037C698.381 278.032 698.382 278.028 698.384 278.024C698.384 278.02 698.385 278.015 698.386 278.011C698.388 278.007 698.388 278.003 698.389 277.999C698.39 277.993 698.39 277.989 698.392 277.984C698.393 277.98 698.393 277.976 698.394 277.972C698.397 277.964 698.398 277.956 698.4 277.948C698.401 277.944 698.402 277.941 698.402 277.936C698.404 277.931 698.405 277.926 698.406 277.921C698.408 277.918 698.408 277.914 698.409 277.91C698.411 277.906 698.412 277.9 698.413 277.895C698.413 277.892 698.415 277.89 698.415 277.886C698.417 277.878 698.42 277.868 698.421 277.859C698.423 277.855 698.424 277.852 698.425 277.848C698.425 277.843 698.427 277.839 698.428 277.833C698.429 277.829 698.431 277.826 698.431 277.822C698.432 277.817 698.435 277.812 698.436 277.806C698.436 277.805 698.437 277.802 698.437 277.801C698.443 277.781 698.448 277.762 698.454 277.743C698.454 277.742 698.455 277.739 698.455 277.736C698.458 277.731 698.459 277.724 698.46 277.717L698.462 277.716C698.467 277.696 698.474 277.674 698.48 277.654C698.48 277.653 698.481 277.651 698.482 277.651C698.483 277.645 698.486 277.636 698.489 277.63C698.489 277.63 698.489 277.631 698.489 277.63C699.568 274.297 705.232 272.192 712.103 271.314V315.027Z" fill="#D7C3B5"/>
<path d="M698.303 327.693H712.103V315.027H698.303V327.693Z" fill="#D74040"/>
<path d="M712.103 377.435C707.514 374.879 704.426 370.106 704.426 364.638C704.426 359.172 707.514 354.398 712.103 351.841V377.435Z" fill="#D74040"/>
<path d="M744.763 388.615H686.146V398.869H744.763V388.615Z" fill="#664249"/>
<path d="M677.911 398.869H702.611V388.615H677.911V398.869Z" fill="#3F262C"/>
<path d="M566.88 190.612H545.289L543.827 317.484H568.342L566.88 190.612Z" fill="#FF5050"/>
<path d="M566.973 198.613H545.197L544.973 218.067H567.197L566.973 198.613Z" fill="#FFF5E3"/>
<path d="M567.286 225.757H544.883L544.82 231.412H567.35L567.286 225.757Z" fill="#FFF5E3"/>
<path d="M567.765 267.376H544.405L544.315 275.293H567.855L567.765 267.376Z" fill="#FFF5E3"/>
<path d="M553.019 307.526H543.941L544.871 226.894L544.82 231.412H553.896L553.482 267.376H544.405L544.315 275.293H553.391L553.019 307.526ZM553.962 225.757H544.883L545.288 190.612H554.366L554.274 198.613H545.197L544.973 218.067H554.051L553.962 225.757Z" fill="#A22A2A"/>
<path d="M554.051 218.067H544.973L545.197 198.613H554.275L554.051 218.067Z" fill="#A28278"/>
<path d="M553.896 231.412H544.82L544.871 226.894L544.884 225.757H553.962L553.896 231.412Z" fill="#A28278"/>
<path d="M553.391 275.293H544.315L544.405 267.376H553.483L553.391 275.293Z" fill="#A28278"/>
<path d="M519.138 292.031H507.429C502.627 292.031 498.736 295.922 498.736 300.726V325.941H527.832V300.726C527.832 295.922 523.94 292.031 519.138 292.031Z" fill="#664249"/>
<path d="M509.791 312.368V292.031H504.682C501.398 292.031 498.736 294.59 498.736 297.749V325.941H527.832V312.368H509.791Z" fill="#3F262C"/>
<path d="M565.243 280.821H546.925C542.124 280.821 538.231 284.714 538.231 289.516V320.864H573.938V289.516C573.938 284.714 570.045 280.821 565.243 280.821Z" fill="#664249"/>
<path d="M549.992 311.968V280.821H544.179C540.893 280.821 538.231 283.382 538.231 286.539V320.864H573.938V311.968H549.992Z" fill="#3F262C"/>
<path d="M682.884 278.807C682.884 268.184 639.898 268.184 639.898 278.807V397.827H682.884V278.807Z" fill="#FFF5E3"/>
<path d="M639.898 318.947H682.885V306.281H639.898V318.947Z" fill="#95CBDB"/>
<path d="M682.885 278.807C682.885 278.798 682.885 278.79 682.885 278.779C682.885 278.788 682.885 278.798 682.885 278.807ZM682.885 278.771C682.883 278.764 682.883 278.757 682.883 278.75C682.883 278.757 682.883 278.764 682.885 278.771ZM682.883 278.741C682.883 278.734 682.883 278.729 682.883 278.721C682.883 278.728 682.883 278.734 682.883 278.741ZM682.883 278.713C682.883 278.703 682.882 278.695 682.882 278.686C682.882 278.695 682.883 278.703 682.883 278.713ZM682.882 278.675C682.882 278.67 682.882 278.664 682.882 278.659C682.882 278.664 682.882 278.67 682.882 278.675ZM682.881 278.645C682.881 278.641 682.881 278.636 682.881 278.631C682.881 278.636 682.881 278.64 682.881 278.645ZM682.879 278.617C682.879 278.613 682.879 278.609 682.879 278.605C682.879 278.609 682.879 278.613 682.879 278.617ZM682.877 278.573C682.877 278.57 682.877 278.569 682.877 278.567C682.877 278.569 682.877 278.57 682.877 278.573ZM682.875 278.547C682.875 278.546 682.875 278.543 682.875 278.542C682.875 278.543 682.875 278.546 682.875 278.547ZM682.874 278.52C682.874 278.52 682.874 278.52 682.874 278.519C682.874 278.52 682.874 278.52 682.874 278.52Z" fill="#6F5236"/>
<path d="M682.885 375.722H678.649V318.947H682.885V375.722ZM682.885 306.281H678.649V273.823C681.136 275.026 682.73 276.59 682.874 278.519C682.874 278.52 682.874 278.52 682.874 278.52C682.874 278.528 682.874 278.535 682.875 278.542C682.875 278.543 682.875 278.546 682.875 278.547C682.875 278.554 682.876 278.561 682.876 278.567C682.876 278.569 682.876 278.57 682.876 278.573C682.878 278.583 682.878 278.594 682.879 278.605C682.879 278.609 682.879 278.613 682.879 278.617C682.879 278.622 682.88 278.627 682.88 278.631C682.88 278.636 682.88 278.641 682.88 278.645C682.88 278.649 682.88 278.655 682.882 278.659C682.882 278.664 682.882 278.67 682.882 278.675C682.882 278.679 682.882 278.682 682.882 278.686C682.882 278.695 682.883 278.703 682.883 278.713C682.883 278.715 682.883 278.718 682.883 278.721C682.883 278.729 682.883 278.734 682.883 278.741C682.883 278.744 682.883 278.748 682.883 278.75C682.883 278.757 682.883 278.764 682.885 278.771C682.885 278.773 682.885 278.776 682.885 278.779C682.885 278.79 682.885 278.798 682.885 278.807V306.281Z" fill="#D7C3B5"/>
<path d="M678.649 318.947H682.885V306.281H678.649V318.947Z" fill="#7DA2AE"/>
<path d="M639.898 278.807C639.898 278.798 639.898 278.788 639.898 278.779C639.898 278.788 639.898 278.798 639.898 278.807ZM639.898 278.771C639.898 278.764 639.898 278.757 639.898 278.75C639.898 278.757 639.898 278.763 639.898 278.771ZM639.898 278.741C639.898 278.734 639.898 278.728 639.898 278.721C639.898 278.728 639.898 278.734 639.898 278.741ZM639.9 278.711C639.9 278.703 639.9 278.695 639.9 278.686C639.9 278.694 639.9 278.703 639.9 278.711ZM639.9 278.683C639.9 278.674 639.901 278.664 639.901 278.655C639.901 278.666 639.9 278.674 639.9 278.683ZM639.901 278.645C639.901 278.639 639.902 278.633 639.902 278.627C639.902 278.633 639.901 278.64 639.901 278.645ZM639.902 278.616C639.902 278.61 639.904 278.604 639.904 278.598C639.904 278.604 639.902 278.61 639.902 278.616ZM639.904 278.587C639.905 278.581 639.905 278.573 639.905 278.566C639.905 278.573 639.905 278.581 639.904 278.587ZM639.905 278.559C639.906 278.551 639.906 278.542 639.908 278.532C639.906 278.542 639.906 278.55 639.905 278.559ZM639.908 278.523C639.909 278.516 639.909 278.511 639.909 278.504C639.909 278.511 639.909 278.516 639.908 278.523ZM639.91 278.493C639.91 278.488 639.912 278.481 639.912 278.476C639.912 278.482 639.91 278.488 639.91 278.493ZM639.913 278.465C639.913 278.458 639.914 278.451 639.914 278.446C639.914 278.451 639.913 278.458 639.913 278.465ZM639.916 278.437C639.916 278.429 639.917 278.419 639.918 278.411C639.917 278.419 639.916 278.429 639.916 278.437ZM639.92 278.399C639.92 278.393 639.92 278.388 639.921 278.383C639.92 278.388 639.92 278.393 639.92 278.399ZM639.922 278.371C639.922 278.365 639.924 278.36 639.924 278.356C639.924 278.36 639.922 278.365 639.922 278.371ZM639.925 278.342C639.927 278.337 639.926 278.332 639.928 278.326C639.926 278.332 639.927 278.338 639.925 278.342ZM639.929 278.315C639.93 278.306 639.932 278.298 639.932 278.29C639.932 278.298 639.93 278.306 639.929 278.315ZM639.934 278.276C639.934 278.271 639.936 278.267 639.936 278.263C639.936 278.267 639.934 278.272 639.934 278.276ZM639.939 278.248C639.939 278.244 639.94 278.24 639.94 278.236C639.94 278.24 639.939 278.244 639.939 278.248ZM639.943 278.22C639.943 278.217 639.944 278.214 639.944 278.21C639.944 278.213 639.943 278.217 639.943 278.22ZM639.947 278.194C639.947 278.193 639.947 278.193 639.947 278.191C639.947 278.191 639.947 278.193 639.947 278.194ZM639.953 278.151C639.955 278.148 639.955 278.147 639.955 278.144C639.955 278.147 639.955 278.148 639.953 278.151ZM639.959 278.125C639.959 278.123 639.959 278.12 639.96 278.119C639.959 278.121 639.959 278.123 639.959 278.125ZM639.963 278.1C639.964 278.097 639.964 278.096 639.964 278.093C639.964 278.096 639.964 278.097 639.963 278.1ZM639.983 278.003V278.002V278.003Z" fill="#6F5236"/>
<path d="M655.188 375.722H639.898V318.947H655.188V375.722ZM655.188 306.281H639.898V278.807C639.898 278.798 639.898 278.788 639.898 278.779C639.898 278.776 639.898 278.773 639.898 278.771C639.898 278.763 639.898 278.757 639.898 278.75C639.898 278.746 639.898 278.744 639.898 278.741C639.898 278.734 639.898 278.728 639.898 278.721C639.898 278.718 639.898 278.714 639.9 278.711C639.9 278.703 639.9 278.694 639.9 278.686C639.9 278.686 639.9 278.684 639.9 278.683C639.9 278.674 639.901 278.666 639.901 278.655C639.901 278.652 639.901 278.649 639.901 278.645C639.901 278.64 639.902 278.633 639.902 278.627C639.902 278.624 639.902 278.62 639.902 278.616C639.902 278.61 639.904 278.604 639.904 278.598C639.904 278.594 639.904 278.592 639.904 278.587C639.905 278.581 639.905 278.573 639.905 278.566C639.905 278.563 639.905 278.562 639.905 278.559C639.906 278.55 639.906 278.542 639.908 278.532C639.908 278.53 639.908 278.526 639.908 278.523C639.909 278.516 639.909 278.511 639.909 278.504C639.91 278.5 639.91 278.497 639.91 278.493C639.91 278.488 639.912 278.482 639.912 278.476C639.912 278.472 639.913 278.469 639.913 278.465C639.913 278.458 639.914 278.451 639.914 278.446C639.914 278.443 639.916 278.439 639.916 278.437C639.916 278.429 639.917 278.419 639.918 278.411C639.918 278.407 639.918 278.403 639.92 278.399C639.92 278.394 639.92 278.388 639.921 278.383C639.921 278.379 639.922 278.375 639.922 278.371C639.922 278.365 639.924 278.36 639.924 278.356C639.925 278.35 639.925 278.348 639.925 278.342C639.927 278.338 639.926 278.332 639.928 278.326C639.928 278.322 639.929 278.319 639.929 278.315C639.93 278.306 639.932 278.298 639.932 278.29C639.933 278.286 639.933 278.28 639.934 278.276C639.934 278.272 639.936 278.267 639.936 278.263C639.937 278.257 639.937 278.253 639.939 278.248C639.939 278.244 639.94 278.24 639.94 278.236C639.941 278.231 639.941 278.225 639.943 278.22C639.943 278.217 639.944 278.213 639.944 278.21C639.945 278.205 639.945 278.2 639.947 278.194C639.947 278.193 639.947 278.191 639.947 278.191C639.949 278.178 639.952 278.165 639.953 278.151C639.955 278.148 639.955 278.147 639.955 278.144C639.956 278.138 639.957 278.132 639.959 278.125C639.959 278.123 639.959 278.121 639.96 278.119C639.961 278.112 639.963 278.105 639.963 278.1C639.964 278.097 639.964 278.096 639.964 278.093C639.97 278.063 639.976 278.034 639.983 278.003V278.002C639.984 277.993 639.987 277.987 639.988 277.979C640.829 274.199 647.419 271.921 655.188 271.144V306.281Z" fill="#D7C3B5"/>
<path d="M639.898 318.947H655.188V306.281H639.898V318.947Z" fill="#7DA2AE"/>
<path d="M399.526 375.949H396.438C394.953 375.949 393.748 377.152 393.748 378.639V399.646C393.748 401.133 394.953 402.337 396.438 402.337H399.526C401.012 402.337 402.216 401.133 402.216 399.646V378.639C402.216 377.152 401.012 375.949 399.526 375.949Z" fill="#664249"/>
<path d="M405.053 392.625H379.738C376.951 392.625 374.694 394.884 374.694 397.671V413.972C374.694 416.757 376.951 419.015 379.738 419.015H405.053C407.839 419.015 410.096 416.757 410.096 413.972V397.671C410.096 394.884 407.839 392.625 405.053 392.625Z" fill="#664249"/>
<path d="M411.391 395.992H387.969V421.64H411.391V395.992Z" fill="#C4B09D"/>
<path d="M391.396 395.992H379.344V421.64H391.396V395.992Z" fill="#EDDCC0"/>
<path d="M395.499 416.21H377.826V421.64H395.499V416.21Z" fill="#C4B09D"/>
<path d="M380.419 395.992H373.229V421.64H380.419V395.992Z" fill="#C4B09D"/>
<path d="M750.987 395.089H650.255V420.735H750.987V395.089Z" fill="#C4B09D"/>
<path d="M712.255 406.258H706.649V414.401H712.255V406.258Z" fill="#6A5472"/>
<path d="M702.439 406.258H696.833V414.401H702.439V406.258Z" fill="#6A5472"/>
<path d="M738.367 406.258H729.531V420.735H738.367V406.258Z" fill="#6A5472"/>
<path d="M693.437 395.089H671.796V420.735H693.437V395.089Z" fill="#664249"/>
<path d="M673.302 329.104H557.035V420.735H673.302V329.104Z" fill="#C4B09D"/>
<path d="M603.107 327.431H587.084V420.735H603.107V327.431Z" fill="#664249"/>
<path d="M481.766 420.735H598.034V307.526H481.766V420.735Z" fill="#FFF5E3"/>
<path d="M481.766 399.057H598.034V373.837H481.766V399.057Z" fill="#C4B09D"/>
<path d="M481.766 420.735H519.363V307.526H481.766V420.735Z" fill="#C4B09D"/>
<path d="M509.954 420.735H690.458V376.663H509.954V420.735Z" fill="#FFF5E3"/>
<path d="M509.954 385.297H690.458V378.17H509.954V385.297Z" fill="#EDDCC0"/>
<path d="M480.472 420.735H541.476V376.663H480.472V420.735Z" fill="#C4B09D"/>
<path d="M511.864 406.665H407.389V421.64H511.864V406.665Z" fill="#48344C"/>
<path d="M454.675 406.665H407.389V421.64H454.675V406.665Z" fill="#312335"/>
<path d="M640.274 404.449H607.125V420.735H640.274V404.449Z" fill="#C4B09D"/>
<path d="M635.747 406.541H607.773V421.018H635.747V406.541Z" fill="#EDDCC0"/>
<path d="M678.067 409.425H671.246V420.735H678.067V409.425Z" fill="#C4B09D"/>
<path d="M668.502 409.425H661.68V420.735H668.502V409.425Z" fill="#C4B09D"/>
<path d="M657.8 409.425H650.978V413.95H657.8V409.425Z" fill="#C4B09D"/>
<path d="M589.148 404.449H555.998V420.735H589.148V404.449Z" fill="#C4B09D"/>
<path d="M584.993 406.936H556.648V420.735H584.993V406.936Z" fill="#EDDCC0"/>
<path d="M485.332 324.754C485.332 318.319 427.935 318.319 427.935 324.754V330.937H485.332V324.754Z" fill="#3F262C"/>
<path d="M510.66 382.281H691.868V375.723H510.66V382.281Z" fill="#FF5050"/>
<path d="M538.888 382.281H514.135V375.722H538.888V382.281Z" fill="#A22A2A"/>
<path d="M514.135 342.717C514.135 321.246 406.215 321.246 406.215 342.717L405.118 414.261H514.135V342.717Z" fill="#95CBDB"/>
<path d="M437.031 411.093V327.914C419.092 330.098 405.118 335.03 405.118 342.717V414.261H514.135V411.093H437.031Z" fill="#6D94A0"/>
<path d="M437.031 364.412H514.135V352.877H437.031V364.412Z" fill="#DFEDEF"/>
<path d="M405.118 364.412H437.031V352.877H405.118V364.412Z" fill="#B9D9D4"/>
<path d="M437.031 380.699H514.135V375.723H437.031V380.699Z" fill="#DFEDEF"/>
<path d="M405.118 380.699H437.031V375.723H405.118V380.699Z" fill="#B9D9D4"/>
<path d="M501.398 405.932H489.52V401.049H497.575V398.328H489.52V386.287H503.821V388.728L502.829 391.227H495.911V393.444H501.398C502.887 393.444 503.938 394.456 503.938 395.885V403.492C503.938 404.922 502.887 405.932 501.398 405.932Z" fill="#DBE7E0"/>
<path d="M545.213 325.281V317.762H530.602V325.281H545.213Z" fill="#C4B09D"/>
<path d="M567.127 325.281V317.762H552.517V325.281H567.127Z" fill="#C4B09D"/>
<path d="M590.061 325.281V317.762H575.453V325.281H590.061Z" fill="#C4B09D"/>
<path d="M653.827 346.091V371.144H662.387V346.095L653.827 346.091Z" fill="#6A5472"/>
<path d="M633.969 346.091V371.144H642.529V346.095L633.969 346.091Z" fill="#6A5472"/>
<path d="M614.111 346.091V371.144H622.669L622.67 346.095L614.111 346.091Z" fill="#6A5472"/>
<path d="M530.602 332.971V345.811H590.06L590.061 332.974L530.602 332.971Z" fill="#C4B09D"/>
<path d="M466.789 298.666C466.789 301.227 468.947 303.303 471.611 303.303C474.274 303.303 476.433 301.227 476.433 298.666C476.433 296.104 474.274 294.028 471.611 294.028C468.947 294.028 466.789 296.104 466.789 298.666Z" fill="#3F262C"/>
<path d="M469.454 298.666C469.454 299.811 470.42 300.739 471.611 300.739C472.802 300.739 473.768 299.811 473.768 298.666C473.768 297.521 472.802 296.592 471.611 296.592C470.42 296.592 469.454 297.521 469.454 298.666Z" fill="#C4B09D"/>
<path d="M74.5513 3.37701H45.2024L43.6587 411.774H76.0964L74.5513 3.37701Z" fill="#FF5050"/>
<path d="M74.6038 17.4857H45.1498L45.0703 38.6003H74.6847L74.6038 17.4857Z" fill="#FFF5E3"/>
<path d="M74.7223 48.47H45.0325L44.9746 63.8476H74.7802L74.7223 48.47Z" fill="#FFF5E3"/>
<path d="M75.4794 248.775L75.4133 231.178L75.4834 231.163L75.6679 248.733C75.6046 248.747 75.5427 248.762 75.4794 248.775Z" fill="#95714F"/>
<path d="M75.8378 264.807H75.5401L75.4795 248.775C75.5428 248.762 75.6048 248.747 75.6681 248.733L75.8378 264.807Z" fill="#95714F"/>
<path d="M77.4339 416.381H53.6846V411.774H43.6587H76.0964L75.54 264.807H75.8378L77.4339 416.381Z" fill="#2E181C"/>
<path d="M76.0964 411.774H43.6587L45.0205 51.7243L44.9747 63.8475H57.3566L56.7329 235.065L75.4134 231.178L75.4794 248.775L75.54 264.807L76.0964 411.774ZM57.4131 48.4699H45.0326L45.1889 6.96942H55.4694H57.5653L57.5263 17.4857H45.1498L45.0704 38.6003H57.4495L57.4131 48.4699Z" fill="#A22A2A"/>
<path d="M57.4495 38.6003H45.0703L45.1498 17.4857H57.5262L57.4495 38.6003Z" fill="#A28278"/>
<path d="M57.3564 63.8476H44.9746L45.0204 51.7244L45.0325 48.47H57.413L57.3564 63.8476Z" fill="#A28278"/>
<path d="M78.9102 -3.38554e-05H40.8446C40.0081 -3.38554e-05 39.3306 0.677516 39.3306 1.51267V5.45676C39.3306 6.29192 40.0081 6.96947 40.8446 6.96947H78.9102C79.7453 6.96947 80.4229 6.29192 80.4229 5.45676V1.51267C80.4229 0.677516 79.7453 -3.38554e-05 78.9102 -3.38554e-05Z" fill="#FF5050"/>
<path d="M55.4692 6.96947H42.0677C40.5564 6.96947 39.3306 5.74367 39.3306 4.23231V2.73713C39.3306 1.22442 40.5564 -3.38554e-05 42.0677 -3.38554e-05H55.4692C53.9592 -3.38554e-05 52.7335 1.22442 52.7335 2.73713V4.23231C52.7335 5.74367 53.9592 6.96947 55.4692 6.96947Z" fill="#A22A2A"/>
<path d="M248.989 99.6838H201.007L198.481 358.215H251.514L248.989 99.6838Z" fill="#FF5050"/>
<path d="M200.556 145.904H249.441L249.2 121.185H200.797L200.556 145.904Z" fill="#FFF5E3"/>
<path d="M216.005 358.215H198.481L200.677 133.525L200.556 145.904H217.941L216.005 358.215ZM218.165 121.185H200.797L200.965 103.955H218.323L218.165 121.185Z" fill="#A22A2A"/>
<path d="M217.941 145.904H200.556L200.677 133.525L200.797 121.185H218.166L217.941 145.904Z" fill="#A28278"/>
<path d="M14.7959 354.867H7.95838V307.744C7.95838 302.589 4.1665 297.78 -0.495548 297.78H-38.9073C-43.568 297.78 -47.3599 302.589 -47.3599 307.744V342.765H-54.1987V307.744C-54.1987 298.417 -47.3383 290.829 -38.9073 290.829H-0.495548C7.93682 290.829 14.7959 298.417 14.7959 307.744V354.867Z" fill="#FF5050"/>
<path d="M14.1791 302.981H6.85665C5.40186 299.971 2.65126 297.78 -0.49539 297.78H-4.00439L2.02219 291.078C7.82921 292.148 12.5438 296.84 14.1791 302.981Z" fill="#A22A2A"/>
<path d="M17.5924 302.981H4.53564C3.3772 302.981 2.4397 303.92 2.4397 305.077V310.54C2.4397 311.697 3.3772 312.638 4.53564 312.638H17.5924C18.7495 312.638 19.6883 311.697 19.6883 310.54V305.077C19.6883 303.92 18.7495 302.981 17.5924 302.981Z" fill="#FF5050"/>
<path d="M28.083 411.002H34.7534V337.806H28.083V411.002Z" fill="#664249"/>
<path d="M37.5808 316.63C37.5808 303.49 -15.4529 303.49 -15.4529 316.63V393.533C-15.4529 405.02 37.5808 405.02 37.5808 393.533V316.63Z" fill="#FFF5E3"/>
<path d="M-15.4529 353.751H37.5809V335.85H-15.4529V353.751Z" fill="#906F93"/>
<path d="M-15.4529 369.588H37.5809V358.112H-15.4529V369.588Z" fill="#906F93"/>
<path d="M37.5808 316.63C37.5808 316.619 37.5808 316.607 37.5808 316.595C37.5808 316.607 37.5808 316.619 37.5808 316.63ZM37.5794 316.583C37.5794 316.575 37.5794 316.567 37.5794 316.559C37.5794 316.567 37.5794 316.575 37.5794 316.583ZM37.5794 316.545C37.5794 316.537 37.5794 316.53 37.5794 316.522C37.5794 316.53 37.5794 316.539 37.5794 316.545ZM37.5794 316.51C37.5781 316.502 37.5781 316.494 37.5781 316.486C37.5781 316.494 37.5781 316.502 37.5794 316.51ZM37.5781 316.473C37.5781 316.464 37.5767 316.456 37.5767 316.447C37.5767 316.456 37.5781 316.464 37.5781 316.473ZM37.5767 316.437C37.5754 316.427 37.5754 316.413 37.5754 316.402C37.5754 316.415 37.5754 316.427 37.5767 316.437ZM37.574 316.394C37.574 316.385 37.574 316.376 37.5727 316.367C37.574 316.376 37.574 316.385 37.574 316.394ZM37.5727 316.354C37.5713 316.347 37.5713 316.339 37.5713 316.331C37.5713 316.339 37.5713 316.346 37.5727 316.354ZM37.57 316.318C37.57 316.31 37.5686 316.303 37.5686 316.296C37.5686 316.303 37.57 316.31 37.57 316.318ZM37.5673 316.283C37.5673 316.275 37.566 316.266 37.566 316.258C37.566 316.266 37.5673 316.275 37.5673 316.283ZM37.5646 316.246C37.5646 316.235 37.5633 316.225 37.5619 316.214C37.5633 316.225 37.5646 316.235 37.5646 316.246ZM37.5619 316.211C37.5606 316.2 37.5606 316.188 37.5592 316.178C37.5606 316.188 37.5606 316.2 37.5619 316.211ZM37.5579 316.164C37.5565 316.157 37.5565 316.149 37.5552 316.141C37.5565 316.149 37.5565 316.157 37.5579 316.164ZM37.5538 316.129C37.5538 316.121 37.5525 316.114 37.5511 316.106C37.5525 316.114 37.5538 316.121 37.5538 316.129ZM37.5498 316.093C37.5498 316.086 37.5484 316.078 37.5471 316.071C37.5484 316.078 37.5498 316.086 37.5498 316.093ZM37.5457 316.058C37.5444 316.05 37.5444 316.043 37.543 316.035C37.5444 316.043 37.5444 316.05 37.5457 316.058ZM37.5417 316.023C37.5403 316.012 37.539 316 37.5376 315.989C37.539 316 37.5403 316.01 37.5417 316.023ZM37.5363 315.978C37.5349 315.97 37.5336 315.962 37.5323 315.954C37.5336 315.962 37.5349 315.97 37.5363 315.978ZM37.5296 315.939C37.5296 315.932 37.5282 315.926 37.5269 315.92C37.5282 315.927 37.5296 315.932 37.5296 315.939ZM37.5242 315.904C37.5242 315.897 37.5228 315.891 37.5215 315.885C37.5228 315.891 37.5242 315.897 37.5242 315.904ZM37.5188 315.869C37.5188 315.864 37.5175 315.856 37.5161 315.849C37.5175 315.856 37.5188 315.864 37.5188 315.869ZM37.5134 315.835C37.5121 315.827 37.5107 315.819 37.5094 315.811C37.5107 315.819 37.5121 315.827 37.5134 315.835ZM37.508 315.8C37.5053 315.79 37.504 315.779 37.5013 315.768C37.504 315.779 37.5053 315.79 37.508 315.8ZM37.4986 315.755C37.4973 315.748 37.4973 315.741 37.4959 315.734C37.4973 315.741 37.4973 315.748 37.4986 315.755ZM37.4919 315.718C37.4905 315.713 37.4892 315.706 37.4892 315.701C37.4905 315.706 37.4905 315.711 37.4919 315.718ZM37.4851 315.683C37.4838 315.678 37.4824 315.672 37.4811 315.666C37.4824 315.672 37.4838 315.678 37.4851 315.683ZM37.4784 315.649C37.477 315.643 37.4757 315.637 37.4743 315.631C37.4757 315.637 37.477 315.643 37.4784 315.649ZM37.4716 315.616C37.4689 315.608 37.4676 315.601 37.4662 315.593C37.4676 315.601 37.4689 315.608 37.4716 315.616ZM37.4595 315.567C37.4582 315.562 37.4568 315.557 37.4568 315.551C37.4568 315.557 37.4582 315.562 37.4595 315.567ZM37.4514 315.532C37.4514 315.528 37.4488 315.523 37.4488 315.517C37.4501 315.523 37.4501 315.527 37.4514 315.532ZM37.4434 315.499C37.442 315.495 37.4407 315.489 37.4407 315.484C37.442 315.489 37.442 315.493 37.4434 315.499ZM37.4353 315.465C37.4339 315.461 37.4326 315.457 37.4313 315.451C37.4326 315.457 37.4339 315.461 37.4353 315.465ZM37.4272 315.431C37.4259 315.429 37.4245 315.425 37.4232 315.42C37.4245 315.425 37.4259 315.429 37.4272 315.431ZM37.411 315.373C37.411 315.372 37.4097 315.369 37.4097 315.369C37.4097 315.371 37.411 315.372 37.411 315.373ZM37.4043 315.348C37.4029 315.344 37.4016 315.34 37.4002 315.337C37.4016 315.34 37.4029 315.344 37.4043 315.348ZM37.3949 315.315C37.3935 315.311 37.3922 315.307 37.3908 315.303C37.3922 315.307 37.3935 315.311 37.3949 315.315ZM37.3854 315.283C37.3841 315.279 37.3827 315.275 37.3814 315.271C37.3827 315.275 37.3841 315.279 37.3854 315.283ZM37.3747 315.251C37.3747 315.247 37.3733 315.244 37.372 315.24C37.3733 315.244 37.3747 315.247 37.3747 315.251ZM37.3464 315.159V315.158C37.3464 315.158 37.3464 315.158 37.3464 315.159ZM37.3383 315.134C37.3369 315.131 37.3356 315.127 37.3356 315.124C37.3356 315.128 37.3369 315.131 37.3383 315.134ZM37.3275 315.103C37.3262 315.099 37.3248 315.096 37.3248 315.093C37.3248 315.096 37.3262 315.099 37.3275 315.103ZM37.3167 315.07C37.3154 315.068 37.314 315.065 37.314 315.062C37.314 315.065 37.3154 315.068 37.3167 315.07ZM37.3046 315.038C37.3046 315.037 37.3046 315.037 37.3046 315.037V315.038ZM37.2615 314.921C37.2615 314.919 37.2602 314.918 37.2602 314.917C37.2602 314.918 37.2615 314.919 37.2615 314.921ZM37.2494 314.89C37.2494 314.888 37.2494 314.888 37.248 314.887C37.2494 314.888 37.2494 314.89 37.2494 314.89Z" fill="#2E181C"/>
<path d="M11.0633 402.148C4.95859 402.148 -1.14479 401.54 -5.95636 400.322C-8.66792 399.636 -10.9686 398.755 -12.6255 397.682C-14.4143 396.525 -15.4529 395.141 -15.4529 393.533V369.588H37.5808V393.533C37.5808 395.141 36.5409 396.525 34.7534 397.683C33.0966 398.755 30.7945 399.636 28.0829 400.322C23.2727 401.54 17.168 402.148 11.0633 402.148ZM37.5808 358.112H-15.4529V353.751H37.5808V358.112ZM37.5808 335.849H-7.35189L17.0926 307.006C26.8612 307.764 35.4781 310.389 37.2481 314.887C37.2494 314.888 37.2494 314.888 37.2494 314.89C37.2535 314.899 37.2562 314.909 37.2602 314.917C37.2602 314.918 37.2616 314.919 37.2616 314.921C37.2764 314.958 37.2912 314.998 37.3047 315.037C37.3047 315.037 37.3047 315.037 37.3047 315.038C37.3087 315.046 37.3114 315.054 37.3141 315.062C37.3141 315.065 37.3154 315.068 37.3168 315.07C37.3195 315.077 37.3222 315.085 37.3249 315.093C37.3249 315.096 37.3262 315.099 37.3276 315.103C37.3303 315.109 37.3329 315.117 37.3356 315.124C37.3356 315.127 37.337 315.131 37.3383 315.134C37.341 315.142 37.3437 315.15 37.3464 315.158V315.159C37.3559 315.186 37.3639 315.213 37.372 315.24C37.3734 315.244 37.3747 315.247 37.3747 315.251C37.3774 315.257 37.3801 315.264 37.3815 315.271C37.3828 315.275 37.3841 315.279 37.3855 315.283C37.3868 315.29 37.3895 315.297 37.3909 315.303C37.3922 315.307 37.3936 315.311 37.3949 315.315C37.3963 315.322 37.3989 315.33 37.4003 315.337C37.4016 315.34 37.403 315.344 37.4043 315.348C37.4057 315.354 37.4084 315.361 37.4097 315.369C37.4097 315.369 37.4111 315.372 37.4111 315.373C37.4151 315.389 37.4192 315.404 37.4232 315.42C37.4246 315.425 37.4259 315.429 37.4273 315.431C37.4286 315.438 37.43 315.445 37.4313 315.451C37.4327 315.457 37.434 315.461 37.4353 315.465C37.4367 315.472 37.438 315.478 37.4407 315.484C37.4407 315.489 37.4421 315.495 37.4434 315.499C37.4448 315.505 37.4475 315.512 37.4488 315.517C37.4488 315.523 37.4515 315.528 37.4515 315.532C37.4528 315.539 37.4542 315.544 37.4569 315.551C37.4569 315.557 37.4582 315.562 37.4596 315.567C37.4623 315.575 37.4636 315.583 37.4663 315.593C37.4676 315.601 37.469 315.608 37.4717 315.616C37.4717 315.621 37.473 315.625 37.4744 315.631C37.4757 315.637 37.4771 315.643 37.4784 315.649C37.4798 315.655 37.4811 315.66 37.4811 315.666C37.4825 315.672 37.4838 315.678 37.4852 315.683C37.4865 315.689 37.4879 315.695 37.4892 315.701C37.4892 315.706 37.4906 315.713 37.4919 315.718C37.4933 315.724 37.4946 315.729 37.496 315.734C37.4973 315.741 37.4973 315.748 37.4987 315.755C37.5 315.759 37.5013 315.764 37.5013 315.768C37.504 315.779 37.5054 315.79 37.5081 315.8C37.5081 315.804 37.5094 315.807 37.5094 315.811C37.5108 315.819 37.5121 315.827 37.5135 315.835C37.5148 315.839 37.5148 315.845 37.5162 315.849C37.5175 315.856 37.5188 315.864 37.5188 315.869C37.5202 315.874 37.5215 315.88 37.5215 315.885C37.5229 315.891 37.5242 315.897 37.5242 315.904C37.5256 315.909 37.5269 315.915 37.5269 315.92C37.5283 315.926 37.5296 315.932 37.5296 315.939C37.531 315.944 37.531 315.95 37.5323 315.954C37.5337 315.962 37.535 315.97 37.5363 315.978C37.5363 315.981 37.5363 315.985 37.5377 315.989C37.539 316 37.5404 316.012 37.5417 316.023C37.5417 316.027 37.5431 316.031 37.5431 316.035C37.5444 316.043 37.5444 316.05 37.5458 316.058C37.5471 316.062 37.5471 316.067 37.5471 316.071C37.5485 316.078 37.5498 316.086 37.5498 316.093C37.5512 316.097 37.5512 316.102 37.5512 316.106C37.5525 316.114 37.5539 316.121 37.5539 316.129C37.5539 316.133 37.5552 316.137 37.5552 316.141C37.5566 316.149 37.5566 316.157 37.5579 316.164C37.5579 316.168 37.5579 316.173 37.5593 316.178C37.5606 316.188 37.5606 316.2 37.562 316.211C37.562 316.213 37.562 316.213 37.562 316.214C37.5633 316.225 37.5647 316.235 37.5647 316.246C37.566 316.25 37.566 316.254 37.566 316.258C37.566 316.266 37.5673 316.274 37.5673 316.283C37.5673 316.287 37.5687 316.291 37.5687 316.296C37.5687 316.303 37.57 316.31 37.57 316.318C37.57 316.322 37.5714 316.327 37.5714 316.331C37.5714 316.339 37.5714 316.347 37.5727 316.354C37.5727 316.358 37.5727 316.363 37.5727 316.367C37.5741 316.376 37.5741 316.385 37.5741 316.394C37.5741 316.397 37.5754 316.4 37.5754 316.402C37.5754 316.413 37.5754 316.427 37.5768 316.437C37.5768 316.442 37.5768 316.444 37.5768 316.447C37.5768 316.456 37.5781 316.464 37.5781 316.473C37.5781 316.478 37.5781 316.482 37.5781 316.486C37.5781 316.494 37.5781 316.502 37.5795 316.51C37.5795 316.514 37.5795 316.518 37.5795 316.522C37.5795 316.53 37.5795 316.537 37.5795 316.545C37.5795 316.551 37.5795 316.555 37.5795 316.559C37.5795 316.567 37.5795 316.575 37.5795 316.583C37.5795 316.587 37.5808 316.591 37.5808 316.595C37.5808 316.607 37.5808 316.619 37.5808 316.63V335.849Z" fill="#A28278"/>
<path d="M37.5808 353.751H-15.4529V345.409L-7.35189 335.849H37.5808V353.751Z" fill="#5C3B4E"/>
<path d="M-15.4529 369.588H37.5809V358.112H-15.4529V369.588Z" fill="#5C3B4E"/>
<path d="M323.011 33.2473H302.048L300.944 411.774H324.115L323.011 33.2473Z" fill="#FF5050"/>
<path d="M301.889 87.9351H323.17L323.089 60.3494H301.968L301.889 87.9351Z" fill="#FFF5E3"/>
<path d="M301.767 129.313H323.291L323.277 124.419H301.782L301.767 129.313Z" fill="#FFF5E3"/>
<path d="M310.845 299.617H301.27L301.767 129.313H311.341L310.845 299.617ZM301.775 126.766L302.03 39.2321H311.603L311.543 60.3494H301.968L301.889 87.9351H311.462L311.355 124.419H301.782L301.775 126.766Z" fill="#A22A2A"/>
<path d="M311.462 87.9351H301.889L301.968 60.3494H311.543L311.462 87.9351Z" fill="#A28278"/>
<path d="M311.341 129.313H301.767L301.775 126.766L301.782 124.419H311.355L311.341 129.313Z" fill="#A28278"/>
<path d="M327.203 250.837H297.855V283.025H327.203V250.837Z" fill="#664249"/>
<path d="M308.129 267.531V250.837H297.855V283.025H327.203V267.531H308.129Z" fill="#3F262C"/>
<path d="M330.549 273.497H294.507V305.684H330.549V273.497Z" fill="#EDDCC0"/>
<path d="M330.549 294.827H294.507V307.076H330.549V294.827Z" fill="#C4B09D"/>
<path d="M309.879 273.497H294.507V305.684H309.879V273.497Z" fill="#C4B09D"/>
<path d="M268.764 411.774H360.799V300.534H268.764V411.774Z" fill="#C4B09D"/>
<path d="M267.116 304.953H360.799V301.568H267.116V304.953Z" fill="#C4B09D"/>
<path d="M309.506 310.088H297.976V329.396H309.506V310.088Z" fill="#6A5472"/>
<path d="M331.535 310.088H320.003V329.396H331.535V310.088Z" fill="#6A5472"/>
<path d="M353.562 310.088H342.033V329.396H353.562V310.088Z" fill="#6A5472"/>
<path d="M287.579 376.448V300.535H268.764V411.774H360.799V376.448H287.579Z" fill="#664249"/>
<path d="M264.409 208.098H185.588V222.558H264.409V208.098Z" fill="#664249"/>
<path d="M202.721 208.098H183.944V222.558H202.721V208.098Z" fill="#3F262C"/>
<path d="M271.558 219.114H72.959V233.573H271.558V219.114Z" fill="#664249"/>
<path d="M79.1539 219.114H72.959V233.573H79.1539V219.114Z" fill="#3F262C"/>
<path d="M267.941 303.001H361.622V299.617H267.941V303.001Z" fill="#FF5050"/>
<path d="M267.116 303.001H262.778V299.617H267.941V301.568H267.116V303.001Z" fill="#95714F"/>
<path d="M268.764 303.001H267.116V301.568H267.941V303.001H268.764Z" fill="#7D5D53"/>
<path d="M286.015 303.001H267.941V299.617H286.015V303.001Z" fill="#A22A2A"/>
<path d="M278.803 224.829H65.1262V386.541H278.803V224.829Z" fill="#FFF5E3"/>
<path d="M269.959 224.829H146.53L85.3491 386.539L208.778 386.541L269.959 224.829Z" fill="#FFFBEE"/>
<path d="M278.803 375.392H72.0283V391.709H278.803V375.392Z" fill="#C4B09D"/>
<path d="M81.9074 224.829H65.1262V386.541H81.9074V224.829Z" fill="#C4B09D"/>
<path d="M37.5808 407.397H-92.9431V422.847H37.5808V407.397Z" fill="#492E34"/>
<path d="M324.71 343.138L305.535 343.061V386.322H324.478L324.71 343.138Z" fill="#EDDCC0"/>
<path d="M324.494 342.393H304.818V349.213H324.494V342.393Z" fill="#C62B1A"/>
<path d="M374.016 343.138L354.84 343.061V386.322H373.785L374.016 343.138Z" fill="#EDDCC0"/>
<path d="M373.801 342.393H354.124V349.213H373.801V342.393Z" fill="#C62B1A"/>
<path d="M327.203 379.587H22.9062V422.847H327.203V379.587Z" fill="#FFF5E3"/>
<path d="M329.383 379.587H319.746V422.847H329.383V379.587Z" fill="#EDDCC0"/>
<path d="M51.3891 379.587H22.9062V422.847H51.3891V379.587Z" fill="#C4B09D"/>
<path d="M307.896 410.873H76.1973V422.847H307.896V410.873Z" fill="#C4B09D"/>
<path d="M292.366 416.84H78.4172V422.847H292.366V416.84Z" fill="#EDDCC0"/>
<path d="M123.972 392.721H70.2959V398.515H123.972V392.721Z" fill="#6A5472"/>
<path d="M44.1612 392.721H27.3867V398.515H44.1612V392.721Z" fill="#48344C"/>
<path d="M186.531 392.721H132.854V398.515H186.531V392.721Z" fill="#6A5472"/>
<path d="M300.803 392.721H286.015V398.515H300.803V392.721Z" fill="#6A5472"/>
<path d="M279.004 392.721H264.215V398.515H279.004V392.721Z" fill="#6A5472"/>
<path d="M248.153 414.834H240.006V422.847H248.153V414.834Z" fill="#6A5472"/>
<path d="M230.944 414.834H222.798V422.847H230.944V414.834Z" fill="#6A5472"/>
<path d="M190.1 414.834H181.954V422.847H190.1V414.834Z" fill="#6A5472"/>
<path d="M149.255 414.834H141.109V422.847H149.255V414.834Z" fill="#6A5472"/>
<path d="M252.26 93.9711H197.737C196.541 93.9711 195.569 94.9409 195.569 96.1385V101.788C195.569 102.985 196.541 103.955 197.737 103.955H252.26C253.456 103.955 254.426 102.985 254.426 101.788V96.1385C254.426 94.9409 253.456 93.9711 252.26 93.9711Z" fill="#FF5050"/>
<path d="M218.686 103.955H199.489C197.325 103.955 195.569 102.2 195.569 100.035V97.8909C195.569 95.7263 197.325 93.9711 199.489 93.9711H218.686C216.521 93.9711 214.767 95.7263 214.767 97.8909V100.035C214.767 102.2 216.521 103.955 218.686 103.955Z" fill="#A22A2A"/>
<path d="M325.379 29.2479H299.678C298.482 29.2479 297.511 30.2177 297.511 31.4152V37.0647C297.511 38.2622 298.482 39.232 299.678 39.232H325.379C326.577 39.232 327.548 38.2622 327.548 37.0647V31.4152C327.548 30.2177 326.577 29.2479 325.379 29.2479Z" fill="#FF5050"/>
<path d="M313.581 39.232H301.154C299.142 39.232 297.511 37.4769 297.511 35.3122V33.1677C297.511 31.0206 299.116 29.2762 301.106 29.2479H306.138H313.532C311.541 29.2762 309.936 31.0206 309.936 33.1677V35.3122C309.936 37.4769 311.567 39.232 313.581 39.232Z" fill="#A22A2A"/>
<path d="M272.61 269.865H88.1509V327.651H272.61V269.865Z" fill="#6A5472"/>
<path d="M272.61 295.505H88.6196V325.216H272.61V295.505Z" fill="#906F93"/>
<path d="M272.61 327.635V324.564H88.1509V327.634L272.61 327.635Z" fill="#48344C"/>
<path d="M272.61 277.173V269.866H88.1509V277.173H272.61Z" fill="#48344C"/>
<path d="M116.13 266.968H112.459L112.458 331.002H116.13V266.968Z" fill="#FFF5E3"/>
<path d="M149.172 266.968H145.502V331.002H149.172V266.968Z" fill="#FFFBEE"/>
<path d="M182.215 266.968H178.544V331.002H182.215V266.968Z" fill="#FFFBEE"/>
<path d="M215.257 266.968H211.587V331.002H215.257V266.968Z" fill="#FFFBEE"/>
<path d="M248.301 266.968H244.629V331.002H248.301V266.968Z" fill="#FFF5E3"/>
<path d="M89.0614 269.865H87.9434V327.651H89.0614V269.865Z" fill="#48344C"/>
<path d="M272.61 269.865H266.998V327.651H272.61V269.865Z" fill="#48344C"/>
<path d="M374.703 378.621L324.5 344.438V422.847H374.703V378.621Z" fill="#FFF5E3"/>
<path d="M361.221 398.642H337.982V422.847H361.221V398.642Z" fill="#664249"/>
<path d="M360.015 400.167H339.186V422.847H360.015V400.167Z" fill="#FFAE39"/>
<path d="M360.015 405.624H339.186V422.847H360.015V405.624Z" fill="#FFDA64"/>
<path d="M360.015 419.308H339.186V420.609H360.015V419.308Z" fill="#FFAE39"/>
<path d="M360.015 415.779H339.186V417.082H360.015V415.779Z" fill="#FFAE39"/>
<path d="M360.015 412.251H339.186V413.552H360.015V412.251Z" fill="#FFAE39"/>
<path d="M360.015 408.722H339.186V410.023H360.015V408.722Z" fill="#FFAE39"/>
<path d="M309.191 408.808H74.9028V412.251H309.191V408.808Z" fill="#FF5050"/>
<path d="M375.045 378.512H369.653V422.847H375.045V378.512Z" fill="#EDDCC0"/>
<path d="M374.703 387.573V380.687L324.5 346.504L324.237 353.337L374.703 387.573Z" fill="#EDDCC0"/>
<path d="M374.703 383.441V376.557L324.5 342.373L324.28 349.163L374.703 383.441Z" fill="#FF5050"/>
<path d="M424.002 378.621L373.799 344.438V422.847L424.002 422.848V378.621Z" fill="#FFF5E3"/>
<path d="M424.002 388.261V381.376L373.8 347.193L373.428 353.925L424.002 388.261Z" fill="#EDDCC0"/>
<path d="M424.002 383.441V376.557L373.799 342.373L373.572 349.192L424.002 383.441Z" fill="#FF5050"/>
<path d="M410.519 398.643H387.28V422.847L410.519 422.848V398.643Z" fill="#664249"/>
<path d="M409.315 400.167H388.485V422.847H409.315V400.167Z" fill="#FFAE39"/>
<path d="M409.315 405.624H388.485V422.847L409.315 422.848V405.624Z" fill="#FFDA64"/>
<path d="M409.315 419.308H388.485V420.609H409.315V419.308Z" fill="#FFAE39"/>
<path d="M409.315 415.779H388.485V417.082H409.315V415.779Z" fill="#FFAE39"/>
<path d="M409.315 412.251H388.485V413.552H409.315V412.251Z" fill="#FFAE39"/>
<path d="M409.315 408.722H388.485V410.023H409.315V408.722Z" fill="#FFAE39"/>
<path d="M92.751 244.074C92.751 250.824 98.2213 256.294 104.969 256.294C111.717 256.294 117.187 250.824 117.187 244.074C117.187 237.323 111.717 231.853 104.969 231.853C98.2213 231.853 92.751 237.323 92.751 244.074Z" fill="#664249"/>
<path d="M97.8267 244.074C97.8267 248.019 101.024 251.217 104.969 251.217C108.914 251.217 112.112 248.019 112.112 244.074C112.112 240.129 108.914 236.931 104.969 236.931C101.024 236.931 97.8267 240.129 97.8267 244.074Z" fill="#FFF5E3"/>
<path d="M106.38 243.426L114.606 237.841C113.724 236.48 112.563 235.317 111.2 234.435L105.616 242.662L106.38 243.426Z" fill="#FFF5E3"/>
<path d="M103.558 244.722L95.3318 250.307C96.2141 251.669 97.3753 252.83 98.7371 253.713L104.32 245.484L103.558 244.722Z" fill="#FFF5E3"/>
<path d="M105.616 245.484L111.2 253.713C112.563 252.83 113.724 251.67 114.606 250.307L106.38 244.722L105.616 245.484Z" fill="#FFF5E3"/>
<path d="M104.32 242.662L98.7371 234.435C97.3753 235.317 96.2141 236.48 95.3318 237.841L103.558 243.426L104.32 242.662Z" fill="#FFF5E3"/>
<path d="M129.263 238.724C126.309 244.791 128.832 252.106 134.899 255.062C140.966 258.017 148.281 255.493 151.235 249.424C154.189 243.356 151.666 236.04 145.599 233.085C139.532 230.131 132.217 232.655 129.263 238.724Z" fill="#664249"/>
<path d="M134.459 241.253C132.902 244.451 134.233 248.306 137.43 249.864C140.627 251.421 144.481 250.091 146.038 246.893C147.595 243.696 146.266 239.84 143.068 238.282C139.871 236.725 136.016 238.056 134.459 241.253Z" fill="#FFF5E3"/>
<path d="M141.789 244.109L151.562 242.7C151.367 241.1 150.835 239.559 150.002 238.177L141.44 243.096L141.789 244.109Z" fill="#FFF5E3"/>
<path d="M138.707 244.039L128.935 245.447C129.13 247.047 129.662 248.589 130.496 249.969L139.057 245.052L138.707 244.039Z" fill="#FFF5E3"/>
<path d="M140.213 245.615L141.622 255.389C143.221 255.194 144.764 254.662 146.144 253.828L141.226 245.266L140.213 245.615Z" fill="#FFF5E3"/>
<path d="M140.283 242.532L138.876 232.758C137.275 232.953 135.733 233.485 134.354 234.318L139.272 242.881L140.283 242.532Z" fill="#FFF5E3"/>
<path d="M356.743 385.397H342.459V390.734H356.743V385.397Z" fill="#6A5472"/>
<path d="M406.042 385.397H391.758V390.734H406.042V385.397Z" fill="#6A5472"/>
<path d="M758.511 420.3H-359.998V429.193H758.511V420.3Z" fill="#FFF5E3"/>
<path d="M-509 491.796H522.527V427.137H-509V491.796Z" fill="#7C5B45"/>
<path d="M837.716 427.137H-417.223L-312.007 484.228L837.716 484.227V427.137Z" fill="#7C5B45"/>
<path d="M837.716 426.9L-383.526 426.897L-269.37 451.211L837.716 451.213V426.9Z" fill="#DDC09E"/>
<path d="M290.175 466.527H273.261L268.664 451.211H285.236L290.175 466.527Z" fill="#684937"/>
<path d="M285.237 451.211H268.664L267.169 446.23L282.657 443.217L285.237 451.211Z" fill="#BA997E"/>
<path d="M314.941 466.527L310.345 451.211H326.916L331.856 466.526L314.941 466.527Z" fill="#684937"/>
<path d="M326.916 451.211H310.345L308.85 446.229L324.337 443.217L326.916 451.211Z" fill="#BA997E"/>
<path d="M296.375 445.022C294.805 439.681 290.603 435.35 286.99 435.35L286.85 435.356L286.849 435.35H270.318L270.321 435.357C266.832 435.497 265.256 439.77 266.8 445.023C268.309 450.152 272.242 454.347 275.752 454.672L275.758 454.695H292.466L292.463 454.686L292.679 454.695C296.292 454.695 297.946 450.364 296.375 445.022Z" fill="#FFF5E3"/>
<path d="M294.337 440.578C292.383 443.253 289.818 445.035 287.493 445.035L287.353 445.03L287.351 445.035H270.821L270.822 445.028C267.929 444.913 266.357 441.977 266.785 438.01C266.046 439.772 265.988 442.258 266.8 445.023C268.309 450.152 272.242 454.347 275.752 454.672L275.758 454.695H292.466L292.463 454.686L292.679 454.695C296.292 454.695 297.946 450.364 296.375 445.022C295.904 443.419 295.195 441.909 294.337 440.578Z" fill="#EDDCC0"/>
<path d="M295.306 445.022C294.06 440.785 290.728 437.353 287.865 437.353C284.999 437.353 283.686 440.785 284.932 445.022C286.178 449.257 289.509 452.692 292.373 452.692C295.238 452.692 296.552 449.257 295.306 445.022Z" fill="#3F262C"/>
<path d="M338.085 445.022C336.514 439.679 332.313 435.35 328.7 435.35L328.56 435.356L328.558 435.35H312.028L312.031 435.357C308.54 435.497 306.964 439.77 308.509 445.022C310.017 450.152 313.951 454.346 317.46 454.67L317.467 454.695L334.176 454.693L334.173 454.685L334.388 454.693C338 454.693 339.655 450.364 338.085 445.022Z" fill="#FFF5E3"/>
<path d="M336.515 441.347C334.973 442.41 333.329 443.035 331.78 443.035L331.623 443.031L331.621 443.035L313.041 443.036L313.042 443.029C310.384 442.936 308.719 440.966 308.459 438.092C307.752 439.85 307.709 442.301 308.509 445.022C310.016 450.152 313.951 454.346 317.46 454.67L317.467 454.695L334.175 454.693L334.173 454.685L334.388 454.693C338 454.693 339.655 450.364 338.084 445.022C337.702 443.72 337.162 442.481 336.515 441.347Z" fill="#EDDCC0"/>
<path d="M337.015 445.022C335.769 440.785 332.438 437.353 329.574 437.353C326.709 437.353 325.396 440.785 326.642 445.022C327.888 449.257 331.219 452.69 334.083 452.69C336.948 452.69 338.261 449.257 337.015 445.022Z" fill="#3F262C"/>
<path d="M291.962 439.376L288.024 450.421C289.376 451.823 290.933 452.692 292.373 452.692C295.238 452.692 296.552 449.257 295.306 445.022C294.648 442.786 293.406 440.78 291.962 439.376Z" fill="#664249"/>
<path d="M333.672 439.376L329.733 450.421C331.085 451.822 332.642 452.69 334.082 452.69C336.948 452.69 338.261 449.257 337.015 445.022C336.358 442.786 335.116 440.778 333.672 439.376Z" fill="#664249"/>
<path d="M288.957 451.153L292.873 465.615H303.129L295.083 451.153C295.083 450.759 288.957 450.76 288.957 451.153Z" fill="#D3D34A"/>
<path d="M330.311 450.892L334.408 465.273H345.396L336.873 450.892C336.873 450.243 330.311 450.243 330.311 450.892Z" fill="#D3D34A"/>
<path d="M633.674 466.527H616.759L612.162 451.211H628.734L633.674 466.527Z" fill="#684937"/>
<path d="M628.734 451.211H612.162L610.667 446.23L626.155 443.217L628.734 451.211Z" fill="#BA997E"/>
<path d="M658.439 466.527L653.843 451.211H670.414L675.353 466.526L658.439 466.527Z" fill="#684937"/>
<path d="M670.414 451.211H653.843L652.348 446.229L667.836 443.217L670.414 451.211Z" fill="#BA997E"/>
<path d="M639.874 445.022C638.303 439.681 634.102 435.35 630.489 435.35L630.349 435.356L630.348 435.35H613.817L613.818 435.357C610.33 435.497 608.752 439.77 610.299 445.023C611.806 450.152 615.741 454.347 619.25 454.672L619.255 454.695H635.963L635.961 454.686L636.176 454.695C639.788 454.695 641.444 450.364 639.874 445.022Z" fill="#FFF5E3"/>
<path d="M637.835 440.578C635.88 443.253 633.315 445.035 630.99 445.035L630.85 445.03L630.849 445.035H614.32L614.321 445.028C611.426 444.913 609.854 441.977 610.284 438.01C609.543 439.772 609.485 442.258 610.299 445.023C611.806 450.152 615.741 454.347 619.25 454.672L619.255 454.695H635.964L635.961 454.686L636.176 454.695C639.788 454.695 641.445 450.364 639.874 445.022C639.401 443.419 638.693 441.909 637.835 440.578Z" fill="#EDDCC0"/>
<path d="M638.805 445.022C637.559 440.785 634.227 437.353 631.362 437.353C628.498 437.353 627.185 440.785 628.431 445.022C629.676 449.257 633.007 452.692 635.872 452.692C638.737 452.692 640.049 449.257 638.805 445.022Z" fill="#3F262C"/>
<path d="M681.583 445.022C680.013 439.679 675.811 435.35 672.199 435.35L672.059 435.356L672.056 435.35H655.527L655.528 435.357C652.039 435.497 650.462 439.77 652.007 445.022C653.515 450.152 657.45 454.346 660.958 454.67L660.964 454.695L677.673 454.693L677.67 454.685L677.886 454.693C681.497 454.693 683.153 450.364 681.583 445.022Z" fill="#FFF5E3"/>
<path d="M680.013 441.347C678.472 442.41 676.828 443.035 675.279 443.035L675.12 443.031L675.119 443.035L656.538 443.036L656.541 443.029C653.883 442.936 652.218 440.966 651.957 438.092C651.25 439.85 651.207 442.301 652.007 445.022C653.515 450.152 657.45 454.346 660.958 454.67L660.964 454.695L677.673 454.693L677.67 454.685L677.886 454.693C681.497 454.693 683.153 450.364 681.583 445.022C681.201 443.72 680.661 442.481 680.013 441.347Z" fill="#EDDCC0"/>
<path d="M680.512 445.022C679.268 440.785 675.935 437.353 673.07 437.353C670.207 437.353 668.894 440.785 670.14 445.022C671.385 449.257 674.716 452.69 677.581 452.69C680.445 452.69 681.758 449.257 680.512 445.022Z" fill="#3F262C"/>
<path d="M635.461 439.376L631.522 450.421C632.874 451.823 634.432 452.692 635.872 452.692C638.737 452.692 640.049 449.257 638.805 445.022C638.147 442.786 636.905 440.78 635.461 439.376Z" fill="#664249"/>
<path d="M677.168 439.376L673.23 450.421C674.583 451.822 676.141 452.69 677.581 452.69C680.445 452.69 681.758 449.257 680.512 445.022C679.856 442.786 678.614 440.778 677.168 439.376Z" fill="#664249"/>
<path d="M632.456 451.153L636.37 465.615H646.628L638.581 451.153C638.581 450.759 632.456 450.76 632.456 451.153Z" fill="#D3D34A"/>
<path d="M673.81 450.892L677.906 465.273H688.893L680.37 450.892C680.37 450.243 673.808 450.243 673.81 450.892Z" fill="#D3D34A"/>
<path d="M837.716 462.288L-509 462.287V491.937L837.716 491.939V462.288Z" fill="#AAAD3B"/>
<path d="M290.404 485.605C508.606 485.605 704.36 482.789 837.716 478.329V465.728L-435.509 465.727C-410.155 476.829 -94.8479 485.605 290.404 485.605Z" fill="#D3D34A"/>
<path d="M442.841 469.326C437.398 467.047 431.953 465.199 326.623 465.199C221.292 465.199 224.675 467.047 230.119 469.326C235.563 471.605 241.007 473.452 346.337 473.452C451.667 473.452 448.286 471.605 442.841 469.326Z" fill="#AAAD3B"/>
<path d="M124.59 466.574C121.51 465.058 118.428 463.827 58.8045 463.827C-0.8188 463.827 1.09532 465.058 4.17731 466.574C7.25795 468.091 10.34 469.321 69.9646 469.321C129.587 469.321 127.672 468.092 124.59 466.574Z" fill="#AAAD3B"/>
<path d="M766.833 465.886C762.176 464.369 757.519 463.139 667.418 463.139C577.318 463.141 580.21 464.369 584.867 465.886C589.524 467.404 594.18 468.632 684.281 468.632C774.383 468.632 771.489 467.402 766.833 465.886Z" fill="#AAAD3B"/>
<path d="M687.164 470.415C683.628 468.373 680.092 466.718 611.682 466.72C543.272 466.72 545.468 468.375 549.004 470.415C552.54 472.455 556.076 474.111 624.486 474.11C692.897 474.108 690.7 472.454 687.164 470.415Z" fill="#AAAD3B"/>
</g>
</svg>
