<svg width="92" height="30" viewBox="0 0 92 30" fill="none" xmlns="http://www.w3.org/2000/svg">
<g clip-path="url(#clip0_181_11339)">
<rect x="1" y="1" width="90" height="28" rx="6" fill="white"/>
<rect x="3" y="3" width="43" height="24" rx="4" fill="#97144D"/>
<path d="M10.0535 17.89H12.9485V19H8.70852V11.77H10.0535V17.89ZM16.3895 19H15.0395V11.77H16.3895V19ZM22.3391 18.01C22.6424 18.01 22.9057 17.9833 23.1291 17.93C23.3557 17.8733 23.5707 17.7967 23.7741 17.7V16.385H22.8691C22.7824 16.385 22.7141 16.3617 22.6641 16.315C22.6141 16.265 22.5891 16.205 22.5891 16.135V15.375H24.9941V18.3C24.8107 18.4333 24.6191 18.55 24.4191 18.65C24.2224 18.7467 24.0107 18.8267 23.7841 18.89C23.5607 18.9533 23.3207 19 23.0641 19.03C22.8074 19.0633 22.5307 19.08 22.2341 19.08C21.7074 19.08 21.2224 18.9883 20.7791 18.805C20.3357 18.6217 19.9524 18.3667 19.6291 18.04C19.3057 17.7133 19.0524 17.3233 18.8691 16.87C18.6891 16.4167 18.5991 15.9217 18.5991 15.385C18.5991 14.8417 18.6874 14.3433 18.8641 13.89C19.0407 13.4367 19.2907 13.0467 19.6141 12.72C19.9407 12.3933 20.3357 12.14 20.7991 11.96C21.2624 11.78 21.7824 11.69 22.3591 11.69C22.9491 11.69 23.4591 11.7783 23.8891 11.955C24.3224 12.1283 24.6891 12.355 24.9891 12.635L24.5991 13.245C24.5224 13.3683 24.4207 13.43 24.2941 13.43C24.2141 13.43 24.1324 13.4033 24.0491 13.35C23.9424 13.2867 23.8324 13.2233 23.7191 13.16C23.6091 13.0967 23.4857 13.0417 23.3491 12.995C23.2157 12.9483 23.0641 12.91 22.8941 12.88C22.7274 12.85 22.5341 12.835 22.3141 12.835C21.9574 12.835 21.6341 12.895 21.3441 13.015C21.0574 13.135 20.8124 13.3067 20.6091 13.53C20.4057 13.7533 20.2491 14.0217 20.1391 14.335C20.0291 14.6483 19.9741 14.9983 19.9741 15.385C19.9741 15.8017 20.0324 16.1733 20.1491 16.5C20.2657 16.8233 20.4291 17.0967 20.6391 17.32C20.8491 17.5433 21.0991 17.715 21.3891 17.835C21.6791 17.9517 21.9957 18.01 22.3391 18.01ZM33.3456 19H31.9906V15.84H28.6006V19H27.2456V11.77H28.6006V14.88H31.9906V11.77H33.3456V19ZM40.8992 11.77V12.875H38.7242V19H37.3792V12.875H35.1942V11.77H40.8992Z" fill="white"/>
<rect width="46" height="24" transform="translate(46 3)" fill="white"/>
<path d="M60.7242 15.385C60.7242 15.915 60.6359 16.4017 60.4592 16.845C60.2826 17.2883 60.0342 17.67 59.7142 17.99C59.3942 18.31 59.0092 18.5583 58.5592 18.735C58.1092 18.9117 57.6109 19 57.0642 19H54.3042V11.77H57.0642C57.6109 11.77 58.1092 11.86 58.5592 12.04C59.0092 12.2167 59.3942 12.465 59.7142 12.785C60.0342 13.1017 60.2826 13.4817 60.4592 13.925C60.6359 14.3683 60.7242 14.855 60.7242 15.385ZM59.3492 15.385C59.3492 14.9883 59.2959 14.6333 59.1892 14.32C59.0826 14.0033 58.9309 13.7367 58.7342 13.52C58.5376 13.3 58.2976 13.1317 58.0142 13.015C57.7342 12.8983 57.4176 12.84 57.0642 12.84H55.6592V17.93H57.0642C57.4176 17.93 57.7342 17.8717 58.0142 17.755C58.2976 17.6383 58.5376 17.4717 58.7342 17.255C58.9309 17.035 59.0826 16.7683 59.1892 16.455C59.2959 16.1383 59.3492 15.7817 59.3492 15.385ZM68.876 19H67.836C67.7193 19 67.6227 18.9717 67.546 18.915C67.4727 18.855 67.4193 18.7817 67.386 18.695L66.846 17.22H63.851L63.311 18.695C63.2843 18.7717 63.231 18.8417 63.151 18.905C63.0743 18.9683 62.9793 19 62.866 19H61.821L64.661 11.77H66.036L68.876 19ZM64.196 16.27H66.501L65.621 13.865C65.581 13.7583 65.536 13.6333 65.486 13.49C65.4393 13.3433 65.3927 13.185 65.346 13.015C65.2993 13.185 65.2527 13.3433 65.206 13.49C65.1627 13.6367 65.1193 13.765 65.076 13.875L64.196 16.27ZM72.0106 16.175V19H70.6656V11.77H72.8706C73.364 11.77 73.7856 11.8217 74.1356 11.925C74.489 12.025 74.7773 12.1667 75.0006 12.35C75.2273 12.5333 75.3923 12.7533 75.4956 13.01C75.6023 13.2633 75.6556 13.5433 75.6556 13.85C75.6556 14.0933 75.619 14.3233 75.5456 14.54C75.4756 14.7567 75.3723 14.9533 75.2356 15.13C75.1023 15.3067 74.9356 15.4617 74.7356 15.595C74.539 15.7283 74.314 15.835 74.0606 15.915C74.2306 16.0117 74.3773 16.15 74.5006 16.33L76.3106 19H75.1006C74.984 19 74.884 18.9767 74.8006 18.93C74.7206 18.8833 74.6523 18.8167 74.5956 18.73L73.0756 16.415C73.019 16.3283 72.9556 16.2667 72.8856 16.23C72.819 16.1933 72.719 16.175 72.5856 16.175H72.0106ZM72.0106 15.21H72.8506C73.104 15.21 73.324 15.1783 73.5106 15.115C73.7006 15.0517 73.8556 14.965 73.9756 14.855C74.099 14.7417 74.1906 14.6083 74.2506 14.455C74.3106 14.3017 74.3406 14.1333 74.3406 13.95C74.3406 13.5833 74.219 13.3017 73.9756 13.105C73.7356 12.9083 73.3673 12.81 72.8706 12.81H72.0106V15.21ZM79.5634 14.8H79.8784C80.005 14.8 80.11 14.7833 80.1934 14.75C80.2767 14.7133 80.3484 14.6567 80.4084 14.58L82.4034 12.055C82.4867 11.9483 82.5734 11.875 82.6634 11.835C82.7567 11.7917 82.8734 11.77 83.0134 11.77H84.1734L81.7384 14.775C81.6617 14.8683 81.5884 14.9467 81.5184 15.01C81.4484 15.0733 81.3734 15.125 81.2934 15.165C81.4034 15.205 81.5017 15.2617 81.5884 15.335C81.6784 15.4083 81.765 15.5017 81.8484 15.615L84.3584 19H83.1684C83.0084 19 82.8884 18.9783 82.8084 18.935C82.7317 18.8883 82.6667 18.8217 82.6134 18.735L80.5684 16.065C80.5017 15.9783 80.4267 15.9167 80.3434 15.88C80.26 15.84 80.1417 15.82 79.9884 15.82H79.5634V19H78.2184V11.765H79.5634V14.8Z" fill="#97144D"/>
</g>
<rect x="1" y="1" width="90" height="28" rx="6" stroke="#F1F1F1"/>
<defs>
<clipPath id="clip0_181_11339">
<rect x="1" y="1" width="90" height="28" rx="6" fill="white"/>
</clipPath>
</defs>
</svg>
