<svg width="48" height="48" viewBox="0 0 48 48" fill="none" xmlns="http://www.w3.org/2000/svg">
<g filter="url(#filter0_d_96_541)">
<rect x="4" width="40" height="40" rx="10" fill="white"/>
</g>
<path d="M22.4286 25.0357C22.4286 24.6641 22.0368 24.7143 21.7857 24.7143H18.8929C18.0089 24.7143 17.2857 23.9911 17.2857 23.1071V16.0357C17.2857 15.1518 18.0089 14.4286 18.8929 14.4286H22.1071C22.5592 14.4286 22.4286 13.7455 22.4286 13.4643C22.4286 13.2935 22.2779 13.1429 22.1071 13.1429H18.8929C17.2958 13.1429 16 14.4386 16 16.0357V23.1071C16 24.7042 17.2958 26 18.8929 26H22.1071C22.5592 26 22.4286 25.317 22.4286 25.0357ZM31.75 19.5714C31.75 19.4007 31.6797 19.24 31.5592 19.1194L26.0949 13.6551C25.9743 13.5346 25.8136 13.4643 25.6429 13.4643C25.2913 13.4643 25 13.7556 25 14.1071V17H20.5C20.1484 17 19.8571 17.2913 19.8571 17.6429V21.5C19.8571 21.8516 20.1484 22.1429 20.5 22.1429H25V25.0357C25 25.3873 25.2913 25.6786 25.6429 25.6786C25.8136 25.6786 25.9743 25.6083 26.0949 25.4877L31.5592 20.0234C31.6797 19.9029 31.75 19.7422 31.75 19.5714Z" fill="#7B7B7B"/>
<defs>
<filter id="filter0_d_96_541" x="0" y="0" width="48" height="48" filterUnits="userSpaceOnUse" color-interpolation-filters="sRGB">
<feFlood flood-opacity="0" result="BackgroundImageFix"/>
<feColorMatrix in="SourceAlpha" type="matrix" values="0 0 0 0 0 0 0 0 0 0 0 0 0 0 0 0 0 0 127 0" result="hardAlpha"/>
<feOffset dy="4"/>
<feGaussianBlur stdDeviation="2"/>
<feComposite in2="hardAlpha" operator="out"/>
<feColorMatrix type="matrix" values="0 0 0 0 0 0 0 0 0 0 0 0 0 0 0 0 0 0 0.25 0"/>
<feBlend mode="normal" in2="BackgroundImageFix" result="effect1_dropShadow_96_541"/>
<feBlend mode="normal" in="SourceGraphic" in2="effect1_dropShadow_96_541" result="shape"/>
</filter>
</defs>
</svg>
