<svg width="17" height="16" viewBox="0 0 17 16" fill="none" xmlns="http://www.w3.org/2000/svg">
<path d="M8.32369 15.9431C8.62247 15.8646 9.00093 15.6719 9.11048 15.5444L9.19348 15.4464L9.19348 14.2145L9.19348 12.9794L10.2193 10.7935C10.7837 9.59427 11.2617 8.60421 11.2816 8.59767C11.3016 8.59114 11.3182 8.61728 11.3182 8.65322C11.3182 8.78066 11.4111 8.94403 11.514 8.99631C11.6601 9.07146 15.3086 9.07473 15.6306 8.99958C15.9393 8.92769 16.2182 8.76759 16.4639 8.52579C16.7095 8.28399 16.8722 8.00952 16.9452 7.70564C17.0183 7.39196 17.0183 1.65418 16.9452 1.3405C16.8091 0.778488 16.3742 0.294894 15.8165 0.0857724C15.6239 0.0171544 15.5741 0.0138869 14.2263 0.00408416C12.8851 -0.00571853 12.8253 -0.00245101 12.5996 0.066167C12.1415 0.200135 11.7298 0.533423 11.524 0.938596L11.4277 1.13465L11.2053 1.03989C10.8733 0.899386 10.5778 0.817698 10.1629 0.745812C9.80432 0.686996 9.60182 0.683729 6.33513 0.683729C3.94819 0.683728 2.83606 0.693531 2.71322 0.719671C2.30489 0.804627 1.83015 1.12811 1.63429 1.45813C1.4185 1.82083 1.36538 2.31422 1.49485 2.7292C1.56125 2.94159 1.56125 2.95466 1.50813 2.98733C0.867411 3.35003 0.54871 4.17671 0.791056 4.84655C0.830894 4.95438 0.857452 5.04261 0.854132 5.04587C0.847492 5.04914 0.777776 5.09815 0.694781 5.15043C0.150333 5.51313 -0.11525 6.18951 0.0474199 6.8038C0.107176 7.02926 0.223368 7.26126 0.356161 7.41483L0.452436 7.52592L0.342881 7.6795C-0.380836 8.66956 0.0972166 9.97657 1.32554 10.3752C1.49485 10.4308 1.69736 10.4373 3.85523 10.4471C5.14996 10.4504 6.20566 10.4634 6.20566 10.4732C6.20566 10.483 6.1459 10.6922 6.07286 10.9405C5.91351 11.4796 5.7608 12.1789 5.70436 12.62C5.65789 13.0121 5.68113 13.6656 5.75416 13.9303C5.98987 14.7733 6.58411 15.5379 7.26467 15.8712C7.4871 15.979 7.54354 15.9921 7.79584 15.9986C7.99503 16.0052 8.15438 15.9888 8.32369 15.9431ZM7.58005 15.2602C7.27795 15.1262 6.80654 14.6001 6.60403 14.1753C6.42476 13.7996 6.35837 13.463 6.3816 13.0513C6.41812 12.3847 6.58743 11.6169 6.90281 10.6693C7.08208 10.1367 7.09868 10.019 7.01569 9.90468C6.90613 9.74784 6.97585 9.75111 4.16398 9.73477L1.50813 9.71843L1.3355 9.63021C0.980284 9.44396 0.787735 9.20543 0.724659 8.87215C0.654943 8.50292 0.827573 8.09774 1.15291 7.85921C1.3687 7.6991 1.42846 7.55207 1.34546 7.37562C1.31558 7.3168 1.24587 7.23838 1.19275 7.20898C0.877371 7.02273 0.71802 6.76786 0.71802 6.43457C0.7147 5.99999 0.993563 5.67977 1.45502 5.58175C1.66748 5.53927 1.79032 5.40857 1.79032 5.22886C1.79032 5.1341 1.75712 5.06548 1.64093 4.91844C1.46498 4.69298 1.41186 4.52634 1.4351 4.26167C1.4683 3.83362 1.70068 3.60816 2.24845 3.46439C2.51735 3.39251 2.59039 3.10823 2.39452 2.88277C2.19201 2.64424 2.1389 2.52008 2.1389 2.25214C2.1389 2.06262 2.15549 1.97767 2.21193 1.87311C2.30821 1.69666 2.5074 1.52348 2.70658 1.44833C2.86261 1.38951 3.01532 1.38625 6.37165 1.38625C9.66157 1.38625 9.89064 1.38951 10.1562 1.44833C10.528 1.52675 10.8932 1.64765 11.1289 1.76855L11.3182 1.86984L11.3182 4.83022L11.3182 7.79386L11.0526 7.9213C10.9065 7.99318 10.7571 8.07814 10.7239 8.11735C10.6907 8.15329 10.1761 9.22177 9.57858 10.4961L8.49632 12.8062L8.49632 13.9662L8.49632 15.1229L8.38677 15.1785C8.1079 15.3222 7.79252 15.3549 7.58005 15.2602ZM12.0552 4.8923L12.0651 1.41892L12.1415 1.27842C12.2577 1.06276 12.4336 0.889583 12.6394 0.791558L12.8287 0.700067L14.1566 0.700067C15.4845 0.700067 15.4845 0.700067 15.6605 0.778488C15.8862 0.879781 16.1385 1.14772 16.2215 1.37644C16.2779 1.53982 16.2813 1.7228 16.2813 4.53941L16.2813 7.52919L16.1949 7.70891C16.0821 7.9409 15.9626 8.08141 15.7733 8.18923C15.4911 8.35261 15.4347 8.35914 13.6819 8.35914L12.0485 8.36241L12.0552 4.8923Z" fill="#97144D"/>
</svg>
