<svg width="38" height="30" viewBox="0 0 38 30" fill="none" xmlns="http://www.w3.org/2000/svg">
<path d="M18.3237 23.9431C18.6225 23.8646 19.0009 23.6719 19.1105 23.5444L19.1935 23.4464L19.1935 22.2145L19.1935 20.9794L20.2193 18.7935C20.7837 17.5943 21.2617 16.6042 21.2816 16.5977C21.3016 16.5911 21.3182 16.6173 21.3182 16.6532C21.3182 16.7807 21.4111 16.944 21.514 16.9963C21.6601 17.0715 25.3086 17.0747 25.6306 16.9996C25.9393 16.9277 26.2182 16.7676 26.4639 16.5258C26.7095 16.284 26.8722 16.0095 26.9452 15.7056C27.0183 15.392 27.0183 9.65418 26.9452 9.3405C26.8091 8.77849 26.3742 8.29489 25.8165 8.08577C25.6239 8.01715 25.5741 8.01389 24.2263 8.00408C22.8851 7.99428 22.8253 7.99755 22.5996 8.06617C22.1415 8.20014 21.7298 8.53342 21.524 8.9386L21.4277 9.13465L21.2053 9.03989C20.8733 8.89939 20.5778 8.8177 20.1629 8.74581C19.8043 8.687 19.6018 8.68373 16.3351 8.68373C13.9482 8.68373 12.8361 8.69353 12.7132 8.71967C12.3049 8.80463 11.8302 9.12811 11.6343 9.45813C11.4185 9.82083 11.3654 10.3142 11.4949 10.7292C11.5613 10.9416 11.5613 10.9547 11.5081 10.9873C10.8674 11.35 10.5487 12.1767 10.7911 12.8466C10.8309 12.9544 10.8575 13.0426 10.8541 13.0459C10.8475 13.0491 10.7778 13.0982 10.6948 13.1504C10.1503 13.5131 9.88475 14.1895 10.0474 14.8038C10.1072 15.0293 10.2234 15.2613 10.3562 15.4148L10.4524 15.5259L10.3429 15.6795C9.61916 16.6696 10.0972 17.9766 11.3255 18.3752C11.4949 18.4308 11.6974 18.4373 13.8552 18.4471C15.15 18.4504 16.2057 18.4634 16.2057 18.4732C16.2057 18.483 16.1459 18.6922 16.0729 18.9405C15.9135 19.4796 15.7608 20.1789 15.7044 20.62C15.6579 21.0121 15.6811 21.6656 15.7542 21.9303C15.9899 22.7733 16.5841 23.5379 17.2647 23.8712C17.4871 23.979 17.5435 23.9921 17.7958 23.9986C17.995 24.0052 18.1544 23.9888 18.3237 23.9431ZM17.5801 23.2602C17.278 23.1262 16.8065 22.6001 16.604 22.1753C16.4248 21.7996 16.3584 21.463 16.3816 21.0513C16.4181 20.3847 16.5874 19.6169 16.9028 18.6693C17.0821 18.1367 17.0987 18.019 17.0157 17.9047C16.9061 17.7478 16.9759 17.7511 14.164 17.7348L11.5081 17.7184L11.3355 17.6302C10.9803 17.444 10.7877 17.2054 10.7247 16.8721C10.6549 16.5029 10.8276 16.0977 11.1529 15.8592C11.3687 15.6991 11.4285 15.5521 11.3455 15.3756C11.3156 15.3168 11.2459 15.2384 11.1928 15.209C10.8774 15.0227 10.718 14.7679 10.718 14.4346C10.7147 14 10.9936 13.6798 11.455 13.5817C11.6675 13.5393 11.7903 13.4086 11.7903 13.2289C11.7903 13.1341 11.7571 13.0655 11.6409 12.9184C11.465 12.693 11.4119 12.5263 11.4351 12.2617C11.4683 11.8336 11.7007 11.6082 12.2484 11.4644C12.5174 11.3925 12.5904 11.1082 12.3945 10.8828C12.192 10.6442 12.1389 10.5201 12.1389 10.2521C12.1389 10.0626 12.1555 9.97767 12.2119 9.87311C12.3082 9.69666 12.5074 9.52348 12.7066 9.44833C12.8626 9.38951 13.0153 9.38625 16.3716 9.38625C19.6616 9.38625 19.8906 9.38951 20.1562 9.44833C20.528 9.52675 20.8932 9.64765 21.1289 9.76855L21.3182 9.86984L21.3182 12.8302L21.3182 15.7939L21.0526 15.9213C20.9065 15.9932 20.7571 16.0781 20.7239 16.1173C20.6907 16.1533 20.1761 17.2218 19.5786 18.4961L18.4963 20.8062L18.4963 21.9662L18.4963 23.1229L18.3868 23.1785C18.1079 23.3222 17.7925 23.3549 17.5801 23.2602ZM22.0552 12.8923L22.0651 9.41892L22.1415 9.27842C22.2577 9.06276 22.4336 8.88958 22.6394 8.79156L22.8287 8.70007L24.1566 8.70007C25.4845 8.70007 25.4845 8.70007 25.6605 8.77849C25.8862 8.87978 26.1385 9.14772 26.2215 9.37644C26.2779 9.53982 26.2813 9.7228 26.2813 12.5394L26.2813 15.5292L26.1949 15.7089C26.0821 15.9409 25.9626 16.0814 25.7733 16.1892C25.4911 16.3526 25.4347 16.3591 23.6819 16.3591L22.0485 16.3624L22.0552 12.8923Z" fill="white"/>
</svg>
