<svg width="50" height="50" viewBox="0 0 50 50" fill="none" xmlns="http://www.w3.org/2000/svg">
<rect width="50" height="50" rx="10" fill="#F6F6F6"/>
<path d="M35.2824 31.4286V33.1429C35.2824 33.375 35.1975 33.5759 35.0279 33.7456C34.8583 33.9152 34.6574 34 34.4252 34H15.5681C15.3359 34 15.135 33.9152 14.9654 33.7456C14.7958 33.5759 14.7109 33.375 14.7109 33.1429V31.4286C14.7109 31.1965 14.7958 30.9956 14.9654 30.8259C15.135 30.6563 15.3359 30.5715 15.5681 30.5715H34.4252C34.6574 30.5715 34.8583 30.6563 35.0279 30.8259C35.1975 30.9956 35.2824 31.1965 35.2824 31.4286ZM35.2824 24.5715V26.2857C35.2824 26.5179 35.1975 26.7188 35.0279 26.8884C34.8583 27.0581 34.6574 27.1429 34.4252 27.1429H15.5681C15.3359 27.1429 15.135 27.0581 14.9654 26.8884C14.7958 26.7188 14.7109 26.5179 14.7109 26.2857V24.5715C14.7109 24.3393 14.7958 24.1384 14.9654 23.9688C15.135 23.7991 15.3359 23.7143 15.5681 23.7143H34.4252C34.6574 23.7143 34.8583 23.7991 35.0279 23.9688C35.1975 24.1384 35.2824 24.3393 35.2824 24.5715ZM35.2824 17.7143V19.4286C35.2824 19.6607 35.1975 19.8616 35.0279 20.0313C34.8583 20.2009 34.6574 20.2857 34.4252 20.2857H15.5681C15.3359 20.2857 15.135 20.2009 14.9654 20.0313C14.7958 19.8616 14.7109 19.6607 14.7109 19.4286V17.7143C14.7109 17.4822 14.7958 17.2813 14.9654 17.1116C15.135 16.942 15.3359 16.8572 15.5681 16.8572H34.4252C34.6574 16.8572 34.8583 16.942 35.0279 17.1116C35.1975 17.2813 35.2824 17.4822 35.2824 17.7143Z" fill="#404040"/>
</svg>
