<svg width="58" height="58" viewBox="0 0 58 58" fill="none" xmlns="http://www.w3.org/2000/svg">
<g filter="url(#filter0_dd_179_11291)">
<rect x="4" y="3" width="50" height="50" rx="10" fill="#97144D"/>
</g>
<path d="M39.2824 34.4286V36.1429C39.2824 36.375 39.1975 36.5759 39.0279 36.7456C38.8583 36.9152 38.6574 37 38.4252 37H19.5681C19.3359 37 19.135 36.9152 18.9654 36.7456C18.7958 36.5759 18.7109 36.375 18.7109 36.1429V34.4286C18.7109 34.1965 18.7958 33.9956 18.9654 33.8259C19.135 33.6563 19.3359 33.5715 19.5681 33.5715H38.4252C38.6574 33.5715 38.8583 33.6563 39.0279 33.8259C39.1975 33.9956 39.2824 34.1965 39.2824 34.4286ZM39.2824 27.5715V29.2857C39.2824 29.5179 39.1975 29.7188 39.0279 29.8884C38.8583 30.0581 38.6574 30.1429 38.4252 30.1429H19.5681C19.3359 30.1429 19.135 30.0581 18.9654 29.8884C18.7958 29.7188 18.7109 29.5179 18.7109 29.2857V27.5715C18.7109 27.3393 18.7958 27.1384 18.9654 26.9688C19.135 26.7991 19.3359 26.7143 19.5681 26.7143H38.4252C38.6574 26.7143 38.8583 26.7991 39.0279 26.9688C39.1975 27.1384 39.2824 27.3393 39.2824 27.5715ZM39.2824 20.7143V22.4286C39.2824 22.6607 39.1975 22.8616 39.0279 23.0313C38.8583 23.2009 38.6574 23.2857 38.4252 23.2857H19.5681C19.3359 23.2857 19.135 23.2009 18.9654 23.0313C18.7958 22.8616 18.7109 22.6607 18.7109 22.4286V20.7143C18.7109 20.4822 18.7958 20.2813 18.9654 20.1116C19.135 19.942 19.3359 19.8572 19.5681 19.8572H38.4252C38.6574 19.8572 38.8583 19.942 39.0279 20.1116C39.1975 20.2813 39.2824 20.4822 39.2824 20.7143Z" fill="white"/>
<defs>
<filter id="filter0_dd_179_11291" x="0" y="0" width="58" height="58" filterUnits="userSpaceOnUse" color-interpolation-filters="sRGB">
<feFlood flood-opacity="0" result="BackgroundImageFix"/>
<feColorMatrix in="SourceAlpha" type="matrix" values="0 0 0 0 0 0 0 0 0 0 0 0 0 0 0 0 0 0 127 0" result="hardAlpha"/>
<feOffset dy="1"/>
<feGaussianBlur stdDeviation="1"/>
<feComposite in2="hardAlpha" operator="out"/>
<feColorMatrix type="matrix" values="0 0 0 0 0 0 0 0 0 0 0 0 0 0 0 0 0 0 0.3 0"/>
<feBlend mode="normal" in2="BackgroundImageFix" result="effect1_dropShadow_179_11291"/>
<feColorMatrix in="SourceAlpha" type="matrix" values="0 0 0 0 0 0 0 0 0 0 0 0 0 0 0 0 0 0 127 0" result="hardAlpha"/>
<feMorphology radius="1" operator="dilate" in="SourceAlpha" result="effect2_dropShadow_179_11291"/>
<feOffset dy="1"/>
<feGaussianBlur stdDeviation="1.5"/>
<feComposite in2="hardAlpha" operator="out"/>
<feColorMatrix type="matrix" values="0 0 0 0 0 0 0 0 0 0 0 0 0 0 0 0 0 0 0.15 0"/>
<feBlend mode="normal" in2="effect1_dropShadow_179_11291" result="effect2_dropShadow_179_11291"/>
<feBlend mode="normal" in="SourceGraphic" in2="effect2_dropShadow_179_11291" result="shape"/>
</filter>
</defs>
</svg>
