<svg width="69" height="30" viewBox="0 0 69 30" fill="none" xmlns="http://www.w3.org/2000/svg">
<rect x="1" y="1" width="67" height="28" rx="6" fill="white"/>
<rect width="27" height="24" transform="translate(3 3)" fill="white"/>
<path d="M10.5477 16.2V19H9.2077V16.2L6.5727 11.77H7.7577C7.87436 11.77 7.96603 11.7983 8.0327 11.855C8.1027 11.9117 8.16103 11.9833 8.2077 12.07L9.5277 14.485C9.60436 14.6283 9.67103 14.7633 9.7277 14.89C9.7877 15.0167 9.84103 15.1433 9.8877 15.27C9.93103 15.1433 9.98103 15.0167 10.0377 14.89C10.0944 14.7633 10.1594 14.6283 10.2327 14.485L11.5477 12.07C11.5844 11.9967 11.6394 11.9283 11.7127 11.865C11.786 11.8017 11.8794 11.77 11.9927 11.77H13.1827L10.5477 16.2ZM16.2771 12.84V14.845H18.8071V15.88H16.2771V17.925H19.4871V19H14.9271V11.77H19.4871V12.84H16.2771ZM25.529 13.085C25.489 13.155 25.4457 13.2067 25.399 13.24C25.3557 13.27 25.3007 13.285 25.234 13.285C25.164 13.285 25.0874 13.26 25.004 13.21C24.924 13.1567 24.8274 13.0983 24.714 13.035C24.6007 12.9717 24.4674 12.915 24.314 12.865C24.164 12.8117 23.9857 12.785 23.779 12.785C23.5924 12.785 23.429 12.8083 23.289 12.855C23.149 12.8983 23.0307 12.96 22.934 13.04C22.8407 13.12 22.7707 13.2167 22.724 13.33C22.6774 13.44 22.654 13.5617 22.654 13.695C22.654 13.865 22.7007 14.0067 22.794 14.12C22.8907 14.2333 23.0174 14.33 23.174 14.41C23.3307 14.49 23.509 14.5617 23.709 14.625C23.909 14.6883 24.114 14.7567 24.324 14.83C24.534 14.9 24.739 14.9833 24.939 15.08C25.139 15.1733 25.3174 15.2933 25.474 15.44C25.6307 15.5833 25.7557 15.76 25.849 15.97C25.9457 16.18 25.994 16.435 25.994 16.735C25.994 17.0617 25.9374 17.3683 25.824 17.655C25.714 17.9383 25.5507 18.1867 25.334 18.4C25.1207 18.61 24.859 18.7767 24.549 18.9C24.239 19.02 23.884 19.08 23.484 19.08C23.254 19.08 23.0274 19.0567 22.804 19.01C22.5807 18.9667 22.3657 18.9033 22.159 18.82C21.9557 18.7367 21.764 18.6367 21.584 18.52C21.404 18.4033 21.244 18.2733 21.104 18.13L21.499 17.485C21.5324 17.4383 21.5757 17.4 21.629 17.37C21.6824 17.3367 21.739 17.32 21.799 17.32C21.8824 17.32 21.9724 17.355 22.069 17.425C22.1657 17.4917 22.2807 17.5667 22.414 17.65C22.5474 17.7333 22.7024 17.81 22.879 17.88C23.059 17.9467 23.274 17.98 23.524 17.98C23.9074 17.98 24.204 17.89 24.414 17.71C24.624 17.5267 24.729 17.265 24.729 16.925C24.729 16.735 24.6807 16.58 24.584 16.46C24.4907 16.34 24.3657 16.24 24.209 16.16C24.0524 16.0767 23.874 16.0067 23.674 15.95C23.474 15.8933 23.2707 15.8317 23.064 15.765C22.8574 15.6983 22.654 15.6183 22.454 15.525C22.254 15.4317 22.0757 15.31 21.919 15.16C21.7624 15.01 21.6357 14.8233 21.539 14.6C21.4457 14.3733 21.399 14.095 21.399 13.765C21.399 13.5017 21.4507 13.245 21.554 12.995C21.6607 12.745 21.814 12.5233 22.014 12.33C22.214 12.1367 22.4607 11.9817 22.754 11.865C23.0474 11.7483 23.384 11.69 23.764 11.69C24.1907 11.69 24.584 11.7567 24.944 11.89C25.304 12.0233 25.6107 12.21 25.864 12.45L25.529 13.085Z" fill="#CBCBCB"/>
<rect x="30" y="3" width="37" height="24" rx="4" fill="#CBCBCB"/>
<path d="M47.0094 11.77V19H46.3194C46.2127 19 46.1227 18.9833 46.0494 18.95C45.9794 18.9133 45.911 18.8533 45.8444 18.77L42.0694 13.95C42.0894 14.17 42.0994 14.3733 42.0994 14.56V19H40.9144V11.77H41.6194C41.676 11.77 41.7244 11.7733 41.7644 11.78C41.8077 11.7833 41.8444 11.7933 41.8744 11.81C41.9077 11.8233 41.9394 11.845 41.9694 11.875C41.9994 11.9017 42.0327 11.9383 42.0694 11.985L45.8594 16.825C45.8494 16.7083 45.841 16.5933 45.8344 16.48C45.8277 16.3667 45.8244 16.2617 45.8244 16.165V11.77H47.0094ZM56.5145 15.385C56.5145 15.915 56.4261 16.4067 56.2495 16.86C56.0761 17.31 55.8295 17.7 55.5095 18.03C55.1895 18.36 54.8045 18.6183 54.3545 18.805C53.9045 18.9883 53.4045 19.08 52.8545 19.08C52.3078 19.08 51.8095 18.9883 51.3595 18.805C50.9095 18.6183 50.5228 18.36 50.1995 18.03C49.8795 17.7 49.6311 17.31 49.4545 16.86C49.2778 16.4067 49.1895 15.915 49.1895 15.385C49.1895 14.855 49.2778 14.365 49.4545 13.915C49.6311 13.4617 49.8795 13.07 50.1995 12.74C50.5228 12.41 50.9095 12.1533 51.3595 11.97C51.8095 11.7833 52.3078 11.69 52.8545 11.69C53.2211 11.69 53.5661 11.7333 53.8895 11.82C54.2128 11.9033 54.5095 12.0233 54.7795 12.18C55.0495 12.3333 55.2911 12.5217 55.5045 12.745C55.7211 12.965 55.9045 13.2117 56.0545 13.485C56.2045 13.7583 56.3178 14.055 56.3945 14.375C56.4745 14.695 56.5145 15.0317 56.5145 15.385ZM55.1395 15.385C55.1395 14.9883 55.0861 14.6333 54.9795 14.32C54.8728 14.0033 54.7211 13.735 54.5245 13.515C54.3278 13.295 54.0878 13.1267 53.8045 13.01C53.5245 12.8933 53.2078 12.835 52.8545 12.835C52.5011 12.835 52.1828 12.8933 51.8995 13.01C51.6195 13.1267 51.3795 13.295 51.1795 13.515C50.9828 13.735 50.8311 14.0033 50.7245 14.32C50.6178 14.6333 50.5645 14.9883 50.5645 15.385C50.5645 15.7817 50.6178 16.1383 50.7245 16.455C50.8311 16.7683 50.9828 17.035 51.1795 17.255C51.3795 17.4717 51.6195 17.6383 51.8995 17.755C52.1828 17.8717 52.5011 17.93 52.8545 17.93C53.2078 17.93 53.5245 17.8717 53.8045 17.755C54.0878 17.6383 54.3278 17.4717 54.5245 17.255C54.7211 17.035 54.8728 16.7683 54.9795 16.455C55.0861 16.1383 55.1395 15.7817 55.1395 15.385Z" fill="white"/>
<rect x="1" y="1" width="67" height="28" rx="6" stroke="#F1F1F1"/>
</svg>
