<svg width="69" height="30" viewBox="0 0 69 30" fill="none" xmlns="http://www.w3.org/2000/svg">
<rect x="1" y="1" width="67" height="28" rx="6" fill="white"/>
<rect width="27" height="24" transform="translate(3 3)" fill="white"/>
<path d="M10.3843 16.145V19H9.4143V16.145L6.7893 11.835H7.6393C7.72596 11.835 7.7943 11.8567 7.8443 11.9C7.8943 11.94 7.93763 11.9933 7.9743 12.06L9.6143 14.845C9.6743 14.9617 9.7293 15.0717 9.7793 15.175C9.8293 15.275 9.87263 15.3767 9.9093 15.48C9.94596 15.3767 9.98763 15.275 10.0343 15.175C10.081 15.0717 10.1326 14.9617 10.1893 14.845L11.8243 12.06C11.8543 12.0033 11.896 11.9517 11.9493 11.905C12.0026 11.8583 12.071 11.835 12.1543 11.835H13.0093L10.3843 16.145ZM19.3545 18.21L19.3495 19H14.9345V11.835H19.3495V12.625H15.9045V15.005H18.6945V15.765H15.9045V18.21H19.3545ZM25.371 12.955C25.341 13.005 25.3077 13.0433 25.271 13.07C25.2377 13.0933 25.196 13.105 25.146 13.105C25.0893 13.105 25.0227 13.0767 24.946 13.02C24.8693 12.9633 24.7727 12.9017 24.656 12.835C24.5427 12.765 24.4043 12.7017 24.241 12.645C24.081 12.5883 23.886 12.56 23.656 12.56C23.4393 12.56 23.2477 12.59 23.081 12.65C22.9177 12.7067 22.7793 12.785 22.666 12.885C22.556 12.985 22.4727 13.1033 22.416 13.24C22.3593 13.3733 22.331 13.5183 22.331 13.675C22.331 13.875 22.3793 14.0417 22.476 14.175C22.576 14.305 22.706 14.4167 22.866 14.51C23.0293 14.6033 23.2127 14.685 23.416 14.755C23.6227 14.8217 23.8327 14.8917 24.046 14.965C24.2627 15.0383 24.4727 15.1217 24.676 15.215C24.8827 15.305 25.066 15.42 25.226 15.56C25.3893 15.7 25.5193 15.8717 25.616 16.075C25.716 16.2783 25.766 16.5283 25.766 16.825C25.766 17.1383 25.7127 17.4333 25.606 17.71C25.4993 17.9833 25.3427 18.2217 25.136 18.425C24.9327 18.6283 24.681 18.7883 24.381 18.905C24.0843 19.0217 23.746 19.08 23.366 19.08C22.8993 19.08 22.476 18.9967 22.096 18.83C21.716 18.66 21.391 18.4317 21.121 18.145L21.401 17.685C21.4277 17.6483 21.4593 17.6183 21.496 17.595C21.536 17.5683 21.5793 17.555 21.626 17.555C21.6693 17.555 21.7177 17.5733 21.771 17.61C21.8277 17.6433 21.891 17.6867 21.961 17.74C22.031 17.7933 22.111 17.8517 22.201 17.915C22.291 17.9783 22.3927 18.0367 22.506 18.09C22.6227 18.1433 22.7543 18.1883 22.901 18.225C23.0477 18.2583 23.2127 18.275 23.396 18.275C23.626 18.275 23.831 18.2433 24.011 18.18C24.191 18.1167 24.3427 18.0283 24.466 17.915C24.5927 17.7983 24.6893 17.66 24.756 17.5C24.8227 17.34 24.856 17.1617 24.856 16.965C24.856 16.7483 24.806 16.5717 24.706 16.435C24.6093 16.295 24.481 16.1783 24.321 16.085C24.161 15.9917 23.9777 15.9133 23.771 15.85C23.5643 15.7833 23.3543 15.7167 23.141 15.65C22.9277 15.58 22.7177 15.5 22.511 15.41C22.3043 15.32 22.121 15.2033 21.961 15.06C21.801 14.9167 21.671 14.7383 21.571 14.525C21.4743 14.3083 21.426 14.0417 21.426 13.725C21.426 13.4717 21.4743 13.2267 21.571 12.99C21.671 12.7533 21.8143 12.5433 22.001 12.36C22.191 12.1767 22.4227 12.03 22.696 11.92C22.9727 11.81 23.2893 11.755 23.646 11.755C24.046 11.755 24.4093 11.8183 24.736 11.945C25.066 12.0717 25.356 12.255 25.606 12.495L25.371 12.955Z" fill="#97144D"/>
<rect x="30" y="3" width="37" height="24" rx="4" fill="#97144D"/>
<path d="M46.8977 11.835V19H46.4127C46.3361 19 46.2711 18.9867 46.2177 18.96C46.1677 18.9333 46.1177 18.8883 46.0677 18.825L41.9227 13.425C41.9294 13.5083 41.9344 13.59 41.9377 13.67C41.9411 13.75 41.9427 13.825 41.9427 13.895V19H41.0927V11.835H41.5927C41.6361 11.835 41.6727 11.8383 41.7027 11.845C41.7327 11.8483 41.7594 11.8567 41.7827 11.87C41.8061 11.88 41.8294 11.8967 41.8527 11.92C41.8761 11.94 41.9011 11.9667 41.9277 12L46.0727 17.395C46.0661 17.3083 46.0594 17.225 46.0527 17.145C46.0494 17.0617 46.0477 16.9833 46.0477 16.91V11.835H46.8977ZM56.3495 15.42C56.3495 15.9567 56.2645 16.45 56.0945 16.9C55.9245 17.3467 55.6845 17.7317 55.3745 18.055C55.0645 18.3783 54.6911 18.63 54.2545 18.81C53.8211 18.9867 53.3411 19.075 52.8145 19.075C52.2878 19.075 51.8078 18.9867 51.3745 18.81C50.9411 18.63 50.5695 18.3783 50.2595 18.055C49.9495 17.7317 49.7095 17.3467 49.5395 16.9C49.3695 16.45 49.2845 15.9567 49.2845 15.42C49.2845 14.8833 49.3695 14.3917 49.5395 13.945C49.7095 13.495 49.9495 13.1083 50.2595 12.785C50.5695 12.4583 50.9411 12.205 51.3745 12.025C51.8078 11.845 52.2878 11.755 52.8145 11.755C53.3411 11.755 53.8211 11.845 54.2545 12.025C54.6911 12.205 55.0645 12.4583 55.3745 12.785C55.6845 13.1083 55.9245 13.495 56.0945 13.945C56.2645 14.3917 56.3495 14.8833 56.3495 15.42ZM55.3545 15.42C55.3545 14.98 55.2945 14.585 55.1745 14.235C55.0545 13.885 54.8845 13.59 54.6645 13.35C54.4445 13.1067 54.1778 12.92 53.8645 12.79C53.5511 12.66 53.2011 12.595 52.8145 12.595C52.4311 12.595 52.0828 12.66 51.7695 12.79C51.4561 12.92 51.1878 13.1067 50.9645 13.35C50.7445 13.59 50.5745 13.885 50.4545 14.235C50.3345 14.585 50.2745 14.98 50.2745 15.42C50.2745 15.86 50.3345 16.255 50.4545 16.605C50.5745 16.9517 50.7445 17.2467 50.9645 17.49C51.1878 17.73 51.4561 17.915 51.7695 18.045C52.0828 18.1717 52.4311 18.235 52.8145 18.235C53.2011 18.235 53.5511 18.1717 53.8645 18.045C54.1778 17.915 54.4445 17.73 54.6645 17.49C54.8845 17.2467 55.0545 16.9517 55.1745 16.605C55.2945 16.255 55.3545 15.86 55.3545 15.42Z" fill="white"/>
<rect x="1" y="1" width="67" height="28" rx="6" stroke="#F1F1F1"/>
</svg>
