<svg width="38" height="30" viewBox="0 0 38 30" fill="none" xmlns="http://www.w3.org/2000/svg">
<path fill-rule="evenodd" clip-rule="evenodd" d="M15.2511 6.83882C14.6441 7.39597 14.7021 8.40762 15.3649 8.82074L15.526 8.92119L13.8039 12.3217L12.0818 15.7223L11.8387 15.6459C10.6714 15.2792 9.67527 16.8541 10.5458 17.69C10.7744 17.9095 16.2695 20.6925 16.5124 20.7117C17.6605 20.8027 18.2849 19.2734 17.4097 18.5139L17.1626 18.2995L17.3678 17.8905C17.5903 17.4469 17.6215 17.418 17.7796 17.5089C18.1989 17.7496 19.1645 17.5597 19.5486 17.161C19.6404 17.0657 19.718 17.1026 23.8137 19.1869C28.4347 21.5387 28.2306 21.454 28.8209 21.2628C29.8781 20.9204 30.2782 19.5125 29.545 18.7151C29.3609 18.515 28.8637 18.2469 25.2025 16.3738L21.0679 14.2585L21.0756 13.9799C21.0912 13.4207 20.7107 12.7068 20.2654 12.4598C20.1498 12.3956 20.1505 12.392 20.3767 11.9492L20.6044 11.5032L20.7382 11.5641C21.6451 11.9768 22.685 10.9742 22.3656 9.99505C22.2202 9.54913 22.1076 9.46917 20.3623 8.57399C18.4475 7.59182 18.4092 7.58021 18.2347 7.92486C18.0605 8.26875 18.0611 8.26925 19.8772 9.19907C21.7926 10.1797 21.8875 10.2651 21.5469 10.7034C21.3183 10.9976 21.3752 11.0194 18.3879 9.49584C15.306 7.92397 15.4315 8.0113 15.6457 7.5883C15.8135 7.25696 15.9796 7.23376 16.4814 7.4714C16.9544 7.69552 17.0836 7.68463 17.2231 7.40909C17.5675 6.72917 15.8969 6.24616 15.2511 6.83882ZM18.0835 10.212L19.9144 11.1461L18.1865 14.5582L16.4585 17.9703L14.6122 17.0289L12.766 16.0875L14.4861 12.6902C15.4323 10.8218 16.2168 9.28955 16.2294 9.28544C16.2421 9.2813 17.0764 9.69826 18.0835 10.212ZM20.0835 13.3355C20.4489 13.7497 20.3968 14.0148 19.674 15.4213C18.9993 16.7342 18.921 16.8225 18.4232 16.8329C17.867 16.8446 17.84 16.9592 18.8756 14.9128C19.8856 12.9171 19.8061 13.0209 20.0835 13.3355ZM11.5195 16.3648C11.7967 16.4129 16.9768 19.1007 17.0219 19.2198C17.1065 19.4432 17.1052 19.5197 17.014 19.6843C16.792 20.085 16.9022 20.1235 13.8937 18.5936C12.4135 17.8408 11.157 17.181 11.1016 17.1273C10.8144 16.8494 11.1182 16.2951 11.5195 16.3648ZM24.8444 17.1056C27.0792 18.2473 28.9447 19.2187 28.9899 19.2642C29.2993 19.5757 29.2006 20.1871 28.7999 20.4415C28.4267 20.6783 28.6098 20.7553 24.1477 18.4839L20.0511 16.3985L20.3926 15.7218C20.5805 15.3496 20.7447 15.0415 20.7577 15.0373C20.7706 15.0331 22.6096 15.9639 24.8444 17.1056Z" fill="white"/>
<circle cx="19" cy="15" r="11.5" stroke="white"/>
<path d="M11 7.5L27 23.5" stroke="white"/>
</svg>
