<svg width="24" height="24" viewBox="0 0 24 24" fill="none" xmlns="http://www.w3.org/2000/svg">
<path fill-rule="evenodd" clip-rule="evenodd" d="M8.25185 3.83882C7.64482 4.39597 7.70286 5.40762 8.36559 5.82074L8.5267 5.92119L6.80461 9.32171L5.08254 12.7223L4.83944 12.6459C3.67213 12.2792 2.676 13.8541 3.54651 14.69C3.7751 14.9095 9.27026 17.6925 9.51311 17.7117C10.6613 17.8027 11.2857 16.2734 10.4105 15.5139L10.1634 15.2995L10.3685 14.8905C10.591 14.4469 10.6223 14.418 10.7804 14.5089C11.1996 14.7496 12.1652 14.5597 12.5493 14.161C12.6412 14.0657 12.7187 14.1026 16.8144 16.1869C21.4354 18.5387 21.2313 18.454 21.8216 18.2628C22.8788 17.9204 23.2789 16.5125 22.5457 15.7151C22.3617 15.515 21.8645 15.2469 18.2033 13.3738L14.0686 11.2585L14.0764 10.9799C14.0919 10.4207 13.7114 9.70684 13.2661 9.45984C13.1505 9.39565 13.1513 9.39198 13.3774 8.94923L13.6051 8.50324L13.7389 8.5641C14.6459 8.97678 15.6857 7.97424 15.3664 6.99505C15.2209 6.54913 15.1083 6.46917 13.363 5.57399C11.4482 4.59182 11.4099 4.58021 11.2354 4.92486C11.0612 5.26875 11.0619 5.26925 12.8779 6.19907C14.7934 7.17967 14.8882 7.26511 14.5476 7.70335C14.319 7.99761 14.3759 8.01939 11.3886 6.49584C8.30676 4.92397 8.43225 5.0113 8.64647 4.5883C8.81427 4.25696 8.98035 4.23376 9.48211 4.4714C9.95517 4.69552 10.0843 4.68463 10.2239 4.40909C10.5682 3.72917 8.8976 3.24616 8.25185 3.83882ZM11.0842 7.21198L12.9151 8.14605L11.1872 11.5582L9.45926 14.9703L7.61297 14.0289L5.76676 13.0875L7.48688 9.69022C8.43301 7.82175 9.2175 6.28955 9.23013 6.28544C9.24281 6.2813 10.0772 6.69826 11.0842 7.21198ZM13.0842 10.3355C13.4496 10.7497 13.3975 11.0148 12.6747 12.4213C12 13.7342 11.9218 13.8225 11.4239 13.8329C10.8678 13.8446 10.8407 13.9592 11.8764 11.9128C12.8863 9.91707 12.8068 10.0209 13.0842 10.3355ZM4.52026 13.3648C4.7974 13.4129 9.97753 16.1007 10.0226 16.2198C10.1072 16.4432 10.106 16.5197 10.0148 16.6843C9.79271 17.085 9.90291 17.1235 6.89443 15.5936C5.41422 14.8408 4.15778 14.181 4.10235 14.1273C3.81511 13.8494 4.11889 13.2951 4.52026 13.3648ZM17.8451 14.1056C20.0799 15.2473 21.9454 16.2187 21.9907 16.2642C22.3001 16.5757 22.2014 17.1871 21.8006 17.4415C21.4274 17.6783 21.6106 17.7553 17.1484 15.4839L13.0518 13.3985L13.3934 12.7218C13.5812 12.3496 13.7455 12.0415 13.7584 12.0373C13.7713 12.0331 15.6103 12.9639 17.8451 14.1056Z" fill="#97144D"/>
<circle cx="12" cy="12" r="11.5" stroke="#97144D"/>
<path d="M4 4.5L20 20.5" stroke="#97144D"/>
</svg>
