<svg width="100" height="38" viewBox="0 0 100 38" fill="none" xmlns="http://www.w3.org/2000/svg">
<g filter="url(#filter0_d_4697_18730)">
<rect x="5" y="1" width="90" height="28" rx="6" fill="white"/>
<rect width="46" height="24" transform="translate(7 3)" fill="white"/>
<path d="M23.7224 15.405C23.969 15.405 24.184 15.375 24.3674 15.315C24.5507 15.2517 24.7024 15.1633 24.8224 15.05C24.9457 14.9333 25.0374 14.7933 25.0974 14.63C25.1574 14.4633 25.1874 14.2783 25.1874 14.075C25.1874 13.8817 25.1574 13.7067 25.0974 13.55C25.0374 13.3933 24.9474 13.26 24.8274 13.15C24.7074 13.04 24.5557 12.9567 24.3724 12.9C24.189 12.84 23.9724 12.81 23.7224 12.81H22.7174V15.405H23.7224ZM23.7224 11.77C24.2057 11.77 24.624 11.8267 24.9774 11.94C25.3307 12.0533 25.6224 12.2117 25.8524 12.415C26.0824 12.6183 26.2524 12.8617 26.3624 13.145C26.4757 13.4283 26.5324 13.7383 26.5324 14.075C26.5324 14.425 26.474 14.7467 26.3574 15.04C26.2407 15.33 26.0657 15.58 25.8324 15.79C25.599 16 25.3057 16.1633 24.9524 16.28C24.6024 16.3967 24.1924 16.455 23.7224 16.455H22.7174V19H21.3724V11.77H23.7224ZM29.9138 19H28.5638V11.77H29.9138V19ZM38.6275 11.77V19H37.9375C37.8309 19 37.7409 18.9833 37.6675 18.95C37.5975 18.9133 37.5292 18.8533 37.4625 18.77L33.6875 13.95C33.7075 14.17 33.7175 14.3733 33.7175 14.56V19H32.5325V11.77H33.2375C33.2942 11.77 33.3425 11.7733 33.3825 11.78C33.4259 11.7833 33.4625 11.7933 33.4925 11.81C33.5259 11.8233 33.5575 11.845 33.5875 11.875C33.6175 11.9017 33.6509 11.9383 33.6875 11.985L37.4775 16.825C37.4675 16.7083 37.4592 16.5933 37.4525 16.48C37.4459 16.3667 37.4425 16.2617 37.4425 16.165V11.77H38.6275Z" fill="#97144D"/>
<rect x="53" y="3" width="39" height="24" rx="4" fill="#97144D"/>
<path d="M69.1902 15.385C69.1902 15.915 69.1019 16.4067 68.9252 16.86C68.7519 17.31 68.5052 17.7 68.1852 18.03C67.8652 18.36 67.4802 18.6183 67.0302 18.805C66.5802 18.9883 66.0802 19.08 65.5302 19.08C64.9836 19.08 64.4852 18.9883 64.0352 18.805C63.5852 18.6183 63.1986 18.36 62.8752 18.03C62.5552 17.7 62.3069 17.31 62.1302 16.86C61.9536 16.4067 61.8652 15.915 61.8652 15.385C61.8652 14.855 61.9536 14.365 62.1302 13.915C62.3069 13.4617 62.5552 13.07 62.8752 12.74C63.1986 12.41 63.5852 12.1533 64.0352 11.97C64.4852 11.7833 64.9836 11.69 65.5302 11.69C65.8969 11.69 66.2419 11.7333 66.5652 11.82C66.8886 11.9033 67.1852 12.0233 67.4552 12.18C67.7252 12.3333 67.9669 12.5217 68.1802 12.745C68.3969 12.965 68.5802 13.2117 68.7302 13.485C68.8802 13.7583 68.9936 14.055 69.0702 14.375C69.1502 14.695 69.1902 15.0317 69.1902 15.385ZM67.8152 15.385C67.8152 14.9883 67.7619 14.6333 67.6552 14.32C67.5486 14.0033 67.3969 13.735 67.2002 13.515C67.0036 13.295 66.7636 13.1267 66.4802 13.01C66.2002 12.8933 65.8836 12.835 65.5302 12.835C65.1769 12.835 64.8586 12.8933 64.5752 13.01C64.2952 13.1267 64.0552 13.295 63.8552 13.515C63.6586 13.735 63.5069 14.0033 63.4002 14.32C63.2936 14.6333 63.2402 14.9883 63.2402 15.385C63.2402 15.7817 63.2936 16.1383 63.4002 16.455C63.5069 16.7683 63.6586 17.035 63.8552 17.255C64.0552 17.4717 64.2952 17.6383 64.5752 17.755C64.8586 17.8717 65.1769 17.93 65.5302 17.93C65.8836 17.93 66.2002 17.8717 66.4802 17.755C66.7636 17.6383 67.0036 17.4717 67.2002 17.255C67.3969 17.035 67.5486 16.7683 67.6552 16.455C67.7619 16.1383 67.8152 15.7817 67.8152 15.385ZM76.1773 12.875H73.9973V19H72.6523V12.875H70.4723V11.77H76.1773V12.875ZM80.4734 15.405C80.72 15.405 80.935 15.375 81.1184 15.315C81.3017 15.2517 81.4534 15.1633 81.5734 15.05C81.6967 14.9333 81.7884 14.7933 81.8484 14.63C81.9084 14.4633 81.9384 14.2783 81.9384 14.075C81.9384 13.8817 81.9084 13.7067 81.8484 13.55C81.7884 13.3933 81.6984 13.26 81.5784 13.15C81.4584 13.04 81.3067 12.9567 81.1234 12.9C80.94 12.84 80.7234 12.81 80.4734 12.81H79.4684V15.405H80.4734ZM80.4734 11.77C80.9567 11.77 81.375 11.8267 81.7284 11.94C82.0817 12.0533 82.3734 12.2117 82.6034 12.415C82.8334 12.6183 83.0034 12.8617 83.1134 13.145C83.2267 13.4283 83.2834 13.7383 83.2834 14.075C83.2834 14.425 83.225 14.7467 83.1084 15.04C82.9917 15.33 82.8167 15.58 82.5834 15.79C82.35 16 82.0567 16.1633 81.7034 16.28C81.3534 16.3967 80.9434 16.455 80.4734 16.455H79.4684V19H78.1234V11.77H80.4734Z" fill="white"/>
<rect x="5" y="1" width="90" height="28" rx="6" stroke="#CBCBCB"/>
</g>
<defs>
<filter id="filter0_d_4697_18730" x="0.5" y="0.5" width="99" height="37" filterUnits="userSpaceOnUse" color-interpolation-filters="sRGB">
<feFlood flood-opacity="0" result="BackgroundImageFix"/>
<feColorMatrix in="SourceAlpha" type="matrix" values="0 0 0 0 0 0 0 0 0 0 0 0 0 0 0 0 0 0 127 0" result="hardAlpha"/>
<feOffset dy="4"/>
<feGaussianBlur stdDeviation="2"/>
<feComposite in2="hardAlpha" operator="out"/>
<feColorMatrix type="matrix" values="0 0 0 0 0 0 0 0 0 0 0 0 0 0 0 0 0 0 0.25 0"/>
<feBlend mode="normal" in2="BackgroundImageFix" result="effect1_dropShadow_4697_18730"/>
<feBlend mode="normal" in="SourceGraphic" in2="effect1_dropShadow_4697_18730" result="shape"/>
</filter>
</defs>
</svg>
