<svg width="92" height="30" viewBox="0 0 92 30" fill="none" xmlns="http://www.w3.org/2000/svg">
<g clip-path="url(#clip0_3204_65723)">
<rect x="1" y="1" width="90" height="28" rx="6" fill="white"/>
<rect x="3" y="3" width="43" height="24" rx="4" fill="#97144D"/>
<path d="M17.1434 16.455V19H15.7984V11.77H18.1534C18.6368 11.77 19.0551 11.8267 19.4084 11.94C19.7618 12.0533 20.0534 12.2117 20.2834 12.415C20.5134 12.6183 20.6834 12.8617 20.7934 13.145C20.9034 13.4283 20.9584 13.7383 20.9584 14.075C20.9584 14.425 20.9001 14.7467 20.7834 15.04C20.6668 15.33 20.4918 15.58 20.2584 15.79C20.0251 16 19.7334 16.1633 19.3834 16.28C19.0334 16.3967 18.6234 16.455 18.1534 16.455H17.1434ZM17.1434 15.405H18.1534C18.4001 15.405 18.6151 15.375 18.7984 15.315C18.9818 15.2517 19.1334 15.1633 19.2534 15.05C19.3734 14.9333 19.4634 14.7933 19.5234 14.63C19.5834 14.4633 19.6134 14.2783 19.6134 14.075C19.6134 13.8817 19.5834 13.7067 19.5234 13.55C19.4634 13.3933 19.3734 13.26 19.2534 13.15C19.1334 13.04 18.9818 12.9567 18.7984 12.9C18.6151 12.84 18.4001 12.81 18.1534 12.81H17.1434V15.405ZM24.5184 19H23.1684V11.77H24.5184V19ZM27.853 11.77C27.913 11.77 27.963 11.7733 28.003 11.78C28.043 11.7833 28.078 11.7933 28.108 11.81C28.1413 11.8233 28.173 11.845 28.203 11.875C28.233 11.9017 28.2663 11.9383 28.303 11.985L32.098 16.82C32.0846 16.7033 32.0746 16.59 32.068 16.48C32.0646 16.3667 32.063 16.2617 32.063 16.165V11.77H33.248V19H32.553C32.4463 19 32.358 18.9833 32.288 18.95C32.218 18.9167 32.1496 18.8567 32.083 18.77L28.303 13.955C28.313 14.0617 28.3196 14.1683 28.323 14.275C28.3296 14.3783 28.333 14.4733 28.333 14.56V19H27.148V11.77H27.853Z" fill="white"/>
<rect width="46" height="24" transform="translate(46 3)" fill="white"/>
<path d="M65.7627 15.385C65.7627 15.915 65.6743 16.4067 65.4977 16.86C65.321 17.31 65.0727 17.7 64.7527 18.03C64.4327 18.36 64.0477 18.6183 63.5977 18.805C63.1477 18.9883 62.6493 19.08 62.1027 19.08C61.556 19.08 61.056 18.9883 60.6027 18.805C60.1527 18.6183 59.766 18.36 59.4427 18.03C59.1227 17.7 58.8743 17.31 58.6977 16.86C58.521 16.4067 58.4327 15.915 58.4327 15.385C58.4327 14.855 58.521 14.365 58.6977 13.915C58.8743 13.4617 59.1227 13.07 59.4427 12.74C59.766 12.41 60.1527 12.1533 60.6027 11.97C61.056 11.7833 61.556 11.69 62.1027 11.69C62.6493 11.69 63.1477 11.7833 63.5977 11.97C64.0477 12.1567 64.4327 12.415 64.7527 12.745C65.0727 13.0717 65.321 13.4617 65.4977 13.915C65.6743 14.365 65.7627 14.855 65.7627 15.385ZM64.3827 15.385C64.3827 14.9883 64.3293 14.6333 64.2227 14.32C64.1193 14.0033 63.9693 13.735 63.7727 13.515C63.576 13.295 63.336 13.1267 63.0527 13.01C62.7727 12.8933 62.456 12.835 62.1027 12.835C61.7493 12.835 61.431 12.8933 61.1477 13.01C60.8643 13.1267 60.6227 13.295 60.4227 13.515C60.226 13.735 60.0743 14.0033 59.9677 14.32C59.861 14.6333 59.8077 14.9883 59.8077 15.385C59.8077 15.7817 59.861 16.1383 59.9677 16.455C60.0743 16.7683 60.226 17.035 60.4227 17.255C60.6227 17.4717 60.8643 17.6383 61.1477 17.755C61.431 17.8717 61.7493 17.93 62.1027 17.93C62.456 17.93 62.7727 17.8717 63.0527 17.755C63.336 17.6383 63.576 17.4717 63.7727 17.255C63.9693 17.035 64.1193 16.7683 64.2227 16.455C64.3293 16.1383 64.3827 15.7817 64.3827 15.385ZM72.5301 11.77V12.875H70.3551V19H69.0101V12.875H66.8251V11.77H72.5301ZM75.7723 16.455V19H74.4273V11.77H76.7823C77.2657 11.77 77.684 11.8267 78.0373 11.94C78.3907 12.0533 78.6823 12.2117 78.9123 12.415C79.1423 12.6183 79.3123 12.8617 79.4223 13.145C79.5323 13.4283 79.5873 13.7383 79.5873 14.075C79.5873 14.425 79.529 14.7467 79.4123 15.04C79.2957 15.33 79.1207 15.58 78.8873 15.79C78.654 16 78.3623 16.1633 78.0123 16.28C77.6623 16.3967 77.2523 16.455 76.7823 16.455H75.7723ZM75.7723 15.405H76.7823C77.029 15.405 77.244 15.375 77.4273 15.315C77.6107 15.2517 77.7623 15.1633 77.8823 15.05C78.0023 14.9333 78.0923 14.7933 78.1523 14.63C78.2123 14.4633 78.2423 14.2783 78.2423 14.075C78.2423 13.8817 78.2123 13.7067 78.1523 13.55C78.0923 13.3933 78.0023 13.26 77.8823 13.15C77.7623 13.04 77.6107 12.9567 77.4273 12.9C77.244 12.84 77.029 12.81 76.7823 12.81H75.7723V15.405Z" fill="#97144D"/>
</g>
<rect x="1" y="1" width="90" height="28" rx="6" stroke="#CBCBCB"/>
<defs>
<clipPath id="clip0_3204_65723">
<rect x="1" y="1" width="90" height="28" rx="6" fill="white"/>
</clipPath>
</defs>
</svg>
