<svg width="36" height="35" viewBox="0 0 36 35" fill="none" xmlns="http://www.w3.org/2000/svg">
<path d="M36 28.165C36 27.4285 35.697 26.6919 35.1515 26.1616L26.2424 17.5L35.1515 8.83839C35.697 8.30808 36 7.57155 36 6.83502C36 6.09848 35.697 5.36196 35.1515 4.83165L31.0303 0.824916C30.4848 0.294613 29.7273 0 28.9697 0C28.2121 0 27.4545 0.294613 26.9091 0.824916L18 9.48653L9.09091 0.824916C8.54546 0.294613 7.78788 0 7.0303 0C6.27273 0 5.51515 0.294613 4.9697 0.824916L0.848485 4.83165C0.30303 5.36196 0 6.09848 0 6.83502C0 7.57155 0.30303 8.30808 0.848485 8.83839L9.75758 17.5L0.848485 26.1616C0.30303 26.6919 0 27.4285 0 28.165C0 28.9015 0.30303 29.638 0.848485 30.1684L4.9697 34.1751C5.51515 34.7054 6.27273 35 7.0303 35C7.78788 35 8.54546 34.7054 9.09091 34.1751L18 25.5135L26.9091 34.1751C27.4545 34.7054 28.2121 35 28.9697 35C29.7273 35 30.4848 34.7054 31.0303 34.1751L35.1515 30.1684C35.697 29.638 36 28.9015 36 28.165Z" fill="#97144D"/>
</svg>
