<svg width="44" height="49" viewBox="0 0 44 49" fill="none" xmlns="http://www.w3.org/2000/svg">
<path d="M39.2857 24.5H14.9286V14.6426C14.9286 10.9102 17.9732 7.75195 21.9018 7.65625C25.8304 7.65625 29.0714 10.8145 29.0714 14.5469V16.0781C29.0714 17.418 30.0536 18.375 31.4286 18.375H34.5714C35.8482 18.375 36.9286 17.418 36.9286 16.0781V14.5469C36.9286 6.50781 30.1518 0 21.9018 0C13.6518 0.0957031 7.07143 6.69922 7.07143 14.7383V24.5H4.71429C2.0625 24.5 0 26.6055 0 29.0938V44.4062C0 46.9902 2.0625 49 4.71429 49H39.2857C41.8393 49 44 46.9902 44 44.4062V29.0938C44 26.6055 41.8393 24.5 39.2857 24.5ZM25.9286 39.0469C25.9286 41.248 24.1607 42.875 22 42.875C19.7411 42.875 18.0714 41.248 18.0714 39.0469V34.4531C18.0714 32.3477 19.7411 30.625 22 30.625C24.1607 30.625 25.9286 32.3477 25.9286 34.4531V39.0469Z" fill="#97144D"/>
</svg>
