<svg width="44" height="51" viewBox="0 0 44 51" fill="none" xmlns="http://www.w3.org/2000/svg">
<path d="M43.0435 40.7899C42.477 40.3991 41.8849 39.9839 41.3184 39.6175C41.1382 39.4954 41.0867 39.3977 41.0867 39.1778C41.1125 38.7137 41.1125 38.2496 41.0867 37.7855C41.061 37.5413 41.1382 37.4436 41.3442 37.3214C41.9363 36.9306 42.5285 36.5154 43.1207 36.1246C43.6871 35.7338 43.9703 35.2208 43.9961 34.4636C44.0218 34.1949 43.9188 33.8774 43.7386 33.5843C43.1979 32.7049 42.683 31.8256 42.1423 30.9463C41.5759 30.0425 40.546 29.725 39.5162 30.1402C39.0012 30.3356 38.4863 30.531 38.0229 30.7997C37.4564 31.1172 36.9672 31.1417 36.4523 30.702C36.2978 30.5554 36.0661 30.4577 35.8344 30.3845C35.5254 30.2868 35.3967 30.0914 35.371 29.7738C35.3195 29.1143 35.2422 28.4548 35.165 27.7953C35.062 26.8183 34.3411 26.0611 33.3112 26.0366C32.1011 25.9878 30.9168 25.9878 29.7067 26.0366C28.8055 26.0611 28.1361 26.6473 27.9559 27.4778C27.8529 27.9663 27.7757 28.4792 27.7757 28.9922C27.7499 29.7494 27.6212 30.3845 26.7201 30.6287C26.5141 30.6776 26.3339 30.8241 26.1536 30.9707C25.9734 31.1172 25.8189 31.1172 25.5872 31.0195C24.9178 30.7264 24.2484 30.4333 23.5532 30.1646C22.4976 29.725 21.4935 30.0425 20.9013 30.9707C20.3606 31.8256 19.82 32.7049 19.305 33.5598C18.7386 34.5125 18.9703 35.4895 19.9229 36.149C20.5151 36.5642 21.1073 36.9795 21.7252 37.3703C21.9054 37.4924 21.9827 37.6146 21.9312 37.81C21.8539 38.2496 21.8282 38.6893 21.9312 39.1045C21.9827 39.3732 21.9054 39.5198 21.6737 39.6663C21.0815 40.0327 20.5151 40.448 19.9487 40.8388C18.9703 41.5227 18.7643 42.4998 19.3565 43.5012C19.8457 44.3317 20.3606 45.1622 20.8756 45.9927C21.4935 46.9941 22.5234 47.3117 23.6305 46.8476C24.2999 46.5789 24.9435 46.2858 25.613 45.9927C25.7932 45.9194 25.9219 45.895 26.1279 46.0171C26.5398 46.2858 26.9518 46.5056 27.3895 46.7255C27.5955 46.8232 27.6727 46.9209 27.6727 47.1407C27.7242 47.8246 27.8014 48.5086 27.8787 49.1925C27.9817 50.2672 28.8313 51 29.9641 51C31.0455 51 32.1526 51 33.234 51C34.2123 51 35.062 50.2672 35.165 49.339C35.2422 48.6795 35.3195 48.02 35.371 47.3605C35.3967 46.9941 35.5254 46.7255 35.9116 46.5789C36.2721 46.4568 36.581 46.2369 36.89 46.0415C37.1217 45.895 37.2762 45.895 37.5337 45.9927C38.1773 46.2858 38.821 46.5545 39.4647 46.8232C40.546 47.2628 41.5759 46.9697 42.1938 45.9927C42.7088 45.1622 43.2237 44.3317 43.7129 43.5012C44.2535 42.4753 44.0218 41.4739 43.0435 40.7899ZM41.7819 42.6952C41.3442 43.3791 40.9065 44.0874 40.4945 44.7958C40.3658 45.0156 40.2371 45.0401 40.0054 44.9179C39.2072 44.5515 38.3833 44.234 37.5852 43.892C37.0702 43.6478 36.6325 43.6966 36.1691 44.0386C35.5512 44.5271 34.856 44.8935 34.0836 45.1866C33.6459 45.3576 33.4142 45.6507 33.3627 46.0904C33.2855 46.9453 33.1567 47.8246 33.1052 48.6795C33.0795 48.9238 33.028 49.0215 32.7448 49.0215C31.8951 48.9971 31.0455 48.9971 30.1701 49.0215C29.8869 49.0215 29.8097 48.9238 29.7839 48.6795C29.7067 47.9223 29.6037 47.1895 29.5522 46.4323C29.5265 45.7484 29.269 45.2599 28.5223 45.0401C27.8787 44.8447 27.2865 44.5027 26.7716 44.063C26.2566 43.6478 25.7417 43.6234 25.1495 43.892C24.4286 44.234 23.682 44.5027 22.9611 44.8447C22.6263 45.0156 22.4719 44.9179 22.3174 44.6248C21.9569 43.9897 21.5707 43.3302 21.1588 42.7196C20.9528 42.4265 21.0301 42.2799 21.3133 42.1089C22.0084 41.6448 22.7036 41.1808 23.3987 40.6922C23.7335 40.4724 23.9652 40.1793 23.9137 39.5931C23.7335 38.8603 23.8107 37.9565 23.9137 37.0283C23.9652 36.6619 23.7592 36.3688 23.4502 36.149C22.7036 35.6361 21.9312 35.0987 21.1845 34.6102C20.9786 34.488 20.9528 34.3903 21.0815 34.1949C21.5192 33.4866 21.9569 32.7782 22.3689 32.0454C22.4976 31.8012 22.6263 31.8256 22.8323 31.9233C23.6562 32.2897 24.4801 32.6072 25.2783 32.9736C25.7674 33.1935 26.1794 33.1446 26.5913 32.8515C27.235 32.363 27.9302 31.9722 28.7026 31.679C29.269 31.4836 29.4235 31.044 29.475 30.5554C29.5265 29.7982 29.6294 29.0655 29.6809 28.3083C29.7067 27.9663 29.7839 27.7953 30.2216 27.8197C31.0198 27.8686 31.7922 27.8442 32.5903 27.8197C32.8735 27.8197 32.9765 27.893 33.0023 28.1617C33.0795 29.041 33.1825 29.9204 33.2597 30.7997C33.3112 31.2394 33.5429 31.5325 33.9549 31.679C34.7273 31.9477 35.4482 32.3385 36.0661 32.8515C36.4781 33.169 36.89 33.2179 37.3792 32.998C38.1773 32.6317 39.027 32.3141 39.8251 31.9477C40.0568 31.85 40.1856 31.8256 40.3401 32.0699C40.752 32.7782 41.1639 33.4866 41.6274 34.1705C41.7561 34.3903 41.7304 34.488 41.4987 34.6346C40.7777 35.1231 40.0568 35.6116 39.3359 36.1001C38.8725 36.4177 38.6923 36.8085 38.7953 37.3459C38.9497 38.0542 38.924 38.787 38.7953 39.4954C38.6923 40.0083 38.8725 40.4235 39.3359 40.7411C40.0568 41.2052 40.7777 41.7181 41.4987 42.2066C41.8849 42.3776 41.9106 42.4998 41.7819 42.6952Z" fill="#97144D"/>
<path d="M32 33C29.2589 33 27 35.4569 27 38.4721C27 41.4873 29.2843 44 32.0254 44C34.7665 44 37 41.5152 37 38.5C37 35.4569 34.7919 33 32 33ZM32.0254 41.7665C30.3503 41.7665 29.0305 40.3147 29.0558 38.4721C29.0558 36.6574 30.3756 35.2056 32.0254 35.2056C33.6751 35.2056 35.0203 36.6853 35.0203 38.5C34.9695 40.3147 33.6497 41.7665 32.0254 41.7665Z" fill="#97144D"/>
<path fill-rule="evenodd" clip-rule="evenodd" d="M33.5937 1.43973L41.5603 9.40625C42.4241 10.2701 43 11.4219 43 12.6696V24.988C40.3219 23.3328 37.1653 22.3776 33.7857 22.3776C30.2544 22.3776 26.9668 23.4204 24.2138 25.215C23.3928 24.8037 22.4704 24.5714 21.5 24.5714C18.0446 24.5714 15.3571 27.3549 15.3571 30.7143C15.3571 32.352 15.9609 33.8173 16.964 34.9056C16.4895 36.497 16.2347 38.183 16.2347 39.9286C16.2347 40.9764 16.3265 42.0027 16.5025 43H4.60714C2.01562 43 0 40.9844 0 38.3929V4.60714C0 2.11161 2.01562 0 4.60714 0H30.3304C31.5781 0 32.7299 0.575893 33.5937 1.43973ZM30.7143 17.2768V7.67857C30.7143 7.39062 30.5223 7.10268 30.3304 6.81473L30.0424 6.52679C29.7545 6.33482 29.4665 6.14286 29.1786 6.14286H7.29464C6.62277 6.14286 6.14286 6.71875 6.14286 7.29464V17.2768C6.14286 17.9487 6.62277 18.4286 7.29464 18.4286H29.5625C30.1384 18.4286 30.7143 17.9487 30.7143 17.2768Z" fill="#97144D"/>
</svg>
