<svg width="14" height="15" viewBox="0 0 14 15" fill="none" xmlns="http://www.w3.org/2000/svg">
<path d="M11.7852 2.96484L11.0731 3.66712L11.0829 3.67681L11.7852 2.96484ZM11.7852 12.5625L11.078 11.8554L11.7852 12.5625ZM2.1875 12.5625L1.47547 13.2648L1.48529 13.2745L2.1875 12.5625ZM9.51562 9.52734L8.80852 8.82024L8.76936 8.8594L8.73476 8.90265L9.51562 9.52734ZM9.46094 8.89844L10.1011 8.13022L10.075 8.10844L10.0474 8.0885L9.46094 8.89844ZM7.875 7.75H6.875V8.26052L7.28849 8.55994L7.875 7.75ZM7.73828 3.51172L6.95741 4.13641L7.02682 4.22318L7.11359 4.29259L7.73828 3.51172ZM6.23438 3.51172L5.52727 2.80461L6.23438 3.51172ZM6.53516 8.92578L5.91046 9.70665L5.92736 9.72017L5.94484 9.73295L6.53516 8.92578ZM8.36719 10.2656L9.0743 9.55852L9.01976 9.50398L8.95751 9.45845L8.36719 10.2656ZM8.96875 10.2109L8.18788 9.58624L8.16077 9.62013L8.1367 9.65624L8.96875 10.2109ZM2.89461 3.67195C4.03829 2.52827 5.3883 1.96875 7 1.96875V-0.03125C4.85649 -0.03125 2.99817 0.739959 1.48039 2.25774L2.89461 3.67195ZM7 1.96875C8.61137 1.96875 9.94957 2.52783 11.0732 3.66706L12.4971 2.26263C10.9957 0.740396 9.14384 -0.03125 7 -0.03125V1.96875ZM11.0829 3.67681C12.2222 4.80043 12.7812 6.13863 12.7812 7.75H14.7812C14.7812 5.60616 14.0096 3.75426 12.4874 2.25288L11.0829 3.67681ZM12.7812 7.75C12.7812 9.3617 12.2217 10.7117 11.078 11.8554L12.4923 13.2696C14.01 11.7518 14.7812 9.89351 14.7812 7.75H12.7812ZM11.078 11.8554C9.95551 12.9779 8.61583 13.5312 7 13.5312V15.5312C9.13938 15.5312 10.9898 14.7721 12.4923 13.2696L11.078 11.8554ZM7 13.5312C5.38388 13.5312 4.03236 12.9775 2.88971 11.8505L1.48529 13.2745C3.0041 14.7725 4.86091 15.5312 7 15.5312V13.5312ZM2.89947 11.8603C1.77247 10.7176 1.21875 9.36612 1.21875 7.75H-0.78125C-0.78125 9.88909 -0.0224695 11.7459 1.47553 13.2647L2.89947 11.8603ZM1.21875 7.75C1.21875 6.13417 1.77206 4.79449 2.89461 3.67195L1.48039 2.25774C-0.0220642 3.76019 -0.78125 5.61062 -0.78125 7.75H1.21875ZM10.2227 10.2345C10.4954 9.96174 10.625 9.61064 10.625 9.25391H8.625C8.625 9.19588 8.63506 9.11821 8.66918 9.03291C8.70377 8.94643 8.75414 8.87462 8.80852 8.82024L10.2227 10.2345ZM10.625 9.25391C10.625 8.81962 10.4448 8.41662 10.1011 8.13022L8.82075 9.66666C8.77189 9.62594 8.71641 9.56222 8.67603 9.47472C8.63595 9.3879 8.625 9.30859 8.625 9.25391H10.625ZM10.0474 8.0885L8.46151 6.94006L7.28849 8.55994L8.87443 9.70838L10.0474 8.0885ZM8.875 7.75V3.8125H6.875V7.75H8.875ZM8.875 3.8125C8.875 3.41347 8.71551 3.01287 8.36298 2.73085L7.11359 4.29259C7.04395 4.23688 6.9766 4.15693 6.93045 4.0554C6.88551 3.95654 6.875 3.86894 6.875 3.8125H8.875ZM8.51915 2.88702C8.23713 2.53449 7.83653 2.375 7.4375 2.375V4.375C7.38107 4.375 7.29346 4.36449 7.1946 4.31955C7.09307 4.2734 7.01312 4.20605 6.95741 4.13641L8.51915 2.88702ZM7.4375 2.375H6.5625V4.375H7.4375V2.375ZM6.5625 2.375C6.16667 2.375 5.80381 2.52807 5.52727 2.80461L6.94148 4.21883C6.90286 4.25744 6.84549 4.30054 6.76938 4.33226C6.69307 4.36405 6.62047 4.375 6.5625 4.375V2.375ZM5.52727 2.80461C5.22438 3.1075 5.125 3.48642 5.125 3.8125H7.125C7.125 3.843 7.12069 3.90482 7.09214 3.98335C7.0622 4.06566 7.01196 4.14835 6.94148 4.21883L5.52727 2.80461ZM5.125 3.8125V8.07812H7.125V3.8125H5.125ZM5.125 8.07812C5.125 8.73215 5.40286 9.30057 5.91046 9.70665L7.15985 8.14491C7.14189 8.13054 7.13307 8.12068 7.12967 8.11652C7.1265 8.11264 7.12664 8.11205 7.1277 8.11424C7.12877 8.11646 7.12855 8.11691 7.12781 8.1135C7.127 8.10976 7.125 8.09868 7.125 8.07812H5.125ZM5.94484 9.73295L7.77687 11.0728L8.95751 9.45845L7.12547 8.11861L5.94484 9.73295ZM7.66008 10.9727C7.93279 11.2454 8.28389 11.375 8.64062 11.375V9.375C8.69865 9.375 8.77632 9.38506 8.86163 9.41918C8.9481 9.45377 9.01991 9.50414 9.0743 9.55852L7.66008 10.9727ZM8.64062 11.375C9.07776 11.375 9.51975 11.1872 9.8008 10.7656L8.1367 9.65624C8.1893 9.57734 8.27223 9.49585 8.38482 9.43956C8.49327 9.38533 8.58794 9.375 8.64062 9.375V11.375ZM9.74962 10.8356L10.2965 10.152L8.73476 8.90265L8.18788 9.58624L9.74962 10.8356Z" fill="#97144D"/>
</svg>
