<svg width="92" height="30" viewBox="0 0 92 30" fill="none" xmlns="http://www.w3.org/2000/svg">
<g clip-path="url(#clip0_99_80)">
<rect x="1" y="1" width="90" height="28" rx="6" fill="white"/>
<rect x="3" y="3" width="43" height="24" rx="4" fill="#97144D"/>
<path d="M12.9795 17.89V19H8.74445V11.77H10.0895V17.89H12.9795ZM16.2898 19H14.9398V11.77H16.2898V19ZM24.8685 15.375V18.3C24.5018 18.57 24.1102 18.7683 23.6935 18.895C23.2802 19.0183 22.8368 19.08 22.3635 19.08C21.7735 19.08 21.2385 18.9883 20.7585 18.805C20.2818 18.6217 19.8735 18.3667 19.5335 18.04C19.1968 17.7133 18.9368 17.3233 18.7535 16.87C18.5702 16.4167 18.4785 15.9217 18.4785 15.385C18.4785 14.8417 18.5668 14.3433 18.7435 13.89C18.9202 13.4367 19.1702 13.0467 19.4935 12.72C19.8202 12.3933 20.2152 12.14 20.6785 11.96C21.1418 11.78 21.6618 11.69 22.2385 11.69C22.5318 11.69 22.8052 11.7133 23.0585 11.76C23.3152 11.8067 23.5518 11.8717 23.7685 11.955C23.9885 12.035 24.1885 12.1333 24.3685 12.25C24.5485 12.3667 24.7135 12.495 24.8635 12.635L24.4785 13.245C24.4185 13.3417 24.3402 13.4017 24.2435 13.425C24.1468 13.445 24.0418 13.42 23.9285 13.35C23.8185 13.2867 23.7085 13.2233 23.5985 13.16C23.4885 13.0967 23.3652 13.0417 23.2285 12.995C23.0952 12.9483 22.9435 12.91 22.7735 12.88C22.6068 12.85 22.4135 12.835 22.1935 12.835C21.8368 12.835 21.5135 12.895 21.2235 13.015C20.9368 13.135 20.6918 13.3067 20.4885 13.53C20.2852 13.7533 20.1285 14.0217 20.0185 14.335C19.9085 14.6483 19.8535 14.9983 19.8535 15.385C19.8535 15.7983 19.9118 16.1683 20.0285 16.495C20.1485 16.8183 20.3152 17.0933 20.5285 17.32C20.7452 17.5433 21.0052 17.715 21.3085 17.835C21.6118 17.9517 21.9502 18.01 22.3235 18.01C22.5902 18.01 22.8285 17.9817 23.0385 17.925C23.2485 17.8683 23.4535 17.7917 23.6535 17.695V16.385H22.7435C22.6568 16.385 22.5885 16.3617 22.5385 16.315C22.4918 16.265 22.4685 16.205 22.4685 16.135V15.375H24.8685ZM33.2594 11.77V19H31.9094V15.84H28.5144V19H27.1644V11.77H28.5144V14.88H31.9094V11.77H33.2594ZM40.9195 12.875H38.7395V19H37.3945V12.875H35.2145V11.77H40.9195V12.875Z" fill="white"/>
<rect width="46" height="24" transform="translate(46 3)" fill="white"/>
<path d="M60.9213 15.385C60.9213 15.915 60.833 16.4017 60.6563 16.845C60.4796 17.2883 60.2313 17.67 59.9113 17.99C59.5913 18.31 59.2063 18.5583 58.7563 18.735C58.3063 18.9117 57.8063 19 57.2563 19H54.5013V11.77H57.2563C57.8063 11.77 58.3063 11.86 58.7563 12.04C59.2063 12.2167 59.5913 12.465 59.9113 12.785C60.2313 13.1017 60.4796 13.4817 60.6563 13.925C60.833 14.3683 60.9213 14.855 60.9213 15.385ZM59.5413 15.385C59.5413 14.9883 59.488 14.6333 59.3813 14.32C59.278 14.0033 59.1263 13.7367 58.9263 13.52C58.7296 13.3 58.4896 13.1317 58.2063 13.015C57.9263 12.8983 57.6096 12.84 57.2563 12.84H55.8513V17.93H57.2563C57.6096 17.93 57.9263 17.8717 58.2063 17.755C58.4896 17.6383 58.7296 17.4717 58.9263 17.255C59.1263 17.035 59.278 16.7683 59.3813 16.455C59.488 16.1383 59.5413 15.7817 59.5413 15.385ZM66.7041 16.27L65.8241 13.865C65.7808 13.7583 65.7358 13.6317 65.6891 13.485C65.6424 13.3383 65.5958 13.18 65.5491 13.01C65.5058 13.18 65.4608 13.34 65.4141 13.49C65.3674 13.6367 65.3224 13.765 65.2791 13.875L64.4041 16.27H66.7041ZM69.0791 19H68.0391C67.9224 19 67.8274 18.9717 67.7541 18.915C67.6808 18.855 67.6258 18.7817 67.5891 18.695L67.0491 17.22H64.0541L63.5141 18.695C63.4874 18.7717 63.4358 18.8417 63.3591 18.905C63.2824 18.9683 63.1874 19 63.0741 19H62.0241L64.8691 11.77H66.2391L69.0791 19ZM73.0125 15.21C73.2658 15.21 73.4858 15.1783 73.6725 15.115C73.8625 15.0517 74.0175 14.965 74.1375 14.855C74.2608 14.7417 74.3525 14.6083 74.4125 14.455C74.4725 14.3017 74.5025 14.1333 74.5025 13.95C74.5025 13.5833 74.3808 13.3017 74.1375 13.105C73.8975 12.9083 73.5291 12.81 73.0325 12.81H72.1725V15.21H73.0125ZM76.4725 19H75.2575C75.0275 19 74.8608 18.91 74.7575 18.73L73.2375 16.415C73.1808 16.3283 73.1175 16.2667 73.0475 16.23C72.9808 16.1933 72.8808 16.175 72.7475 16.175H72.1725V19H70.8275V11.77H73.0325C73.5225 11.77 73.9425 11.8217 74.2925 11.925C74.6458 12.025 74.9341 12.1667 75.1575 12.35C75.3841 12.5333 75.5508 12.7533 75.6575 13.01C75.7641 13.2633 75.8175 13.5433 75.8175 13.85C75.8175 14.0933 75.7808 14.3233 75.7075 14.54C75.6375 14.7567 75.5341 14.9533 75.3975 15.13C75.2641 15.3067 75.0975 15.4617 74.8975 15.595C74.7008 15.7283 74.4758 15.8333 74.2225 15.91C74.3091 15.96 74.3891 16.02 74.4625 16.09C74.5358 16.1567 74.6025 16.2367 74.6625 16.33L76.4725 19ZM79.5982 14.8H79.9132C80.0399 14.8 80.1449 14.7833 80.2282 14.75C80.3116 14.7133 80.3832 14.6567 80.4432 14.58L82.4382 12.055C82.5216 11.9483 82.6082 11.875 82.6982 11.835C82.7916 11.7917 82.9082 11.77 83.0482 11.77H84.2082L81.7732 14.775C81.6299 14.9583 81.4816 15.0883 81.3282 15.165C81.4382 15.205 81.5366 15.2617 81.6232 15.335C81.7132 15.405 81.7982 15.4983 81.8782 15.615L84.3882 19H83.2032C83.0432 19 82.9232 18.9783 82.8432 18.935C82.7666 18.8883 82.7016 18.8217 82.6482 18.735L80.6032 16.065C80.5399 15.975 80.4666 15.9117 80.3832 15.875C80.2999 15.8383 80.1799 15.82 80.0232 15.82H79.5982V19H78.2532V11.77H79.5982V14.8Z" fill="#97144D"/>
</g>
<rect x="1" y="1" width="90" height="28" rx="6" stroke="#F1F1F1"/>
<defs>
<clipPath id="clip0_99_80">
<rect x="1" y="1" width="90" height="28" rx="6" fill="white"/>
</clipPath>
</defs>
</svg>
