<svg width="17" height="16" viewBox="0 0 17 16" fill="none" xmlns="http://www.w3.org/2000/svg">
<path d="M8.67631 0.0569296C8.37753 0.13535 7.99907 0.328134 7.88951 0.455567L7.80652 0.553594V1.78545V3.02058L6.7807 5.20655C6.21633 6.40573 5.73828 7.39579 5.71836 7.40233C5.69844 7.40886 5.68184 7.38272 5.68184 7.34678C5.68184 7.21934 5.58889 7.05597 5.48598 7.00369C5.3399 6.92853 1.69144 6.92527 1.36942 7.00042C1.06068 7.07231 0.781814 7.23241 0.536148 7.47421C0.290483 7.71601 0.127812 7.99048 0.0547768 8.29436C-0.0182589 8.60804 -0.0182589 14.3458 0.0547768 14.6595C0.190889 15.2215 0.625783 15.7051 1.18351 15.9142C1.37606 15.9828 1.42586 15.9861 2.7737 15.9959C4.1149 16.0057 4.17465 16.0025 4.4004 15.9338C4.85853 15.7999 5.27019 15.4666 5.47602 15.0614L5.57229 14.8654L5.79472 14.9601C6.1267 15.1006 6.42216 15.1823 6.83714 15.2542C7.19568 15.313 7.39818 15.3163 10.6649 15.3163C13.0518 15.3163 14.1639 15.3065 14.2868 15.2803C14.6951 15.1954 15.1698 14.8719 15.3657 14.5419C15.5815 14.1792 15.6346 13.6858 15.5051 13.2708C15.4387 13.0584 15.4387 13.0453 15.4919 13.0127C16.1326 12.65 16.4513 11.8233 16.2089 11.1534C16.1691 11.0456 16.1425 10.9574 16.1459 10.9541C16.1525 10.9509 16.2222 10.9018 16.3052 10.8496C16.8497 10.4869 17.1152 9.81049 16.9526 9.1962C16.8928 8.97074 16.7766 8.73874 16.6438 8.58517L16.5476 8.47407L16.6571 8.3205C17.3808 7.33044 16.9028 6.02343 15.6745 5.62479C15.5051 5.56924 15.3026 5.56271 13.1448 5.55291C11.85 5.54964 10.7943 5.53657 10.7943 5.52677C10.7943 5.51696 10.8541 5.30784 10.9271 5.05951C11.0865 4.52037 11.2392 3.82112 11.2956 3.38C11.3421 2.9879 11.3189 2.3344 11.2458 2.06973C11.0101 1.2267 10.4159 0.462103 9.73533 0.128816C9.5129 0.0209874 9.45646 0.00791733 9.20416 0.00138228C9.00497 -0.00515277 8.84562 0.0111842 8.67631 0.0569296ZM9.41994 0.739843C9.72205 0.873811 10.1935 1.39988 10.396 1.82466C10.5752 2.20043 10.6416 2.53698 10.6184 2.94869C10.5819 3.61526 10.4126 4.38313 10.0972 5.33071C9.91791 5.86332 9.90132 5.98095 9.98431 6.09532C10.0939 6.25216 10.0241 6.24889 12.836 6.26523L15.4919 6.28156L15.6645 6.36979C16.0197 6.55604 16.2123 6.79457 16.2753 7.12785C16.3451 7.49708 16.1724 7.90226 15.8471 8.14079C15.6313 8.30089 15.5715 8.44793 15.6545 8.62438C15.6844 8.6832 15.7541 8.76162 15.8072 8.79102C16.1226 8.97727 16.282 9.23214 16.282 9.56543C16.2853 10 16.0064 10.3202 15.545 10.4183C15.3325 10.4607 15.2097 10.5914 15.2097 10.7711C15.2097 10.8659 15.2429 10.9345 15.3591 11.0816C15.535 11.307 15.5881 11.4737 15.5649 11.7383C15.5317 12.1664 15.2993 12.3918 14.7515 12.5356C14.4826 12.6075 14.4096 12.8918 14.6055 13.1172C14.808 13.3558 14.8611 13.4799 14.8611 13.7479C14.8611 13.9374 14.8445 14.0223 14.7881 14.1269C14.6918 14.3033 14.4926 14.4765 14.2934 14.5517C14.1374 14.6105 13.9847 14.6138 10.6284 14.6138C7.33843 14.6138 7.10936 14.6105 6.84378 14.5517C6.47196 14.4732 6.10678 14.3524 5.87107 14.2315L5.68184 14.1302V11.1698V8.20614L5.94743 8.0787C6.0935 8.00682 6.24289 7.92186 6.27609 7.88265C6.30929 7.84671 6.82386 6.77823 7.42142 5.50389L8.50368 3.19375V2.03378V0.877079L8.61323 0.82153C8.8921 0.677759 9.20748 0.645084 9.41994 0.739843ZM4.94485 11.1077L4.93489 14.5811L4.85853 14.7216C4.74234 14.9372 4.56639 15.1104 4.36056 15.2084L4.17133 15.2999H2.84341C1.51549 15.2999 1.51549 15.2999 1.33954 15.2215C1.11379 15.1202 0.861489 14.8523 0.778494 14.6236C0.722057 14.4602 0.718738 14.2772 0.718738 11.4606V8.47081L0.805053 8.29109C0.917926 8.0591 1.03744 7.91859 1.22667 7.81077C1.50885 7.64739 1.56529 7.64086 3.31814 7.64086L4.95149 7.63759L4.94485 11.1077Z" fill="#97144D"/>
</svg>
