<svg width="38" height="30" viewBox="0 0 38 30" fill="none" xmlns="http://www.w3.org/2000/svg">
<path d="M18.6763 7.05693C18.3775 7.13535 17.9991 7.32813 17.8895 7.45557L17.8065 7.55359V8.78545V10.0206L16.7807 12.2065C16.2163 13.4057 15.7383 14.3958 15.7184 14.4023C15.6984 14.4089 15.6818 14.3827 15.6818 14.3468C15.6818 14.2193 15.5889 14.056 15.486 14.0037C15.3399 13.9285 11.6914 13.9253 11.3694 14.0004C11.0607 14.0723 10.7818 14.2324 10.5361 14.4742C10.2905 14.716 10.1278 14.9905 10.0548 15.2944C9.98174 15.608 9.98174 21.3458 10.0548 21.6595C10.1909 22.2215 10.6258 22.7051 11.1835 22.9142C11.3761 22.9828 11.4259 22.9861 12.7737 22.9959C14.1149 23.0057 14.1747 23.0025 14.4004 22.9338C14.8585 22.7999 15.2702 22.4666 15.476 22.0614L15.5723 21.8654L15.7947 21.9601C16.1267 22.1006 16.4222 22.1823 16.8371 22.2542C17.1957 22.313 17.3982 22.3163 20.6649 22.3163C23.0518 22.3163 24.1639 22.3065 24.2868 22.2803C24.6951 22.1954 25.1698 21.8719 25.3657 21.5419C25.5815 21.1792 25.6346 20.6858 25.5051 20.2708C25.4387 20.0584 25.4387 20.0453 25.4919 20.0127C26.1326 19.65 26.4513 18.8233 26.2089 18.1534C26.1691 18.0456 26.1425 17.9574 26.1459 17.9541C26.1525 17.9509 26.2222 17.9018 26.3052 17.8496C26.8497 17.4869 27.1152 16.8105 26.9526 16.1962C26.8928 15.9707 26.7766 15.7387 26.6438 15.5852L26.5476 15.4741L26.6571 15.3205C27.3808 14.3304 26.9028 13.0234 25.6745 12.6248C25.5051 12.5692 25.3026 12.5627 23.1448 12.5529C21.85 12.5496 20.7943 12.5366 20.7943 12.5268C20.7943 12.517 20.8541 12.3078 20.9271 12.0595C21.0865 11.5204 21.2392 10.8211 21.2956 10.38C21.3421 9.9879 21.3189 9.3344 21.2458 9.06973C21.0101 8.2267 20.4159 7.4621 19.7353 7.12882C19.5129 7.02099 19.4565 7.00792 19.2042 7.00138C19.005 6.99485 18.8456 7.01118 18.6763 7.05693ZM19.4199 7.73984C19.722 7.87381 20.1935 8.39988 20.396 8.82466C20.5752 9.20043 20.6416 9.53698 20.6184 9.94869C20.5819 10.6153 20.4126 11.3831 20.0972 12.3307C19.9179 12.8633 19.9013 12.981 19.9843 13.0953C20.0939 13.2522 20.0241 13.2489 22.836 13.2652L25.4919 13.2816L25.6645 13.3698C26.0197 13.556 26.2123 13.7946 26.2753 14.1279C26.3451 14.4971 26.1724 14.9023 25.8471 15.1408C25.6313 15.3009 25.5715 15.4479 25.6545 15.6244C25.6844 15.6832 25.7541 15.7616 25.8072 15.791C26.1226 15.9773 26.282 16.2321 26.282 16.5654C26.2853 17 26.0064 17.3202 25.545 17.4183C25.3325 17.4607 25.2097 17.5914 25.2097 17.7711C25.2097 17.8659 25.2429 17.9345 25.3591 18.0816C25.535 18.307 25.5881 18.4737 25.5649 18.7383C25.5317 19.1664 25.2993 19.3918 24.7515 19.5356C24.4826 19.6075 24.4096 19.8918 24.6055 20.1172C24.808 20.3558 24.8611 20.4799 24.8611 20.7479C24.8611 20.9374 24.8445 21.0223 24.7881 21.1269C24.6918 21.3033 24.4926 21.4765 24.2934 21.5517C24.1374 21.6105 23.9847 21.6138 20.6284 21.6138C17.3384 21.6138 17.1094 21.6105 16.8438 21.5517C16.472 21.4732 16.1068 21.3524 15.8711 21.2315L15.6818 21.1302V18.1698V15.2061L15.9474 15.0787C16.0935 15.0068 16.2429 14.9219 16.2761 14.8827C16.3093 14.8467 16.8239 13.7782 17.4214 12.5039L18.5037 10.1938V9.03378V7.87708L18.6132 7.82153C18.8921 7.67776 19.2075 7.64508 19.4199 7.73984ZM14.9448 18.1077L14.9349 21.5811L14.8585 21.7216C14.7423 21.9372 14.5664 22.1104 14.3606 22.2084L14.1713 22.2999H12.8434C11.5155 22.2999 11.5155 22.2999 11.3395 22.2215C11.1138 22.1202 10.8615 21.8523 10.7785 21.6236C10.7221 21.4602 10.7187 21.2772 10.7187 18.4606V15.4708L10.8051 15.2911C10.9179 15.0591 11.0374 14.9186 11.2267 14.8108C11.5089 14.6474 11.5653 14.6409 13.3181 14.6409L14.9515 14.6376L14.9448 18.1077Z" fill="white"/>
</svg>
