<svg width="69" height="30" viewBox="0 0 69 30" fill="none" xmlns="http://www.w3.org/2000/svg">
<rect x="1" y="1" width="67" height="28" rx="6" fill="white"/>
<rect x="3" y="3" width="37" height="24" rx="4" fill="#97144D"/>
<path d="M15.5477 16.2V19H14.2077V16.2L11.5727 11.77H12.7577C12.8744 11.77 12.966 11.7983 13.0327 11.855C13.1027 11.9117 13.161 11.9833 13.2077 12.07L14.5277 14.485C14.6044 14.6283 14.671 14.7633 14.7277 14.89C14.7877 15.0167 14.841 15.1433 14.8877 15.27C14.931 15.1433 14.981 15.0167 15.0377 14.89C15.0944 14.7633 15.1594 14.6283 15.2327 14.485L16.5477 12.07C16.5844 11.9967 16.6394 11.9283 16.7127 11.865C16.786 11.8017 16.8794 11.77 16.9927 11.77H18.1827L15.5477 16.2ZM21.2771 12.84V14.845H23.8071V15.88H21.2771V17.925H24.4871V19H19.9271V11.77H24.4871V12.84H21.2771ZM30.529 13.085C30.489 13.155 30.4457 13.2067 30.399 13.24C30.3557 13.27 30.3007 13.285 30.234 13.285C30.164 13.285 30.0874 13.26 30.004 13.21C29.924 13.1567 29.8274 13.0983 29.714 13.035C29.6007 12.9717 29.4674 12.915 29.314 12.865C29.164 12.8117 28.9857 12.785 28.779 12.785C28.5924 12.785 28.429 12.8083 28.289 12.855C28.149 12.8983 28.0307 12.96 27.934 13.04C27.8407 13.12 27.7707 13.2167 27.724 13.33C27.6774 13.44 27.654 13.5617 27.654 13.695C27.654 13.865 27.7007 14.0067 27.794 14.12C27.8907 14.2333 28.0174 14.33 28.174 14.41C28.3307 14.49 28.509 14.5617 28.709 14.625C28.909 14.6883 29.114 14.7567 29.324 14.83C29.534 14.9 29.739 14.9833 29.939 15.08C30.139 15.1733 30.3174 15.2933 30.474 15.44C30.6307 15.5833 30.7557 15.76 30.849 15.97C30.9457 16.18 30.994 16.435 30.994 16.735C30.994 17.0617 30.9374 17.3683 30.824 17.655C30.714 17.9383 30.5507 18.1867 30.334 18.4C30.1207 18.61 29.859 18.7767 29.549 18.9C29.239 19.02 28.884 19.08 28.484 19.08C28.254 19.08 28.0274 19.0567 27.804 19.01C27.5807 18.9667 27.3657 18.9033 27.159 18.82C26.9557 18.7367 26.764 18.6367 26.584 18.52C26.404 18.4033 26.244 18.2733 26.104 18.13L26.499 17.485C26.5324 17.4383 26.5757 17.4 26.629 17.37C26.6824 17.3367 26.739 17.32 26.799 17.32C26.8824 17.32 26.9724 17.355 27.069 17.425C27.1657 17.4917 27.2807 17.5667 27.414 17.65C27.5474 17.7333 27.7024 17.81 27.879 17.88C28.059 17.9467 28.274 17.98 28.524 17.98C28.9074 17.98 29.204 17.89 29.414 17.71C29.624 17.5267 29.729 17.265 29.729 16.925C29.729 16.735 29.6807 16.58 29.584 16.46C29.4907 16.34 29.3657 16.24 29.209 16.16C29.0524 16.0767 28.874 16.0067 28.674 15.95C28.474 15.8933 28.2707 15.8317 28.064 15.765C27.8574 15.6983 27.654 15.6183 27.454 15.525C27.254 15.4317 27.0757 15.31 26.919 15.16C26.7624 15.01 26.6357 14.8233 26.539 14.6C26.4457 14.3733 26.399 14.095 26.399 13.765C26.399 13.5017 26.4507 13.245 26.554 12.995C26.6607 12.745 26.814 12.5233 27.014 12.33C27.214 12.1367 27.4607 11.9817 27.754 11.865C28.0474 11.7483 28.384 11.69 28.764 11.69C29.1907 11.69 29.584 11.7567 29.944 11.89C30.304 12.0233 30.6107 12.21 30.864 12.45L30.529 13.085Z" fill="white"/>
<rect width="27" height="24" transform="translate(40 3)" fill="white"/>
<path d="M52.0094 11.77V19H51.3194C51.2127 19 51.1227 18.9833 51.0494 18.95C50.9794 18.9133 50.911 18.8533 50.8444 18.77L47.0694 13.95C47.0894 14.17 47.0994 14.3733 47.0994 14.56V19H45.9144V11.77H46.6194C46.676 11.77 46.7244 11.7733 46.7644 11.78C46.8077 11.7833 46.8444 11.7933 46.8744 11.81C46.9077 11.8233 46.9394 11.845 46.9694 11.875C46.9994 11.9017 47.0327 11.9383 47.0694 11.985L50.8594 16.825C50.8494 16.7083 50.841 16.5933 50.8344 16.48C50.8277 16.3667 50.8244 16.2617 50.8244 16.165V11.77H52.0094ZM61.5145 15.385C61.5145 15.915 61.4261 16.4067 61.2495 16.86C61.0761 17.31 60.8295 17.7 60.5095 18.03C60.1895 18.36 59.8045 18.6183 59.3545 18.805C58.9045 18.9883 58.4045 19.08 57.8545 19.08C57.3078 19.08 56.8095 18.9883 56.3595 18.805C55.9095 18.6183 55.5228 18.36 55.1995 18.03C54.8795 17.7 54.6311 17.31 54.4545 16.86C54.2778 16.4067 54.1895 15.915 54.1895 15.385C54.1895 14.855 54.2778 14.365 54.4545 13.915C54.6311 13.4617 54.8795 13.07 55.1995 12.74C55.5228 12.41 55.9095 12.1533 56.3595 11.97C56.8095 11.7833 57.3078 11.69 57.8545 11.69C58.2211 11.69 58.5661 11.7333 58.8895 11.82C59.2128 11.9033 59.5095 12.0233 59.7795 12.18C60.0495 12.3333 60.2911 12.5217 60.5045 12.745C60.7211 12.965 60.9045 13.2117 61.0545 13.485C61.2045 13.7583 61.3178 14.055 61.3945 14.375C61.4745 14.695 61.5145 15.0317 61.5145 15.385ZM60.1395 15.385C60.1395 14.9883 60.0861 14.6333 59.9795 14.32C59.8728 14.0033 59.7211 13.735 59.5245 13.515C59.3278 13.295 59.0878 13.1267 58.8045 13.01C58.5245 12.8933 58.2078 12.835 57.8545 12.835C57.5011 12.835 57.1828 12.8933 56.8995 13.01C56.6195 13.1267 56.3795 13.295 56.1795 13.515C55.9828 13.735 55.8311 14.0033 55.7245 14.32C55.6178 14.6333 55.5645 14.9883 55.5645 15.385C55.5645 15.7817 55.6178 16.1383 55.7245 16.455C55.8311 16.7683 55.9828 17.035 56.1795 17.255C56.3795 17.4717 56.6195 17.6383 56.8995 17.755C57.1828 17.8717 57.5011 17.93 57.8545 17.93C58.2078 17.93 58.5245 17.8717 58.8045 17.755C59.0878 17.6383 59.3278 17.4717 59.5245 17.255C59.7211 17.035 59.8728 16.7683 59.9795 16.455C60.0861 16.1383 60.1395 15.7817 60.1395 15.385Z" fill="#97144D"/>
<rect x="1" y="1" width="67" height="28" rx="6" stroke="#F1F1F1"/>
</svg>
