<svg width="60" height="59" viewBox="0 0 60 59" fill="none" xmlns="http://www.w3.org/2000/svg">
<path d="M22.1912 0.398404C16.2526 0.970098 11.9941 4.77362 10.769 10.5956C10.4657 12.019 10.4073 14.4224 10.6407 15.9858C11.084 18.961 12.1691 21.6094 13.9892 24.1529C14.3742 24.6779 14.6775 25.1213 14.6775 25.1563C14.6775 25.1796 14.4325 25.2963 14.1292 25.413C13.1608 25.7746 11.084 26.848 10.0923 27.4897C4.74873 30.9782 1.33023 36.5785 0.268507 43.5555C0.0351626 45.1539 -0.0815098 48.4557 0.0701643 49.8325C0.210171 51.1625 0.291842 51.2675 1.99526 52.2826C7.95722 55.8178 13.5458 57.8362 19.4728 58.5596C21.3629 58.8046 25.6097 58.8279 27.3948 58.6179C31.4784 58.1395 35.2119 57.1595 38.9454 55.5728C39.8088 55.2111 40.7188 54.8027 40.9755 54.6744C41.4188 54.441 41.4305 54.441 42.3172 54.6627C43.4839 54.9661 46.3658 55.0711 47.7075 54.8727C49.8659 54.5694 52.2694 53.531 54.1361 52.1309C58.6163 48.7591 60.6464 42.9371 59.258 37.4652C57.9163 32.1566 53.5994 28.0848 48.1975 27.0347C46.8091 26.7664 44.3473 26.7547 42.9939 27.023C41.8739 27.2447 40.2521 27.7931 39.3771 28.2248L38.8171 28.5164L37.5803 27.6881C36.2386 26.7897 34.9785 26.113 33.5551 25.5296L32.6568 25.1679L33.3218 24.2696C36.717 19.696 37.8137 13.7691 36.1686 8.90382C35.4569 6.81538 34.4185 5.18197 32.8668 3.73523C30.825 1.81014 28.2582 0.701753 25.073 0.386738C23.7547 0.258398 23.5796 0.258397 22.1912 0.398404ZM26.2281 3.37355C32.2484 4.61027 35.3752 10.4439 33.6368 17.2459C32.5051 21.6911 28.8649 26.0313 25.3647 27.093C23.8713 27.5481 22.2612 27.373 20.7562 26.5797C17.8044 25.0163 15.1792 21.7028 13.9892 18.0393C13.4642 16.3942 13.3358 15.5425 13.3358 13.5707C13.3475 12.1006 13.3941 11.5639 13.6042 10.7122C13.9425 9.34717 14.8409 7.52708 15.6576 6.54703C17.9677 3.79357 22.1212 2.54517 26.2281 3.37355ZM17.8977 28.1081C21.1062 30.4065 24.5247 30.7565 27.7798 29.1348C28.4565 28.7965 29.2033 28.3181 30.2183 27.5831C30.4866 27.3847 31.1167 27.5481 32.8784 28.2948C33.9985 28.7615 36.0636 29.9165 36.2036 30.1382C36.2503 30.2082 35.8536 30.7099 35.3402 31.2466C31.9101 34.8284 30.6383 40.0087 32.0151 44.8272C32.4001 46.1806 33.4035 48.1874 34.2668 49.3425C35.0485 50.3925 36.4719 51.7926 37.4053 52.4226C37.732 52.6443 38.012 52.8543 38.012 52.8893C38.012 52.9826 35.9936 53.7643 34.5468 54.2427C26.6248 56.8328 18.5977 56.5995 10.7574 53.5193C8.84393 52.7726 6.52215 51.6526 4.56205 50.5325C2.57862 49.4008 2.70696 49.6925 2.81196 46.7173C2.9403 42.9955 3.64034 40.0553 5.11041 37.1385C7.28052 32.8216 11.154 29.4265 15.7276 27.8047C16.276 27.6181 16.7776 27.4547 16.8593 27.4547C16.9293 27.4547 17.4077 27.7464 17.8977 28.1081ZM46.9374 29.6832C49.5859 30.0098 52.001 31.2466 53.8445 33.2067C54.7778 34.21 55.1979 34.8284 55.8162 36.1351C56.5863 37.7686 56.8429 38.9586 56.8429 40.9304C56.8429 42.2254 56.7963 42.7738 56.5863 43.6022C55.7345 46.9973 53.2144 49.9842 50.0526 51.3142C48.3842 52.0142 47.7308 52.1309 45.5374 52.1309C43.8223 52.1309 43.4256 52.0959 42.6322 51.8626C39.8204 51.0575 37.3236 49.1441 35.8652 46.729C35.2119 45.6323 34.5818 43.8822 34.3835 42.6221C34.1968 41.4087 34.3135 39.192 34.6285 38.0136C35.9119 33.2067 40.3571 29.7065 45.3624 29.5665C45.6541 29.5665 46.3658 29.6132 46.9374 29.6832Z" fill="#97144D"/>
<path d="M51.2541 35.7484C51.1257 35.8184 49.4456 37.4519 47.5206 39.3653L44.0204 42.8538L42.0953 40.917C41.0336 39.8553 40.0302 38.9103 39.8552 38.8169C38.7001 38.2102 37.4401 39.552 38.0584 40.7303C38.2684 41.1037 43.0987 45.9223 43.4604 46.1089C43.787 46.2723 44.2537 46.2723 44.5804 46.1089C44.9421 45.9223 52.9225 37.9652 53.1325 37.5802C53.3425 37.1718 53.3425 36.8568 53.1092 36.3668C52.7941 35.7134 51.8841 35.4101 51.2541 35.7484Z" fill="#97144D"/>
</svg>
