<svg width="37" height="37" viewBox="0 0 37 37" fill="none" xmlns="http://www.w3.org/2000/svg">
<path d="M34.3571 14.5367C35.0729 14.5367 35.6786 14.812 36.1741 15.3626C36.7247 15.8581 37 16.4638 37 17.1795V19.8224C37 20.5382 36.7247 21.1714 36.1741 21.722C35.6786 22.2175 35.0729 22.4653 34.3571 22.4653H22.4643V34.3581C22.4643 35.0739 22.189 35.6795 21.6384 36.1751C21.1429 36.7257 20.5372 37.001 19.8214 37.001H17.1786C16.4628 37.001 15.8296 36.7257 15.279 36.1751C14.7835 35.6795 14.5357 35.0739 14.5357 34.3581V22.4653H2.64286C1.92708 22.4653 1.2939 22.2175 0.743304 21.722C0.247768 21.1714 0 20.5382 0 19.8224V17.1795C0 16.4638 0.247768 15.8581 0.743304 15.3626C1.2939 14.812 1.92708 14.5367 2.64286 14.5367H14.5357V2.64383C14.5357 1.92806 14.7835 1.32241 15.279 0.826869C15.8296 0.276274 16.4628 0.000976562 17.1786 0.000976562H19.8214C20.5372 0.000976562 21.1429 0.276274 21.6384 0.826869C22.189 1.32241 22.4643 1.92806 22.4643 2.64383V14.5367H34.3571Z" fill="white"/>
</svg>
