<svg width="63" height="58" viewBox="0 0 63 58" fill="none" xmlns="http://www.w3.org/2000/svg">
<path d="M26.0761 0.551027C20.1832 1.11576 14.499 3.55886 9.99341 7.45062C7.83268 9.30442 6.4454 10.8881 4.83713 13.3067C-0.478744 21.2744 -1.47317 31.2063 2.16078 40.1316C5.73334 48.9464 13.6396 55.4899 23.056 57.4542C25.585 57.9699 29.2681 58.154 31.883 57.8594C44.2704 56.5212 54.5338 47.1785 57.0015 34.9999C57.468 32.7041 57.603 30.9976 57.5417 28.4318C57.4803 25.9518 57.4066 25.6081 56.7559 25.1047C55.8966 24.4295 54.8162 24.5277 54.0796 25.338C53.5762 25.9027 53.6008 25.694 53.6253 28.6527C53.6622 31.1818 53.4535 33.0479 52.9501 35.1595C50.7526 44.0848 43.6934 51.1562 34.7313 53.3783C25.1553 55.7478 14.9164 52.1015 8.94988 44.183C1.57149 34.386 2.43087 20.5746 10.9878 11.8948C19.1397 3.62024 31.4779 1.98742 41.5081 7.85576C42.0237 8.16268 42.6253 8.45732 42.8463 8.51871C44.1353 8.88701 45.5226 7.47517 45.1666 6.16155C44.9824 5.4986 44.6387 5.15485 43.4969 4.46734C38.488 1.43496 31.9813 -0.0259852 26.0761 0.551027Z" fill="#97144D"/>
<path d="M60.2154 3.17726C59.8225 3.3123 56.8024 6.27103 45.876 17.1974L32.0277 31.0457L26.6627 25.6807C23.704 22.7343 21.1259 20.2544 20.9417 20.1807C20.4261 19.9966 19.9227 20.0334 19.3826 20.3035C18.5477 20.7332 18.1549 21.6171 18.4004 22.5379C18.5232 23.0044 19.2475 23.7778 24.6371 29.1796C27.9886 32.5435 30.9474 35.404 31.1929 35.5391C31.7085 35.7969 32.2119 35.8337 32.7275 35.6496C33.194 35.4654 62.4498 6.24648 62.6707 5.73085C63.3337 4.20852 61.7868 2.60025 60.2154 3.17726Z" fill="#97144D"/>
</svg>
