<svg width="66" height="63" viewBox="0 0 66 63" fill="none" xmlns="http://www.w3.org/2000/svg">
<path d="M12.8024 54.5333C9.11359 54.5333 5.42475 54.5333 1.73592 54.5333C0.506311 54.5333 0 54.0799 0 52.8592C0 49.2319 0 45.6046 0 41.9773C0.036165 35.9783 4.84612 30.7118 11.0303 29.9445C11.5005 29.8747 12.0068 29.8398 12.4769 29.8398C18.2272 29.8398 23.9412 29.8398 29.6915 29.8398C30.8849 29.8398 31.6444 30.7467 31.1742 31.7232C30.9572 32.1767 30.6318 32.4905 30.0893 32.5603C29.8361 32.5952 29.5468 32.5952 29.2937 32.5952C23.9051 32.5952 18.4803 32.5952 13.0917 32.5952C8.17329 32.5952 4.30364 35.4552 3.14635 39.9544C2.92936 40.7915 2.85704 41.6634 2.85704 42.5005C2.85704 45.3604 2.85704 48.2553 2.85704 51.1153C2.85704 51.6384 3.0017 51.7779 3.54417 51.7779C10.1985 51.7431 16.8529 51.7779 23.4711 51.7779C23.6881 51.7779 23.9051 51.7779 24.1221 51.7779C25.0262 51.8477 25.6048 52.4057 25.5687 53.2079C25.5325 54.0101 24.9177 54.5333 24.0136 54.5333C20.3247 54.5333 16.5636 54.5333 12.8024 54.5333Z" fill="#97144D"/>
<path d="M39.815 12.2858C39.2364 6.84483 35.0774 1.99682 29.6165 0.531955C28.857 0.322689 28.0614 0.183178 27.2657 0.00878906C27.1934 0.00878906 27.0849 0.00878906 27.0126 0.00878906C26.7594 0.218056 26.4701 0.183178 26.217 0.00878906C25.8553 0.00878906 25.4937 0.00878906 25.132 0.00878906C24.8789 0.183178 24.5895 0.218056 24.3364 0.00878906C24.1917 0.00878906 24.0832 0.00878906 23.9386 0.00878906C23.9024 0.113422 23.8301 0.11342 23.7216 0.148298C15.6206 1.29926 10.3043 8.34457 11.6424 16.1223C12.9082 23.342 20.2497 28.3993 27.6997 27.3181C35.0774 26.2369 40.6106 19.6101 39.815 12.2858ZM25.6383 24.7022C19.3818 24.7022 14.2825 19.7845 14.2825 13.7506C14.2825 7.64701 19.3456 2.76413 25.6383 2.76413C31.8949 2.76413 36.9941 7.64701 36.9941 13.6809C36.9941 19.7496 31.8949 24.7022 25.6383 24.7022Z" fill="#97144D"/>
<path d="M64.63 48.2591C63.8344 47.7011 63.0026 47.1081 62.207 46.585C61.9538 46.4106 61.8815 46.2711 61.8815 45.9572C61.9176 45.2945 61.9176 44.6318 61.8815 43.9691C61.8453 43.6204 61.9538 43.4808 62.2431 43.3065C63.0749 42.7484 63.9067 42.1555 64.7385 41.5974C65.5342 41.0394 65.932 40.307 65.9681 39.2258C66.0043 38.8421 65.8596 38.3887 65.6065 37.9702C64.847 36.7146 64.1237 35.459 63.3642 34.2034C62.5686 32.9129 61.122 32.4595 59.6754 33.0524C58.9521 33.3314 58.2288 33.6104 57.5778 33.9941C56.7822 34.4475 56.0951 34.4824 55.3718 33.8546C55.1548 33.6453 54.8293 33.5058 54.5038 33.4012C54.0698 33.2617 53.889 32.9826 53.8528 32.5292C53.7805 31.5875 53.672 30.6458 53.5635 29.7041C53.4189 28.309 52.4062 27.2278 50.9596 27.1929C49.2599 27.1232 47.5963 27.1232 45.8965 27.1929C44.6308 27.2278 43.6905 28.0649 43.4373 29.2507C43.2927 29.9483 43.1842 30.6807 43.1842 31.4132C43.148 32.4944 42.9672 33.4012 41.7014 33.75C41.4121 33.8197 41.1589 34.029 40.9058 34.2382C40.6526 34.4475 40.4356 34.4475 40.1101 34.308C39.1699 33.8895 38.2296 33.4709 37.2531 33.0873C35.7703 32.4595 34.3599 32.9129 33.5281 34.2382C32.7686 35.459 32.0092 36.7146 31.2859 37.9353C30.4902 39.2955 30.8157 40.6906 32.1538 41.6323C32.9856 42.2252 33.8174 42.8182 34.6854 43.3762C34.9385 43.5506 35.047 43.725 34.9747 44.004C34.8662 44.6318 34.83 45.2596 34.9747 45.8525C35.047 46.2362 34.9385 46.4455 34.6131 46.6547C33.7813 47.1779 32.9856 47.7708 32.19 48.3289C30.8157 49.3054 30.5264 50.7005 31.3582 52.1305C32.0453 53.3164 32.7686 54.5022 33.4919 55.688C34.3599 57.118 35.8065 57.5714 37.3616 56.9088C38.3019 56.5251 39.206 56.1066 40.1463 55.688C40.3995 55.5834 40.5803 55.5485 40.8696 55.7229C41.4482 56.1066 42.0269 56.4205 42.6417 56.7344C42.931 56.8739 43.0395 57.0134 43.0395 57.3273C43.1118 58.3039 43.2203 59.2805 43.3288 60.257C43.4735 61.7917 44.6669 62.838 46.2582 62.838C47.7771 62.838 49.3322 62.838 50.8511 62.838C52.2254 62.838 53.4189 61.7917 53.5635 60.4663C53.672 59.5246 53.7805 58.5829 53.8528 57.6412C53.889 57.118 54.0698 56.7344 54.6123 56.5251C55.1186 56.3507 55.5526 56.0368 55.9866 55.7578C56.3121 55.5485 56.5291 55.5485 56.8907 55.688C57.7948 56.1066 58.699 56.4902 59.6031 56.8739C61.122 57.5017 62.5686 57.0832 63.4366 55.688C64.1599 54.5022 64.8832 53.3164 65.5703 52.1305C66.3298 50.6657 66.0043 49.2357 64.63 48.2591ZM62.8579 50.9796C62.2431 51.9561 61.6283 52.9676 61.0497 53.979C60.8689 54.2929 60.688 54.3278 60.3626 54.1534C59.2414 53.6303 58.0842 53.1769 56.963 52.6886C56.2397 52.3398 55.6249 52.4095 54.974 52.8978C54.106 53.5954 53.1295 54.1186 52.0446 54.5371C51.4298 54.7812 51.1043 55.1998 51.032 55.8276C50.9235 57.0483 50.7426 58.3039 50.6703 59.5246C50.6342 59.8734 50.5618 60.0129 50.164 60.0129C48.9706 59.978 47.7771 59.978 46.5475 60.0129C46.1497 60.0129 46.0412 59.8734 46.005 59.5246C45.8965 58.4434 45.7519 57.3971 45.6796 56.3159C45.6434 55.3393 45.2817 54.6417 44.233 54.3278C43.3288 54.0488 42.497 53.5605 41.7737 52.9327C41.0504 52.3398 40.3271 52.3049 39.4953 52.6886C38.4827 53.1769 37.4339 53.5605 36.4213 54.0488C35.9512 54.2929 35.7342 54.1534 35.5172 53.7349C35.0109 52.8281 34.4684 51.8864 33.8898 51.0144C33.6004 50.5959 33.7089 50.3866 34.1067 50.1425C35.0832 49.4798 36.0597 48.8171 37.0361 48.1196C37.5063 47.8057 37.8317 47.3872 37.7594 46.5501C37.5063 45.5038 37.6148 44.2133 37.7594 42.8879C37.8317 42.3648 37.5424 41.9462 37.1084 41.6323C36.0597 40.8999 34.9747 40.1326 33.9259 39.435C33.6366 39.2606 33.6004 39.1211 33.7813 38.8421C34.3961 37.8307 35.0109 36.8192 35.5895 35.7729C35.7703 35.4241 35.9512 35.459 36.2405 35.5985C37.3978 36.1216 38.555 36.5751 39.6762 37.0982C40.3633 37.4121 40.9419 37.3424 41.5206 36.9238C42.4247 36.2263 43.4012 35.6682 44.4861 35.2497C45.2817 34.9707 45.4987 34.3429 45.5711 33.6453C45.6434 32.5641 45.788 31.5178 45.8604 30.4366C45.8965 29.9483 46.005 29.7041 46.6198 29.739C47.741 29.8088 48.8259 29.7739 49.947 29.739C50.3448 29.739 50.4895 29.8436 50.5257 30.2273C50.6342 31.4829 50.7788 32.7385 50.8873 33.9941C50.9596 34.6219 51.2851 35.0404 51.8638 35.2497C52.9487 35.6334 53.9613 36.1914 54.8293 36.9238C55.4079 37.3772 55.9866 37.447 56.6737 37.1331C57.7948 36.6099 58.9883 36.1565 60.1094 35.6333C60.4349 35.4938 60.6157 35.459 60.8327 35.8077C61.4113 36.8192 61.99 37.8306 62.6409 38.8072C62.8218 39.1211 62.7856 39.2606 62.4601 39.4699C61.4475 40.1675 60.4349 40.865 59.4223 41.5626C58.7713 42.016 58.5181 42.574 58.6628 43.3413C58.8798 44.3528 58.8436 45.3991 58.6628 46.4106C58.5181 47.143 58.7713 47.7359 59.4223 48.1893C60.4349 48.852 61.4475 49.5844 62.4601 50.282C63.0026 50.5261 63.0388 50.7005 62.8579 50.9796Z" fill="#97144D"/>
<path d="M48.3872 38.0742C44.4814 38.0742 41.2627 41.1435 41.2627 44.9103C41.2627 48.6771 44.5176 51.8161 48.4234 51.8161C52.3292 51.8161 55.5117 48.7119 55.5117 44.9451C55.5117 41.1435 52.3654 38.0742 48.3872 38.0742ZM48.4234 49.0258C46.0365 49.0258 44.1559 47.2122 44.1921 44.9103C44.1921 42.6432 46.0726 40.8296 48.4234 40.8296C50.7741 40.8296 52.6908 42.6781 52.6908 44.9451C52.6185 47.2122 50.7379 49.0258 48.4234 49.0258Z" fill="#97144D"/>
</svg>
