<svg width="60" height="60" viewBox="0 0 60 60" fill="none" xmlns="http://www.w3.org/2000/svg">
<path d="M22.3929 0.268177C16.4076 0.851742 12.1373 4.73423 10.9122 10.689C10.6088 12.1419 10.5505 14.5953 10.7839 16.1912C11.2272 19.2281 12.3123 21.9315 14.1324 24.5278C14.5174 25.0637 14.8208 25.5163 14.8208 25.552C14.8208 25.5758 14.5758 25.6949 14.2724 25.814C13.304 26.1832 11.2272 27.2789 10.2355 27.9339C4.88013 31.5068 1.48491 37.1876 0.411505 44.3333C0.166489 45.9768 0.0614825 49.4663 0.213159 50.8239C0.318166 51.8124 0.353168 51.9196 0.738194 52.265C1.60158 53.0748 5.81353 55.421 8.4387 56.5524C12.2773 58.2078 16.1975 59.2678 20.1295 59.7203C21.7746 59.9109 25.8232 59.899 27.4799 59.7084C31.5402 59.2439 35.3205 58.2316 39.089 56.6C39.9524 56.2308 40.8625 55.814 41.1192 55.683C41.5625 55.4448 41.5742 55.4448 42.4609 55.6711C43.6277 55.9807 46.5095 56.0879 47.8513 55.8855C48.388 55.814 49.333 55.5877 49.9397 55.3853C57.5469 52.9081 61.5955 44.7739 59.087 37.0089C57.7919 32.9954 54.5367 29.5774 50.6281 28.1245C48.9714 27.5052 47.6296 27.267 45.7978 27.267C43.4877 27.2551 41.3642 27.7434 39.5207 28.6842L38.9607 28.9819L37.7239 28.1364C36.3822 27.2193 35.1221 26.5286 33.6987 25.9331L32.8003 25.5639L33.4653 24.6469C36.8022 20.0498 37.9223 14.1427 36.3822 9.20029C35.6821 6.97322 34.6204 5.22252 33.0103 3.6862C30.9685 1.72113 28.4017 0.589733 25.2165 0.268177C23.9097 0.137173 23.723 0.137173 22.3929 0.268177ZM26.3715 3.317C30.1051 4.10303 32.777 6.66357 33.8504 10.5103C35.2505 15.4766 33.057 21.9553 28.7634 25.6116C26.0215 27.9458 23.4897 28.3984 20.8995 27.005C17.9477 25.4091 15.3225 22.0268 14.1324 18.2872C13.6074 16.608 13.479 15.7386 13.479 13.7259C13.4907 12.2253 13.5374 11.6775 13.7474 10.8081C14.0857 9.41466 14.9841 7.55678 15.8008 6.55638C18.111 3.74574 22.2646 2.47143 26.3715 3.317ZM18.041 28.5651C21.2495 30.9113 24.6681 31.2686 27.9233 29.6131C28.6 29.2678 29.3467 28.7795 30.3618 28.0292C30.5601 27.8744 30.7118 27.8982 31.5985 28.1959C32.6953 28.5532 35.5421 29.9823 36.1138 30.4468L36.4639 30.7326L35.4955 31.7569C32.0536 35.425 30.7818 40.6771 32.1586 45.6314C32.5319 47.001 33.5703 49.109 34.4221 50.2642C35.2038 51.3241 36.6272 52.7533 37.5489 53.3845C37.8756 53.6108 38.1556 53.8251 38.1556 53.8609C38.1556 53.8966 37.5373 54.1824 36.7906 54.4801C28.1917 57.9101 19.3594 57.9101 10.8772 54.504C7.62198 53.1939 3.09501 50.7287 2.95501 50.1927C2.83833 49.6925 3.01334 45.5242 3.21169 44.3333C3.70172 41.3083 4.74012 38.4143 6.15188 36.1515C7.96033 33.2217 10.8305 30.6135 13.8641 29.1249C14.9491 28.6008 16.7109 27.9101 17.0026 27.8982C17.0726 27.8982 17.551 28.1959 18.041 28.5651ZM48.038 30.3396C50.3598 30.8398 52.3549 31.995 53.9883 33.7696C54.9217 34.7938 55.3418 35.425 55.9601 36.7588C58.3636 41.9395 56.6135 48.18 51.8649 51.336C50.0798 52.527 48.4113 53.0391 46.0895 53.1106C44.6894 53.1582 44.211 53.1225 43.3243 52.92C40.3491 52.2531 37.6656 50.3118 36.0788 47.6679C34.1304 44.4405 33.8854 40.1888 35.4605 36.7588C37.6773 31.9236 42.951 29.232 48.038 30.3396Z" fill="#97144D"/>
<path d="M45.0719 33.5903C44.6941 33.7015 44.1652 34.2748 44.0561 34.6685C43.9973 34.8653 43.9637 35.9863 43.9637 37.4495V39.9054L41.3779 39.9311L38.7836 39.9568L38.4478 40.1878C37.9273 40.5387 37.709 40.958 37.709 41.6254C37.709 42.2929 37.9273 42.7122 38.4478 43.063L38.7836 43.2941L41.3695 43.3197L43.9553 43.3454L43.9805 45.9724C44.0057 48.5653 44.0057 48.5995 44.2072 48.9247C44.3163 49.1044 44.5598 49.3525 44.7445 49.4809C45.03 49.6777 45.1811 49.7119 45.6428 49.7119C46.1046 49.7119 46.2557 49.6777 46.5412 49.4809C46.7259 49.3525 46.9693 49.1044 47.0785 48.9247C47.28 48.5995 47.28 48.5653 47.3052 45.9724L47.3304 43.3454L49.9078 43.3197C52.4517 43.2941 52.4853 43.2941 52.8043 43.0887C52.9806 42.9774 53.2241 42.7293 53.35 42.541C53.5431 42.2501 53.5767 42.0961 53.5767 41.6254C53.5767 41.1548 53.5431 41.0007 53.35 40.7098C53.2241 40.5215 52.9806 40.2734 52.8043 40.1621C52.4853 39.9568 52.4517 39.9568 49.9078 39.9311L47.3304 39.9054L47.3052 37.2784C47.28 34.6856 47.28 34.6513 47.0785 34.3262C46.6839 33.6758 45.8108 33.3592 45.0719 33.5903Z" fill="#97144D"/>
</svg>
