<svg width="60" height="60" viewBox="0 0 60 60" fill="none" xmlns="http://www.w3.org/2000/svg">
<path d="M22.2504 0.389271C16.265 0.972836 11.9947 4.85532 10.7696 10.8101C10.4663 12.263 10.4079 14.7164 10.6413 16.3122C11.0846 19.3492 12.1697 22.0526 13.9898 24.6489C14.3749 25.1848 14.6782 25.6374 14.6782 25.6731C14.6782 25.6969 14.4332 25.816 14.1298 25.9351C13.1614 26.3043 11.0846 27.4 10.0929 28.055C4.73755 31.6278 1.34233 37.3087 0.268927 44.4544C0.0239113 46.0979 -0.0810956 49.5874 0.070581 50.945C0.175588 51.9335 0.21059 52.0407 0.595615 52.3861C1.45901 53.1959 5.67095 55.5421 8.29612 56.6735C12.1347 58.3289 16.055 59.3889 19.9869 59.8414C21.632 60.032 25.6806 60.0201 27.3374 59.8295C31.3976 59.365 35.1779 58.3527 38.9465 56.7211C39.8098 56.3519 40.7199 55.9351 40.9766 55.8041C41.42 55.5659 41.4316 55.5659 42.3183 55.7922C43.4851 56.1018 46.3669 56.209 47.7087 56.0066C48.2454 55.9351 49.1905 55.7088 49.7972 55.5064C57.4043 53.0292 61.4529 44.895 58.9444 37.13C57.6493 33.1165 54.3941 29.6985 50.4855 28.2456C48.8288 27.6263 47.487 27.3881 45.6552 27.3881C43.3451 27.3762 41.2216 27.8644 39.3782 28.8053L38.8181 29.103L37.5814 28.2575C36.2396 27.3404 34.9795 26.6497 33.5561 26.0542L32.6577 25.685L33.3228 24.768C36.6596 20.1709 37.7797 14.2638 36.2396 9.32138C35.5396 7.09431 34.4778 5.34361 32.8677 3.80729C30.8259 1.84222 28.2591 0.710827 25.0739 0.389271C23.7671 0.258267 23.5805 0.258267 22.2504 0.389271ZM26.229 3.4381C29.9625 4.22412 32.6344 6.78466 33.7078 10.6314C35.1079 15.5977 32.9144 22.0764 28.6208 25.7327C25.8789 28.0669 23.3471 28.5195 20.7569 27.1261C17.8051 25.5302 15.1799 22.1479 13.9898 18.4083C13.4648 16.7291 13.3365 15.8597 13.3365 13.847C13.3481 12.3464 13.3948 11.7986 13.6048 10.9292C13.9432 9.53575 14.8415 7.67787 15.6583 6.67747C17.9684 3.86684 22.122 2.59252 26.229 3.4381ZM17.8984 28.6862C21.107 31.0324 24.5255 31.3897 27.7807 29.7342C28.4574 29.3889 29.2042 28.9006 30.2192 28.1503C30.4176 27.9955 30.5692 28.0193 31.456 28.317C32.5527 28.6743 35.3996 30.1034 35.9713 30.5679L36.3213 30.8537L35.3529 31.8779C31.911 35.5461 30.6392 40.7982 32.016 45.7525C32.3894 47.1221 33.4278 49.2301 34.2795 50.3853C35.0612 51.4452 36.4846 52.8744 37.4064 53.5056C37.733 53.7319 38.0131 53.9462 38.0131 53.982C38.0131 54.0177 37.3947 54.3035 36.648 54.6012C28.0491 58.0312 19.2168 58.0312 10.7346 54.6251C7.4794 53.315 2.95244 50.8498 2.81243 50.3138C2.69575 49.8136 2.87076 45.6453 3.06911 44.4544C3.55914 41.4294 4.59754 38.5353 6.0093 36.2725C7.81775 33.3428 10.6879 30.7346 13.7215 29.2459C14.8065 28.7219 16.5683 28.0312 16.86 28.0193C16.93 28.0193 17.4084 28.317 17.8984 28.6862ZM47.8954 30.4607C50.2172 30.9609 52.2123 32.1161 53.8458 33.8906C54.7792 34.9149 55.1992 35.5461 55.8176 36.8799C58.2211 42.0606 56.4709 48.3011 51.7223 51.4571C49.9372 52.6481 48.2687 53.1602 45.9469 53.2317C44.5468 53.2793 44.0685 53.2436 43.1817 53.0411C40.2065 52.3742 37.523 50.4329 35.9363 47.789C33.9878 44.5615 33.7428 40.3099 35.3179 36.8799C37.5347 32.0447 42.8084 29.3531 47.8954 30.4607Z" fill="white"/>
<path fill-rule="evenodd" clip-rule="evenodd" d="M56.0852 34.3864L38.8073 51.6643L36.5859 49.443L53.8639 32.165L56.0852 34.3864Z" fill="white"/>
</svg>
