<svg width="45" height="43" viewBox="0 0 45 43" fill="none" xmlns="http://www.w3.org/2000/svg">
<path d="M45 14.7822C45 18.8695 43.4766 22.3688 40.4297 25.2803C37.4414 28.1357 33.8086 29.5635 29.5312 29.5635C28.5352 29.5635 27.5684 29.4795 26.6309 29.3115L24.5215 31.5791C24.1113 32.027 23.584 32.251 22.9395 32.251H19.6875V35.6104C19.6875 36.1702 19.4824 36.6462 19.0723 37.0381C18.6621 37.43 18.1641 37.626 17.5781 37.626H14.0625V40.9854C14.0625 41.5452 13.8574 42.0212 13.4473 42.4131C13.0371 42.805 12.5391 43.001 11.9531 43.001H2.10937C1.52344 43.001 1.02539 42.805 0.615234 42.4131C0.205078 42.0212 0 41.5452 0 40.9854V34.4346C0 33.8747 0.205078 33.3988 0.615234 33.0068L14.8535 19.4014C14.3262 17.8896 14.0625 16.3499 14.0625 14.7822C14.0625 12.0947 14.7363 9.63118 16.084 7.3916C17.4902 5.09603 19.3652 3.30436 21.709 2.0166C24.1113 0.672852 26.7187 0.000976562 29.5312 0.000976562C33.8086 0.000976562 37.4414 1.45671 40.4297 4.36816C43.4766 7.22363 45 10.695 45 14.7822ZM30.7617 7.89551C29.9414 8.67936 29.5312 9.63118 29.5312 10.751C29.5312 11.8708 29.9414 12.8226 30.7617 13.6064C31.582 14.3903 32.5781 14.7822 33.75 14.7822C34.9219 14.7822 35.918 14.3903 36.7383 13.6064C37.5586 12.8226 37.9687 11.8708 37.9687 10.751C37.9687 9.63118 37.5586 8.67936 36.7383 7.89551C35.918 7.11165 34.9219 6.71973 33.75 6.71973C32.5781 6.71973 31.582 7.11165 30.7617 7.89551Z" fill="#97144D"/>
</svg>
