<svg width="58" height="58" viewBox="0 0 58 58" fill="none" xmlns="http://www.w3.org/2000/svg">
<path d="M24.0836 0.0584597C19.3162 0.393466 14.8065 2.05561 10.619 5.03201C9.17586 6.04991 6.13504 9.10362 5.10425 10.5596C0.1307 17.6334 -1.17067 26.0085 1.49649 34.01C3.64826 40.4911 8.45431 45.9414 14.6906 48.9564C20.3084 51.6751 26.3771 52.2678 32.5747 50.683C35.6284 49.9099 39.2233 48.1189 41.8132 46.0831L42.6507 45.426L48.771 51.5334C55.3809 58.1304 55.1619 57.9372 56.3215 57.731C56.9271 57.615 57.7517 56.7904 57.8677 56.1848C58.0738 55.0252 58.2671 55.2571 51.6701 48.6343L45.5627 42.514L46.2198 41.6765C50.1368 36.6901 52.1468 30.093 51.6314 23.9083C51.1031 17.6849 48.771 12.4537 44.5061 7.99552C43.063 6.48799 42.509 6.16588 41.5941 6.30761C40.8597 6.41069 40.0737 7.14512 39.9449 7.82802C39.7645 8.75573 39.9449 9.16804 41.0916 10.3534C43.1145 12.4794 44.3515 14.2189 45.4338 16.4609C48.2814 22.4265 48.2685 29.2169 45.4209 35.2083C42.4832 41.3544 36.801 45.7352 29.9462 47.1139C27.8331 47.5391 23.9805 47.5391 21.8803 47.1139C13.969 45.5291 7.74564 40.0144 5.31041 32.4638C2.32112 23.1739 5.91599 13.0206 14.0721 7.69917C17.3577 5.56029 21.1072 4.37488 25.0629 4.22026C28.7737 4.07853 32.1109 4.77431 35.3836 6.35914C36.8654 7.0807 37.4967 7.18377 38.2827 6.81011C39.1718 6.38491 39.597 5.10932 39.1847 4.14296C38.927 3.52448 38.5275 3.22813 37.0458 2.51946C32.9613 0.599621 28.516 -0.237892 24.0836 0.0584597Z" fill="#97144D"/>
<path d="M36.4538 16.7318C36.1832 16.8478 34.083 19.2057 30.3592 23.5608C27.2282 27.2201 24.6513 30.2094 24.6255 30.2094C24.6126 30.2094 23.002 29.024 21.0693 27.568C18.7371 25.8156 17.41 24.9008 17.1265 24.8493C15.7092 24.5787 14.4722 25.7254 14.6655 27.1428C14.7042 27.4134 14.833 27.787 14.949 27.9674C15.1809 28.3282 23.7622 34.7964 24.2518 34.9897C24.7028 35.1572 25.2568 35.1314 25.7722 34.9252C26.0944 34.7835 27.8854 32.7863 32.6012 27.2845C36.1188 23.1871 39.0952 19.6309 39.1982 19.3861C39.5719 18.5357 39.2627 17.5178 38.438 16.8993C38 16.5772 36.982 16.487 36.4538 16.7318Z" fill="#97144D"/>
</svg>
