<svg width="50" height="50" viewBox="0 0 50 50" fill="none" xmlns="http://www.w3.org/2000/svg">
<path d="M48.3259 10.9375L39.0625 1.67411C38.058 0.669643 36.7187 0 35.2679 0H5.35714C2.34375 0 0 2.45536 0 5.35714V44.6429C0 47.6562 2.34375 50 5.35714 50H44.6429C47.5446 50 50 47.6562 50 44.6429V14.7321C50 13.2812 49.3304 11.942 48.3259 10.9375ZM25 42.8571C20.9821 42.8571 17.8571 39.7321 17.8571 35.7143C17.8571 31.808 20.9821 28.5714 25 28.5714C28.9062 28.5714 32.1429 31.808 32.1429 35.7143C32.1429 39.7321 28.9062 42.8571 25 42.8571ZM35.7143 8.92857V20.0893C35.7143 20.8705 35.0446 21.4286 34.375 21.4286H8.48214C7.70089 21.4286 7.14286 20.8705 7.14286 20.0893V8.48214C7.14286 7.8125 7.70089 7.14286 8.48214 7.14286H33.9286C34.2634 7.14286 34.5982 7.36607 34.933 7.58929L35.2679 7.92411C35.4911 8.25893 35.7143 8.59375 35.7143 8.92857Z" fill="white"/>
</svg>
