<svg width="57" height="61" viewBox="0 0 57 61" fill="none" xmlns="http://www.w3.org/2000/svg">
<path d="M30.7659 29.9968C30.1966 29.8432 30.1067 29.5973 30.1067 29.0441C30.1367 20.3155 30.1067 11.6176 30.1067 2.88897C30.1067 2.70456 30.1067 2.48941 30.1067 2.305C30.0767 1.53664 29.4775 0.860485 28.7584 0.737547C27.9494 0.614609 27.2003 1.04489 26.9306 1.84398C26.8108 2.15133 26.8408 2.45868 26.8408 2.76602C26.8408 11.5868 26.8408 20.4077 26.8408 29.1977C26.8408 29.6588 26.7209 29.8124 26.3014 29.9354C22.8857 30.8882 20.5486 33.8079 20.219 37.4654C19.8594 41.4608 22.5261 45.3641 26.3314 46.3476C26.7509 46.4398 26.8707 46.5935 26.8707 47.0238C26.8408 50.7427 26.8707 54.4616 26.8408 58.2112C26.8408 59.2254 27.1703 59.9631 28.0992 60.3626H28.7883C29.837 59.9631 30.1367 59.502 30.1367 58.3341C30.1367 54.5538 30.1367 50.7734 30.1367 46.9623C30.1367 46.6242 30.1966 46.4706 30.5562 46.3784C34.2116 45.4563 36.7884 42.0448 36.8184 38.1722C36.8184 34.4534 34.3015 30.9803 30.7659 29.9968ZM28.4887 43.2742C25.7321 43.2742 23.455 40.9691 23.4849 38.1415C23.5149 35.2217 25.6722 33.0396 28.4887 33.0088C31.2153 32.9781 33.4626 35.2832 33.4626 38.1108C33.4626 41.0613 31.2153 43.2742 28.4887 43.2742Z" fill="white"/>
<path d="M10.5699 15.8919C10.1804 15.7996 10.0905 15.6152 10.0905 15.2157C10.1205 12.5418 10.0905 9.86787 10.0905 7.16323C10.0905 5.6265 10.0905 4.05904 10.0905 2.49157C10.0905 1.47733 9.43132 0.739706 8.53244 0.708971C7.5137 0.678237 6.82455 1.38513 6.82455 2.49157C6.82455 6.70221 6.82455 10.9129 6.82455 15.1235C6.82455 15.5845 6.7047 15.7382 6.28522 15.8611C2.68968 16.8139 0.112874 20.2562 0.142837 24.098C0.142837 27.9091 2.71964 31.3513 6.28522 32.2734C6.73466 32.3963 6.85451 32.5807 6.85451 33.0417C6.82455 41.3708 6.85452 49.7306 6.82455 58.0904C6.82455 59.1354 7.06426 59.9038 7.9931 60.3648C8.26277 60.3648 8.53243 60.3648 8.8021 60.3648C9.8508 59.9345 10.1504 59.4735 10.1504 58.2441C10.1504 49.8228 10.1504 41.4015 10.1504 32.9803C10.1504 32.6422 10.1504 32.3963 10.5999 32.3041C14.2553 31.3513 16.8321 27.9398 16.8022 24.0672C16.7423 20.2254 14.2254 16.8754 10.5699 15.8919ZM8.44255 29.2306C5.68596 29.1999 3.43875 26.9256 3.46872 24.1287C3.49868 21.2704 5.59608 19.0268 8.47251 18.9653C11.2291 18.9346 13.4763 21.2704 13.4763 24.098C13.4463 26.9256 11.1392 29.2921 8.44255 29.2306Z" fill="white"/>
<path d="M50.4811 15.8909C50.1215 15.7987 50.0017 15.6451 50.0017 15.2455C50.0317 12.4179 50.0017 9.55962 50.0017 6.73204C50.0017 5.28752 50.0017 3.81226 50.0017 2.36773C50.0017 1.4457 49.2826 0.769531 48.4137 0.769531C47.3949 0.769531 46.7357 1.50716 46.7357 2.67508C46.7357 6.85498 46.7357 11.0349 46.7357 15.184C46.7357 15.6143 46.6459 15.7987 46.1964 15.9217C42.6308 16.8437 40.084 20.286 40.084 24.0971C40.084 27.9082 42.6308 31.3504 46.1664 32.3032C46.6159 32.4261 46.7357 32.6105 46.7357 33.0715C46.7058 41.4621 46.7357 49.8526 46.7058 58.2432C46.7058 59.2574 47.0054 60.0258 47.9642 60.3946H48.8631C49.762 59.9336 50.0317 59.1959 50.0317 58.1817C50.0017 49.7912 50.0317 41.4006 50.0017 33.0101C50.0017 32.6105 50.0916 32.4261 50.4811 32.3032C53.9868 31.4119 56.5336 28.1233 56.6834 24.4044C56.8332 20.4397 54.2564 16.9052 50.4811 15.8909ZM48.3837 29.2297C45.6571 29.2912 43.3799 26.9247 43.3499 24.0971C43.3499 21.2695 45.5972 18.9337 48.3537 18.9644C51.2002 18.9951 53.3276 21.2388 53.3575 24.0971C53.3875 26.9247 51.1403 29.199 48.3837 29.2297Z" fill="white"/>
</svg>
