<svg width="44" height="43" viewBox="0 0 44 43" fill="none" xmlns="http://www.w3.org/2000/svg">
<path d="M6.92944 6.32961C11.1485 2.11052 16.2345 0.000976562 22.1875 0.000976562C28.1405 0.000976562 33.1976 2.11052 37.3589 6.32961C41.578 10.4909 43.6875 15.548 43.6875 21.501C43.6875 27.4539 41.578 32.54 37.3589 36.759C33.1976 40.9203 28.1405 43.001 22.1875 43.001C16.2345 43.001 11.1485 40.9203 6.92944 36.759C2.76815 32.54 0.6875 27.4539 0.6875 21.501C0.6875 15.548 2.76815 10.4909 6.92944 6.32961ZM30.1633 27.1361C30.3945 26.9049 30.5101 26.6159 30.5101 26.2691C30.5101 25.8068 30.3367 25.4311 29.9899 25.1421L24.9617 21.501V9.01711C24.9617 8.61254 24.8172 8.29466 24.5282 8.06348C24.297 7.7745 23.9792 7.63001 23.5746 7.63001H20.8004C20.3958 7.63001 20.0491 7.7745 19.7601 8.06348C19.5289 8.29466 19.4133 8.61254 19.4133 9.01711V22.5413C19.4133 23.6394 19.8468 24.5353 20.7137 25.2288L26.5222 29.4768C26.7534 29.708 27.0423 29.8236 27.3891 29.8236C27.8515 29.8236 28.1983 29.6502 28.4294 29.3034L30.1633 27.1361Z" fill="white"/>
</svg>
