<svg width="60" height="60" viewBox="0 0 60 60" fill="none" xmlns="http://www.w3.org/2000/svg">
<path d="M22.1893 1.1025C16.2507 1.67419 11.9921 5.47771 10.7671 11.2997C10.4637 12.7231 10.4054 15.1265 10.6387 16.6899C11.0821 19.6651 12.1671 22.3135 13.9872 24.857C14.3722 25.382 14.6756 25.8254 14.6756 25.8604C14.6756 25.8837 14.4306 26.0004 14.1272 26.1171C13.1588 26.4787 11.0821 27.5521 10.0904 28.1938C4.74677 31.6823 1.32827 37.2826 0.266554 44.2596C0.0332095 45.858 -0.0834629 49.1598 0.0682112 50.5366C0.208218 51.8666 0.289889 51.9716 1.99331 52.9867C7.95526 56.5219 13.5439 58.5403 19.4708 59.2637C21.3609 59.5087 25.6078 59.532 27.3929 59.322C31.4764 58.8436 35.2099 57.8636 38.9434 56.2769C39.8068 55.9152 40.7169 55.5068 40.9735 55.3785C41.4169 55.1451 41.4286 55.1451 42.3153 55.3668C43.482 55.6702 46.3638 55.7752 47.7055 55.5768C49.864 55.2735 52.2674 54.2351 54.1342 52.835C58.6144 49.4632 60.6445 43.6412 59.2561 38.1693C57.9144 32.8607 53.5975 28.7888 48.1956 27.7388C46.8072 27.4705 44.3454 27.4588 42.992 27.7271C41.8719 27.9488 40.2502 28.4972 39.3751 28.9289L38.8151 29.2205L37.5784 28.3922C36.2366 27.4938 34.9766 26.8171 33.5532 26.2337L32.6548 25.872L33.3198 24.9737C36.715 20.4001 37.8117 14.4731 36.1666 9.60791C35.4549 7.51948 34.4166 5.88607 32.8648 4.43933C30.823 2.51423 28.2563 1.40584 25.0711 1.09083C23.7527 0.962488 23.5777 0.962492 22.1893 1.1025ZM26.2262 4.07764C32.2464 5.31437 35.3733 11.148 33.6348 17.95C32.5031 22.3952 28.863 26.7354 25.3628 27.7971C23.8694 28.2522 22.2593 28.0771 20.7542 27.2838C17.8024 25.7204 15.1773 22.4069 13.9872 18.7434C13.4622 17.0983 13.3339 16.2466 13.3339 14.2748C13.3455 12.8047 13.3922 12.268 13.6022 11.4163C13.9406 10.0513 14.8389 8.23118 15.6556 7.25113C17.9658 4.49766 22.1193 3.24927 26.2262 4.07764ZM17.8957 28.8122C21.1042 31.1106 24.5227 31.4606 27.7779 29.8389C28.4546 29.5006 29.2013 29.0222 30.2163 28.2872C30.4847 28.0888 31.1147 28.2522 32.8765 28.9989C33.9965 29.4655 36.0616 30.6206 36.2016 30.8423C36.2483 30.9123 35.8516 31.414 35.3383 31.9507C31.9081 35.5325 30.6364 40.7128 32.0131 45.5313C32.3981 46.8847 33.4015 48.8915 34.2649 50.0466C35.0466 51.0966 36.47 52.4967 37.4034 53.1267C37.73 53.3484 38.0101 53.5584 38.0101 53.5934C38.0101 53.6867 35.9916 54.4684 34.5449 54.9468C26.6228 57.5369 18.5958 57.3036 10.7554 54.2234C8.84197 53.4767 6.52019 52.3567 4.5601 51.2366C2.57667 50.1049 2.70501 50.3966 2.81001 47.4214C2.93835 43.6996 3.63839 40.7594 5.10846 37.8426C7.27856 33.5257 11.1521 30.1306 15.7256 28.5088C16.274 28.3222 16.7757 28.1588 16.8574 28.1588C16.9274 28.1588 17.4057 28.4505 17.8957 28.8122ZM46.9355 30.3873C49.584 30.7139 51.9991 31.9507 53.8425 33.9108C54.7759 34.9141 55.1959 35.5325 55.8143 36.8392C56.5843 38.4727 56.841 39.6627 56.841 41.6345C56.841 42.9295 56.7943 43.4779 56.5843 44.3063C55.7326 47.7014 53.2125 50.6883 50.0506 52.0183C48.3822 52.7184 47.7289 52.835 45.5354 52.835C43.8203 52.835 43.4237 52.8 42.6303 52.5667C39.8185 51.7616 37.3217 49.8482 35.8633 47.4331C35.2099 46.3364 34.5799 44.5863 34.3816 43.3262C34.1949 42.1128 34.3115 39.8961 34.6266 38.7177C35.91 33.9108 40.3552 30.4106 45.3604 30.2706C45.6521 30.2706 46.3638 30.3173 46.9355 30.3873Z" fill="#97144D"/>
<path d="M56.4322 39.6502C56.5086 39.8411 56.5468 40.0456 56.5468 40.2638C56.5468 40.4819 56.5086 40.6865 56.4322 40.8773C55.3633 43.0589 53.8616 44.8178 51.9273 46.154C49.993 47.4629 47.8678 48.1174 45.5517 48.1174C44.0246 48.1174 42.5484 47.8174 41.1231 47.2175C39.7233 46.5903 38.4762 45.7449 37.3818 44.6814C36.2873 43.5907 35.3838 42.3226 34.6712 40.8773C34.5948 40.6865 34.5566 40.4819 34.5566 40.2638C34.5566 40.0456 34.5948 39.8411 34.6712 39.6502C35.7401 37.4687 37.2418 35.7234 39.1761 34.4145C41.1104 33.0783 43.2356 32.4102 45.5517 32.4102C47.8678 32.4102 49.993 33.0783 51.9273 34.4145C53.8616 35.7234 55.3633 37.4687 56.4322 39.6502ZM45.5517 46.154C47.0788 46.154 48.3768 45.5813 49.4458 44.436C50.5148 43.2907 51.0492 41.8999 51.0492 40.2638C51.0492 38.6276 50.5148 37.2369 49.4458 36.0915C48.3768 34.9462 47.0788 34.3736 45.5517 34.3736C44.0246 34.3736 42.7266 34.9462 41.6576 36.0915C40.5887 37.2369 40.0542 38.6276 40.0542 40.2638C40.0542 41.8999 40.5887 43.2907 41.6576 44.436C42.7266 45.5813 44.0246 46.154 45.5517 46.154ZM45.5517 36.337C46.5698 36.337 47.4351 36.7187 48.1478 37.4823C48.8604 38.2458 49.2167 39.173 49.2167 40.2638C49.2167 41.3273 48.8604 42.2544 48.1478 43.0453C47.4351 43.8088 46.5698 44.1906 45.5517 44.1906C44.5591 44.1906 43.6937 43.8088 42.9556 43.0453C42.243 42.2544 41.8867 41.3273 41.8867 40.2638C41.8867 39.9093 41.9376 39.5684 42.0394 39.2412C42.3448 39.4866 42.7011 39.6093 43.1084 39.6093C43.6174 39.6093 44.0501 39.4184 44.4064 39.0366C44.7627 38.6549 44.9409 38.1913 44.9409 37.6459C44.9409 37.2096 44.8263 36.8278 44.5973 36.5006C44.9027 36.3915 45.2208 36.337 45.5517 36.337Z" fill="#97144D"/>
</svg>
