<svg width="58" height="58" viewBox="0 0 58 58" fill="none" xmlns="http://www.w3.org/2000/svg">
<g filter="url(#filter0_dd_1933_36733)">
<rect x="4" y="3" width="50" height="50" rx="10" fill="white"/>
</g>
<path d="M25 27C22.7909 27 21 25.2091 21 23C21 20.7909 22.7909 19 25 19C27.2091 19 29 20.7909 29 23C29 25.2091 27.2091 27 25 27Z" stroke="#404040" stroke-width="2"/>
<path d="M16.0007 36.1992C16.3883 31.4265 20.2619 29 24.9833 29C29.7712 29 33.7049 31.2932 33.9979 36.2C34.0096 36.3955 33.9979 37 33.2467 37C29.5411 37 24.0347 37 16.7275 37C16.4767 37 15.9795 36.4592 16.0007 36.1992Z" stroke="#404040" stroke-width="2"/>
<path d="M40.8722 26.2097C40.9858 26.2634 41.0237 26.3575 40.9858 26.4919C40.7713 27.2043 40.4243 27.836 39.9448 28.3871C39.8691 28.4812 39.7808 28.5013 39.6798 28.4476L38.8659 27.9435C38.5252 28.2527 38.1404 28.4879 37.7114 28.6492V29.6371C37.7114 29.7715 37.6546 29.8522 37.541 29.879C36.847 30.0403 36.1593 30.0403 35.4779 29.879C35.3517 29.8522 35.2886 29.7715 35.2886 29.6371V28.6492C34.8596 28.4879 34.4748 28.2527 34.1341 27.9435L33.3391 28.4476C33.2256 28.5013 33.1309 28.4812 33.0552 28.3871C32.5757 27.836 32.2287 27.2043 32.0142 26.4919C31.9763 26.371 32.0142 26.2769 32.1278 26.2097L32.9227 25.7056C32.8849 25.4772 32.8659 25.2419 32.8659 25C32.8659 24.7581 32.8849 24.5228 32.9227 24.2944L32.1278 23.7903C32.0142 23.7366 31.9763 23.6425 32.0142 23.5081C32.2287 22.7957 32.5757 22.164 33.0552 21.6129C33.1309 21.5188 33.2256 21.5054 33.3391 21.5726L34.1341 22.0565C34.4748 21.7473 34.8596 21.5121 35.2886 21.3508V20.3629C35.2886 20.2285 35.3454 20.1478 35.459 20.121C36.153 19.9597 36.847 19.9597 37.541 20.121C37.6546 20.1478 37.7114 20.2285 37.7114 20.3629V21.3508C38.1404 21.5121 38.5252 21.7473 38.8659 22.0565L39.6609 21.5524C39.7744 21.4987 39.8691 21.5188 39.9448 21.6129C40.4243 22.164 40.7713 22.7957 40.9858 23.5081C41.0237 23.6425 40.9858 23.7366 40.8722 23.7903L40.0773 24.2944C40.153 24.7648 40.153 25.2352 40.0773 25.7056L40.8722 26.2097ZM35.4211 26.1492C35.724 26.4583 36.0836 26.6129 36.5 26.6129C36.9164 26.6129 37.2697 26.4583 37.5599 26.1492C37.8628 25.8266 38.0142 25.4435 38.0142 25C38.0142 24.5565 37.8628 24.1801 37.5599 23.871C37.2697 23.5484 36.9164 23.3871 36.5 23.3871C36.0836 23.3871 35.724 23.5484 35.4211 23.871C35.1309 24.1801 34.9858 24.5565 34.9858 25C34.9858 25.4435 35.1309 25.8266 35.4211 26.1492Z" stroke="#404040"/>
<defs>
<filter id="filter0_dd_1933_36733" x="0" y="0" width="58" height="58" filterUnits="userSpaceOnUse" color-interpolation-filters="sRGB">
<feFlood flood-opacity="0" result="BackgroundImageFix"/>
<feColorMatrix in="SourceAlpha" type="matrix" values="0 0 0 0 0 0 0 0 0 0 0 0 0 0 0 0 0 0 127 0" result="hardAlpha"/>
<feMorphology radius="1" operator="dilate" in="SourceAlpha" result="effect1_dropShadow_1933_36733"/>
<feOffset dy="1"/>
<feGaussianBlur stdDeviation="1.5"/>
<feComposite in2="hardAlpha" operator="out"/>
<feColorMatrix type="matrix" values="0 0 0 0 0 0 0 0 0 0 0 0 0 0 0 0 0 0 0.15 0"/>
<feBlend mode="normal" in2="BackgroundImageFix" result="effect1_dropShadow_1933_36733"/>
<feColorMatrix in="SourceAlpha" type="matrix" values="0 0 0 0 0 0 0 0 0 0 0 0 0 0 0 0 0 0 127 0" result="hardAlpha"/>
<feOffset dy="1"/>
<feGaussianBlur stdDeviation="1"/>
<feComposite in2="hardAlpha" operator="out"/>
<feColorMatrix type="matrix" values="0 0 0 0 0 0 0 0 0 0 0 0 0 0 0 0 0 0 0.3 0"/>
<feBlend mode="normal" in2="effect1_dropShadow_1933_36733" result="effect2_dropShadow_1933_36733"/>
<feBlend mode="normal" in="SourceGraphic" in2="effect2_dropShadow_1933_36733" result="shape"/>
</filter>
</defs>
</svg>
