<svg width="58" height="58" viewBox="0 0 58 58" fill="none" xmlns="http://www.w3.org/2000/svg">
<g filter="url(#filter0_dd_4379_69379)">
<rect x="4" y="3" width="50" height="50" rx="10" fill="#404040"/>
</g>
<path fill-rule="evenodd" clip-rule="evenodd" d="M27.2782 13.1316C26.0284 13.7008 25.5976 15.3338 26.4342 16.3308L26.6376 16.5732L22.1517 21.0716L17.6657 25.57L17.32 25.3233C15.6598 24.1391 13.2676 26.1198 14.215 27.8941C14.4638 28.3601 21.7329 35.6095 22.1078 35.7655C23.8801 36.5029 25.6597 34.4024 24.6654 32.7467L24.3847 32.2793L24.9211 31.7372C25.5029 31.1493 25.5673 31.1196 25.7709 31.3453C26.3108 31.9434 27.9389 32.1415 28.7536 31.7082C28.9484 31.6046 29.0523 31.7032 34.4649 37.1223C40.5718 43.2367 40.2921 42.9971 41.3263 42.9991C43.1783 43.0029 44.5399 40.9788 43.7902 39.3365C43.6019 38.9242 42.9526 38.2425 38.1193 33.3826L32.6608 27.8941L32.8171 27.4567C33.1307 26.5787 32.8967 25.2509 32.3188 24.6295C32.1687 24.468 32.1719 24.4626 32.7589 23.8779L33.3502 23.2889L33.5308 23.4544C34.7547 24.577 36.9203 23.5258 36.9203 21.8092C36.9203 21.0275 36.7832 20.8426 34.4803 18.5223C31.9538 15.9765 31.8991 15.9383 31.4445 16.3943C30.9908 16.8492 30.9915 16.8503 33.3886 19.262C35.917 21.8057 36.0231 21.99 35.257 22.5085C34.7427 22.8566 34.8217 22.9205 30.8755 18.9627C26.8044 14.8795 26.9581 15.0827 27.5162 14.5231C27.9533 14.0848 28.2284 14.1339 28.9007 14.7697C29.5344 15.3693 29.7447 15.4188 30.1082 15.0543C31.0051 14.1549 28.6076 12.5262 27.2782 13.1316ZM30.023 19.9401L32.4415 22.3664L27.9404 26.8801L23.4391 31.3938L21.0001 28.948L18.5611 26.5023L23.0423 22.0081C25.507 19.5363 27.5418 17.5139 27.564 17.5139C27.5862 17.5139 28.6928 18.6058 30.023 19.9401ZM31.5781 25.9229C31.943 26.7681 31.7234 27.1613 29.8513 29.0164C28.1038 30.7481 27.9342 30.8475 27.1399 30.6068C26.2527 30.3379 26.1506 30.5055 28.8491 27.798C31.4806 25.1577 31.301 25.2812 31.5781 25.9229ZM16.4428 26.2975C16.857 26.517 23.6762 33.4528 23.6861 33.6647C23.7047 34.0625 23.6632 34.1831 23.4336 34.3968C22.8747 34.9169 23.0294 35.0348 19.053 31.056C17.0965 29.0983 15.4466 27.4035 15.3865 27.2899C15.075 26.701 15.8428 25.9796 16.4428 26.2975ZM37.1737 34.357C40.1247 37.3209 42.5787 39.8242 42.6269 39.9197C42.9562 40.5731 42.4839 41.4909 41.7174 41.6869C41.0037 41.8692 41.2541 42.086 35.3575 36.181L29.9439 30.7597L30.8348 29.8638C31.3248 29.3711 31.7442 28.968 31.7668 28.968C31.7895 28.968 34.2225 31.3931 37.1737 34.357Z" fill="white"/>
<defs>
<filter id="filter0_dd_4379_69379" x="0" y="0" width="58" height="58" filterUnits="userSpaceOnUse" color-interpolation-filters="sRGB">
<feFlood flood-opacity="0" result="BackgroundImageFix"/>
<feColorMatrix in="SourceAlpha" type="matrix" values="0 0 0 0 0 0 0 0 0 0 0 0 0 0 0 0 0 0 127 0" result="hardAlpha"/>
<feMorphology radius="1" operator="dilate" in="SourceAlpha" result="effect1_dropShadow_4379_69379"/>
<feOffset dy="1"/>
<feGaussianBlur stdDeviation="1.5"/>
<feComposite in2="hardAlpha" operator="out"/>
<feColorMatrix type="matrix" values="0 0 0 0 0 0 0 0 0 0 0 0 0 0 0 0 0 0 0.15 0"/>
<feBlend mode="normal" in2="BackgroundImageFix" result="effect1_dropShadow_4379_69379"/>
<feColorMatrix in="SourceAlpha" type="matrix" values="0 0 0 0 0 0 0 0 0 0 0 0 0 0 0 0 0 0 127 0" result="hardAlpha"/>
<feOffset dy="1"/>
<feGaussianBlur stdDeviation="1"/>
<feComposite in2="hardAlpha" operator="out"/>
<feColorMatrix type="matrix" values="0 0 0 0 0 0 0 0 0 0 0 0 0 0 0 0 0 0 0.3 0"/>
<feBlend mode="normal" in2="effect1_dropShadow_4379_69379" result="effect2_dropShadow_4379_69379"/>
<feBlend mode="normal" in="SourceGraphic" in2="effect2_dropShadow_4379_69379" result="shape"/>
</filter>
</defs>
</svg>
