<svg width="58" height="58" viewBox="0 0 58 58" fill="none" xmlns="http://www.w3.org/2000/svg">
<g filter="url(#filter0_dd_181_11354)">
<rect x="4" y="3" width="50" height="50" rx="10" fill="white"/>
</g>
<path fill-rule="evenodd" clip-rule="evenodd" d="M27.1634 12.1404C25.8303 12.7475 25.3708 14.4893 26.2632 15.5529L26.4801 15.8115L21.6951 20.6097L16.9101 25.408L16.5413 25.1449C14.7705 23.8817 12.2188 25.9945 13.2294 27.8871C13.4947 28.3841 21.2485 36.1168 21.6483 36.2832C23.5387 37.0698 25.437 34.8292 24.3764 33.0631L24.077 32.5645L24.6491 31.9863C25.2697 31.3593 25.3385 31.3276 25.5556 31.5683C26.1315 32.2063 27.8682 32.4176 28.7372 31.9554C28.9449 31.8449 29.0557 31.9501 34.8292 37.7305C41.3432 44.2524 41.0449 43.9969 42.148 43.9991C44.1236 44.0031 45.5759 41.8441 44.7762 40.0923C44.5754 39.6525 43.8828 38.9253 38.7272 33.7415L32.9049 27.8871L33.0716 27.4205C33.4061 26.4839 33.1565 25.0677 32.54 24.4048C32.38 24.2325 32.3833 24.2268 33.0095 23.6031L33.6403 22.9748L33.8328 23.1514C35.1383 24.3488 37.4484 23.2275 37.4484 21.3965C37.4484 20.5627 37.3021 20.3654 34.8457 17.8904C32.1507 15.1749 32.0924 15.1342 31.6074 15.6205C31.1235 16.1058 31.1243 16.107 33.6812 18.6795C36.3781 21.3927 36.4913 21.5894 35.6742 22.1424C35.1255 22.5137 35.2098 22.5819 31.0005 18.3602C26.658 14.0048 26.822 14.2215 27.4172 13.6247C27.8835 13.1571 28.177 13.2095 28.894 13.8877C29.5701 14.5272 29.7944 14.58 30.1821 14.1912C31.1388 13.2319 28.5815 11.4947 27.1634 12.1404ZM30.0912 19.4028L32.671 21.9908L27.8697 26.8054L23.0684 31.62L20.4667 29.0112L17.8652 26.4025L22.6451 21.6086C25.2742 18.9721 27.4446 16.8148 27.4682 16.8148C27.492 16.8148 28.6723 17.9795 30.0912 19.4028ZM31.75 25.7844C32.1392 26.6859 31.9049 27.1054 29.9081 29.0842C28.0441 30.9313 27.8631 31.0374 27.0159 30.7805C26.0695 30.4937 25.9607 30.6725 28.839 27.7846C31.646 24.9682 31.4544 25.0999 31.75 25.7844ZM15.6056 26.184C16.0475 26.4181 23.3213 33.8163 23.3319 34.0424C23.3517 34.4667 23.3074 34.5953 23.0625 34.8232C22.4663 35.3781 22.6314 35.5038 18.3898 31.2597C16.303 29.1715 14.5431 27.3637 14.479 27.2425C14.1467 26.6144 14.9657 25.8449 15.6056 26.184ZM37.7186 34.7808C40.8664 37.9423 43.4839 40.6125 43.5354 40.7143C43.8866 41.4113 43.3828 42.3903 42.5652 42.5993C41.804 42.7938 42.071 43.025 35.7813 36.7264L30.0068 30.9437L30.9571 29.9881C31.4798 29.4626 31.9271 29.0325 31.9513 29.0325C31.9754 29.0325 34.5707 31.6193 37.7186 34.7808Z" fill="#404040"/>
<defs>
<filter id="filter0_dd_181_11354" x="0" y="0" width="58" height="58" filterUnits="userSpaceOnUse" color-interpolation-filters="sRGB">
<feFlood flood-opacity="0" result="BackgroundImageFix"/>
<feColorMatrix in="SourceAlpha" type="matrix" values="0 0 0 0 0 0 0 0 0 0 0 0 0 0 0 0 0 0 127 0" result="hardAlpha"/>
<feMorphology radius="1" operator="dilate" in="SourceAlpha" result="effect1_dropShadow_181_11354"/>
<feOffset dy="1"/>
<feGaussianBlur stdDeviation="1.5"/>
<feComposite in2="hardAlpha" operator="out"/>
<feColorMatrix type="matrix" values="0 0 0 0 0 0 0 0 0 0 0 0 0 0 0 0 0 0 0.15 0"/>
<feBlend mode="normal" in2="BackgroundImageFix" result="effect1_dropShadow_181_11354"/>
<feColorMatrix in="SourceAlpha" type="matrix" values="0 0 0 0 0 0 0 0 0 0 0 0 0 0 0 0 0 0 127 0" result="hardAlpha"/>
<feOffset dy="1"/>
<feGaussianBlur stdDeviation="1"/>
<feComposite in2="hardAlpha" operator="out"/>
<feColorMatrix type="matrix" values="0 0 0 0 0 0 0 0 0 0 0 0 0 0 0 0 0 0 0.3 0"/>
<feBlend mode="normal" in2="effect1_dropShadow_181_11354" result="effect2_dropShadow_181_11354"/>
<feBlend mode="normal" in="SourceGraphic" in2="effect2_dropShadow_181_11354" result="shape"/>
</filter>
</defs>
</svg>
