<svg width="58" height="58" viewBox="0 0 58 58" fill="none" xmlns="http://www.w3.org/2000/svg">
<g filter="url(#filter0_dd_1933_36739)">
<rect x="4" y="3" width="50" height="50" rx="10" fill="white"/>
</g>
<path d="M29.108 14.6003L29.2873 14.7807V15.6032V16.4309L30.1102 16.4469L30.9331 16.4628L31.086 16.6379L31.239 16.8077V21.026V25.2444H33.2962H35.3534V24.406C35.3534 23.7216 35.3692 23.5411 35.4483 23.3873C35.6066 23.0689 35.6013 23.0689 37.7956 23.0795L39.7948 23.0954L39.9214 23.244L40.048 23.3926V31.3783V39.3587H40.8128C41.6568 39.3587 41.8256 39.4011 41.9364 39.6505C42.0419 39.884 42.0102 40.0485 41.8203 40.2395L41.641 40.4199H28.4961H15.3512L15.1719 40.2395C14.982 40.0485 14.9503 39.884 15.0558 39.6505C15.1719 39.3958 15.3301 39.3587 16.2848 39.3587H17.1552V34.9758V30.593L17.3082 30.4391C17.4717 30.2746 17.746 30.2322 17.9517 30.3383C18.2154 30.4816 18.2102 30.386 18.2102 35.0342V39.3587H20.1091H22.008V37.0452V34.7318L22.161 34.5779L22.314 34.424H24.2235C25.4314 34.424 26.1646 34.4452 26.2332 34.4771C26.4864 34.615 26.4917 34.6946 26.4917 37.1036V39.3587H28.3378H30.184V28.4281V17.4975H24.1971H18.2102V21.8538C18.2102 24.9526 18.1943 26.242 18.1521 26.3216C17.9833 26.6558 17.5666 26.7301 17.3082 26.4701L17.1552 26.3162V21.562V16.8077L17.3082 16.6379L17.4611 16.4628L18.1996 16.4469L18.9381 16.4309L18.9592 15.6191C18.975 14.7383 19.0278 14.5738 19.2968 14.473C19.3759 14.4411 21.2907 14.4199 24.1813 14.4199H28.9286L29.108 14.6003ZM20.0142 15.9693L19.9983 16.4362H24.118H28.2324V15.9587V15.4811L24.1285 15.4918L20.03 15.5077L20.0142 15.9693ZM36.4084 24.6873V25.2444H37.7007H38.993V24.6873V24.1301H37.7007H36.4084V24.6873ZM31.239 32.8322V39.3587H32.3467H33.4492L33.465 38.0322L33.4808 36.7056L33.6285 36.5624L33.7709 36.4138L35.0738 36.3979C36.3978 36.382 36.5824 36.4032 36.7354 36.5889C36.7881 36.6473 36.8092 37.0293 36.8303 38.0003L36.8567 39.3322L37.9222 39.3481L38.993 39.3587V32.8322V26.3056H35.116H31.239V32.8322ZM23.063 37.422V39.3587H24.2498H25.4367V37.422V35.4852H24.2498H23.063V37.422ZM34.5094 38.4036V39.3587H35.1424H35.7754V38.4036V37.4485H35.1424H34.5094V38.4036Z" fill="#404040"/>
<path d="M37.4469 27.5682C37.5101 27.5788 37.6209 27.6478 37.6947 27.7221L37.8318 27.86V31.3939C37.8318 35.3311 37.8529 35.1082 37.468 35.2249C37.3045 35.2727 37.2412 35.2674 37.0988 35.1931C36.7719 35.0233 36.7771 35.087 36.7771 31.3992C36.7771 27.5735 36.7613 27.6956 37.1885 27.5841C37.2676 27.5629 37.3836 27.5576 37.4469 27.5682Z" fill="#404040"/>
<path d="M35.2867 27.5682C35.35 27.5788 35.4607 27.6478 35.5346 27.7221L35.6717 27.8601V31.3939C35.6717 35.3311 35.6928 35.1082 35.3078 35.2249C35.1443 35.2727 35.081 35.2674 34.9387 35.1931C34.6117 35.0233 34.617 35.0817 34.617 31.4417C34.617 28.1625 34.6328 27.8229 34.7963 27.6903C34.8965 27.6054 35.1443 27.5417 35.2867 27.5682Z" fill="#404040"/>
<path d="M33.1187 27.568C33.182 27.5787 33.2928 27.6476 33.3666 27.7219L33.5037 27.8599V31.3938C33.5037 35.3362 33.5248 35.108 33.1346 35.2248C32.9605 35.2778 32.9078 35.2725 32.7549 35.1823C32.6494 35.124 32.5545 35.0125 32.5176 34.9011C32.4385 34.6623 32.4226 28.2366 32.5017 27.9448C32.5334 27.8387 32.5914 27.7219 32.6283 27.6901C32.7285 27.6052 32.9764 27.5415 33.1187 27.568Z" fill="#404040"/>
<path d="M28.21 19.5879L28.3945 19.7736L28.3787 21.1054L28.3629 22.4426L28.2152 22.5699C28.0676 22.6973 28.0676 22.6973 26.7334 22.6973H25.4045L25.2621 22.5487L25.1197 22.4001V21.0683C25.1197 19.7311 25.1197 19.7311 25.2463 19.5826L25.3729 19.434L26.7018 19.4181L28.0254 19.4022L28.21 19.5879ZM26.1744 21.0524V21.636H26.7545H27.3346V21.0524V20.4687H26.7545H26.1744V21.0524Z" fill="#404040"/>
<path d="M23.1805 19.4924C23.2596 19.5348 23.3492 19.6144 23.3809 19.6728C23.4125 19.7311 23.4336 20.2883 23.4336 21.0789V22.3895L23.2807 22.5434L23.1277 22.6973H21.7988H20.4699L20.317 22.5434L20.1641 22.3895V21.1107C20.1641 19.7364 20.1852 19.6144 20.433 19.4818C20.6492 19.3703 22.9748 19.3756 23.1805 19.4924ZM21.2188 21.0524V21.636H21.7988H22.3789V21.0524V20.4687H21.7988H21.2188V21.0524Z" fill="#404040"/>
<path d="M28.2152 24.2047L28.3629 24.3321L28.3787 25.6692L28.3945 27.0011L28.21 27.1868L28.0307 27.3672H26.7861C25.4625 27.3672 25.299 27.3407 25.1725 27.1072C25.1408 27.0435 25.1197 26.4864 25.1197 25.6798V24.3586L25.2568 24.2154L25.3992 24.0774H26.7334C28.0676 24.0774 28.0676 24.0774 28.2152 24.2047ZM26.1744 25.7223V26.306H26.7545H27.3346V25.7223V25.1386H26.7545H26.1744V25.7223Z" fill="#404040"/>
<path d="M23.2965 24.2421L23.4336 24.4066V25.7119C23.4336 27.1286 23.423 27.1605 23.133 27.309C22.9695 27.3939 20.6387 27.3886 20.4541 27.3037C20.1852 27.1817 20.1641 27.0596 20.1641 25.6694V24.3854L20.317 24.2315L20.4699 24.0776H21.8146H23.1594L23.2965 24.2421ZM21.2188 25.7225V26.3062H21.7988H22.3789V25.7225V25.1388H21.7988H21.2188V25.7225Z" fill="#404040"/>
<path d="M18.0155 28.1103C18.2739 28.3173 18.2317 28.8054 17.9522 28.9593C17.6094 29.1397 17.1559 28.885 17.1559 28.5083C17.1559 28.0891 17.6833 27.845 18.0155 28.1103Z" fill="#404040"/>
<path d="M28.1217 28.7679C28.3695 28.9058 28.3854 29.0067 28.3906 30.3279C28.3906 31.6385 28.3643 31.803 28.1322 31.9303C28.0689 31.9622 27.5205 31.9834 26.7348 31.9834H25.448L25.2846 31.8454L25.1211 31.7075V30.3544V29.0014L25.274 28.8475L25.427 28.6936H26.7137C27.6734 28.6989 28.0268 28.7148 28.1217 28.7679ZM26.1758 30.3385V30.9222H26.7559H27.3359V30.3385V29.7548H26.7559H26.1758V30.3385Z" fill="#404040"/>
<path d="M23.1488 28.7467C23.4178 28.8528 23.4336 28.9377 23.4336 30.3544V31.6756L23.2807 31.8295L23.1277 31.9834H21.7988H20.4699L20.317 31.8295L20.1641 31.6756V30.365C20.1641 29.5691 20.1852 29.0173 20.2168 28.9536C20.3434 28.7201 20.5068 28.6936 21.8094 28.6989C22.4844 28.6989 23.0908 28.7201 23.1488 28.7467ZM21.2188 30.3385V30.9222H21.7988H22.3789V30.3385V29.7548H21.7988H21.2188V30.3385Z" fill="#404040"/>
<defs>
<filter id="filter0_dd_1933_36739" x="0" y="0" width="58" height="58" filterUnits="userSpaceOnUse" color-interpolation-filters="sRGB">
<feFlood flood-opacity="0" result="BackgroundImageFix"/>
<feColorMatrix in="SourceAlpha" type="matrix" values="0 0 0 0 0 0 0 0 0 0 0 0 0 0 0 0 0 0 127 0" result="hardAlpha"/>
<feMorphology radius="1" operator="dilate" in="SourceAlpha" result="effect1_dropShadow_1933_36739"/>
<feOffset dy="1"/>
<feGaussianBlur stdDeviation="1.5"/>
<feComposite in2="hardAlpha" operator="out"/>
<feColorMatrix type="matrix" values="0 0 0 0 0 0 0 0 0 0 0 0 0 0 0 0 0 0 0.15 0"/>
<feBlend mode="normal" in2="BackgroundImageFix" result="effect1_dropShadow_1933_36739"/>
<feColorMatrix in="SourceAlpha" type="matrix" values="0 0 0 0 0 0 0 0 0 0 0 0 0 0 0 0 0 0 127 0" result="hardAlpha"/>
<feOffset dy="1"/>
<feGaussianBlur stdDeviation="1"/>
<feComposite in2="hardAlpha" operator="out"/>
<feColorMatrix type="matrix" values="0 0 0 0 0 0 0 0 0 0 0 0 0 0 0 0 0 0 0.3 0"/>
<feBlend mode="normal" in2="effect1_dropShadow_1933_36739" result="effect2_dropShadow_1933_36739"/>
<feBlend mode="normal" in="SourceGraphic" in2="effect2_dropShadow_1933_36739" result="shape"/>
</filter>
</defs>
</svg>
