<svg width="58" height="58" viewBox="0 0 58 58" fill="none" xmlns="http://www.w3.org/2000/svg">
<g filter="url(#filter0_dd_181_11389)">
<rect x="4" y="3" width="50" height="50" rx="10" fill="#97144D"/>
</g>
<path fill-rule="evenodd" clip-rule="evenodd" d="M17.8708 14.0188C16.5962 14.3521 15.5496 15.391 15.1363 16.7331C15.0069 17.1533 14.9339 41.296 15.0603 41.8824C15.2023 42.5415 15.7682 43.0015 16.4351 42.9999C16.8399 42.9989 16.9373 42.9497 19.0203 41.6967C20.0054 41.1042 20.8625 40.6193 20.9251 40.6193C20.9876 40.6193 21.9694 41.1781 23.1066 41.8609C26.0985 43.6574 25.5278 43.6554 28.5004 41.8803C29.626 41.2081 30.6043 40.647 30.6745 40.6335C30.7597 40.617 31.4175 40.9793 32.6558 41.7247C35.1269 43.2122 35.3505 43.2722 36.0843 42.6441C36.6037 42.1996 36.5614 43.003 36.563 33.5482L36.5643 25.1635L38.0457 25.1623C40.8242 25.16 41.665 24.7227 41.9413 23.1363C42.0559 22.4787 41.9887 17.1627 41.8605 16.7331C41.464 15.4049 40.4655 14.4004 39.1923 14.0491C38.5911 13.8831 18.4987 13.8547 17.8708 14.0188ZM34.8955 15.9623C34.8777 16.0087 34.7992 16.2356 34.721 16.4662L34.5788 16.8858L34.5626 28.6873L34.5462 40.4888L33.0882 39.6162C30.6985 38.1859 30.7282 38.184 27.7512 39.9653L25.8107 41.1264L23.913 39.9793C20.8683 38.1391 20.9431 38.1423 18.3215 39.7372C17.6346 40.1552 17.0592 40.4971 17.0431 40.4971C17.0269 40.4971 17.0209 35.2808 17.0298 28.9053L17.046 17.3134L17.1765 17.031C17.4454 16.4498 17.9699 16.0453 18.5907 15.9407C19.1525 15.8461 34.9321 15.8669 34.8955 15.9623ZM38.9669 16.1215C39.3206 16.3005 39.6461 16.6459 39.8242 17.031C40.022 17.4588 40.0645 22.7308 39.872 22.9686L39.7519 23.117L38.1554 23.1352L36.5589 23.1533L36.5769 20.1417C36.597 16.7755 36.5836 16.8829 37.0407 16.4051C37.518 15.906 38.3108 15.7894 38.9669 16.1215ZM20.8448 21.3414C20.0537 21.6265 19.9531 22.7312 20.6811 23.1404C20.9868 23.3122 29.1507 23.3473 29.4777 23.1781C30.1409 22.8352 30.1867 21.8618 29.5596 21.437L29.3342 21.2843L25.206 21.2709C21.8313 21.2598 21.0354 21.2727 20.8448 21.3414ZM20.8031 26.5755C20.0924 26.8618 19.9741 27.8445 20.5932 28.3169L20.824 28.4929L25.0069 28.5094C29.1428 28.5257 29.1927 28.5245 29.4537 28.3982C30.1163 28.0775 30.204 27.1546 29.6146 26.705L29.3958 26.538L25.1758 26.526C22.4556 26.5182 20.9015 26.5358 20.8031 26.5755ZM20.9327 31.8835C20.1265 32.0739 19.9278 33.178 20.6086 33.6855C20.8064 33.833 29.0887 33.9131 29.4319 33.7709C30.2742 33.422 30.1591 32.1323 29.264 31.8893C28.9761 31.8112 21.2618 31.8059 20.9327 31.8835Z" fill="white"/>
<defs>
<filter id="filter0_dd_181_11389" x="0" y="0" width="58" height="58" filterUnits="userSpaceOnUse" color-interpolation-filters="sRGB">
<feFlood flood-opacity="0" result="BackgroundImageFix"/>
<feColorMatrix in="SourceAlpha" type="matrix" values="0 0 0 0 0 0 0 0 0 0 0 0 0 0 0 0 0 0 127 0" result="hardAlpha"/>
<feMorphology radius="1" operator="dilate" in="SourceAlpha" result="effect1_dropShadow_181_11389"/>
<feOffset dy="1"/>
<feGaussianBlur stdDeviation="1.5"/>
<feComposite in2="hardAlpha" operator="out"/>
<feColorMatrix type="matrix" values="0 0 0 0 0 0 0 0 0 0 0 0 0 0 0 0 0 0 0.15 0"/>
<feBlend mode="normal" in2="BackgroundImageFix" result="effect1_dropShadow_181_11389"/>
<feColorMatrix in="SourceAlpha" type="matrix" values="0 0 0 0 0 0 0 0 0 0 0 0 0 0 0 0 0 0 127 0" result="hardAlpha"/>
<feOffset dy="1"/>
<feGaussianBlur stdDeviation="1"/>
<feComposite in2="hardAlpha" operator="out"/>
<feColorMatrix type="matrix" values="0 0 0 0 0 0 0 0 0 0 0 0 0 0 0 0 0 0 0.3 0"/>
<feBlend mode="normal" in2="effect1_dropShadow_181_11389" result="effect2_dropShadow_181_11389"/>
<feBlend mode="normal" in="SourceGraphic" in2="effect2_dropShadow_181_11389" result="shape"/>
</filter>
</defs>
</svg>
