<svg width="58" height="58" viewBox="0 0 58 58" fill="none" xmlns="http://www.w3.org/2000/svg">
<g filter="url(#filter0_dd_978_27945)">
<rect x="4" y="3" width="50" height="50" rx="10" fill="#181818"/>
</g>
<path fill-rule="evenodd" clip-rule="evenodd" d="M17.8703 14.0188C16.5958 14.3521 15.5491 15.391 15.1359 16.7331C15.0064 17.1533 14.9334 41.296 15.0598 41.8824C15.2018 42.5415 15.7677 43.0015 16.4346 42.9999C16.8394 42.9989 16.9368 42.9497 19.0198 41.6967C20.0049 41.1042 20.862 40.6193 20.9246 40.6193C20.9871 40.6193 21.9689 41.1781 23.1061 41.8609C26.098 43.6574 25.5273 43.6554 28.4999 41.8803C29.6255 41.2081 30.6038 40.647 30.674 40.6335C30.7592 40.617 31.417 40.9793 32.6553 41.7247C35.1264 43.2122 35.35 43.2722 36.0838 42.6441C36.6032 42.1996 36.5609 43.003 36.5625 33.5482L36.5638 25.1635L38.0452 25.1623C40.8237 25.16 41.6646 24.7227 41.9408 23.1363C42.0554 22.4787 41.9882 17.1627 41.86 16.7331C41.4635 15.4049 40.465 14.4004 39.1919 14.0491C38.5906 13.8831 18.4982 13.8547 17.8703 14.0188ZM34.895 15.9623C34.8772 16.0087 34.7987 16.2356 34.7205 16.4662L34.5783 16.8858L34.5621 28.6873L34.5457 40.4888L33.0877 39.6162C30.698 38.1859 30.7277 38.184 27.7507 39.9653L25.8102 41.1264L23.9125 39.9793C20.8678 38.1391 20.9426 38.1423 18.3211 39.7372C17.6341 40.1552 17.0588 40.4971 17.0426 40.4971C17.0264 40.4971 17.0204 35.2808 17.0293 28.9053L17.0455 17.3134L17.176 17.031C17.4449 16.4498 17.9694 16.0453 18.5902 15.9407C19.152 15.8461 34.9316 15.8669 34.895 15.9623ZM38.9664 16.1215C39.3201 16.3005 39.6456 16.6459 39.8238 17.031C40.0215 17.4588 40.064 22.7308 39.8715 22.9686L39.7514 23.117L38.1549 23.1352L36.5584 23.1533L36.5764 20.1417C36.5965 16.7755 36.5831 16.8829 37.0402 16.4051C37.5175 15.906 38.3103 15.7894 38.9664 16.1215ZM20.8443 21.3414C20.0532 21.6265 19.9526 22.7312 20.6806 23.1404C20.9863 23.3122 29.1502 23.3473 29.4772 23.1781C30.1404 22.8352 30.1862 21.8618 29.5591 21.437L29.3337 21.2843L25.2055 21.2709C21.8308 21.2598 21.0349 21.2727 20.8443 21.3414ZM20.8026 26.5755C20.092 26.8618 19.9736 27.8445 20.5927 28.3169L20.8235 28.4929L25.0064 28.5094C29.1424 28.5257 29.1922 28.5245 29.4532 28.3982C30.1158 28.0775 30.2035 27.1546 29.6141 26.705L29.3953 26.538L25.1753 26.526C22.4551 26.5182 20.901 26.5358 20.8026 26.5755ZM20.9322 31.8835C20.126 32.0739 19.9273 33.178 20.6081 33.6855C20.8059 33.833 29.0882 33.9131 29.4314 33.7709C30.2738 33.422 30.1587 32.1323 29.2636 31.8893C28.9756 31.8112 21.2613 31.8059 20.9322 31.8835Z" fill="white"/>
<defs>
<filter id="filter0_dd_978_27945" x="0" y="0" width="58" height="58" filterUnits="userSpaceOnUse" color-interpolation-filters="sRGB">
<feFlood flood-opacity="0" result="BackgroundImageFix"/>
<feColorMatrix in="SourceAlpha" type="matrix" values="0 0 0 0 0 0 0 0 0 0 0 0 0 0 0 0 0 0 127 0" result="hardAlpha"/>
<feMorphology radius="1" operator="dilate" in="SourceAlpha" result="effect1_dropShadow_978_27945"/>
<feOffset dy="1"/>
<feGaussianBlur stdDeviation="1.5"/>
<feComposite in2="hardAlpha" operator="out"/>
<feColorMatrix type="matrix" values="0 0 0 0 0 0 0 0 0 0 0 0 0 0 0 0 0 0 0.15 0"/>
<feBlend mode="normal" in2="BackgroundImageFix" result="effect1_dropShadow_978_27945"/>
<feColorMatrix in="SourceAlpha" type="matrix" values="0 0 0 0 0 0 0 0 0 0 0 0 0 0 0 0 0 0 127 0" result="hardAlpha"/>
<feOffset dy="1"/>
<feGaussianBlur stdDeviation="1"/>
<feComposite in2="hardAlpha" operator="out"/>
<feColorMatrix type="matrix" values="0 0 0 0 0 0 0 0 0 0 0 0 0 0 0 0 0 0 0.3 0"/>
<feBlend mode="normal" in2="effect1_dropShadow_978_27945" result="effect2_dropShadow_978_27945"/>
<feBlend mode="normal" in="SourceGraphic" in2="effect2_dropShadow_978_27945" result="shape"/>
</filter>
</defs>
</svg>
