<svg width="58" height="58" viewBox="0 0 58 58" fill="none" xmlns="http://www.w3.org/2000/svg">
<g filter="url(#filter0_dd_181_11398)">
<rect x="4" y="3" width="50" height="50" rx="10" fill="#97144D"/>
</g>
<path fill-rule="evenodd" clip-rule="evenodd" d="M35.5488 13.1824C34.8708 13.3968 34.7871 13.4631 34.7871 13.7863C34.7871 14.2548 35.0675 14.3286 35.9004 14.0793C36.6688 13.8493 36.9621 13.8897 37.3298 14.2765C37.5896 14.5499 43.7121 34.7224 43.6772 35.1901C43.653 35.5131 43.5371 35.7246 43.2786 35.9177C43.0721 36.0718 26.1917 41.1989 26.0424 41.1528C26.0019 41.1403 25.8983 41.1147 25.8121 41.0959C25.2788 40.9795 25.3078 41.0503 23.9117 36.4494C23.2499 34.2682 22.6833 32.4368 22.6526 32.3795C22.4531 32.0067 21.7793 32.1704 21.7793 32.5917C21.7793 32.811 24.2493 40.8552 24.4046 41.1417C24.5793 41.464 24.9144 41.7626 25.2983 41.938L25.5586 42.057L22.5657 42.0427L19.5727 42.0285L19.3659 41.8707C18.9329 41.5404 18.9647 42.3205 18.9812 32.4178L18.9961 23.5287L20.1577 27.3587C20.7965 29.4651 21.3609 31.2348 21.4118 31.2912C21.6576 31.5633 22.1894 31.3398 22.1894 30.9645C22.1894 30.8204 20.3748 24.6831 20.1523 24.0747C20.1335 24.0235 20.2544 24.1077 20.4209 24.2618C21.443 25.208 23.0482 24.9353 23.6962 23.7053L23.8594 23.3957L23.8769 20.5539L23.8944 17.7121L28.7246 16.2511C31.3813 15.4476 33.6347 14.7566 33.732 14.7156C34.1379 14.545 34.0798 13.9489 33.6467 13.8402C33.559 13.8182 32.0649 14.2443 29.4359 15.0413C24.9703 16.395 25.2212 16.3306 25.1363 16.1447C25.0346 15.9223 24.549 15.42 24.2503 15.2283C22.3318 13.9972 19.7871 15.3789 19.7871 17.6516V17.9662L19.4103 18.0916C18.7481 18.312 18.3231 18.7194 18.1058 19.3423C18.0052 19.6306 18 20.1871 18 30.5734V41.5012L18.1543 41.8305C18.3544 42.2572 18.6495 42.5792 19.0369 42.7938L19.3476 42.966H28.6348H37.9219L38.1735 42.8316C39.0118 42.384 39.5443 41.2508 39.0858 40.8902C38.7673 40.6396 38.4549 40.7767 38.3249 41.224C38.213 41.6092 37.8766 41.9758 37.5882 42.0273C37.4817 42.0463 34.9722 42.0544 32.0116 42.0452L26.6286 42.0285L32.4217 40.2748C35.6079 39.3102 38.2478 38.5098 38.288 38.496C38.3436 38.4771 38.3613 38.6203 38.3613 39.0883C38.3613 39.8683 38.5547 40.0981 39.0292 39.8819C39.2405 39.7856 39.2627 39.7042 39.2971 38.9011L39.3281 38.1759L40.7636 37.7423C43.9934 36.7668 44.066 36.7325 44.4333 36.0077C44.8222 35.2404 44.8376 35.3259 43.5455 31.0892C43.0412 29.4359 41.6955 24.9982 40.5551 21.2277C39.3177 17.1372 38.4068 14.2236 38.2966 14.0037C37.8239 13.0611 36.8515 12.7705 35.5488 13.1824ZM23.4607 15.8954C23.6282 15.971 23.8913 16.1589 24.0454 16.313L24.3255 16.5931L23.954 16.7025C23.5859 16.811 23.5814 16.8108 23.4565 16.6935C22.8206 16.0962 21.6704 16.4541 21.4286 17.3244C21.3435 17.6309 21.3495 22.0873 21.4353 22.2757C21.5172 22.4554 21.7684 22.5657 21.9767 22.5135C22.307 22.4306 22.3067 22.4336 22.3067 19.8963C22.3067 17.6437 22.3106 17.5617 22.4238 17.4484C22.5664 17.3058 22.7016 17.2993 22.844 17.4282C22.9712 17.5434 23.0126 22.8444 22.8888 23.1721C22.5236 24.1389 21.0725 24.0792 20.7813 23.0854C20.6404 22.6046 20.7335 17.2292 20.8886 16.8918C21.3455 15.8973 22.4861 15.4555 23.4607 15.8954ZM19.7842 20.8908L19.7812 22.8097L19.3757 21.4914C18.9248 20.0258 18.8993 19.8297 19.1117 19.4673C19.2278 19.2691 19.6236 18.9723 19.7724 18.9719C19.7805 18.9719 19.7858 19.8354 19.7842 20.8908ZM31.6523 27.5862C28.3974 28.5782 25.5413 29.4464 25.3054 29.5155C24.6133 29.7184 24.5049 30.5039 25.1678 30.513C25.2719 30.5144 36.3431 27.1944 37.793 26.7269C38.2837 26.5687 38.4379 26.2494 38.1813 25.9231C37.9784 25.6653 37.8368 25.7013 31.6523 27.5862ZM32.5313 29.9695C29.3086 30.951 26.4517 31.8219 26.1826 31.9048C25.9135 31.9878 25.6433 32.1095 25.582 32.1752C25.3298 32.4459 25.5454 32.9172 25.9214 32.9172C26.0769 32.9172 36.8212 29.7109 38.6161 29.1288C39.2027 28.9386 39.1385 28.1496 38.5387 28.1781C38.4572 28.182 35.7539 28.9881 32.5313 29.9695ZM32.707 32.5714C28.5287 33.8436 26.354 34.532 26.3056 34.5978C26.0995 34.878 26.3228 35.3781 26.6541 35.3781C26.7642 35.3781 38.9062 31.7169 39.402 31.5342C39.9737 31.3235 39.8816 30.6233 39.2842 30.6382C39.1401 30.6418 36.3684 31.4565 32.707 32.5714ZM38.8594 33.3574C38.3115 33.5276 35.5034 34.3821 32.6192 35.2563C29.7348 36.1304 27.3058 36.8732 27.2215 36.9069C26.773 37.0856 26.9045 37.7805 27.3867 37.7805C27.5418 37.7805 38.1798 34.6056 40.0763 33.9933C40.5209 33.8498 40.6517 33.4497 40.352 33.15C40.1831 32.9812 39.979 33.0096 38.8594 33.3574Z" fill="white"/>
<path d="M26.6114 19.6583L30.9943 18.4668L30.9968 18.4758C30.846 18.9411 30.7576 19.1919 30.7316 19.2281L29.5607 19.5464C29.7725 19.6897 29.9438 19.8877 30.0744 20.1404L31.3228 19.8011C31.3388 19.7999 31.348 19.8039 31.3505 19.813C31.1842 20.3052 31.098 20.5521 31.092 20.5538L30.281 20.7742C30.321 20.9933 30.2878 21.2793 30.1815 21.6321C30.0153 22.0045 29.8305 22.2668 29.6273 22.4193C29.257 22.737 28.8775 22.9486 28.4887 23.0543L28.4912 23.0634C28.4994 23.0935 29.6604 23.8906 31.9741 25.4545L30.8123 25.7703C28.5605 24.2544 27.4334 23.4919 27.4309 23.4828L27.2673 22.8811L27.2703 22.856C27.4279 22.8358 27.6085 22.7981 27.812 22.7427C28.7718 22.4818 29.2846 22.0104 29.3504 21.3285C29.3622 21.2281 29.355 21.1296 29.3288 21.0331L26.7227 21.7416C26.7105 21.7449 26.7028 21.7405 26.6996 21.7284C26.8749 21.2337 26.9657 20.9856 26.9718 20.9839L29.0402 20.4216L29.0378 20.4126C28.8545 20.2065 28.5748 20.0833 28.1985 20.0431C27.9342 20.0307 27.7048 20.051 27.5104 20.1038L26.3532 20.4184L26.3471 20.3958C26.5142 19.9066 26.6023 19.6608 26.6114 19.6583Z" fill="white"/>
<defs>
<filter id="filter0_dd_181_11398" x="0" y="0" width="58" height="58" filterUnits="userSpaceOnUse" color-interpolation-filters="sRGB">
<feFlood flood-opacity="0" result="BackgroundImageFix"/>
<feColorMatrix in="SourceAlpha" type="matrix" values="0 0 0 0 0 0 0 0 0 0 0 0 0 0 0 0 0 0 127 0" result="hardAlpha"/>
<feMorphology radius="1" operator="dilate" in="SourceAlpha" result="effect1_dropShadow_181_11398"/>
<feOffset dy="1"/>
<feGaussianBlur stdDeviation="1.5"/>
<feComposite in2="hardAlpha" operator="out"/>
<feColorMatrix type="matrix" values="0 0 0 0 0 0 0 0 0 0 0 0 0 0 0 0 0 0 0.15 0"/>
<feBlend mode="normal" in2="BackgroundImageFix" result="effect1_dropShadow_181_11398"/>
<feColorMatrix in="SourceAlpha" type="matrix" values="0 0 0 0 0 0 0 0 0 0 0 0 0 0 0 0 0 0 127 0" result="hardAlpha"/>
<feOffset dy="1"/>
<feGaussianBlur stdDeviation="1"/>
<feComposite in2="hardAlpha" operator="out"/>
<feColorMatrix type="matrix" values="0 0 0 0 0 0 0 0 0 0 0 0 0 0 0 0 0 0 0.3 0"/>
<feBlend mode="normal" in2="effect1_dropShadow_181_11398" result="effect2_dropShadow_181_11398"/>
<feBlend mode="normal" in="SourceGraphic" in2="effect2_dropShadow_181_11398" result="shape"/>
</filter>
</defs>
</svg>
