<svg width="58" height="58" viewBox="0 0 58 58" fill="none" xmlns="http://www.w3.org/2000/svg">
<g filter="url(#filter0_dd_181_11370)">
<rect x="4" y="3" width="50" height="50" rx="10" fill="white"/>
</g>
<path d="M28 26C25.7909 26 24 24.2091 24 22C24 19.7909 25.7909 18 28 18C30.2091 18 32 19.7909 32 22C32 24.2091 30.2091 26 28 26Z" stroke="#404040" stroke-width="2"/>
<path d="M19.0007 35.1992C19.3883 30.4265 23.2619 28 27.9833 28C32.7712 28 36.7049 30.2932 36.9979 35.2C37.0096 35.3955 36.9979 36 36.2467 36C32.5411 36 27.0347 36 19.7275 36C19.4767 36 18.9795 35.4592 19.0007 35.1992Z" stroke="#404040" stroke-width="2"/>
<path d="M43.8722 25.2097C43.9858 25.2634 44.0237 25.3575 43.9858 25.4919C43.7713 26.2043 43.4243 26.836 42.9448 27.3871C42.8691 27.4812 42.7808 27.5013 42.6798 27.4476L41.8659 26.9435C41.5252 27.2527 41.1404 27.4879 40.7114 27.6492V28.6371C40.7114 28.7715 40.6546 28.8522 40.541 28.879C39.847 29.0403 39.1593 29.0403 38.4779 28.879C38.3517 28.8522 38.2886 28.7715 38.2886 28.6371V27.6492C37.8596 27.4879 37.4748 27.2527 37.1341 26.9435L36.3391 27.4476C36.2256 27.5013 36.1309 27.4812 36.0552 27.3871C35.5757 26.836 35.2287 26.2043 35.0142 25.4919C34.9763 25.371 35.0142 25.2769 35.1278 25.2097L35.9227 24.7056C35.8849 24.4772 35.8659 24.2419 35.8659 24C35.8659 23.7581 35.8849 23.5228 35.9227 23.2944L35.1278 22.7903C35.0142 22.7366 34.9763 22.6425 35.0142 22.5081C35.2287 21.7957 35.5757 21.164 36.0552 20.6129C36.1309 20.5188 36.2256 20.5054 36.3391 20.5726L37.1341 21.0565C37.4748 20.7473 37.8596 20.5121 38.2886 20.3508V19.3629C38.2886 19.2285 38.3454 19.1478 38.459 19.121C39.153 18.9597 39.847 18.9597 40.541 19.121C40.6546 19.1478 40.7114 19.2285 40.7114 19.3629V20.3508C41.1404 20.5121 41.5252 20.7473 41.8659 21.0565L42.6609 20.5524C42.7744 20.4987 42.8691 20.5188 42.9448 20.6129C43.4243 21.164 43.7713 21.7957 43.9858 22.5081C44.0237 22.6425 43.9858 22.7366 43.8722 22.7903L43.0773 23.2944C43.153 23.7648 43.153 24.2352 43.0773 24.7056L43.8722 25.2097ZM38.4211 25.1492C38.724 25.4583 39.0836 25.6129 39.5 25.6129C39.9164 25.6129 40.2697 25.4583 40.5599 25.1492C40.8628 24.8266 41.0142 24.4435 41.0142 24C41.0142 23.5565 40.8628 23.1801 40.5599 22.871C40.2697 22.5484 39.9164 22.3871 39.5 22.3871C39.0836 22.3871 38.724 22.5484 38.4211 22.871C38.1309 23.1801 37.9858 23.5565 37.9858 24C37.9858 24.4435 38.1309 24.8266 38.4211 25.1492Z" stroke="#404040"/>
<defs>
<filter id="filter0_dd_181_11370" x="0" y="0" width="58" height="58" filterUnits="userSpaceOnUse" color-interpolation-filters="sRGB">
<feFlood flood-opacity="0" result="BackgroundImageFix"/>
<feColorMatrix in="SourceAlpha" type="matrix" values="0 0 0 0 0 0 0 0 0 0 0 0 0 0 0 0 0 0 127 0" result="hardAlpha"/>
<feMorphology radius="1" operator="dilate" in="SourceAlpha" result="effect1_dropShadow_181_11370"/>
<feOffset dy="1"/>
<feGaussianBlur stdDeviation="1.5"/>
<feComposite in2="hardAlpha" operator="out"/>
<feColorMatrix type="matrix" values="0 0 0 0 0 0 0 0 0 0 0 0 0 0 0 0 0 0 0.15 0"/>
<feBlend mode="normal" in2="BackgroundImageFix" result="effect1_dropShadow_181_11370"/>
<feColorMatrix in="SourceAlpha" type="matrix" values="0 0 0 0 0 0 0 0 0 0 0 0 0 0 0 0 0 0 127 0" result="hardAlpha"/>
<feOffset dy="1"/>
<feGaussianBlur stdDeviation="1"/>
<feComposite in2="hardAlpha" operator="out"/>
<feColorMatrix type="matrix" values="0 0 0 0 0 0 0 0 0 0 0 0 0 0 0 0 0 0 0.3 0"/>
<feBlend mode="normal" in2="effect1_dropShadow_181_11370" result="effect2_dropShadow_181_11370"/>
<feBlend mode="normal" in="SourceGraphic" in2="effect2_dropShadow_181_11370" result="shape"/>
</filter>
</defs>
</svg>
