<svg width="58" height="58" viewBox="0 0 58 58" fill="none" xmlns="http://www.w3.org/2000/svg">
<g filter="url(#filter0_dd_181_11395)">
<rect x="4" y="3" width="50" height="50" rx="10" fill="#97144D"/>
</g>
<path fill-rule="evenodd" clip-rule="evenodd" d="M19.9069 15.1075C18.998 15.4347 18.4137 16.0611 18.1228 17.02L18 17.4247V28.5035V39.5823L18.1201 39.9778C18.3421 40.7093 18.797 41.3138 19.3779 41.6495C20.032 42.0274 19.3051 41.9995 28.5002 41.9995H36.7902L37.1479 41.8667C37.9812 41.5574 38.5686 40.909 38.8663 39.9699L39 39.5481V30.296C39 22.7442 38.9884 21.0135 38.937 20.8787C38.8732 20.7117 33.828 15.2019 33.6241 15.0767C33.4283 14.9564 20.2445 14.986 19.9069 15.1075ZM32.5496 18.6319L32.5641 20.6747L32.6959 20.9713C32.8513 21.3212 33.2158 21.7167 33.5311 21.8778C33.7484 21.9888 33.8199 21.9932 35.6519 22.0082L37.5479 22.0236L37.535 30.6804C37.5232 38.5997 37.5154 39.3536 37.4433 39.5291C37.3272 39.8118 37.0462 40.1316 36.7921 40.2699L36.5687 40.3916H28.4881H20.4075L20.1841 40.2699C19.93 40.1316 19.6489 39.8118 19.5328 39.5291C19.4126 39.2365 19.4114 17.7735 19.5315 17.4814C19.7085 17.0511 20.0839 16.7149 20.4672 16.6436C20.5917 16.6204 23.3579 16.5986 26.6143 16.5952L32.5351 16.589L32.5496 18.6319ZM35.8766 19.7748L36.4241 20.3848H35.2783C34.4507 20.3848 34.1167 20.3672 34.0754 20.3215C34.0341 20.2759 34.0181 19.9137 34.0181 19.0239V17.7895L34.6736 18.4771C35.0342 18.8554 35.5755 19.4393 35.8766 19.7748ZM22.9672 27.6613C22.7993 27.7744 22.6264 28.1216 22.6264 28.3453C22.6264 28.5691 22.7993 28.9163 22.9672 29.0294C23.2205 29.2002 33.6085 29.1966 33.8588 29.0256C34.2891 28.7314 34.2891 27.9592 33.8588 27.665C33.6085 27.4941 23.2205 27.4904 22.9672 27.6613ZM22.9672 30.8244C22.7993 30.9376 22.6264 31.2848 22.6264 31.5085C22.6264 31.7322 22.7993 32.0794 22.9672 32.1925C23.2092 32.3557 31.7484 32.3604 31.9864 32.1974C32.431 31.893 32.431 31.124 31.9864 30.8195C31.7484 30.6565 23.2092 30.6612 22.9672 30.8244ZM22.9672 33.9875C22.7993 34.1007 22.6264 34.4479 22.6264 34.6716C22.6264 34.8954 22.7993 35.2425 22.9672 35.3556C23.1226 35.4604 23.1953 35.462 28.0012 35.4622L32.8777 35.4624L33.0785 35.2553C33.3837 34.9404 33.3837 34.4028 33.0785 34.0879L32.8777 33.8809L28.0012 33.881C23.1953 33.8812 23.1226 33.8827 22.9672 33.9875Z" fill="white"/>
<defs>
<filter id="filter0_dd_181_11395" x="0" y="0" width="58" height="58" filterUnits="userSpaceOnUse" color-interpolation-filters="sRGB">
<feFlood flood-opacity="0" result="BackgroundImageFix"/>
<feColorMatrix in="SourceAlpha" type="matrix" values="0 0 0 0 0 0 0 0 0 0 0 0 0 0 0 0 0 0 127 0" result="hardAlpha"/>
<feMorphology radius="1" operator="dilate" in="SourceAlpha" result="effect1_dropShadow_181_11395"/>
<feOffset dy="1"/>
<feGaussianBlur stdDeviation="1.5"/>
<feComposite in2="hardAlpha" operator="out"/>
<feColorMatrix type="matrix" values="0 0 0 0 0 0 0 0 0 0 0 0 0 0 0 0 0 0 0.15 0"/>
<feBlend mode="normal" in2="BackgroundImageFix" result="effect1_dropShadow_181_11395"/>
<feColorMatrix in="SourceAlpha" type="matrix" values="0 0 0 0 0 0 0 0 0 0 0 0 0 0 0 0 0 0 127 0" result="hardAlpha"/>
<feOffset dy="1"/>
<feGaussianBlur stdDeviation="1"/>
<feComposite in2="hardAlpha" operator="out"/>
<feColorMatrix type="matrix" values="0 0 0 0 0 0 0 0 0 0 0 0 0 0 0 0 0 0 0.3 0"/>
<feBlend mode="normal" in2="effect1_dropShadow_181_11395" result="effect2_dropShadow_181_11395"/>
<feBlend mode="normal" in="SourceGraphic" in2="effect2_dropShadow_181_11395" result="shape"/>
</filter>
</defs>
</svg>
