<svg width="58" height="58" viewBox="0 0 58 58" fill="none" xmlns="http://www.w3.org/2000/svg">
<g filter="url(#filter0_dd_4379_69346)">
<rect x="4" y="3" width="50" height="50" rx="10" fill="#404040"/>
</g>
<path fill-rule="evenodd" clip-rule="evenodd" d="M19.9069 14.1075C18.998 14.4347 18.4137 15.0611 18.1228 16.02L18 16.4247V27.5035V38.5823L18.1201 38.9778C18.3421 39.7093 18.797 40.3138 19.3779 40.6495C20.032 41.0274 19.3051 40.9995 28.5002 40.9995H36.7902L37.1479 40.8667C37.9812 40.5574 38.5686 39.909 38.8663 38.9699L39 38.5481V29.296C39 21.7442 38.9884 20.0135 38.937 19.8787C38.8732 19.7117 33.828 14.2019 33.6241 14.0767C33.4283 13.9564 20.2445 13.986 19.9069 14.1075ZM32.5496 17.6319L32.5641 19.6747L32.6959 19.9713C32.8513 20.3212 33.2158 20.7167 33.5311 20.8778C33.7484 20.9888 33.8199 20.9932 35.6519 21.0082L37.5479 21.0236L37.535 29.6804C37.5232 37.5997 37.5154 38.3536 37.4433 38.5291C37.3272 38.8118 37.0462 39.1316 36.7921 39.2699L36.5687 39.3916H28.4881H20.4075L20.1841 39.2699C19.93 39.1316 19.6489 38.8118 19.5328 38.5291C19.4126 38.2365 19.4114 16.7735 19.5315 16.4814C19.7085 16.0511 20.0839 15.7149 20.4672 15.6436C20.5917 15.6204 23.3579 15.5986 26.6143 15.5952L32.5351 15.589L32.5496 17.6319ZM35.8766 18.7748L36.4241 19.3848H35.2783C34.4507 19.3848 34.1167 19.3672 34.0754 19.3215C34.0341 19.2759 34.0181 18.9137 34.0181 18.0239V16.7895L34.6736 17.4771C35.0342 17.8554 35.5755 18.4393 35.8766 18.7748ZM22.9672 26.6613C22.7993 26.7744 22.6264 27.1216 22.6264 27.3453C22.6264 27.5691 22.7993 27.9163 22.9672 28.0294C23.2205 28.2002 33.6085 28.1966 33.8588 28.0256C34.2891 27.7314 34.2891 26.9592 33.8588 26.665C33.6085 26.4941 23.2205 26.4904 22.9672 26.6613ZM22.9672 29.8244C22.7993 29.9376 22.6264 30.2848 22.6264 30.5085C22.6264 30.7322 22.7993 31.0794 22.9672 31.1925C23.2092 31.3557 31.7484 31.3604 31.9864 31.1974C32.431 30.893 32.431 30.124 31.9864 29.8195C31.7484 29.6565 23.2092 29.6612 22.9672 29.8244ZM22.9672 32.9875C22.7993 33.1007 22.6264 33.4479 22.6264 33.6716C22.6264 33.8954 22.7993 34.2425 22.9672 34.3556C23.1226 34.4604 23.1953 34.462 28.0012 34.4622L32.8777 34.4624L33.0785 34.2553C33.3837 33.9404 33.3837 33.4028 33.0785 33.0879L32.8777 32.8809L28.0012 32.881C23.1953 32.8812 23.1226 32.8827 22.9672 32.9875Z" fill="white"/>
<defs>
<filter id="filter0_dd_4379_69346" x="0" y="0" width="58" height="58" filterUnits="userSpaceOnUse" color-interpolation-filters="sRGB">
<feFlood flood-opacity="0" result="BackgroundImageFix"/>
<feColorMatrix in="SourceAlpha" type="matrix" values="0 0 0 0 0 0 0 0 0 0 0 0 0 0 0 0 0 0 127 0" result="hardAlpha"/>
<feMorphology radius="1" operator="dilate" in="SourceAlpha" result="effect1_dropShadow_4379_69346"/>
<feOffset dy="1"/>
<feGaussianBlur stdDeviation="1.5"/>
<feComposite in2="hardAlpha" operator="out"/>
<feColorMatrix type="matrix" values="0 0 0 0 0 0 0 0 0 0 0 0 0 0 0 0 0 0 0.15 0"/>
<feBlend mode="normal" in2="BackgroundImageFix" result="effect1_dropShadow_4379_69346"/>
<feColorMatrix in="SourceAlpha" type="matrix" values="0 0 0 0 0 0 0 0 0 0 0 0 0 0 0 0 0 0 127 0" result="hardAlpha"/>
<feOffset dy="1"/>
<feGaussianBlur stdDeviation="1"/>
<feComposite in2="hardAlpha" operator="out"/>
<feColorMatrix type="matrix" values="0 0 0 0 0 0 0 0 0 0 0 0 0 0 0 0 0 0 0.3 0"/>
<feBlend mode="normal" in2="effect1_dropShadow_4379_69346" result="effect2_dropShadow_4379_69346"/>
<feBlend mode="normal" in="SourceGraphic" in2="effect2_dropShadow_4379_69346" result="shape"/>
</filter>
</defs>
</svg>
