<svg width="58" height="58" viewBox="0 0 58 58" fill="none" xmlns="http://www.w3.org/2000/svg">
<g filter="url(#filter0_dd_181_11366)">
<rect x="4" y="3" width="50" height="50" rx="10" fill="white"/>
</g>
<path d="M38.0234 30.8438L38.5379 29.9863L38.5245 29.9782L38.5108 29.9706L38.0234 30.8438ZM36.3438 29.9062L35.3648 29.7023L35.2149 30.4214L35.8564 30.7794L36.3438 29.9062ZM36.3438 27.1328L35.8564 26.2596L35.2149 26.6176L35.3648 27.3368L36.3438 27.1328ZM38.0234 26.1953L38.5108 27.0685L38.5245 27.0609L38.5379 27.0528L38.0234 26.1953ZM38.2188 25.6484L37.2624 25.9407L37.2747 25.9808L37.2903 26.0198L38.2188 25.6484ZM36.1094 21.9375L36.8568 21.2731L36.8373 21.2512L36.8165 21.2304L36.1094 21.9375ZM35.5234 21.8594L36.0108 22.7326L36.0245 22.7249L36.0379 22.7169L35.5234 21.8594ZM33.8438 22.7969L33.2036 23.5651L33.7313 24.0049L34.3311 23.6701L33.8438 22.7969ZM31.5 21.4297H30.5V22.1301L31.1583 22.3695L31.5 21.4297ZM31.1094 19.0859L30.873 20.0576L30.9087 20.0663L30.945 20.0723L31.1094 19.0859ZM26.8516 19.0859L27.016 20.0723L27.0453 20.0674L27.0744 20.0608L26.8516 19.0859ZM26.5 21.4297L26.8285 22.3742L27.5 22.1406V21.4297H26.5ZM24.1172 22.8359L23.6146 23.7004L24.2404 24.0643L24.7816 23.5833L24.1172 22.8359ZM22.4375 21.8594L21.923 22.7169L21.9349 22.7239L22.4375 21.8594ZM21.8516 21.9375L21.1445 21.2304L21.1237 21.2512L21.1042 21.2731L21.8516 21.9375ZM19.7422 25.6484L20.6707 26.0198L20.6863 25.9808L20.6985 25.9407L19.7422 25.6484ZM19.9375 26.1953L19.423 27.0528L19.4364 27.0609L19.4501 27.0685L19.9375 26.1953ZM21.6172 27.1328L22.6036 27.2972L22.7193 26.6027L22.1046 26.2596L21.6172 27.1328ZM21.6172 29.9062L22.1046 30.7794L22.7193 30.4363L22.6036 29.7419L21.6172 29.9062ZM19.9375 30.8438L19.4501 29.9706L19.4364 29.9782L19.423 29.9863L19.9375 30.8438ZM19.7422 31.3906L20.6985 31.0984L20.6863 31.0582L20.6707 31.0192L19.7422 31.3906ZM21.8516 35.1016L21.1042 35.7659L21.1237 35.7879L21.1445 35.8087L21.8516 35.1016ZM22.4375 35.1797L21.9501 34.3065L21.9364 34.3141L21.923 34.3222L22.4375 35.1797ZM24.1172 34.2422L24.7574 33.474L24.2297 33.0342L23.6298 33.369L24.1172 34.2422ZM26.5 35.6094H27.5V34.8984L26.8285 34.6649L26.5 35.6094ZM26.8516 37.9922L26.4802 38.9207L26.5581 38.9519L26.6402 38.9696L26.8516 37.9922ZM31.1094 37.9922L31.3055 38.9728L31.3665 38.9606L31.4256 38.9409L31.1094 37.9922ZM31.5 35.6094L31.1583 34.6696L30.5 34.9089V35.6094H31.5ZM33.8438 34.2422L34.3311 33.369L33.7313 33.0342L33.2036 33.474L33.8438 34.2422ZM35.5234 35.1797L36.0379 34.3222L36.0245 34.3141L36.0108 34.3065L35.5234 35.1797ZM36.1094 35.1016L36.8165 35.8087L36.8301 35.7951L36.8431 35.781L36.1094 35.1016ZM38.2578 31.3906L39.2065 31.7069L39.2262 31.6478L39.2384 31.5867L38.2578 31.3906ZM38.5108 29.9706L36.8311 29.0331L35.8564 30.7794L37.5361 31.7169L38.5108 29.9706ZM37.3227 30.1102C37.5461 29.0382 37.5461 28.0009 37.3227 26.9289L35.3648 27.3368C35.5321 28.1397 35.5321 28.8993 35.3648 29.7023L37.3227 30.1102ZM36.8311 28.006L38.5108 27.0685L37.5361 25.3221L35.8564 26.2596L36.8311 28.006ZM38.5379 27.0528C39.1364 26.6937 39.4152 25.947 39.1472 25.277L37.2903 26.0198C37.1785 25.7405 37.3011 25.4625 37.5089 25.3378L38.5379 27.0528ZM39.1751 25.3562C38.6994 23.7995 37.8805 22.4249 36.8568 21.2731L35.362 22.6019C36.2132 23.5595 36.8787 24.6849 37.2624 25.9407L39.1751 25.3562ZM36.8165 21.2304C36.3593 20.7732 35.6255 20.6319 35.0089 21.0019L36.0379 22.7169C35.812 22.8524 35.547 22.7893 35.4023 22.6446L36.8165 21.2304ZM35.0361 20.9862L33.3564 21.9237L34.3311 23.6701L36.0108 22.7326L35.0361 20.9862ZM34.4839 22.0287C33.7021 21.3771 32.8214 20.8461 31.8417 20.4899L31.1583 22.3695C31.8973 22.6382 32.5792 23.0448 33.2036 23.5651L34.4839 22.0287ZM32.5 21.4297V19.5156H30.5V21.4297H32.5ZM32.5 19.5156C32.5 18.8038 31.9625 18.2143 31.2738 18.0995L30.945 20.0723C30.725 20.0357 30.5 19.8369 30.5 19.5156H32.5ZM31.3457 18.1143C29.7318 17.7217 28.1282 17.7683 26.6287 18.1111L27.0744 20.0608C28.3093 19.7785 29.5963 19.747 30.873 20.0576L31.3457 18.1143ZM26.6872 18.0995C25.872 18.2354 25.5 18.9387 25.5 19.5156H27.5C27.5 19.6115 27.4722 19.7298 27.3879 19.8422C27.2942 19.9671 27.1557 20.049 27.016 20.0723L26.6872 18.0995ZM25.5 19.5156V21.4297H27.5V19.5156H25.5ZM26.1715 20.4852C25.1438 20.8426 24.2495 21.3804 23.4528 22.0885L24.7816 23.5833C25.3911 23.0415 26.0593 22.6417 26.8285 22.3742L26.1715 20.4852ZM24.6198 21.9714L22.9401 20.9949L21.9349 22.7239L23.6146 23.7004L24.6198 21.9714ZM22.952 21.0019C22.3354 20.6319 21.6017 20.7732 21.1445 21.2304L22.5587 22.6446C22.414 22.7893 22.149 22.8524 21.923 22.7169L22.952 21.0019ZM21.1042 21.2731C20.0804 22.4249 19.2615 23.7995 18.7858 25.3562L20.6985 25.9407C21.0822 24.6849 21.7477 23.5595 22.599 22.6019L21.1042 21.2731ZM18.8137 25.277C18.5457 25.947 18.8246 26.6937 19.423 27.0528L20.452 25.3378C20.6598 25.4625 20.7824 25.7405 20.6707 26.0198L18.8137 25.277ZM19.4501 27.0685L21.1298 28.006L22.1046 26.2596L20.4249 25.3221L19.4501 27.0685ZM20.6308 26.9684C20.4564 28.0148 20.4564 29.0243 20.6308 30.0706L22.6036 29.7419C22.4655 28.9132 22.4655 28.1259 22.6036 27.2972L20.6308 26.9684ZM21.1298 29.0331L19.4501 29.9706L20.4249 31.7169L22.1046 30.7794L21.1298 29.0331ZM19.423 29.9863C18.8246 30.3453 18.5457 31.092 18.8137 31.762L20.6707 31.0192C20.7824 31.2986 20.6598 31.5766 20.452 31.7012L19.423 29.9863ZM18.7858 31.6828C19.2615 33.2396 20.0804 34.6142 21.1042 35.7659L22.599 34.4372C21.7477 33.4795 21.0822 32.3541 20.6985 31.0984L18.7858 31.6828ZM21.1445 35.8087C21.6017 36.2659 22.3354 36.4071 22.952 36.0372L21.923 34.3222C22.149 34.1866 22.414 34.2497 22.5587 34.3945L21.1445 35.8087ZM22.9249 36.0529L24.6046 35.1154L23.6298 33.369L21.9501 34.3065L22.9249 36.0529ZM23.477 35.0104C24.2607 35.6635 25.1457 36.1971 26.1715 36.5539L26.8285 34.6649C26.0574 34.3967 25.3799 33.9927 24.7574 33.474L23.477 35.0104ZM25.5 35.6094V37.5234H27.5V35.6094H25.5ZM25.5 37.5234C25.5 38.2166 25.9951 38.7266 26.4802 38.9207L27.223 37.0637C27.3 37.0945 27.3558 37.1405 27.3969 37.1943C27.4365 37.2461 27.5 37.3564 27.5 37.5234H25.5ZM26.6402 38.9696C28.2385 39.3152 29.8239 39.2691 31.3055 38.9728L30.9133 37.0116C29.6605 37.2622 28.3553 37.2942 27.0629 37.0148L26.6402 38.9696ZM31.4256 38.9409C31.9635 38.7616 32.5 38.2502 32.5 37.5234H30.5C30.5 37.3523 30.5668 37.2314 30.6206 37.1661C30.6761 37.0987 30.7387 37.0617 30.7931 37.0435L31.4256 38.9409ZM32.5 37.5234V35.6094H30.5V37.5234H32.5ZM31.8417 36.5492C32.8214 36.1929 33.7021 35.662 34.4839 35.0104L33.2036 33.474C32.5792 33.9943 31.8973 34.4008 31.1583 34.6696L31.8417 36.5492ZM33.3564 35.1154L35.0361 36.0529L36.0108 34.3065L34.3311 33.369L33.3564 35.1154ZM35.0089 36.0372C35.6255 36.4071 36.3593 36.2659 36.8165 35.8087L35.4023 34.3945C35.547 34.2497 35.812 34.1866 36.0379 34.3222L35.0089 36.0372ZM36.8431 35.781C37.9278 34.6096 38.6984 33.2312 39.2065 31.7069L37.3091 31.0744C36.8797 32.3625 36.2441 33.4842 35.3756 34.4222L36.8431 35.781ZM39.2384 31.5867C39.3485 31.036 39.1447 30.3503 38.5379 29.9863L37.5089 31.7012C37.3998 31.6357 37.3333 31.5424 37.3 31.4593C37.2688 31.3812 37.2578 31.2917 37.2772 31.1945L39.2384 31.5867ZM29 30.625C27.7945 30.625 26.875 29.7055 26.875 28.5H24.875C24.875 30.8101 26.6899 32.625 29 32.625V30.625ZM26.875 28.5C26.875 27.3254 27.8026 26.375 29 26.375V24.375C26.6818 24.375 24.875 26.2371 24.875 28.5H26.875ZM29 26.375C30.1665 26.375 31.125 27.3335 31.125 28.5H33.125C33.125 26.229 31.271 24.375 29 24.375V26.375ZM31.125 28.5C31.125 29.6974 30.1746 30.625 29 30.625V32.625C31.2629 32.625 33.125 30.8182 33.125 28.5H31.125Z" fill="#404040"/>
<defs>
<filter id="filter0_dd_181_11366" x="0" y="0" width="58" height="58" filterUnits="userSpaceOnUse" color-interpolation-filters="sRGB">
<feFlood flood-opacity="0" result="BackgroundImageFix"/>
<feColorMatrix in="SourceAlpha" type="matrix" values="0 0 0 0 0 0 0 0 0 0 0 0 0 0 0 0 0 0 127 0" result="hardAlpha"/>
<feMorphology radius="1" operator="dilate" in="SourceAlpha" result="effect1_dropShadow_181_11366"/>
<feOffset dy="1"/>
<feGaussianBlur stdDeviation="1.5"/>
<feComposite in2="hardAlpha" operator="out"/>
<feColorMatrix type="matrix" values="0 0 0 0 0 0 0 0 0 0 0 0 0 0 0 0 0 0 0.15 0"/>
<feBlend mode="normal" in2="BackgroundImageFix" result="effect1_dropShadow_181_11366"/>
<feColorMatrix in="SourceAlpha" type="matrix" values="0 0 0 0 0 0 0 0 0 0 0 0 0 0 0 0 0 0 127 0" result="hardAlpha"/>
<feOffset dy="1"/>
<feGaussianBlur stdDeviation="1"/>
<feComposite in2="hardAlpha" operator="out"/>
<feColorMatrix type="matrix" values="0 0 0 0 0 0 0 0 0 0 0 0 0 0 0 0 0 0 0.3 0"/>
<feBlend mode="normal" in2="effect1_dropShadow_181_11366" result="effect2_dropShadow_181_11366"/>
<feBlend mode="normal" in="SourceGraphic" in2="effect2_dropShadow_181_11366" result="shape"/>
</filter>
</defs>
</svg>
