<svg width="58" height="58" viewBox="0 0 58 58" fill="none" xmlns="http://www.w3.org/2000/svg">
<g filter="url(#filter0_dd_978_27914)">
<rect x="4" y="3" width="50" height="50" rx="10" fill="#181818"/>
</g>
<path d="M37.0234 30.8438L36.512 31.703L36.563 31.7334L36.6173 31.7576L37.0234 30.8438ZM37.2578 31.3906L38.21 31.6961L38.2129 31.687L38.2156 31.678L37.2578 31.3906ZM35.1094 35.0625L34.3759 34.3827L34.3628 34.397L34.3501 34.4117L35.1094 35.0625ZM34.5625 35.1797L34.0599 36.0442L34.0871 36.06L34.1153 36.0741L34.5625 35.1797ZM32.8828 34.2031L33.3854 33.3386L32.7733 32.9827L32.2343 33.4419L32.8828 34.2031ZM30.5 35.5703L30.1672 34.6273L29.5 34.8628V35.5703H30.5ZM30.1484 37.9531L30.3616 38.9301L30.3654 38.9293L30.1484 37.9531ZM25.8906 37.9531L26.1076 36.9769L26.0972 36.9746L26.0867 36.9725L25.8906 37.9531ZM25.5 35.5703H26.5V34.8628L25.8328 34.6273L25.5 35.5703ZM23.1172 34.2031L23.7657 33.4419L23.2208 32.9777L22.6057 33.3438L23.1172 34.2031ZM21.4766 35.1797L21.8827 36.0935L21.937 36.0694L21.988 36.039L21.4766 35.1797ZM20.8906 35.0625L21.6499 34.4117L21.6372 34.397L21.6241 34.3827L20.8906 35.0625ZM18.7422 31.3906L19.6945 31.0852L19.6909 31.0744L18.7422 31.3906ZM18.9766 30.8438L19.4622 31.7179L19.4752 31.7107L19.488 31.703L18.9766 30.8438ZM20.6172 29.8672L21.1287 30.7265L21.722 30.3733L21.602 29.6934L20.6172 29.8672ZM20.6172 27.1328L21.602 27.3066L21.722 26.6267L21.1287 26.2735L20.6172 27.1328ZM18.9766 26.1562L19.488 25.297L19.437 25.2666L19.3827 25.2424L18.9766 26.1562ZM18.7422 25.6094L17.79 25.3039L17.7871 25.313L17.7844 25.322L18.7422 25.6094ZM20.8906 21.9375L21.6241 22.6173L21.6372 22.603L21.6499 22.5883L20.8906 21.9375ZM21.4766 21.8594L21.9727 20.9911L21.9622 20.9852L21.4766 21.8594ZM23.1172 22.7969L22.621 23.6651L23.2309 24.0136L23.7657 23.5581L23.1172 22.7969ZM25.5 21.4297L25.8328 22.3727L26.5 22.1372V21.4297H25.5ZM25.8516 19.0469L25.6384 18.0699L25.6346 18.0707L25.8516 19.0469ZM30.1484 19.0469L30.3654 18.0707L30.3616 18.0699L30.1484 19.0469ZM30.5 21.4297H29.5V22.1372L30.1672 22.3727L30.5 21.4297ZM32.8828 22.7969L32.2343 23.5581L32.7792 24.0223L33.3943 23.6562L32.8828 22.7969ZM34.5234 21.8203L34.1173 20.9065L34.063 20.9306L34.012 20.961L34.5234 21.8203ZM35.1094 21.9375L34.3501 22.5883L34.3628 22.603L34.3759 22.6173L35.1094 21.9375ZM37.2578 25.6094L38.2156 25.322L38.2129 25.313L38.21 25.3039L37.2578 25.6094ZM37.0234 26.1562L36.6173 25.2424L36.563 25.2666L36.512 25.297L37.0234 26.1562ZM35.3828 27.1328L34.8713 26.2735L34.2811 26.6248L34.3972 27.3018L35.3828 27.1328ZM35.3828 29.8672L34.3972 29.6982L34.2811 30.3752L34.8713 30.7265L35.3828 29.8672ZM25.7734 30.7266L25.0514 31.4185L25.0662 31.4338L25.0815 31.4486L25.7734 30.7266ZM30.1875 30.7266L29.4804 30.0195L30.1875 30.7266ZM30.1875 26.3125L29.4655 27.0044L29.4802 27.0198L29.4956 27.0345L30.1875 26.3125ZM36.6173 31.7576C36.5738 31.7382 36.4254 31.6549 36.3387 31.4525C36.2562 31.26 36.2966 31.1146 36.3 31.1033L38.2156 31.678C38.2972 31.4062 38.3376 31.0395 38.177 30.6647C38.0121 30.28 37.7074 30.0534 37.4296 29.9299L36.6173 31.7576ZM36.3056 31.0852C35.9078 32.3255 35.2665 33.4218 34.3759 34.3827L35.8428 35.7423C36.9314 34.5678 37.7224 33.2162 38.21 31.6961L36.3056 31.0852ZM34.3501 34.4117C34.3732 34.3848 34.4683 34.2888 34.6459 34.2507C34.8275 34.2118 34.9626 34.2617 35.0097 34.2853L34.1153 36.0741C34.3707 36.2018 34.7011 36.2843 35.065 36.2063C35.425 36.1292 35.6893 35.9225 35.8686 35.7133L34.3501 34.4117ZM35.0651 34.3152L33.3854 33.3386L32.3802 35.0676L34.0599 36.0442L35.0651 34.3152ZM32.2343 33.4419C31.626 33.9601 30.9391 34.3549 30.1672 34.6273L30.8328 36.5133C31.8317 36.1607 32.7334 35.6441 33.5313 34.9644L32.2343 33.4419ZM29.5 35.5703V37.4844H31.5V35.5703H29.5ZM29.5 37.4844C29.5 37.4698 29.5036 37.3415 29.6121 37.1969C29.7275 37.043 29.8711 36.9904 29.9315 36.9769L30.3654 38.9293C30.6601 38.8638 30.9795 38.707 31.2121 38.3969C31.4378 38.096 31.5 37.7593 31.5 37.4844H29.5ZM29.9353 36.9761C28.6421 37.2582 27.3696 37.2574 26.1076 36.9769L25.6737 38.9293C27.2241 39.2738 28.7902 39.273 30.3616 38.9301L29.9353 36.9761ZM26.0867 36.9725C26.1114 36.9775 26.2452 37.0119 26.3659 37.1567C26.4884 37.3037 26.5 37.4476 26.5 37.4844H24.5C24.5 37.7816 24.5767 38.1338 24.8294 38.4371C25.0803 38.7381 25.4094 38.8767 25.6945 38.9337L26.0867 36.9725ZM26.5 37.4844V35.5703H24.5V37.4844H26.5ZM25.8328 34.6273C25.0609 34.3549 24.374 33.9601 23.7657 33.4419L22.4687 34.9644C23.2666 35.6441 24.1683 36.1607 25.1672 36.5133L25.8328 34.6273ZM22.6057 33.3438L20.9651 34.3204L21.988 36.039L23.6287 35.0624L22.6057 33.3438ZM21.0704 34.2659C21.088 34.2581 21.1939 34.2166 21.3504 34.2479C21.5144 34.2807 21.6133 34.3691 21.6499 34.4117L20.1314 35.7133C20.3242 35.9382 20.5988 36.1372 20.9582 36.2091C21.31 36.2795 21.6308 36.2055 21.8827 36.0935L21.0704 34.2659ZM21.6241 34.3827C20.7335 33.4218 20.0922 32.3255 19.6944 31.0852L17.79 31.6961C18.2776 33.2162 19.0686 34.5678 20.1572 35.7423L21.6241 34.3827ZM19.6909 31.0744C19.7095 31.1302 19.7408 31.2866 19.6613 31.472C19.5869 31.6458 19.4711 31.713 19.4622 31.7179L18.4909 29.9696C18.2476 30.1048 17.9756 30.3282 17.823 30.6842C17.6654 31.052 17.6968 31.4166 17.7935 31.7069L19.6909 31.0744ZM19.488 31.703L21.1287 30.7265L20.1057 29.0079L18.4651 29.9845L19.488 31.703ZM21.602 29.6934C21.5344 29.3105 21.5 28.913 21.5 28.5H19.5C19.5 29.0245 19.5437 29.5385 19.6324 30.041L21.602 29.6934ZM21.5 28.5C21.5 28.087 21.5344 27.6895 21.602 27.3066L19.6324 26.959C19.5437 27.4615 19.5 27.9755 19.5 28.5H21.5ZM21.1287 26.2735L19.488 25.297L18.4651 27.0155L20.1057 27.9921L21.1287 26.2735ZM19.3827 25.2424C19.4262 25.2618 19.5746 25.3451 19.6613 25.5475C19.7438 25.74 19.7034 25.8854 19.7 25.8967L17.7844 25.322C17.7028 25.5938 17.6624 25.9605 17.823 26.3353C17.9879 26.72 18.2926 26.9466 18.5704 27.0701L19.3827 25.2424ZM19.6944 25.9148C20.0922 24.6745 20.7335 23.5782 21.6241 22.6173L20.1572 21.2577C19.0686 22.4322 18.2776 23.7838 17.79 25.3039L19.6944 25.9148ZM21.6499 22.5883C21.6046 22.6411 21.4831 22.7463 21.2865 22.7725C21.106 22.7965 20.9949 22.7358 20.9909 22.7335L21.9622 20.9852C21.7238 20.8528 21.3979 20.7399 21.0221 20.79C20.6301 20.8423 20.3329 21.0516 20.1314 21.2867L21.6499 22.5883ZM20.9804 22.7276L22.621 23.6651L23.6133 21.9286L21.9727 20.9911L20.9804 22.7276ZM23.7657 23.5581C24.374 23.0399 25.0609 22.6451 25.8328 22.3727L25.1672 20.4867C24.1683 20.8393 23.2666 21.3559 22.4687 22.0356L23.7657 23.5581ZM26.5 21.4297V19.5156H24.5V21.4297H26.5ZM26.5 19.5156C26.5 19.5302 26.4964 19.6585 26.3879 19.8031C26.2725 19.957 26.1289 20.0096 26.0685 20.0231L25.6346 18.0707C25.3399 18.1362 25.0205 18.293 24.7879 18.6031C24.5622 18.904 24.5 19.2407 24.5 19.5156H26.5ZM26.0647 20.0239C27.3566 19.742 28.6434 19.742 29.9353 20.0239L30.3616 18.0699C28.7889 17.7267 27.2111 17.7267 25.6384 18.0699L26.0647 20.0239ZM29.9315 20.0231C29.8711 20.0096 29.7275 19.957 29.6121 19.8031C29.5036 19.6585 29.5 19.5302 29.5 19.5156H31.5C31.5 19.2407 31.4378 18.904 31.2121 18.6031C30.9795 18.293 30.6601 18.1362 30.3654 18.0707L29.9315 20.0231ZM29.5 19.5156V21.4297H31.5V19.5156H29.5ZM30.1672 22.3727C30.9391 22.6451 31.626 23.0399 32.2343 23.5581L33.5313 22.0356C32.7334 21.3559 31.8317 20.8393 30.8328 20.4867L30.1672 22.3727ZM33.3943 23.6562L35.0349 22.6796L34.012 20.961L32.3713 21.9376L33.3943 23.6562ZM34.9296 22.7341C34.912 22.7419 34.8061 22.7834 34.6496 22.7521C34.4856 22.7193 34.3867 22.6309 34.3501 22.5883L35.8686 21.2867C35.6758 21.0618 35.4012 20.8628 35.0418 20.7909C34.69 20.7205 34.3692 20.7945 34.1173 20.9065L34.9296 22.7341ZM34.3759 22.6173C35.2665 23.5782 35.9078 24.6745 36.3056 25.9148L38.21 25.3039C37.7224 23.7838 36.9314 22.4322 35.8428 21.2577L34.3759 22.6173ZM36.3 25.8967C36.2966 25.8854 36.2562 25.74 36.3387 25.5475C36.4254 25.3451 36.5738 25.2618 36.6173 25.2424L37.4296 27.0701C37.7074 26.9466 38.0121 26.72 38.177 26.3353C38.3376 25.9605 38.2972 25.5938 38.2156 25.322L36.3 25.8967ZM36.512 25.297L34.8713 26.2735L35.8943 27.9921L37.5349 27.0155L36.512 25.297ZM34.3972 27.3018C34.5343 28.1014 34.5343 28.8986 34.3972 29.6982L36.3684 30.0362C36.5439 29.0129 36.5439 27.9871 36.3684 26.9638L34.3972 27.3018ZM34.8713 30.7265L36.512 31.703L37.5349 29.9845L35.8943 29.0079L34.8713 30.7265ZM25.0815 31.4486C25.8912 32.2245 26.8807 32.625 28 32.625V30.625C27.4006 30.625 26.9057 30.4266 26.4653 30.0046L25.0815 31.4486ZM28 32.625C29.1203 32.625 30.1051 32.2232 30.8946 31.4337L29.4804 30.0195C29.072 30.4278 28.5985 30.625 28 30.625V32.625ZM30.8946 31.4337C31.7012 30.6271 32.125 29.6329 32.125 28.5H30.125C30.125 29.0858 29.9238 29.576 29.4804 30.0195L30.8946 31.4337ZM32.125 28.5C32.125 27.3658 31.6996 26.3765 30.8794 25.5905L29.4956 27.0345C29.9254 27.4464 30.125 27.9155 30.125 28.5H32.125ZM30.9095 25.6206C30.1235 24.8004 29.1342 24.375 28 24.375V26.375C28.5845 26.375 29.0536 26.5746 29.4655 27.0044L30.9095 25.6206ZM28 24.375C26.8671 24.375 25.8729 24.7988 25.0663 25.6054L26.4805 27.0196C26.924 26.5762 27.4142 26.375 28 26.375V24.375ZM25.0663 25.6054C24.2768 26.3949 23.875 27.3797 23.875 28.5H25.875C25.875 27.9015 26.0722 27.428 26.4805 27.0196L25.0663 25.6054ZM23.875 28.5C23.875 29.6193 24.2755 30.6088 25.0514 31.4185L26.4954 30.0347C26.0734 29.5943 25.875 29.0994 25.875 28.5H23.875Z" fill="white"/>
<defs>
<filter id="filter0_dd_978_27914" x="0" y="0" width="58" height="58" filterUnits="userSpaceOnUse" color-interpolation-filters="sRGB">
<feFlood flood-opacity="0" result="BackgroundImageFix"/>
<feColorMatrix in="SourceAlpha" type="matrix" values="0 0 0 0 0 0 0 0 0 0 0 0 0 0 0 0 0 0 127 0" result="hardAlpha"/>
<feMorphology radius="1" operator="dilate" in="SourceAlpha" result="effect1_dropShadow_978_27914"/>
<feOffset dy="1"/>
<feGaussianBlur stdDeviation="1.5"/>
<feComposite in2="hardAlpha" operator="out"/>
<feColorMatrix type="matrix" values="0 0 0 0 0 0 0 0 0 0 0 0 0 0 0 0 0 0 0.15 0"/>
<feBlend mode="normal" in2="BackgroundImageFix" result="effect1_dropShadow_978_27914"/>
<feColorMatrix in="SourceAlpha" type="matrix" values="0 0 0 0 0 0 0 0 0 0 0 0 0 0 0 0 0 0 127 0" result="hardAlpha"/>
<feOffset dy="1"/>
<feGaussianBlur stdDeviation="1"/>
<feComposite in2="hardAlpha" operator="out"/>
<feColorMatrix type="matrix" values="0 0 0 0 0 0 0 0 0 0 0 0 0 0 0 0 0 0 0.3 0"/>
<feBlend mode="normal" in2="effect1_dropShadow_978_27914" result="effect2_dropShadow_978_27914"/>
<feBlend mode="normal" in="SourceGraphic" in2="effect2_dropShadow_978_27914" result="shape"/>
</filter>
</defs>
</svg>
