<svg width="58" height="58" viewBox="0 0 58 58" fill="none" xmlns="http://www.w3.org/2000/svg">
<g filter="url(#filter0_dd_1933_36753)">
<rect x="4" y="3" width="50" height="50" rx="10" fill="white"/>
</g>
<path d="M28.0312 16.0855C25.7334 16.5736 24.0991 18.8495 24.3788 21.1638C24.6475 23.3739 26.3202 25.052 28.5193 25.3262C29.8739 25.4907 31.3052 24.9972 32.2978 24.0265C33.2521 23.0942 33.7237 21.9645 33.7127 20.6264C33.7072 19.2773 33.2082 18.153 32.2046 17.2207C31.563 16.623 30.8445 16.2501 30 16.0746C29.49 15.9704 28.5357 15.9758 28.0312 16.0855ZM29.9945 16.9794C31.3381 17.3194 32.3911 18.3888 32.7475 19.7763C32.8737 20.2425 32.8682 21.109 32.7475 21.5861C32.4624 22.6664 31.7055 23.5987 30.7129 24.0813C30.1481 24.361 29.7093 24.4597 29.0403 24.4597C28.119 24.4597 27.3512 24.191 26.6547 23.6316C25.7444 22.8913 25.2453 21.8548 25.2398 20.6812C25.2343 19.2334 26.0021 17.9611 27.2963 17.2811C28.0696 16.8698 29.1225 16.7546 29.9945 16.9794Z" fill="#404040"/>
<path d="M20.3963 25.3868C20.2154 25.5404 20.1934 25.8036 20.347 25.9736C20.4018 26.0339 20.9283 26.3849 21.5151 26.7578C22.7051 27.5037 22.9519 27.6901 22.9519 27.8437C22.9519 27.9424 19.6341 32.8507 19.3653 33.1468C19.2831 33.24 19.2173 33.262 19.1185 33.24C19.0418 33.2181 18.5701 32.9 18.0711 32.5326C16.3984 31.2932 15.5868 30.7448 15.4223 30.7448C15.2139 30.7448 15 30.9641 15 31.189C15 31.4138 15.0494 31.4467 16.1242 32.2035C16.5794 32.5271 17.2814 33.0371 17.6872 33.3442C18.5208 33.9639 18.7018 34.0681 19.0308 34.1175C19.475 34.1888 19.9521 33.942 20.1989 33.5142C20.2647 33.41 20.2757 33.4155 20.4896 33.6513C20.6157 33.7884 20.7747 34.0078 20.8405 34.1449L20.9667 34.3972L20.7583 34.622C20.5389 34.8523 20.3744 35.2746 20.3744 35.5982C20.3744 36.3385 21.0325 37.0515 21.7948 37.1447L22.069 37.1776L22.1512 37.4573C22.25 37.7808 22.4584 38.088 22.7326 38.2854C22.9684 38.4609 23.451 38.6035 23.6978 38.576C23.8787 38.5541 23.8842 38.5596 23.972 38.8502C24.0323 39.0751 24.1255 39.2177 24.3394 39.437C24.6684 39.7606 25.0085 39.9032 25.4527 39.9032H25.7433L25.8585 40.1609C26.0888 40.6874 26.5659 41 27.1308 41C27.4818 41 27.6627 40.9452 27.9534 40.7477C28.1508 40.6106 28.1563 40.6106 28.4415 40.6929C28.798 40.8026 29.0557 40.8026 29.3902 40.7039C29.9057 40.5503 30.3335 40.1171 30.4706 39.618C30.498 39.5028 30.5364 39.4096 30.5529 39.4096C30.5693 39.4096 30.6571 39.459 30.7393 39.5193C31.3097 39.9251 32.1487 39.8703 32.6862 39.3986C32.9439 39.1738 33.2072 38.7241 33.2072 38.5102C33.2072 38.4389 33.2346 38.4225 33.3059 38.4499C33.3552 38.4718 33.5472 38.5267 33.7336 38.5706C34.0353 38.6473 34.1011 38.6418 34.4082 38.5651C35.0114 38.4115 35.4282 38.0221 35.5763 37.4683L35.6421 37.227L35.8615 37.3366C36.174 37.4957 36.7334 37.5286 37.0899 37.4134C37.737 37.1995 38.1703 36.5743 38.1648 35.8724C38.1593 35.4008 38.0277 35.0936 37.6767 34.7481L37.4354 34.5123L37.8741 34.2491C38.1977 34.0517 38.3403 33.9913 38.4061 34.0297C38.4554 34.0572 38.6035 34.0955 38.7296 34.1175C39.1574 34.1888 39.4535 34.0462 40.4791 33.2839C40.9891 32.8945 41.7294 32.3571 42.1188 32.0884C42.5082 31.8142 42.8811 31.54 42.9524 31.4741C43.1224 31.3096 43.1169 31.0519 42.9414 30.8819C42.6946 30.6296 42.5849 30.6735 41.3181 31.5838C40.671 32.0445 39.9142 32.5984 39.629 32.8123C39.0861 33.2236 38.8942 33.3113 38.768 33.2071C38.6199 33.0865 35.1266 27.9479 35.1266 27.8492C35.1266 27.7011 35.3514 27.5201 36.1686 27.0156C37.1228 26.4233 37.6602 26.0668 37.7535 25.9517C37.7973 25.8968 37.8302 25.7817 37.8302 25.6884C37.8302 25.491 37.6054 25.2607 37.408 25.2607C37.3422 25.2607 36.8541 25.5349 36.3276 25.8694C34.825 26.8236 34.6166 26.9772 34.4959 27.1637L34.3862 27.3391H29.0393H23.6923L23.5826 27.1637C23.5168 27.0595 23.2261 26.8291 22.8861 26.6043C21.4109 25.6391 20.7857 25.2607 20.6705 25.2607C20.5993 25.2607 20.4786 25.321 20.3963 25.3868ZM25.694 28.266C25.694 28.2879 25.6282 28.3482 25.5459 28.3976C25.3046 28.5402 24.9262 28.935 24.7068 29.2695C24.3723 29.7905 24.2955 30.1086 24.2955 31.0245C24.2955 31.8142 24.2955 31.8251 24.4491 32.0226C24.8549 32.5545 25.5623 32.5819 26.215 32.0829C26.3246 32.0006 26.544 31.7264 26.714 31.4741C27.054 30.9532 27.3282 30.7283 27.7724 30.6022C28.425 30.4102 28.9734 30.5967 29.5493 31.2164C30.1635 31.869 30.5254 32.039 31.4961 32.1213C31.9239 32.1542 32.22 32.209 32.4339 32.2968C32.8178 32.4503 37.0625 35.313 37.1886 35.4995C37.5012 35.9821 37.1502 36.6127 36.5689 36.6127C36.3057 36.6127 36.3824 36.6621 33.6678 34.7975C31.3974 33.24 31.3371 33.2071 31.0629 33.4265C30.8984 33.5581 30.8874 33.8817 31.0464 34.0297C31.1013 34.0901 31.88 34.633 32.7684 35.2417C33.6569 35.8504 34.452 36.4153 34.5343 36.4921C34.7208 36.6621 34.8195 36.9418 34.7701 37.1611C34.6824 37.5505 34.2491 37.8192 33.8817 37.715C33.7885 37.6876 32.9165 37.1228 31.9458 36.4537C30.8325 35.6914 30.1251 35.2417 30.0428 35.2417C29.8399 35.2417 29.6973 35.3404 29.6151 35.5324C29.478 35.8614 29.5493 35.9272 30.9367 36.854C32.0061 37.567 32.242 37.7479 32.3078 37.9015C32.412 38.1483 32.4065 38.236 32.2749 38.5102C32.1487 38.768 31.9074 38.916 31.6168 38.916C31.3864 38.916 31.3864 38.916 30.147 38.0276C29.5548 37.6054 29.0063 37.2324 28.9241 37.205C28.6773 37.1173 28.3866 37.3257 28.3812 37.5889C28.3812 37.8028 28.4744 37.9125 28.968 38.2854C29.5164 38.7022 29.6425 38.8612 29.6425 39.1519C29.6425 39.6509 29.1654 40.0293 28.7431 39.8703C28.6773 39.8429 28.6554 39.7551 28.6554 39.459C28.6554 38.8448 28.3263 38.3293 27.8108 38.1428C27.7011 38.1044 27.6189 38.055 27.6298 38.0386C27.9534 37.4737 27.9918 36.9144 27.756 36.4263C27.5805 36.0643 27.2569 35.7737 26.9114 35.6585C26.5934 35.5488 26.0778 35.5488 25.8201 35.653C25.5623 35.7627 25.5678 35.7627 25.4527 35.5708C25.1949 35.132 24.6301 34.803 24.142 34.803C24.0158 34.8085 23.78 34.8523 23.621 34.9072L23.3303 35.0059L23.2535 34.8578C23.1603 34.6769 22.7984 34.3478 22.5626 34.2272C22.4693 34.1778 22.2554 34.123 22.0964 34.1065L21.8003 34.0736L21.6028 33.7062C21.4986 33.5087 21.2683 33.1907 21.0928 33.0097L20.7693 32.6806L22.25 30.5199C23.0671 29.3299 23.7471 28.3263 23.7581 28.2879C23.78 28.2385 24.0268 28.2221 24.7397 28.2221C25.2662 28.2221 25.694 28.244 25.694 28.266ZM34.3369 28.3208C34.3643 28.3811 35.1321 29.5163 36.0479 30.8435C36.9638 32.1761 37.6986 33.2894 37.6822 33.3113C37.6657 33.3387 37.4189 33.5033 37.1338 33.6733L36.6128 33.9804L34.9237 32.8342C33.9969 32.209 33.1359 31.6387 33.0152 31.5783C32.6478 31.3974 32.22 31.2932 31.6716 31.2548C30.8874 31.2054 30.6406 31.0957 30.1251 30.5528C29.637 30.0428 29.3299 29.8563 28.787 29.7247C27.7066 29.4725 26.7195 29.8892 26.0504 30.8874C25.7104 31.3919 25.4252 31.6222 25.2333 31.5509C25.1456 31.518 25.1346 31.4467 25.1565 30.8928C25.1949 29.8015 25.4691 29.4176 26.7634 28.6882L27.586 28.2221H30.9367C34.1395 28.2221 34.2875 28.2276 34.3369 28.3208ZM22.2335 35.0443C22.7161 35.2966 22.6832 36.0205 22.1842 36.2288C21.6741 36.4427 21.0983 35.8559 21.3122 35.3459C21.4438 35.0169 21.8935 34.8743 22.2335 35.0443ZM24.4765 35.7901C24.6959 35.9272 24.8384 36.2343 24.7946 36.4756C24.7726 36.5743 24.6026 36.865 24.4052 37.1228C24.1365 37.4847 24.0049 37.6054 23.8513 37.6547C23.3303 37.8302 22.8148 37.3147 23.0013 36.8211C23.089 36.5798 23.6539 35.8559 23.8184 35.7682C24.0268 35.653 24.2626 35.664 24.4765 35.7901ZM26.7908 36.5963C26.9772 36.7663 27.0705 37.0515 27.0047 37.2818C26.9443 37.5121 25.9243 38.8557 25.7324 38.949C25.2443 39.2012 24.6465 38.7186 24.7836 38.1812C24.833 37.9892 25.8859 36.5908 26.034 36.514C26.2808 36.3989 26.6098 36.4372 26.7908 36.5963ZM27.6353 39.0586C27.745 39.1738 27.7779 39.2615 27.7779 39.4425C27.7779 39.6399 27.745 39.7112 27.5695 39.9032C27.3885 40.0896 27.3227 40.1225 27.1363 40.1225C26.8237 40.1225 26.6263 39.9196 26.6263 39.5961C26.6263 39.3986 26.6592 39.3274 26.8347 39.1354C27.0156 38.949 27.0814 38.916 27.2679 38.916C27.4324 38.916 27.5256 38.9544 27.6353 39.0586Z" fill="#404040"/>
<path fill-rule="evenodd" clip-rule="evenodd" d="M21.4999 26C21.6861 26.2039 21.2777 25.9447 21.0737 26.1309L15.7072 31.5321C15.5033 31.7183 15.3098 31.7362 15.1236 31.5323C14.9374 31.3284 14.829 30.9798 15.033 30.7936L20.3995 25.3924C20.6034 25.2062 21.3137 25.796 21.4999 26Z" fill="#404040"/>
<path fill-rule="evenodd" clip-rule="evenodd" d="M37 25.5C36.8138 25.7039 37.118 25.6582 37.3219 25.8444L42.4953 30.8956C42.6992 31.0818 42.9985 31.3955 42.9985 31.3955C43.1847 31.1915 43.2022 30.5814 42.9982 30.3952L37.9961 25.1059C37.7922 24.9197 37.1862 25.2961 37 25.5Z" fill="#404040"/>
<path d="M27.3664 19H31V19.0067C30.786 19.2992 30.6651 19.4555 30.6374 19.4756H29.6667C29.8001 19.614 29.8908 19.7825 29.9386 19.9812H30.9736C30.9862 19.9835 30.9924 19.9879 30.9924 19.9946C30.7608 20.3027 30.6424 20.4568 30.6374 20.4568H29.9651C29.95 20.6153 29.8643 20.8062 29.7082 21.0295C29.5017 21.255 29.3041 21.4012 29.1152 21.4682C28.7627 21.6178 28.4252 21.6926 28.1029 21.6926V21.6993C28.1029 21.7216 28.8319 22.4885 30.2899 24H29.3267C27.9065 22.5332 27.1964 21.7964 27.1964 21.7897V21.3443L27.204 21.3275C27.3299 21.3432 27.4772 21.351 27.6459 21.351C28.4416 21.351 28.9364 21.1221 29.1303 20.6644C29.1605 20.5975 29.1756 20.5282 29.1756 20.4568H27.0151C27.005 20.4568 27 20.4523 27 20.4434C27.2392 20.1353 27.3613 19.9812 27.3664 19.9812H29.0812V19.9745C28.983 19.7982 28.7929 19.6609 28.5109 19.5626C28.3094 19.5046 28.1281 19.4756 27.9669 19.4756H27.0076V19.4588C27.2392 19.1529 27.3588 19 27.3664 19Z" fill="#404040"/>
<defs>
<filter id="filter0_dd_1933_36753" x="0" y="0" width="58" height="58" filterUnits="userSpaceOnUse" color-interpolation-filters="sRGB">
<feFlood flood-opacity="0" result="BackgroundImageFix"/>
<feColorMatrix in="SourceAlpha" type="matrix" values="0 0 0 0 0 0 0 0 0 0 0 0 0 0 0 0 0 0 127 0" result="hardAlpha"/>
<feMorphology radius="1" operator="dilate" in="SourceAlpha" result="effect1_dropShadow_1933_36753"/>
<feOffset dy="1"/>
<feGaussianBlur stdDeviation="1.5"/>
<feComposite in2="hardAlpha" operator="out"/>
<feColorMatrix type="matrix" values="0 0 0 0 0 0 0 0 0 0 0 0 0 0 0 0 0 0 0.15 0"/>
<feBlend mode="normal" in2="BackgroundImageFix" result="effect1_dropShadow_1933_36753"/>
<feColorMatrix in="SourceAlpha" type="matrix" values="0 0 0 0 0 0 0 0 0 0 0 0 0 0 0 0 0 0 127 0" result="hardAlpha"/>
<feOffset dy="1"/>
<feGaussianBlur stdDeviation="1"/>
<feComposite in2="hardAlpha" operator="out"/>
<feColorMatrix type="matrix" values="0 0 0 0 0 0 0 0 0 0 0 0 0 0 0 0 0 0 0.3 0"/>
<feBlend mode="normal" in2="effect1_dropShadow_1933_36753" result="effect2_dropShadow_1933_36753"/>
<feBlend mode="normal" in="SourceGraphic" in2="effect2_dropShadow_1933_36753" result="shape"/>
</filter>
</defs>
</svg>
