<svg xmlns="http://www.w3.org/2000/svg" xmlns:xlink="http://www.w3.org/1999/xlink" width="100" height="93.75" viewBox="0 0 100 93.75">
  <defs>
    <linearGradient id="linear-gradient" x1="0.5" y1="1" x2="0.5" gradientUnits="objectBoundingBox">
      <stop offset="0" stop-color="#00c189"/>
      <stop offset="0.997" stop-color="#61ccad"/>
      <stop offset="1" stop-color="#ffa68d"/>
    </linearGradient>
    <linearGradient id="linear-gradient-2" x1="0.5" y1="1" x2="0.5" gradientUnits="objectBoundingBox">
      <stop offset="0" stop-color="#61ccad"/>
      <stop offset="0.997" stop-color="#61ccad"/>
      <stop offset="1" stop-color="#ffa68d"/>
    </linearGradient>
  </defs>
  <g id="add_nfts" transform="translate(-639 -3539.125)">
    <path id="Path_47" data-name="Path 47" d="M81.905,110.8a2.9,2.9,0,0,0,2.93-2.93v-3.691L70.186,72.719l-25.3,6.325a11.716,11.716,0,1,0-15.581,3.9l-5.995,1.5L3,122.582a8.635,8.635,0,0,0,8.2,5.8H64.327a2.9,2.9,0,0,0,2.93-2.93A14.654,14.654,0,0,1,81.905,110.8Zm9.979,10.526-5.648-5.625a5.786,5.786,0,0,0-8.452-.235l-5.8,5.805a5.859,5.859,0,0,0,4.063,10.036,5.859,5.859,0,1,0,11.719,0,5.519,5.519,0,0,0,4.063-1.682,5.758,5.758,0,0,0,.057-8.3Z" transform="translate(636.587 3486.914)" fill="#f2fcf9"/>
    <path id="Path_48" data-name="Path 48" d="M64.2,45.224l18.22,22.749V24.789A8.789,8.789,0,0,0,73.633,16H8.789A8.789,8.789,0,0,0,0,24.789V83.383a7.359,7.359,0,0,0,.586,2.988L24.47,56.95a2.929,2.929,0,0,1,4.577,0l8.313,10.391a2.93,2.93,0,0,0,4.575,0L59.627,45.225A2.93,2.93,0,0,1,64.2,45.224ZM32.617,45.3a8.789,8.789,0,1,1,8.789-8.789A8.777,8.777,0,0,1,32.617,45.3ZM79.492,68.734A20.508,20.508,0,1,0,100,89.242,20.53,20.53,0,0,0,79.492,68.734ZM87.4,91.293a2.831,2.831,0,0,1-4.1,0l-.879-.82V95.1a2.93,2.93,0,1,1-5.859,0V90.472l-.879.82a2.9,2.9,0,0,1-4.1-4.1l5.859-5.859a2.887,2.887,0,0,1,4.1,0L87.4,87.191A2.832,2.832,0,0,1,87.4,91.293Z" transform="translate(639 3523.125)" fill="url(#linear-gradient)"/>
    <path id="Path_49" data-name="Path 49" d="M64.2,45.224l18.22,22.749V24.789A8.789,8.789,0,0,0,73.633,16H8.789A8.789,8.789,0,0,0,0,24.789V83.383a7.359,7.359,0,0,0,.586,2.988L24.47,56.95a2.929,2.929,0,0,1,4.577,0l8.313,10.391a2.93,2.93,0,0,0,4.575,0L59.627,45.225A2.93,2.93,0,0,1,64.2,45.224ZM32.617,45.3a8.789,8.789,0,1,1,8.789-8.789A8.777,8.777,0,0,1,32.617,45.3ZM79.492,68.734A20.508,20.508,0,1,0,100,89.242,20.53,20.53,0,0,0,79.492,68.734ZM87.4,91.293a2.831,2.831,0,0,1-4.1,0l-.879-.82V95.1a2.93,2.93,0,1,1-5.859,0V90.472l-.879.82a2.9,2.9,0,0,1-4.1-4.1l5.859-5.859a2.887,2.887,0,0,1,4.1,0L87.4,87.191A2.832,2.832,0,0,1,87.4,91.293Z" transform="translate(639 3523.125)" fill="url(#linear-gradient-2)"/>
  </g>
</svg>
