<svg xmlns="http://www.w3.org/2000/svg" width="13.315" height="10.653" viewBox="0 0 13.315 10.653">
  <g id="copy" transform="translate(-4.001 -9.6)">
    <path id="Path_115479" data-name="Path 115479" d="M16.926,19.349h6.083a.714.714,0,0,0,.713-.713V10.313a.714.714,0,0,0-.713-.713H16.926a.714.714,0,0,0-.713.713v8.323a.714.714,0,0,0,.713.713Z" transform="translate(-9.308)" fill="#fff"/>
    <path id="Path_115480" data-name="Path 115480" d="M6.429,26.045V19.32l-1.9.509a.713.713,0,0,0-.5.873l1.724,6.43a.711.711,0,0,0,.331.435.729.729,0,0,0,.545.071l1.508-.4H7.618a1.189,1.189,0,0,1-1.189-1.189Z" transform="translate(0 -7.409)" fill="#fff"/>
    <path id="Path_115481" data-name="Path 115481" d="M46.251,19.819l-1.9-.509v6.727a1.189,1.189,0,0,1-1.189,1.189h-.509l1.5.4a.713.713,0,0,0,.875-.5l1.722-6.432A.713.713,0,0,0,46.251,19.819Z" transform="translate(-29.461 -7.401)" fill="#fff"/>
  </g>
</svg>
