<svg xmlns="http://www.w3.org/2000/svg" xmlns:xlink="http://www.w3.org/1999/xlink" width="100" height="100" viewBox="0 0 100 100">
  <defs>
    <linearGradient id="linear-gradient" x1="0.5" x2="0.5" y2="1" gradientUnits="objectBoundingBox">
      <stop offset="0" stop-color="#68c1f5"/>
      <stop offset="1" stop-color="#007ec7"/>
    </linearGradient>
    <linearGradient id="linear-gradient-2" x1="0.5" y1="0.053" x2="0.5" y2="1" gradientUnits="objectBoundingBox">
      <stop offset="0" stop-color="#68c1f5"/>
      <stop offset="1" stop-color="#008fe3"/>
    </linearGradient>
  </defs>
  <g id="crate" transform="translate(-185 -3607)">
    <path id="pen-tool" d="M73.09,52.117A55.427,55.427,0,0,0,65.18,76.28a1.668,1.668,0,0,1-1.66,1.532H36.479a1.666,1.666,0,0,1-1.659-1.528,55.428,55.428,0,0,0-7.91-24.167,1.669,1.669,0,0,1,.11-1.894c9.861-12.611,15.275-19.615,18.337-23.5a1.666,1.666,0,0,1,2.975,1.032v22.7A1.674,1.674,0,0,1,47.293,52a7.084,7.084,0,1,0,5.415,0,1.674,1.674,0,0,1-1.041-1.544V27.817a1.666,1.666,0,0,1,2.976-1.031C60.864,34.7,72.931,50.161,72.979,50.223A1.668,1.668,0,0,1,73.09,52.117ZM65.208,81.042H34.792a6.674,6.674,0,0,0-6.667,6.667v5.625A6.674,6.674,0,0,0,34.792,100H65.208a6.674,6.674,0,0,0,6.667-6.667V87.708A6.674,6.674,0,0,0,65.208,81.042ZM95,50.208h-.658A44.4,44.4,0,0,0,66.89,10.833H84.663a5,5,0,1,0,0-3.333h-25.5V5a5.007,5.007,0,0,0-5-5H45.833a5.007,5.007,0,0,0-5,5V7.5h-25.5a5,5,0,1,0,0,3.333H33.11A44.4,44.4,0,0,0,5.658,50.208H5a5.007,5.007,0,0,0-5,5v4.583a5.007,5.007,0,0,0,5,5H9.583a5.007,5.007,0,0,0,5-5V55.208a5.007,5.007,0,0,0-5-5H8.992A40.955,40.955,0,0,1,40.833,11.86v1.473a5.007,5.007,0,0,0,5,5h8.333a5.007,5.007,0,0,0,5-5V11.86A40.955,40.955,0,0,1,91.008,50.208h-.592a5.007,5.007,0,0,0-5,5v4.583a5.007,5.007,0,0,0,5,5H95a5.007,5.007,0,0,0,5-5V55.208A5.007,5.007,0,0,0,95,50.208Z" transform="translate(185 3607)" fill="url(#linear-gradient)"/>
    <path id="pen-tool-2" data-name="pen-tool" d="M73.09,52.117A55.427,55.427,0,0,0,65.18,76.28a1.668,1.668,0,0,1-1.66,1.532H36.479a1.666,1.666,0,0,1-1.659-1.528,55.428,55.428,0,0,0-7.91-24.167,1.669,1.669,0,0,1,.11-1.894c9.861-12.611,15.275-19.615,18.337-23.5a1.666,1.666,0,0,1,2.975,1.032v22.7A1.674,1.674,0,0,1,47.293,52a7.084,7.084,0,1,0,5.415,0,1.674,1.674,0,0,1-1.041-1.544V27.817a1.666,1.666,0,0,1,2.976-1.031C60.864,34.7,72.931,50.161,72.979,50.223A1.668,1.668,0,0,1,73.09,52.117Z" transform="translate(185 3607)" fill="url(#linear-gradient-2)"/>
    <path id="pen-tool-3" data-name="pen-tool" d="M65.208,81.042H34.792a6.674,6.674,0,0,0-6.667,6.667v5.625A6.674,6.674,0,0,0,34.792,100H65.208a6.674,6.674,0,0,0,6.667-6.667V87.708A6.674,6.674,0,0,0,65.208,81.042Z" transform="translate(185 3607)" fill="url(#linear-gradient-2)"/>
  </g>
</svg>
