<svg xmlns="http://www.w3.org/2000/svg" width="60" height="60" viewBox="0 0 60 60">
  <g id="create_account" transform="translate(-652 -177)">
    <rect id="Rectangle_530" data-name="Rectangle 530" width="60" height="60" rx="20" transform="translate(652 177)" fill="#f2f8ff"/>
    <rect id="Rectangle_529" data-name="Rectangle 529" width="47" height="47" rx="15" transform="translate(658 183)" fill="#daebfe"/>
    <g id="check_2_" data-name="check (2)" transform="translate(670.258 196)">
      <path id="Path_115486" data-name="Path 115486" d="M22,2.521A2.523,2.523,0,0,0,19.479,0H2.521A2.523,2.523,0,0,0,0,2.521V19.479A2.523,2.523,0,0,0,2.521,22H19.479A2.523,2.523,0,0,0,22,19.479Zm0,0" fill="#0f73ee"/>
      <path id="Path_115487" data-name="Path 115487" d="M151.8,165.6a.913.913,0,0,1,0,1.292l-5.939,5.939a.913.913,0,0,1-1.292,0l-2.969-2.969a.913.913,0,0,1,1.292-1.292l2.323,2.323L150.5,165.6A.912.912,0,0,1,151.8,165.6Zm0,0" transform="translate(-135.236 -158.211)" fill="#fafafa"/>
    </g>
  </g>
</svg>
