<svg id="edit_profile" xmlns="http://www.w3.org/2000/svg" width="25" height="25" viewBox="0 0 25 25">
  <rect id="Path" width="25" height="25" fill="rgba(255,255,255,0)"/>
  <path id="pen-Bold_1_" d="M800.591,1821.409a4.806,4.806,0,0,0-6.8,0l-11.06,11.06a3.13,3.13,0,0,0-.88,1.709l-.829,4.975a1.584,1.584,0,0,0,1.565,1.846,1.526,1.526,0,0,0,.26-.022l4.975-.83a3.129,3.129,0,0,0,1.709-.88l11.06-11.059a4.8,4.8,0,0,0,0-6.8Zm-12.544,16.38a1.042,1.042,0,0,1-.569.293l-4.265.711.711-4.265a1.042,1.042,0,0,1,.293-.569l8.3-8.3,3.83,3.83Zm11.06-11.061L797.833,1828l-3.83-3.83,1.274-1.274a2.709,2.709,0,1,1,3.831,3.831Z" transform="translate(-779 -1818)" fill="#323132"/>
</svg>
