<svg xmlns="http://www.w3.org/2000/svg" width="9.671" height="15.629" viewBox="0 0 9.671 15.629">
  <g id="ethereum" transform="translate(-86.254 0)">
    <path id="Path_40" data-name="Path 40" d="M115.609,296.046l-3.855,5.08a.276.276,0,0,1-.44,0l-3.855-5.08a.138.138,0,0,1,.175-.205l3.77,2.009a.276.276,0,0,0,.257,0l3.773-2.01A.138.138,0,0,1,115.609,296.046Z" transform="translate(-20.445 -285.607)" fill="#6e6f80"/>
    <path id="Path_41" data-name="Path 41" d="M230.331,296.046l-3.856,5.082a.123.123,0,0,1-.218-.079v-3.056a.124.124,0,0,1,.065-.109l3.835-2.043A.138.138,0,0,1,230.331,296.046Z" transform="translate(-135.167 -285.607)" fill="#585966"/>
    <path id="Path_42" data-name="Path 42" d="M106.619,6.652l-4.157,2.185a.276.276,0,0,1-.257,0L98.048,6.652a.277.277,0,0,1-.1-.4L102.1.123a.276.276,0,0,1,.457,0l4.157,6.129a.277.277,0,0,1-.1.4Z" transform="translate(-11.244 -0.002)" fill="#6e6f80"/>
    <path id="Path_43" data-name="Path 43" d="M230.541,7.233l-4.158,2.185a.088.088,0,0,1-.127-.08V.694a.088.088,0,0,1,.125-.081.273.273,0,0,1,.1.091l4.157,6.129A.277.277,0,0,1,230.541,7.233Z" transform="translate(-135.167 -0.583)" fill="#585966"/>
    <path id="Path_44" data-name="Path 44" d="M90.961,233.3,86.4,230.9a.276.276,0,0,1,.257-.489l4.43,2.328,4.43-2.328a.276.276,0,0,1,.257.489l-4.559,2.4A.276.276,0,0,1,90.961,233.3Z" transform="translate(0 -222.423)" fill="#6e6f80"/>
    <g id="Group_79" data-name="Group 79" transform="translate(86.986 0)">
      <path id="Path_45" data-name="Path 45" d="M123.445.025a.089.089,0,0,0-.116.085v4.6a.556.556,0,0,1-.206.431,3.882,3.882,0,0,1-2.991.786.552.552,0,0,1-.389-.859L123.1.121a.276.276,0,0,1,.345-.1Z" transform="translate(-119.225 0)" fill="#828396"/>
      <path id="Path_46" data-name="Path 46" d="M111.016,297.908a1.607,1.607,0,0,1-1.155,1.042.273.273,0,0,1-.277-.1l-2.125-2.8a.138.138,0,0,1,.175-.206l3.252,1.733A.275.275,0,0,1,111.016,297.908Z" transform="translate(-107.429 -285.607)" fill="#828396"/>
    </g>
  </g>
</svg>
