<svg xmlns="http://www.w3.org/2000/svg" width="60" height="60" viewBox="0 0 60 60">
  <g id="forget_password" transform="translate(-652 -177)">
    <rect id="Rectangle_530" data-name="Rectangle 530" width="60" height="60" rx="20" transform="translate(652 177)" fill="#f2f8ff"/>
    <rect id="Rectangle_529" data-name="Rectangle 529" width="47" height="47" rx="15" transform="translate(658 183)" fill="#daebfe"/>
    <g id="lock_1_" data-name="lock (1)" transform="translate(609 196)">
      <g id="Group_63366" data-name="Group 63366" transform="translate(64)">
        <path id="Path_115484" data-name="Path 115484" d="M79.988,8.223h-1.37V6.4a6.4,6.4,0,1,0-12.791,0V8.223h-1.37A.457.457,0,0,0,64,8.679V20.1a1.829,1.829,0,0,0,1.827,1.827H78.618A1.829,1.829,0,0,0,80.445,20.1V8.679A.457.457,0,0,0,79.988,8.223Zm-6.4,9.543a.457.457,0,0,1-.454.507H71.309a.457.457,0,0,1-.454-.507l.288-2.591A1.807,1.807,0,0,1,70.4,13.7a1.827,1.827,0,1,1,3.655,0,1.807,1.807,0,0,1-.748,1.47Zm2.287-9.543H68.568V6.4a3.655,3.655,0,0,1,7.309,0Z" transform="translate(-64)" fill="#0f73ee"/>
      </g>
    </g>
  </g>
</svg>
