<svg xmlns="http://www.w3.org/2000/svg" width="19.319" height="17.298" viewBox="0 0 19.319 17.298">
  <path id="heart_line" d="M16.866,1.595A4.926,4.926,0,0,0,13.2,0a4.609,4.609,0,0,0-2.878.994A5.889,5.889,0,0,0,9.16,2.209,5.886,5.886,0,0,0,8,.994,4.608,4.608,0,0,0,5.117,0,4.926,4.926,0,0,0,1.453,1.595,5.726,5.726,0,0,0,0,5.505,6.818,6.818,0,0,0,1.817,9.969a38.742,38.742,0,0,0,4.548,4.269c.63.537,1.345,1.146,2.086,1.794a1.075,1.075,0,0,0,1.416,0c.742-.649,1.456-1.258,2.087-1.8A38.724,38.724,0,0,0,16.5,9.968a6.818,6.818,0,0,0,1.817-4.463A5.726,5.726,0,0,0,16.866,1.595Zm0,0" transform="translate(0.5 0.5)" fill="none" stroke="#848384" stroke-width="1"/>
</svg>
