<svg xmlns="http://www.w3.org/2000/svg" width="22.995" height="20.691" viewBox="0 0 22.995 20.691">
  <path id="hide" d="M419.355,1757.03a16.951,16.951,0,0,0-3.125-3.794l2.274-2.274a1.15,1.15,0,1,0-1.626-1.626l-12.029,12.029h0l-6.363,6.363a1.15,1.15,0,1,0,1.626,1.626l2.491-2.491a11.106,11.106,0,0,0,5.893,1.681c5.828,0,9.3-4.309,10.86-6.882a4.507,4.507,0,0,0,0-4.632Zm-7.984,2.317a2.866,2.866,0,0,1-3.921,2.673l3.719-3.719a2.834,2.834,0,0,1,.2,1.046Zm6.016,1.129c-1.3,2.154-4.192,5.769-8.89,5.769a8.815,8.815,0,0,1-4.207-1.068l1.46-1.46a5.1,5.1,0,0,0,2.744.8,5.18,5.18,0,0,0,5.173-5.174,5.1,5.1,0,0,0-.8-2.744l1.738-1.738a14.49,14.49,0,0,1,2.781,3.348,2.232,2.232,0,0,1,0,2.263Zm-18.156,3.406a17.421,17.421,0,0,1-1.589-2.218,4.507,4.507,0,0,1,0-4.632c1.557-2.574,5.031-6.883,10.86-6.883a11.438,11.438,0,0,1,3.335.5,1.15,1.15,0,1,1-.661,2.2,9.184,9.184,0,0,0-2.679-.4c-4.7,0-7.588,3.615-8.888,5.769a2.237,2.237,0,0,0,0,2.265,15.036,15.036,0,0,0,1.38,1.916,1.15,1.15,0,1,1-1.755,1.483Zm8.458-9.638a1.15,1.15,0,0,1,.352,2.273,2.874,2.874,0,0,0-2.374,2.373,1.15,1.15,0,1,1-2.273-.351,5.119,5.119,0,0,1,4.3-4.3Z" transform="translate(-397.001 -1749)" fill="#848384"/>
</svg>
