<svg xmlns="http://www.w3.org/2000/svg" width="23.999" height="24" viewBox="0 0 23.999 24">
  <path id="insta" d="M2.025,21.974C-.248,19.7.013,16.663.013,12c0-4.56-.3-7.671,2.012-9.978A7.171,7.171,0,0,1,7.061.076c2.209-.1,7.679-.1,9.887,0,4.517.208,6.778,2.763,6.976,6.976.1,2.21.1,7.678,0,9.887-.164,3.569-1.841,5.556-4.064,6.419-1.635.633-3.231.63-7.855.63-.933,0-1.809.013-2.631.013C6.226,24,3.863,23.811,2.025,21.974Zm18.419-1.527c1.487-1.494,1.392-3.511,1.394-8.453,0-3.2-.014-3.582-.07-4.846-.251-5.544-4.433-4.986-9.761-4.986l-.045-.031c-3.207,0-3.582.015-4.856.06-5.545.284-4.978,4.263-4.978,9.788,0,4.082-.305,6.775,1.38,8.453,1.462,1.467,3.468,1.393,8.468,1.393C16.831,21.826,18.931,21.961,20.444,20.447ZM5.846,12A6.158,6.158,0,1,1,12,18.154,6.157,6.157,0,0,1,5.846,12Zm2.161,0a4,4,0,1,0,4-4A4,4,0,0,0,8.007,12Zm8.96-6.4a1.439,1.439,0,1,1,1.438,1.439A1.438,1.438,0,0,1,16.968,5.594Z" transform="translate(0)" fill="#848384"/>
</svg>
