<svg xmlns="http://www.w3.org/2000/svg" width="136.946" height="52.17" viewBox="0 0 136.946 52.17">
  <g id="logo" transform="translate(-61 -33)">
    <path id="Path_7677" data-name="Path 7677" d="M-15.333,5.838a11.969,11.969,0,0,1-4.61-.848,7.538,7.538,0,0,1-3.243-2.442,6.285,6.285,0,0,1-1.227-3.764h5.259a3.243,3.243,0,0,0,1.069,2.306,3.87,3.87,0,0,0,2.647.848,4.166,4.166,0,0,0,2.7-.8,2.557,2.557,0,0,0,.982-2.085,2.365,2.365,0,0,0-.666-1.729,4.681,4.681,0,0,0-1.665-1.068,28.227,28.227,0,0,0-2.752-.865,30.136,30.136,0,0,1-3.874-1.339,6.748,6.748,0,0,1-2.559-2,5.57,5.57,0,0,1-1.069-3.578,6.245,6.245,0,0,1,1.087-3.662,6.871,6.871,0,0,1,3.05-2.391,11.426,11.426,0,0,1,4.488-.831,9.967,9.967,0,0,1,6.153,1.78A6.533,6.533,0,0,1-6.954-11.66h-5.4a2.685,2.685,0,0,0-1.069-2.018,4.122,4.122,0,0,0-2.647-.8,3.485,3.485,0,0,0-2.3.712,2.533,2.533,0,0,0-.859,2.069,2.1,2.1,0,0,0,.649,1.577A4.965,4.965,0,0,0-16.964-9.1q.964.39,2.717.9a29.179,29.179,0,0,1,3.892,1.356A6.95,6.95,0,0,1-7.76-4.81,5.523,5.523,0,0,1-6.673-1.249,6.534,6.534,0,0,1-7.69,2.277a7.1,7.1,0,0,1-2.98,2.594A10.454,10.454,0,0,1-15.333,5.838ZM17.027-18.069,8.753-2.64V5.6H3.845V-2.64L-4.465-18.069h5.54L6.334-7.251l5.224-10.817ZM40.8,5.6H35.89L24.776-10.643V5.6H19.867V-18.1h4.908L35.89-1.826V-18.1H40.8Z" transform="translate(157.148 65.755)"/>
    <path id="icons8-jira" d="M29.084,2.594a12.76,12.76,0,0,0,0,18.373l7.974,7.712-4.9,4.739A16.879,16.879,0,0,1,37.27,46.846l9.286-8.981,7.991-7.729a2.012,2.012,0,0,0,0-2.916L38.582,11.78ZM20.9,10.511l-9.286,8.981-.267.263L3.626,27.217a2.019,2.019,0,0,0,0,2.92L26.838,52.587l2.246,2.176a12.76,12.76,0,0,0,0-18.373l-7.974-7.712,4.9-4.739A16.879,16.879,0,0,1,20.9,10.511Z" transform="translate(57.998 30.406)" fill="#0f73ee"/>
  </g>
</svg>
