<svg id="messages" xmlns="http://www.w3.org/2000/svg" width="25" height="25" viewBox="0 0 25 25">
  <rect id="Path" width="25" height="25" fill="rgba(255,255,255,0)"/>
  <path id="comment-dots-Bold_1_" d="M460.75,2037h-10.5a5.263,5.263,0,0,0-5.25,5.263v13.684a1.049,1.049,0,0,0,1.792.745l2.535-2.542a1.049,1.049,0,0,1,.743-.308h10.68a5.263,5.263,0,0,0,5.25-5.263v-6.316A5.263,5.263,0,0,0,460.75,2037Zm3.15,11.579a3.154,3.154,0,0,1-3.15,3.158H450.07a3.125,3.125,0,0,0-2.228.925l-.742.744v-11.143a3.154,3.154,0,0,1,3.15-3.158h10.5a3.154,3.154,0,0,1,3.15,3.158Zm-11.287-3.158a1.312,1.312,0,1,1-1.312-1.316,1.314,1.314,0,0,1,1.312,1.316Zm4.2,0a1.313,1.313,0,1,1-1.312-1.316A1.314,1.314,0,0,1,456.812,2045.421Zm4.2,0a1.313,1.313,0,1,1-1.312-1.316A1.314,1.314,0,0,1,461.012,2045.421Z" transform="translate(-443 -2034)" fill="#323132"/>
</svg>
