<svg id="my_profile" xmlns="http://www.w3.org/2000/svg" width="25" height="25" viewBox="0 0 25 25">
  <rect id="Path" width="25" height="25" fill="rgba(255,255,255,0)"/>
  <path id="user-Bold_1_" d="M695.5,1975.55a5.775,5.775,0,1,0-5.844-5.775,5.81,5.81,0,0,0,5.844,5.775Zm0-9.45a3.675,3.675,0,1,1-3.719,3.675,3.7,3.7,0,0,1,3.719-3.675Zm8.5,14.665v1.062a4.2,4.2,0,0,1-1.089,2.824,1.072,1.072,0,0,1-1.5.082,1.041,1.041,0,0,1-.083-1.483,2.117,2.117,0,0,0,.547-1.423v-1.062a3.167,3.167,0,0,0-2.394-3.089.823.823,0,0,0-.6.073,7.046,7.046,0,0,1-6.759.006.825.825,0,0,0-.6-.08,3.164,3.164,0,0,0-2.4,3.089v1.061a2.115,2.115,0,0,0,.547,1.423,1.041,1.041,0,0,1-.083,1.483,1.071,1.071,0,0,1-1.5-.082,4.2,4.2,0,0,1-1.089-2.823v-1.062a5.269,5.269,0,0,1,4-5.126,2.976,2.976,0,0,1,2.166.287,4.893,4.893,0,0,0,4.675-.006,2.966,2.966,0,0,1,2.158-.281,5.27,5.27,0,0,1,4,5.127Z" transform="translate(-683 -1962)" fill="#323132"/>
</svg>
