<svg xmlns="http://www.w3.org/2000/svg" xmlns:xlink="http://www.w3.org/1999/xlink" width="100" height="89.356" viewBox="0 0 100 89.356">
  <defs>
    <linearGradient id="linear-gradient" x1="0.446" y1="-0.018" x2="0.5" y2="1" gradientUnits="objectBoundingBox">
      <stop offset="0" stop-color="#623bff"/>
      <stop offset="1" stop-color="#b19efe"/>
    </linearGradient>
  </defs>
  <g id="sale" transform="translate(-185.38 -3575.576)">
    <path id="Union_5" data-name="Union 5" d="M50.806,2.148l-.623.623L90.793,43.382a6.368,6.368,0,0,1,1.87,4.51l0,34.132A7.331,7.331,0,0,0,100,74.69V44a7.323,7.323,0,0,0-2.152-5.185L61.175,2.148a7.331,7.331,0,0,0-10.369,0ZM32.851,6.174l-30.7,30.7a7.336,7.336,0,0,0,0,10.373L42.113,87.207A7.335,7.335,0,0,0,47.3,89.356H78a7.331,7.331,0,0,0,7.333-7.333v-30.7a7.353,7.353,0,0,0-2.149-5.192L43.22,6.174a7.331,7.331,0,0,0-10.369,0ZM59.668,69.19a5.5,5.5,0,1,1,5.5,5.5A5.5,5.5,0,0,1,59.668,69.19Z" transform="translate(285.38 3664.932) rotate(180)" fill="url(#linear-gradient)"/>
    <path id="Union_6" data-name="Union 6" d="M50.806,2.148l-.623.623L90.793,43.382a6.368,6.368,0,0,1,1.87,4.51l0,34.132A7.331,7.331,0,0,0,100,74.69V44a7.323,7.323,0,0,0-2.152-5.185L61.175,2.148a7.331,7.331,0,0,0-10.369,0ZM32.851,6.174l-30.7,30.7a7.336,7.336,0,0,0,0,10.373L42.113,87.207A7.335,7.335,0,0,0,47.3,89.356H78a7.331,7.331,0,0,0,7.333-7.333v-30.7a7.353,7.353,0,0,0-2.149-5.192L43.22,6.174a7.331,7.331,0,0,0-10.369,0ZM59.668,69.19a5.5,5.5,0,1,1,5.5,5.5A5.5,5.5,0,0,1,59.668,69.19Z" transform="translate(285.38 3664.932) rotate(180)" fill="#b19efe"/>
  </g>
</svg>
