<svg xmlns="http://www.w3.org/2000/svg" width="23.001" height="18.393" viewBox="0 0 23.001 18.393">
  <path id="show" d="M371.354,1756.883c-1.545-2.571-5.006-6.883-10.857-6.883s-9.312,4.312-10.857,6.883a4.483,4.483,0,0,0,0,4.627c1.544,2.571,5.007,6.883,10.857,6.883s9.312-4.312,10.857-6.883a4.484,4.484,0,0,0,0-4.627Zm-1.972,3.449c-1.3,2.15-4.166,5.763-8.886,5.763s-7.588-3.615-8.886-5.768a2.194,2.194,0,0,1,0-2.261c1.3-2.153,4.172-5.767,8.886-5.767s7.588,3.613,8.886,5.768a2.193,2.193,0,0,1,0,2.26Zm-8.886-6.308a5.173,5.173,0,1,0,5.173,5.173A5.173,5.173,0,0,0,360.5,1754.024Zm0,8.048a2.874,2.874,0,1,1,2.874-2.874A2.874,2.874,0,0,1,360.5,1762.071Z" transform="translate(-348.997 -1750)" fill="#848384"/>
</svg>
