<svg id="sign_out" xmlns="http://www.w3.org/2000/svg" width="25" height="25" viewBox="0 0 25 25">
  <rect id="Path" width="25" height="25" fill="rgba(255,255,255,0)"/>
  <path id="log-out-Bold_1_" d="M502.443,1839.95A1.053,1.053,0,0,0,503.5,1841h4.222a5.27,5.27,0,0,0,5.278-5.25v-10.5a5.27,5.27,0,0,0-5.278-5.25H503.5a1.05,1.05,0,1,0,0,2.1h4.222a3.159,3.159,0,0,1,3.167,3.15v10.5a3.158,3.158,0,0,1-3.167,3.15H503.5A1.053,1.053,0,0,0,502.443,1839.95Zm-8.362-9.049a1.046,1.046,0,0,1,.229-1.144l4.222-4.2a1.059,1.059,0,0,1,1.493,0,1.046,1.046,0,0,1,0,1.485l-2.421,2.407h8.005a1.05,1.05,0,1,1,0,2.1H497.6l2.42,2.408a1.046,1.046,0,0,1,0,1.485,1.059,1.059,0,0,1-1.493,0l-4.222-4.2a1.028,1.028,0,0,1-.228-.34Z" transform="translate(-490.998 -1818)" fill="#323132"/>
</svg>
