<svg xmlns="http://www.w3.org/2000/svg" width="12.834" height="12.304" viewBox="0 0 12.834 12.304">
  <path id="small_tick" d="M11.946,17.47a2.169,2.169,0,0,1-.442-.394,2.025,2.025,0,0,1,.125-.615,1.7,1.7,0,0,0-.021-1.5,1.705,1.705,0,0,0-1.434-.487,2.1,2.1,0,0,1-.612-.066,2.08,2.08,0,0,1-.249-.556c-.164-.466-.367-1.045-.913-1.223a1.658,1.658,0,0,0-1.423.442,2,2,0,0,1-.56.315,1.991,1.991,0,0,1-.56-.315,1.66,1.66,0,0,0-1.423-.442c-.545.177-.749.757-.913,1.222a2.121,2.121,0,0,1-.246.555,2.054,2.054,0,0,1-.615.068,1.705,1.705,0,0,0-1.434.487A1.7,1.7,0,0,0,1.2,16.46a2.083,2.083,0,0,1,.127.611,2.093,2.093,0,0,1-.443.4c-.4.3-.887.677-.887,1.258s.492.956.887,1.258a2.168,2.168,0,0,1,.442.394A2.026,2.026,0,0,1,1.2,21a1.7,1.7,0,0,0,.021,1.5,1.705,1.705,0,0,0,1.434.487,2.1,2.1,0,0,1,.612.066,2.081,2.081,0,0,1,.249.556c.164.466.367,1.045.913,1.223a.961.961,0,0,0,.3.048,2.117,2.117,0,0,0,1.124-.49,1.994,1.994,0,0,1,.56-.315,1.992,1.992,0,0,1,.56.315,1.661,1.661,0,0,0,1.423.442c.545-.177.749-.757.913-1.222a2.121,2.121,0,0,1,.246-.555,2.054,2.054,0,0,1,.615-.068,1.705,1.705,0,0,0,1.434-.487,1.7,1.7,0,0,0,.021-1.505,2.083,2.083,0,0,1-.127-.611,2.094,2.094,0,0,1,.443-.4c.4-.3.887-.677.887-1.258S12.342,17.771,11.946,17.47Zm-3.146.3L6.127,20.442a.535.535,0,0,1-.756,0h0L4.034,19.106a.535.535,0,0,1,.747-.766l.01.01.959.959,2.3-2.3a.535.535,0,1,1,.766.747Z" transform="translate(0 -12.575)" fill="#0f73ee"/>
</svg>
