<svg xmlns="http://www.w3.org/2000/svg" width="22" height="24" viewBox="0 0 22 24">
  <path id="social" d="M19.28,21.727l-1.493-1.338-1.629-1.4.681,2.2H2.58A2.5,2.5,0,0,1,0,18.72V2.48A2.553,2.553,0,0,1,2.585,0L19.352,0A2.653,2.653,0,0,1,22,2.475V24ZM5.5,6.952a15.475,15.475,0,0,0-1.833,7.02,4.447,4.447,0,0,0,3.8,1.806s.407-.533.817-1a4.015,4.015,0,0,1-2.173-1.4l.523.266a9.728,9.728,0,0,0,6.033.936,9.46,9.46,0,0,0,1.828-.535,14.719,14.719,0,0,0,1.419-.737,4.04,4.04,0,0,1-2.24,1.4c.337.466.808,1,.808,1a5.33,5.33,0,0,0,3.931-1.726,15.436,15.436,0,0,0-1.844-7.02A6.172,6.172,0,0,0,13.089,5.7l-.185.184A8.218,8.218,0,0,1,16.027,7.42a11.42,11.42,0,0,0-9.374-.4c-.475.2-.747.336-.747.336a7.284,7.284,0,0,1,3.26-1.537l-.137-.135H8.991A6.262,6.262,0,0,0,5.5,6.952ZM13.1,5.7l.033-.013h-.022Zm-1.077,5.742A1.319,1.319,0,0,1,13.308,10.1v0a1.338,1.338,0,1,1-1.291,1.341Zm-4.618,0A1.316,1.316,0,0,1,8.69,10.1l0,0A1.338,1.338,0,1,1,7.4,11.437Z" fill="#848384"/>
</svg>
