<svg xmlns="http://www.w3.org/2000/svg" width="23.011" height="22.062" viewBox="0 0 23.011 22.062">
  <g id="tick" transform="translate(-138 -1650)">
    <path id="Path_28" data-name="Path 28" d="M21.42,21.351a3.888,3.888,0,0,1-.793-.707,3.632,3.632,0,0,1,.225-1.1,3.04,3.04,0,0,0-.038-2.7,3.057,3.057,0,0,0-2.571-.873,3.768,3.768,0,0,1-1.1-.118,3.73,3.73,0,0,1-.446-1c-.293-.835-.658-1.874-1.637-2.192a2.974,2.974,0,0,0-2.552.793,3.577,3.577,0,0,1-1,.564,3.57,3.57,0,0,1-1-.564,2.977,2.977,0,0,0-2.552-.793c-.978.318-1.343,1.357-1.637,2.192a3.8,3.8,0,0,1-.441.994,3.683,3.683,0,0,1-1.1.121,3.057,3.057,0,0,0-2.571.873,3.041,3.041,0,0,0-.038,2.7,3.735,3.735,0,0,1,.227,1.1,3.753,3.753,0,0,1-.8.714C.882,21.891,0,22.565,0,23.606s.882,1.715,1.591,2.256a3.888,3.888,0,0,1,.793.707,3.632,3.632,0,0,1-.225,1.1,3.04,3.04,0,0,0,.038,2.7,3.058,3.058,0,0,0,2.571.873,3.768,3.768,0,0,1,1.1.118,3.731,3.731,0,0,1,.446,1c.294.835.659,1.874,1.637,2.192a1.723,1.723,0,0,0,.537.086,3.8,3.8,0,0,0,2.015-.879,3.576,3.576,0,0,1,1-.564,3.572,3.572,0,0,1,1,.564,2.978,2.978,0,0,0,2.552.793c.978-.318,1.343-1.357,1.637-2.192a3.8,3.8,0,0,1,.441-.994,3.683,3.683,0,0,1,1.1-.121,3.057,3.057,0,0,0,2.571-.873,3.041,3.041,0,0,0,.038-2.7,3.735,3.735,0,0,1-.227-1.1,3.754,3.754,0,0,1,.8-.714c.709-.541,1.591-1.214,1.591-2.256S22.129,21.891,21.42,21.351Zm-5.641.537-4.794,4.794a.959.959,0,0,1-1.356,0h0l-2.4-2.4a.959.959,0,0,1,1.339-1.373l.017.017,1.719,1.719,4.116-4.116A.959.959,0,0,1,15.8,21.87Z" transform="translate(138 1637.424)" fill="#0f73ee"/>
    <path id="Path_29" data-name="Path 29" d="M16.94,23.169l-4.794,4.794a.959.959,0,0,1-1.356,0h0l-2.4-2.4a.959.959,0,0,1,1.339-1.373l.017.017,1.719,1.719,4.116-4.116a.959.959,0,0,1,1.373,1.339Z" transform="translate(136.839 1636.142)" fill="#fff"/>
  </g>
</svg>
