<svg width="16" height="21" viewBox="0 0 16 21" fill="none" xmlns="http://www.w3.org/2000/svg">
<path d="M0.00804345 6.44632L0.0201086 12.5652L0.128695 12.9739C0.32576 13.7206 0.635432 14.3003 1.21858 15.0344C2.58597 16.7445 4.13433 18.121 5.99237 19.2722C6.54737 19.6142 7.91073 20.3191 8.00323 20.3149C8.12388 20.3024 9.25801 19.7602 9.83311 19.4348C11.2367 18.6465 12.3025 17.8373 13.3883 16.7362C14.631 15.4766 15.4756 14.2795 15.7611 13.3785C15.9904 12.6486 15.9783 12.999 15.9944 6.45884C16.0024 3.14705 16.0024 0.410873 15.9904 0.381678C15.9783 0.344137 15.7973 0.406702 15.3549 0.59857C13.2435 1.52036 12.0611 1.73726 10.7099 1.45363C9.95377 1.29096 8.98453 0.907225 8.3129 0.502636L8.00323 0.314941L7.72975 0.485952C7.02193 0.92808 6.01248 1.34518 5.22824 1.51619C4.71346 1.62881 3.78042 1.62047 3.17716 1.49534C2.60608 1.37855 1.73336 1.08241 0.965214 0.744555C0.643476 0.602741 0.297608 0.448414 0.189021 0.406702L0 0.323282L0.00804345 6.44632ZM8.25258 2.22526C8.89203 2.56311 10.0503 2.93851 10.7943 3.05529C11.8239 3.21379 13.2234 3.06781 14.257 2.70076L14.4782 2.62151V7.41817C14.4782 12.6444 14.4822 12.5277 14.249 13.1074C14.0157 13.6914 13.2315 14.7133 12.3226 15.6309C11.2045 16.7529 10.0583 17.5913 8.63062 18.3212L8.03138 18.6298L7.66541 18.438C6.88921 18.0334 5.94813 17.4286 5.21215 16.853C3.82868 15.7727 2.23206 14.0459 1.82586 13.1908C1.48402 12.4693 1.51217 12.9197 1.49608 7.48073C1.48804 2.8676 1.48804 2.65071 1.55641 2.67156C2.73879 3.03027 3.21336 3.12203 4.08205 3.14705C4.61292 3.16374 4.86629 3.1554 5.20411 3.097C6.0165 2.9677 7.02193 2.63402 7.71367 2.2628C7.86247 2.18355 7.99921 2.12099 8.0153 2.11682C8.03138 2.11682 8.13997 2.16687 8.25258 2.22526Z" fill="white"/>
<path d="M9.39111 8.70723L7.17916 11.0013L5.95254 9.72912L4.72591 8.45696L4.19102 9.01171L3.66016 9.56228L5.42167 11.3892L7.17916 13.2119L9.926 10.3631L12.6688 7.51849L12.1339 6.96374L11.6031 6.41317L9.39111 8.70723Z" fill="white"/>
</svg>
