<svg width="15" height="15" viewBox="0 0 15 15" fill="none" xmlns="http://www.w3.org/2000/svg">
<path d="M12.5312 1.10547L12.6406 3.375C11.4102 1.89844 9.55078 0.96875 7.5 0.96875C7.47266 0.96875 7.47266 0.96875 7.47266 0.96875C4.16406 0.96875 1.40234 3.34766 0.828125 6.49219C0.828125 6.51953 0.828125 6.54688 0.828125 6.57422C0.828125 6.73828 0.964844 6.875 1.15625 6.875H2.49609C2.63281 6.875 2.76953 6.79297 2.79688 6.62891C3.31641 4.52344 5.20312 2.96484 7.47266 2.96484C9.14062 2.96484 10.6172 3.78516 11.4648 5.07031L8.70312 4.93359H8.67578C8.51172 4.93359 8.34766 5.09766 8.34766 5.26172V6.57422C8.34766 6.73828 8.51172 6.90234 8.67578 6.90234H14.1719C14.3359 6.90234 14.5 6.73828 14.5 6.57422V1.07812C14.5 0.914062 14.3359 0.75 14.1719 0.75H12.8594C12.6953 0.777344 12.5312 0.914062 12.5312 1.07812C12.5312 1.10547 12.5312 1.10547 12.5312 1.10547ZM7.47266 12.5625C5.80469 12.5625 4.35547 11.7422 3.48047 10.457L6.26953 10.5938H6.29688C6.46094 10.5938 6.625 10.4297 6.625 10.2656V8.95312C6.625 8.78906 6.46094 8.625 6.29688 8.625H0.828125C0.636719 8.625 0.5 8.78906 0.5 8.95312V14.4219C0.5 14.6133 0.636719 14.75 0.828125 14.75H2.11328C2.27734 14.75 2.44141 14.6133 2.44141 14.4219L2.33203 12.1523C3.5625 13.6289 5.42188 14.5586 7.47266 14.5586V14.5312C10.7812 14.5312 13.543 12.1797 14.1445 9.03516C14.1445 9.00781 14.1445 8.98047 14.1445 8.95312C14.1445 8.78906 14.0078 8.625 13.8164 8.625H12.4766C12.3125 8.65234 12.2031 8.73438 12.1484 8.89844C11.6562 11.0039 9.74219 12.5625 7.47266 12.5625Z" fill="#97144D"/>
</svg>
