<svg width="15" height="15" viewBox="0 0 15 15" fill="none" xmlns="http://www.w3.org/2000/svg">
<path d="M6.29688 6.90234C6.46094 6.90234 6.625 6.73828 6.625 6.57422V5.26172C6.625 5.07031 6.46094 4.93359 6.29688 4.93359H3.61719C4.49219 3.73047 5.88672 2.9375 7.5 2.9375C10.1523 2.9375 12.3125 5.09766 12.3125 7.75C12.3125 10.4297 10.1523 12.5625 7.5 12.5625C6.26953 12.5625 5.14844 12.125 4.30078 11.3594C4.16406 11.25 3.97266 11.25 3.86328 11.3867L2.93359 12.3164C2.79688 12.4531 2.79688 12.6719 2.93359 12.7812C4.13672 13.875 5.75 14.5312 7.5 14.5312C11.2461 14.5312 14.2812 11.5234 14.2812 7.77734C14.2812 4.03125 11.3008 1.02344 7.55469 0.996094C5.53125 0.96875 3.69922 1.84375 2.46875 3.23828V1.07812C2.46875 0.914062 2.30469 0.75 2.14062 0.75H0.828125C0.636719 0.75 0.5 0.914062 0.5 1.07812V6.57422C0.5 6.73828 0.636719 6.90234 0.828125 6.90234H6.29688Z" fill="#97144D"/>
</svg>
