<svg width="13" height="13" viewBox="0 0 13 13" fill="none" xmlns="http://www.w3.org/2000/svg">
<path d="M12.2422 3.30469C12.4974 3.5599 12.625 3.86979 12.625 4.23438V11.5625C12.625 11.9271 12.4974 12.237 12.2422 12.4922C11.987 12.7474 11.6771 12.875 11.3125 12.875H1.6875C1.32292 12.875 1.01302 12.7474 0.757812 12.4922C0.502604 12.237 0.375 11.9271 0.375 11.5625V1.9375C0.375 1.57292 0.502604 1.26302 0.757812 1.00781C1.01302 0.752604 1.32292 0.625 1.6875 0.625H9.01562C9.38021 0.625 9.6901 0.752604 9.94531 1.00781L12.2422 3.30469ZM5.24219 10.6328C5.58854 10.9609 6.00781 11.125 6.5 11.125C6.99219 11.125 7.40234 10.9609 7.73047 10.6328C8.07682 10.2865 8.25 9.86719 8.25 9.375C8.25 8.88281 8.07682 8.47266 7.73047 8.14453C7.40234 7.79818 6.99219 7.625 6.5 7.625C6.00781 7.625 5.58854 7.79818 5.24219 8.14453C4.91406 8.47266 4.75 8.88281 4.75 9.375C4.75 9.86719 4.91406 10.2865 5.24219 10.6328ZM9.125 2.78516C9.125 2.71224 9.08854 2.63932 9.01562 2.56641L8.93359 2.48438C8.86068 2.41146 8.78776 2.375 8.71484 2.375H2.45312C2.23438 2.375 2.125 2.48438 2.125 2.70312V5.54688C2.125 5.76562 2.23438 5.875 2.45312 5.875H8.79688C9.01562 5.875 9.125 5.76562 9.125 5.54688V2.78516Z" fill="#97144D"/>
</svg>
