<svg width="22" height="22" viewBox="0 0 22 22" fill="none" xmlns="http://www.w3.org/2000/svg">
<path fill-rule="evenodd" clip-rule="evenodd" d="M9.73732 0.0965291C8.82082 0.513898 8.5049 1.71143 9.11843 2.44261L9.26757 2.62038L5.97789 5.91916L2.6882 9.21802L2.43467 9.03711C1.21722 8.1687 -0.537075 9.6212 0.157688 10.9224C0.340109 11.2641 5.67082 16.5803 5.94572 16.6947C7.24538 17.2355 8.55047 15.6951 7.82131 14.4809L7.61543 14.1381L8.00879 13.7406C8.43543 13.3095 8.48271 13.2877 8.632 13.4532C9.02789 13.8918 10.2219 14.0371 10.8193 13.7193C10.9621 13.6434 11.0383 13.7157 15.0076 17.6897C19.486 22.1736 19.2808 21.9979 20.0393 21.9994C21.3974 22.0021 22.3959 20.5178 21.8461 19.3134C21.7081 19.0111 21.2319 18.5112 17.6875 14.9473L13.6846 10.9224L13.7992 10.6016C14.0292 9.95771 13.8576 8.98403 13.4338 8.52828C13.3237 8.40986 13.326 8.40591 13.7565 7.97711L14.1902 7.54519L14.3226 7.66659C15.2201 8.48983 16.8083 7.71893 16.8083 6.4601C16.8083 5.88683 16.7077 5.75125 15.0189 4.04966C13.1661 2.18278 13.126 2.15478 12.7926 2.48912C12.4599 2.82272 12.4605 2.82354 14.2183 4.59217C16.0725 6.45749 16.1503 6.5927 15.5885 6.97289C15.2113 7.22816 15.2692 7.27505 12.3754 4.37266C9.3899 1.37828 9.50263 1.52731 9.91185 1.11696C10.2324 0.795529 10.4342 0.831517 10.9272 1.29779C11.3919 1.73748 11.5461 1.77377 11.8127 1.50647C12.4704 0.846897 10.7123 -0.34742 9.73732 0.0965291ZM11.7502 5.08943L13.5238 6.86866L10.2229 10.1787L6.92201 13.4888L5.13339 11.6952L3.34484 9.90171L6.63103 6.60592C8.43848 4.79331 9.93069 3.3102 9.94692 3.3102C9.96323 3.3102 10.7747 4.11089 11.7502 5.08943ZM12.8906 9.4768C13.1582 10.0966 12.9971 10.3849 11.6243 11.7454C10.3428 13.0153 10.2184 13.0882 9.63591 12.9116C8.9853 12.7144 8.91047 12.8373 10.8893 10.8519C12.8191 8.91563 12.6874 9.0062 12.8906 9.4768ZM1.79136 9.75149C2.09515 9.91247 7.09587 14.9987 7.10316 15.1541C7.11679 15.4459 7.08634 15.5343 6.91799 15.691C6.5081 16.0724 6.62157 16.1589 3.70552 13.241C2.27079 11.8054 1.06086 10.5626 1.01678 10.4792C0.788344 10.0474 1.35139 9.51839 1.79136 9.75149ZM16.994 15.6618C19.1581 17.8353 20.9577 19.6711 20.9931 19.7411C21.2345 20.2203 20.8882 20.8933 20.3261 21.037C19.8027 21.1708 19.9863 21.3297 15.6621 16.9994L11.6922 13.0238L12.3455 12.3668C12.7048 12.0055 13.0124 11.7098 13.029 11.7098C13.0456 11.7098 14.8298 13.4882 16.994 15.6618Z" fill="white"/>
</svg>
